<svg width="437" height="175" viewBox="0 0 437 175" fill="none" xmlns="http://www.w3.org/2000/svg">
<rect width="437" height="175" rx="10" fill="#1A1A1A"/>
<path d="M33.6 35.5538C33.8769 35.5538 34.1231 35.6154 34.3385 35.7385C34.5538 35.8564 34.7231 36.0205 34.8462 36.2308C34.9692 36.4359 35.0308 36.6667 35.0308 36.9231C35.0308 37.1795 34.9692 37.4128 34.8462 37.6231C34.7231 37.8333 34.5513 38 34.3308 38.1231C34.1154 38.241 33.8718 38.3 33.6 38.3C33.3231 38.3 33.0744 38.241 32.8538 38.1231C32.6333 38 32.4615 37.8333 32.3385 37.6231C32.2154 37.4128 32.1538 37.1795 32.1538 36.9231C32.1538 36.6667 32.2154 36.4359 32.3385 36.2308C32.4615 36.0205 32.6333 35.8564 32.8538 35.7385C33.0744 35.6154 33.3231 35.5538 33.6 35.5538ZM30.4 39.8308H35.0692V46.3385H37.1462V48H30.3231V46.3385H32.6385V41.4923H30.4V39.8308ZM45.3439 39.5615C45.9285 39.5615 46.3593 39.7513 46.6362 40.1308C46.9131 40.5103 47.0516 41.1179 47.0516 41.9538V48H44.967V42.2308C44.967 41.9385 44.9388 41.7359 44.8824 41.6231C44.826 41.5051 44.7183 41.4462 44.5593 41.4462C44.4208 41.4462 44.2824 41.4872 44.1439 41.5692C44.0106 41.6462 43.867 41.7821 43.7131 41.9769V48H42.0054V42.2308C42.0054 41.9385 41.9772 41.7359 41.9208 41.6231C41.8644 41.5051 41.7567 41.4462 41.5977 41.4462C41.4593 41.4462 41.3208 41.4872 41.1824 41.5692C41.049 41.6462 40.9054 41.7821 40.7516 41.9769V48H38.6362V39.8308H40.4208L40.5824 40.6231C40.849 40.259 41.1131 39.9923 41.3747 39.8231C41.6362 39.6487 41.9413 39.5615 42.2901 39.5615C42.608 39.5615 42.8721 39.641 43.0824 39.8C43.2977 39.959 43.4516 40.2026 43.5439 40.5308C44.1029 39.8846 44.7029 39.5615 45.3439 39.5615ZM53.057 39.5615C54.0878 39.5615 54.8416 39.9385 55.3186 40.6923C55.8006 41.441 56.0416 42.5077 56.0416 43.8923C56.0416 44.7385 55.916 45.4923 55.6647 46.1538C55.4186 46.8103 55.0596 47.3256 54.5878 47.7C54.116 48.0744 53.5545 48.2615 52.9032 48.2615C52.1083 48.2615 51.4622 47.9769 50.9647 47.4077V51.1538L48.534 51.4077V39.8308H50.6878L50.7955 40.7462C51.1134 40.341 51.4673 40.0436 51.857 39.8538C52.2468 39.659 52.6468 39.5615 53.057 39.5615ZM52.3032 41.3538C52.0314 41.3538 51.7852 41.4359 51.5647 41.6C51.3493 41.759 51.1493 41.9923 50.9647 42.3V45.7462C51.1391 46.0026 51.3186 46.1897 51.5032 46.3077C51.6929 46.4205 51.9134 46.4769 52.1647 46.4769C52.6109 46.4769 52.9493 46.2744 53.1801 45.8692C53.416 45.4641 53.534 44.8154 53.534 43.9231C53.534 43.2667 53.4852 42.7513 53.3878 42.3769C53.2955 41.9974 53.1596 41.7333 52.9801 41.5846C52.8006 41.4308 52.575 41.3538 52.3032 41.3538ZM61.3009 39.5615C62.1266 39.5615 62.8368 39.741 63.4317 40.1C64.0317 40.4538 64.4881 40.9564 64.8009 41.6077C65.1138 42.259 65.2702 43.0205 65.2702 43.8923C65.2702 44.8 65.1112 45.5821 64.7932 46.2385C64.4804 46.8897 64.0266 47.3897 63.4317 47.7385C62.8368 48.0872 62.1266 48.2615 61.3009 48.2615C60.4702 48.2615 59.7573 48.0897 59.1625 47.7462C58.5676 47.4026 58.1138 46.9051 57.8009 46.2538C57.4881 45.5974 57.3317 44.8154 57.3317 43.9077C57.3317 43.041 57.4881 42.2821 57.8009 41.6308C58.1189 40.9744 58.5753 40.4667 59.1702 40.1077C59.7702 39.7436 60.4804 39.5615 61.3009 39.5615ZM61.3009 41.3538C60.8035 41.3538 60.4343 41.559 60.1932 41.9692C59.9573 42.3795 59.8394 43.0256 59.8394 43.9077C59.8394 44.8051 59.9573 45.459 60.1932 45.8692C60.4291 46.2744 60.7984 46.4769 61.3009 46.4769C61.8035 46.4769 62.1727 46.2718 62.4086 45.8615C62.6445 45.4513 62.7625 44.7949 62.7625 43.8923C62.7625 43.0154 62.642 42.3744 62.4009 41.9692C62.165 41.559 61.7984 41.3538 61.3009 41.3538ZM73.2294 39.5846C73.7166 39.5846 74.1653 39.6667 74.5756 39.8308L74.1218 43.2462H72.5987V41.7385C72.1474 41.8205 71.7474 42.0667 71.3987 42.4769C71.05 42.8872 70.7756 43.4051 70.5756 44.0308V46.3692H72.191V48H67.0679V46.3692H68.1448V41.4462H67.0679V39.8308H69.9987L70.4448 41.6692C70.7371 40.9667 71.1089 40.4436 71.5602 40.1C72.0166 39.7564 72.573 39.5846 73.2294 39.5846ZM83.5733 47.5231C83.2298 47.7487 82.8298 47.9282 82.3733 48.0615C81.9221 48.1949 81.4298 48.2615 80.8964 48.2615C79.8503 48.2615 79.0631 47.9949 78.5349 47.4615C78.0067 46.9282 77.7426 46.1795 77.7426 45.2154V41.5077H76.0272V39.8308H77.7426V38.0615L80.1733 37.7692V39.8308H82.8041L82.5657 41.5077H80.1733V45.2154C80.1733 45.6205 80.2631 45.9103 80.4426 46.0846C80.6272 46.259 80.9246 46.3462 81.3349 46.3462C81.8477 46.3462 82.3246 46.2231 82.7657 45.9769L83.5733 47.5231ZM120.587 40.2538C120.269 40.3513 119.928 40.4154 119.564 40.4462C119.205 40.4769 118.757 40.4923 118.218 40.4923C119.157 40.9231 119.626 41.6026 119.626 42.5308C119.626 43.0641 119.503 43.541 119.257 43.9615C119.016 44.3769 118.664 44.7026 118.203 44.9385C117.746 45.1692 117.205 45.2846 116.58 45.2846C116.313 45.2846 116.087 45.2744 115.903 45.2538C115.723 45.2282 115.546 45.1872 115.372 45.1308C115.249 45.2179 115.146 45.3333 115.064 45.4769C114.987 45.6154 114.949 45.7615 114.949 45.9154C114.949 46.1256 115.031 46.2923 115.195 46.4154C115.359 46.5333 115.639 46.5923 116.034 46.5923H117.495C118.028 46.5923 118.513 46.6897 118.949 46.8846C119.39 47.0744 119.734 47.3385 119.98 47.6769C120.231 48.0103 120.357 48.3821 120.357 48.7923C120.357 49.5872 120.021 50.1974 119.349 50.6231C118.677 51.0487 117.723 51.2615 116.487 51.2615C115.636 51.2615 114.959 51.1744 114.457 51C113.959 50.8256 113.603 50.559 113.387 50.2C113.172 49.8462 113.064 49.3872 113.064 48.8231H114.234C114.234 49.1564 114.295 49.4205 114.418 49.6154C114.546 49.8154 114.772 49.9641 115.095 50.0615C115.423 50.159 115.885 50.2077 116.48 50.2077C117.362 50.2077 118.01 50.0974 118.426 49.8769C118.841 49.6564 119.049 49.3231 119.049 48.8769C119.049 48.5026 118.88 48.2154 118.541 48.0154C118.203 47.8154 117.762 47.7154 117.218 47.7154H115.772C115.326 47.7154 114.949 47.6462 114.641 47.5077C114.334 47.3692 114.105 47.1846 113.957 46.9538C113.808 46.7231 113.734 46.4692 113.734 46.1923C113.734 45.9308 113.81 45.6769 113.964 45.4308C114.118 45.1846 114.339 44.9667 114.626 44.7769C114.159 44.5308 113.816 44.2256 113.595 43.8615C113.375 43.4974 113.264 43.0564 113.264 42.5385C113.264 42 113.4 41.5179 113.672 41.0923C113.949 40.6615 114.331 40.3256 114.818 40.0846C115.31 39.8436 115.869 39.7231 116.495 39.7231C117.146 39.7231 117.685 39.6974 118.11 39.6462C118.536 39.5897 118.893 39.5154 119.18 39.4231C119.472 39.3308 119.808 39.2026 120.187 39.0385L120.587 40.2538ZM116.495 40.6692C115.864 40.6692 115.387 40.8385 115.064 41.1769C114.746 41.5154 114.587 41.9692 114.587 42.5385C114.587 43.1128 114.749 43.5718 115.072 43.9154C115.4 44.2538 115.885 44.4231 116.526 44.4231C117.09 44.4231 117.523 44.259 117.826 43.9308C118.134 43.5974 118.287 43.1308 118.287 42.5308C118.287 41.9205 118.136 41.459 117.834 41.1462C117.531 40.8282 117.085 40.6692 116.495 40.6692ZM123.847 44.4077C123.867 45.0128 123.985 45.5179 124.201 45.9231C124.416 46.3231 124.698 46.6205 125.047 46.8154C125.395 47.0051 125.785 47.1 126.216 47.1C126.616 47.1 126.983 47.041 127.316 46.9231C127.654 46.8051 128.008 46.6205 128.377 46.3692L128.985 47.2231C128.606 47.5205 128.17 47.7538 127.677 47.9231C127.19 48.0923 126.698 48.1769 126.201 48.1769C125.426 48.1769 124.76 48.0026 124.201 47.6538C123.642 47.3051 123.216 46.8128 122.924 46.1769C122.636 45.541 122.493 44.8026 122.493 43.9615C122.493 43.1462 122.639 42.4179 122.931 41.7769C123.224 41.1359 123.636 40.6359 124.17 40.2769C124.703 39.9128 125.324 39.7308 126.031 39.7308C126.708 39.7308 127.293 39.8897 127.785 40.2077C128.283 40.5256 128.662 40.9846 128.924 41.5846C129.19 42.1795 129.324 42.8846 129.324 43.7C129.324 43.9359 129.313 44.1718 129.293 44.4077H123.847ZM126.047 40.7923C125.421 40.7923 124.911 41.0128 124.516 41.4538C124.126 41.8897 123.906 42.541 123.854 43.4077H128.077C128.062 42.5564 127.875 41.9077 127.516 41.4615C127.157 41.0154 126.667 40.7923 126.047 40.7923ZM138.491 47.5923C138.219 47.7718 137.883 47.9128 137.483 48.0154C137.088 48.1231 136.701 48.1769 136.321 48.1769C135.752 48.1769 135.262 48.0744 134.852 47.8692C134.447 47.659 134.137 47.3692 133.921 47C133.706 46.6308 133.598 46.2077 133.598 45.7308V40.9H131.737V39.9H133.598V38.0615L134.891 37.9077V39.9H137.691L137.537 40.9H134.891V45.7154C134.891 46.1769 135.011 46.5231 135.252 46.7538C135.498 46.9846 135.893 47.1 136.437 47.1C136.985 47.1 137.503 46.9718 137.991 46.7154L138.491 47.5923ZM145.25 37.2385C145.917 37.2385 146.483 37.3231 146.95 37.4923C147.422 37.6564 147.878 37.9154 148.319 38.2692L147.573 39.1385C146.947 38.6154 146.206 38.3538 145.35 38.3538C144.734 38.3538 144.183 38.4974 143.696 38.7846C143.214 39.0718 142.827 39.5385 142.534 40.1846C142.247 40.8308 142.104 41.6692 142.104 42.7C142.104 43.7103 142.242 44.5385 142.519 45.1846C142.796 45.8308 143.173 46.3 143.65 46.5923C144.132 46.8846 144.688 47.0308 145.319 47.0308C145.858 47.0308 146.319 46.9513 146.704 46.7923C147.088 46.6333 147.447 46.4179 147.781 46.1462L148.473 47.0231C148.114 47.3718 147.673 47.6513 147.15 47.8615C146.627 48.0718 146.011 48.1769 145.304 48.1769C144.432 48.1769 143.647 47.9641 142.95 47.5385C142.258 47.1128 141.711 46.4897 141.311 45.6692C140.917 44.8436 140.719 43.8538 140.719 42.7C140.719 41.5513 140.922 40.5667 141.327 39.7462C141.732 38.9205 142.278 38.2974 142.965 37.8769C143.652 37.4513 144.414 37.2385 145.25 37.2385ZM153.601 39.7308C154.35 39.7308 154.984 39.9026 155.501 40.2462C156.019 40.5846 156.409 41.0718 156.671 41.7077C156.937 42.3385 157.071 43.0846 157.071 43.9462C157.071 44.7821 156.935 45.5179 156.663 46.1538C156.396 46.7897 156.001 47.2872 155.478 47.6462C154.955 48 154.325 48.1769 153.586 48.1769C152.837 48.1769 152.201 48.0051 151.678 47.6615C151.16 47.3128 150.768 46.8231 150.501 46.1923C150.235 45.5615 150.101 44.8179 150.101 43.9615C150.101 43.1205 150.235 42.3821 150.501 41.7462C150.773 41.1103 151.171 40.6154 151.694 40.2615C152.222 39.9077 152.858 39.7308 153.601 39.7308ZM153.601 40.7846C152.899 40.7846 152.371 41.0462 152.017 41.5692C151.663 42.0872 151.486 42.8846 151.486 43.9615C151.486 45.0231 151.66 45.8154 152.009 46.3385C152.358 46.8564 152.884 47.1154 153.586 47.1154C154.289 47.1154 154.814 46.8564 155.163 46.3385C155.512 45.8154 155.686 45.0179 155.686 43.9462C155.686 42.8795 155.512 42.0872 155.163 41.5692C154.814 41.0462 154.294 40.7846 153.601 40.7846ZM159.745 48V39.9H160.845L160.945 41.0231C161.268 40.6179 161.674 40.3026 162.161 40.0769C162.653 39.8462 163.14 39.7308 163.622 39.7308C164.397 39.7308 164.968 39.9359 165.338 40.3462C165.712 40.7564 165.899 41.3462 165.899 42.1154V48H164.607V43.0692C164.607 42.4641 164.574 42.0026 164.507 41.6846C164.445 41.3667 164.315 41.1308 164.115 40.9769C163.92 40.8231 163.622 40.7462 163.222 40.7462C162.786 40.7462 162.374 40.8821 161.984 41.1538C161.599 41.4205 161.284 41.7359 161.038 42.1V48H159.745ZM175.405 47.5923C175.133 47.7718 174.797 47.9128 174.397 48.0154C174.002 48.1231 173.615 48.1769 173.235 48.1769C172.666 48.1769 172.176 48.0744 171.766 47.8692C171.361 47.659 171.051 47.3692 170.835 47C170.62 46.6308 170.512 46.2077 170.512 45.7308V40.9H168.651V39.9H170.512V38.0615L171.805 37.9077V39.9H174.605L174.451 40.9H171.805V45.7154C171.805 46.1769 171.925 46.5231 172.166 46.7538C172.412 46.9846 172.807 47.1 173.351 47.1C173.9 47.1 174.417 46.9718 174.905 46.7154L175.405 47.5923ZM183.672 39.7231C183.882 39.7231 184.074 39.7385 184.249 39.7692C184.423 39.7949 184.613 39.8385 184.818 39.9L184.633 42.6385H183.572V40.9154H183.502C182.877 40.9154 182.343 41.1359 181.902 41.5769C181.461 42.0179 181.105 42.6846 180.833 43.5769V47.0077H182.479V48H178.279V47.0077H179.541V40.8923H178.279V39.9H180.525L180.764 41.8154C181.092 41.1128 181.482 40.5897 181.933 40.2462C182.39 39.8974 182.969 39.7231 183.672 39.7231ZM193.231 46.2308C193.231 46.5487 193.282 46.7846 193.385 46.9385C193.487 47.0872 193.657 47.1974 193.892 47.2692L193.577 48.1769C192.798 48.0744 192.303 47.6949 192.092 47.0385C191.805 47.4128 191.441 47.6974 191 47.8923C190.564 48.0821 190.082 48.1769 189.554 48.1769C189.021 48.1769 188.557 48.0744 188.162 47.8692C187.767 47.6641 187.464 47.3744 187.254 47C187.044 46.6205 186.939 46.1795 186.939 45.6769C186.939 44.841 187.264 44.2 187.916 43.7538C188.567 43.3077 189.508 43.0846 190.739 43.0846H191.931V42.4077C191.931 41.8436 191.767 41.4359 191.439 41.1846C191.11 40.9282 190.631 40.8 190 40.8C189.39 40.8 188.687 40.9385 187.892 41.2154L187.554 40.2385C188.457 39.9 189.339 39.7308 190.2 39.7308C191.19 39.7308 191.941 39.9641 192.454 40.4308C192.972 40.8923 193.231 41.5308 193.231 42.3462V46.2308ZM189.885 47.1923C190.285 47.1923 190.664 47.0923 191.023 46.8923C191.387 46.6872 191.69 46.4051 191.931 46.0462V43.9615H190.762C189.905 43.9615 189.285 44.1077 188.9 44.4C188.516 44.6923 188.323 45.1128 188.323 45.6615C188.323 46.6821 188.844 47.1923 189.885 47.1923ZM200.321 47.0615C201.044 47.0615 201.747 46.8256 202.429 46.3538L203.059 47.2C202.706 47.4974 202.28 47.7359 201.783 47.9154C201.285 48.0897 200.798 48.1769 200.321 48.1769C199.526 48.1769 198.841 48.0051 198.267 47.6615C197.698 47.3179 197.265 46.8308 196.967 46.2C196.67 45.5692 196.521 44.8308 196.521 43.9846C196.521 43.1692 196.672 42.441 196.975 41.8C197.277 41.1538 197.716 40.6487 198.29 40.2846C198.865 39.9154 199.547 39.7308 200.336 39.7308C201.367 39.7308 202.27 40.0436 203.044 40.6692L202.413 41.5308C201.716 41.0487 201.018 40.8077 200.321 40.8077C199.844 40.8077 199.426 40.9256 199.067 41.1615C198.708 41.3974 198.426 41.7538 198.221 42.2308C198.021 42.7077 197.921 43.2923 197.921 43.9846C197.921 45.0205 198.136 45.7923 198.567 46.3C199.003 46.8077 199.588 47.0615 200.321 47.0615ZM212.319 47.5923C212.047 47.7718 211.711 47.9128 211.311 48.0154C210.916 48.1231 210.529 48.1769 210.149 48.1769C209.58 48.1769 209.091 48.0744 208.68 47.8692C208.275 47.659 207.965 47.3692 207.749 47C207.534 46.6308 207.426 46.2077 207.426 45.7308V40.9H205.565V39.9H207.426V38.0615L208.719 37.9077V39.9H211.519L211.365 40.9H208.719V45.7154C208.719 46.1769 208.839 46.5231 209.08 46.7538C209.326 46.9846 209.721 47.1 210.265 47.1C210.814 47.1 211.332 46.9718 211.819 46.7154L212.319 47.5923ZM247.533 36.3308C248.594 36.3308 249.528 36.5026 250.333 36.8462L249.664 38.4308C249.12 38.2256 248.535 38.1231 247.91 38.1231C247.428 38.1231 247.082 38.2103 246.871 38.3846C246.666 38.559 246.564 38.8487 246.564 39.2538V40.3462H249.225L248.956 42.0308H246.564V48H244.148V42.0308H242.433V40.3462H244.148V39.1615C244.148 38.6179 244.276 38.1333 244.533 37.7077C244.794 37.2769 245.179 36.941 245.687 36.7C246.199 36.4538 246.815 36.3308 247.533 36.3308ZM257.8 39.5846C258.287 39.5846 258.736 39.6667 259.146 39.8308L258.692 43.2462H257.169V41.7385C256.718 41.8205 256.318 42.0667 255.969 42.4769C255.62 42.8872 255.346 43.4051 255.146 44.0308V46.3692H256.761V48H251.638V46.3692H252.715V41.4462H251.638V39.8308H254.569L255.015 41.6692C255.307 40.9667 255.679 40.4436 256.131 40.1C256.587 39.7564 257.143 39.5846 257.8 39.5846ZM264.328 39.5615C265.154 39.5615 265.864 39.741 266.459 40.1C267.059 40.4538 267.515 40.9564 267.828 41.6077C268.141 42.259 268.298 43.0205 268.298 43.8923C268.298 44.8 268.139 45.5821 267.821 46.2385C267.508 46.8897 267.054 47.3897 266.459 47.7385C265.864 48.0872 265.154 48.2615 264.328 48.2615C263.498 48.2615 262.785 48.0897 262.19 47.7462C261.595 47.4026 261.141 46.9051 260.828 46.2538C260.515 45.5974 260.359 44.8154 260.359 43.9077C260.359 43.041 260.515 42.2821 260.828 41.6308C261.146 40.9744 261.603 40.4667 262.198 40.1077C262.798 39.7436 263.508 39.5615 264.328 39.5615ZM264.328 41.3538C263.831 41.3538 263.462 41.559 263.221 41.9692C262.985 42.3795 262.867 43.0256 262.867 43.9077C262.867 44.8051 262.985 45.459 263.221 45.8692C263.456 46.2744 263.826 46.4769 264.328 46.4769C264.831 46.4769 265.2 46.2718 265.436 45.8615C265.672 45.4513 265.79 44.7949 265.79 43.8923C265.79 43.0154 265.669 42.3744 265.428 41.9692C265.192 41.559 264.826 41.3538 264.328 41.3538ZM276.057 39.5615C276.641 39.5615 277.072 39.7513 277.349 40.1308C277.626 40.5103 277.764 41.1179 277.764 41.9538V48H275.68V42.2308C275.68 41.9385 275.652 41.7359 275.595 41.6231C275.539 41.5051 275.431 41.4462 275.272 41.4462C275.134 41.4462 274.995 41.4872 274.857 41.5692C274.723 41.6462 274.58 41.7821 274.426 41.9769V48H272.718V42.2308C272.718 41.9385 272.69 41.7359 272.634 41.6231C272.577 41.5051 272.47 41.4462 272.311 41.4462C272.172 41.4462 272.034 41.4872 271.895 41.5692C271.762 41.6462 271.618 41.7821 271.464 41.9769V48H269.349V39.8308H271.134L271.295 40.6231C271.562 40.259 271.826 39.9923 272.088 39.8231C272.349 39.6487 272.654 39.5615 273.003 39.5615C273.321 39.5615 273.585 39.641 273.795 39.8C274.011 39.959 274.164 40.2026 274.257 40.5308C274.816 39.8846 275.416 39.5615 276.057 39.5615ZM34.4077 82.3462C34.7205 82.3462 35.0205 82.2872 35.3077 82.1692C35.6 82.0462 35.9077 81.8718 36.2308 81.6462L37.3154 83.1846C36.9308 83.5128 36.4795 83.7744 35.9615 83.9692C35.4436 84.1641 34.8821 84.2615 34.2769 84.2615C33.4103 84.2615 32.659 84.0821 32.0231 83.7231C31.3872 83.3641 30.9 82.8615 30.5615 82.2154C30.2231 81.5692 30.0538 80.8205 30.0538 79.9692C30.0538 79.1179 30.2282 78.359 30.5769 77.6923C30.9256 77.0256 31.4205 76.5051 32.0615 76.1308C32.7077 75.7513 33.4615 75.5615 34.3231 75.5615C34.9333 75.5615 35.4795 75.6462 35.9615 75.8154C36.4487 75.9846 36.9 76.241 37.3154 76.5846L36.2615 78.0462C35.6718 77.6359 35.059 77.4308 34.4231 77.4308C33.8436 77.4308 33.3923 77.6333 33.0692 78.0385C32.7513 78.4436 32.5923 79.0872 32.5923 79.9692C32.5923 80.8205 32.7538 81.4308 33.0769 81.8C33.4 82.1641 33.8436 82.3462 34.4077 82.3462ZM42.8439 75.5615C43.6695 75.5615 44.3798 75.741 44.9747 76.1C45.5747 76.4538 46.0311 76.9564 46.3439 77.6077C46.6567 78.259 46.8131 79.0205 46.8131 79.8923C46.8131 80.8 46.6542 81.5821 46.3362 82.2385C46.0234 82.8897 45.5695 83.3897 44.9747 83.7385C44.3798 84.0872 43.6695 84.2615 42.8439 84.2615C42.0131 84.2615 41.3003 84.0897 40.7054 83.7462C40.1106 83.4026 39.6567 82.9051 39.3439 82.2538C39.0311 81.5974 38.8747 80.8154 38.8747 79.9077C38.8747 79.041 39.0311 78.2821 39.3439 77.6308C39.6618 76.9744 40.1183 76.4667 40.7131 76.1077C41.3131 75.7436 42.0234 75.5615 42.8439 75.5615ZM42.8439 77.3538C42.3465 77.3538 41.9772 77.559 41.7362 77.9692C41.5003 78.3795 41.3824 79.0256 41.3824 79.9077C41.3824 80.8051 41.5003 81.459 41.7362 81.8692C41.9721 82.2744 42.3413 82.4769 42.8439 82.4769C43.3465 82.4769 43.7157 82.2718 43.9516 81.8615C44.1875 81.4513 44.3054 80.7949 44.3054 79.8923C44.3054 79.0154 44.1849 78.3744 43.9439 77.9692C43.708 77.559 43.3413 77.3538 42.8439 77.3538ZM48.534 84V75.8308H50.657L50.8263 76.7769C51.1955 76.3615 51.5827 76.0564 51.9878 75.8615C52.3929 75.6615 52.8519 75.5615 53.3647 75.5615C54.0673 75.5615 54.616 75.7769 55.0109 76.2077C55.4109 76.6333 55.6109 77.2308 55.6109 78V84H53.1801V78.7C53.1801 78.3615 53.1545 78.0949 53.1032 77.9C53.057 77.7051 52.9775 77.5667 52.8647 77.4846C52.7519 77.3974 52.5955 77.3538 52.3955 77.3538C52.1493 77.3538 51.9083 77.4333 51.6724 77.5923C51.4416 77.7462 51.2057 77.9769 50.9647 78.2846V84H48.534ZM61.0394 82.5231C61.4548 82.5231 61.783 82.459 62.024 82.3308C62.2702 82.1974 62.3932 82.0051 62.3932 81.7538C62.3932 81.5744 62.3445 81.4282 62.2471 81.3154C62.1496 81.1974 61.9676 81.0872 61.7009 80.9846C61.4343 80.8769 61.0189 80.7462 60.4548 80.5923C59.6343 80.3718 59.0061 80.0692 58.5702 79.6846C58.1394 79.3 57.924 78.7667 57.924 78.0846C57.924 77.5923 58.0599 77.1564 58.3317 76.7769C58.6086 76.3974 59.0138 76.1 59.5471 75.8846C60.0804 75.6692 60.7214 75.5615 61.4702 75.5615C62.7676 75.5615 63.8702 75.8923 64.7779 76.5538L63.8086 77.9846C63.4548 77.7692 63.083 77.6 62.6932 77.4769C62.3086 77.3538 61.924 77.2923 61.5394 77.2923C61.1445 77.2923 60.8496 77.3462 60.6548 77.4538C60.465 77.5564 60.3702 77.7128 60.3702 77.9231C60.3702 78.0667 60.4189 78.1872 60.5163 78.2846C60.6189 78.3821 60.8009 78.4821 61.0625 78.5846C61.3291 78.6872 61.742 78.8179 62.3009 78.9769C62.8907 79.141 63.3702 79.3231 63.7394 79.5231C64.1086 79.7179 64.3958 79.9795 64.6009 80.3077C64.8112 80.6308 64.9163 81.0487 64.9163 81.5615C64.9163 82.1359 64.742 82.6282 64.3932 83.0385C64.0496 83.4436 63.5855 83.7487 63.0009 83.9538C62.4163 84.159 61.7676 84.2615 61.0548 84.2615C60.2907 84.2615 59.6035 84.1538 58.9932 83.9385C58.383 83.7179 57.8573 83.4154 57.4163 83.0308L58.6394 81.6615C58.9779 81.9282 59.3496 82.1385 59.7548 82.2923C60.1599 82.4462 60.5881 82.5231 61.0394 82.5231ZM74.3448 83.5231C74.0012 83.7487 73.6012 83.9282 73.1448 84.0615C72.6935 84.1949 72.2012 84.2615 71.6679 84.2615C70.6218 84.2615 69.8346 83.9949 69.3064 83.4615C68.7782 82.9282 68.5141 82.1795 68.5141 81.2154V77.5077H66.7987V75.8308H68.5141V74.0615L70.9448 73.7692V75.8308H73.5756L73.3371 77.5077H70.9448V81.2154C70.9448 81.6205 71.0346 81.9103 71.2141 82.0846C71.3987 82.259 71.6961 82.3462 72.1064 82.3462C72.6192 82.3462 73.0961 82.2231 73.5371 81.9769L74.3448 83.5231ZM89.5788 83.0615C90.3019 83.0615 91.0044 82.8256 91.6865 82.3538L92.3172 83.2C91.9634 83.4974 91.5378 83.7359 91.0403 83.9154C90.5429 84.0897 90.0557 84.1769 89.5788 84.1769C88.7839 84.1769 88.0993 84.0051 87.5249 83.6615C86.9557 83.3179 86.5224 82.8308 86.2249 82.2C85.9275 81.5692 85.7788 80.8308 85.7788 79.9846C85.7788 79.1692 85.9301 78.441 86.2326 77.8C86.5352 77.1538 86.9737 76.6487 87.548 76.2846C88.1224 75.9154 88.8044 75.7308 89.5942 75.7308C90.6249 75.7308 91.5275 76.0436 92.3019 76.6692L91.6711 77.5308C90.9737 77.0487 90.2762 76.8077 89.5788 76.8077C89.1019 76.8077 88.6839 76.9256 88.3249 77.1615C87.966 77.3974 87.6839 77.7538 87.4788 78.2308C87.2788 78.7077 87.1788 79.2923 87.1788 79.9846C87.1788 81.0205 87.3942 81.7923 87.8249 82.3C88.2608 82.8077 88.8455 83.0615 89.5788 83.0615ZM98.2304 75.7308C98.9791 75.7308 99.6124 75.9026 100.13 76.2462C100.648 76.5846 101.038 77.0718 101.3 77.7077C101.566 78.3385 101.7 79.0846 101.7 79.9462C101.7 80.7821 101.564 81.5179 101.292 82.1538C101.025 82.7897 100.63 83.2872 100.107 83.6462C99.5842 84 98.9535 84.1769 98.215 84.1769C97.4663 84.1769 96.8304 84.0051 96.3073 83.6615C95.7894 83.3128 95.397 82.8231 95.1304 82.1923C94.8637 81.5615 94.7304 80.8179 94.7304 79.9615C94.7304 79.1205 94.8637 78.3821 95.1304 77.7462C95.4022 77.1103 95.7996 76.6154 96.3227 76.2615C96.8509 75.9077 97.4868 75.7308 98.2304 75.7308ZM98.2304 76.7846C97.5278 76.7846 96.9996 77.0462 96.6458 77.5692C96.2919 78.0872 96.115 78.8846 96.115 79.9615C96.115 81.0231 96.2894 81.8154 96.6381 82.3385C96.9868 82.8564 97.5124 83.1154 98.215 83.1154C98.9176 83.1154 99.4432 82.8564 99.7919 82.3385C100.141 81.8154 100.315 81.0179 100.315 79.9462C100.315 78.8795 100.141 78.0872 99.7919 77.5692C99.4432 77.0462 98.9227 76.7846 98.2304 76.7846ZM104.374 84V75.9H105.474L105.574 77.0231C105.897 76.6179 106.302 76.3026 106.79 76.0769C107.282 75.8462 107.769 75.7308 108.251 75.7308C109.026 75.7308 109.597 75.9359 109.967 76.3462C110.341 76.7564 110.528 77.3462 110.528 78.1154V84H109.236V79.0692C109.236 78.4641 109.202 78.0026 109.136 77.6846C109.074 77.3667 108.944 77.1308 108.744 76.9769C108.549 76.8231 108.251 76.7462 107.851 76.7462C107.415 76.7462 107.002 76.8821 106.613 77.1538C106.228 77.4205 105.913 77.7359 105.667 78.1V84H104.374ZM120.034 83.5923C119.762 83.7718 119.426 83.9128 119.026 84.0154C118.631 84.1231 118.244 84.1769 117.864 84.1769C117.295 84.1769 116.805 84.0744 116.395 83.8692C115.99 83.659 115.68 83.3692 115.464 83C115.249 82.6308 115.141 82.2077 115.141 81.7308V76.9H113.28V75.9H115.141V74.0615L116.434 73.9077V75.9H119.234L119.08 76.9H116.434V81.7154C116.434 82.1769 116.554 82.5231 116.795 82.7538C117.041 82.9846 117.436 83.1 117.98 83.1C118.528 83.1 119.046 82.9718 119.534 82.7154L120.034 83.5923ZM128.301 75.7231C128.511 75.7231 128.703 75.7385 128.877 75.7692C129.052 75.7949 129.242 75.8385 129.447 75.9L129.262 78.6385H128.201V76.9154H128.131C127.506 76.9154 126.972 77.1359 126.531 77.5769C126.09 78.0179 125.734 78.6846 125.462 79.5769V83.0077H127.108V84H122.908V83.0077H124.17V76.8923H122.908V75.9H125.154L125.393 77.8154C125.721 77.1128 126.111 76.5897 126.562 76.2462C127.018 75.8974 127.598 75.7231 128.301 75.7231ZM137.86 82.2308C137.86 82.5487 137.911 82.7846 138.014 82.9385C138.116 83.0872 138.285 83.1974 138.521 83.2692L138.206 84.1769C137.426 84.0744 136.932 83.6949 136.721 83.0385C136.434 83.4128 136.07 83.6974 135.629 83.8923C135.193 84.0821 134.711 84.1769 134.183 84.1769C133.65 84.1769 133.185 84.0744 132.791 83.8692C132.396 83.6641 132.093 83.3744 131.883 83C131.673 82.6205 131.568 82.1795 131.568 81.6769C131.568 80.841 131.893 80.2 132.544 79.7538C133.196 79.3077 134.137 79.0846 135.368 79.0846H136.56V78.4077C136.56 77.8436 136.396 77.4359 136.068 77.1846C135.739 76.9282 135.26 76.8 134.629 76.8C134.019 76.8 133.316 76.9385 132.521 77.2154L132.183 76.2385C133.085 75.9 133.968 75.7308 134.829 75.7308C135.819 75.7308 136.57 75.9641 137.083 76.4308C137.601 76.8923 137.86 77.5308 137.86 78.3462V82.2308ZM134.514 83.1923C134.914 83.1923 135.293 83.0923 135.652 82.8923C136.016 82.6872 136.319 82.4051 136.56 82.0462V79.9615H135.391C134.534 79.9615 133.914 80.1077 133.529 80.4C133.144 80.6923 132.952 81.1128 132.952 81.6615C132.952 82.6821 133.473 83.1923 134.514 83.1923ZM144.95 83.0615C145.673 83.0615 146.376 82.8256 147.058 82.3538L147.688 83.2C147.334 83.4974 146.909 83.7359 146.411 83.9154C145.914 84.0897 145.427 84.1769 144.95 84.1769C144.155 84.1769 143.47 84.0051 142.896 83.6615C142.327 83.3179 141.893 82.8308 141.596 82.2C141.299 81.5692 141.15 80.8308 141.15 79.9846C141.15 79.1692 141.301 78.441 141.604 77.8C141.906 77.1538 142.345 76.6487 142.919 76.2846C143.493 75.9154 144.176 75.7308 144.965 75.7308C145.996 75.7308 146.899 76.0436 147.673 76.6692L147.042 77.5308C146.345 77.0487 145.647 76.8077 144.95 76.8077C144.473 76.8077 144.055 76.9256 143.696 77.1615C143.337 77.3974 143.055 77.7538 142.85 78.2308C142.65 78.7077 142.55 79.2923 142.55 79.9846C142.55 81.0205 142.765 81.7923 143.196 82.3C143.632 82.8077 144.217 83.0615 144.95 83.0615ZM156.948 83.5923C156.676 83.7718 156.34 83.9128 155.94 84.0154C155.545 84.1231 155.158 84.1769 154.778 84.1769C154.209 84.1769 153.719 84.0744 153.309 83.8692C152.904 83.659 152.594 83.3692 152.378 83C152.163 82.6308 152.055 82.2077 152.055 81.7308V76.9H150.194V75.9H152.055V74.0615L153.348 73.9077V75.9H156.148L155.994 76.9H153.348V81.7154C153.348 82.1769 153.468 82.5231 153.709 82.7538C153.955 82.9846 154.35 83.1 154.894 83.1C155.442 83.1 155.96 82.9718 156.448 82.7154L156.948 83.5923ZM193.839 81.6462C193.839 81.9487 193.88 82.1718 193.962 82.3154C194.044 82.4538 194.182 82.559 194.377 82.6308L193.877 84.2308C193.38 84.1846 192.967 84.0769 192.639 83.9077C192.316 83.7333 192.062 83.4821 191.877 83.1538C191.575 83.5179 191.182 83.7949 190.7 83.9846C190.223 84.1692 189.718 84.2615 189.185 84.2615C188.631 84.2615 188.144 84.1538 187.723 83.9385C187.308 83.7179 186.987 83.4154 186.762 83.0308C186.536 82.641 186.423 82.1949 186.423 81.6923C186.423 81.1077 186.58 80.6077 186.892 80.1923C187.205 79.7769 187.659 79.4615 188.254 79.2462C188.849 79.0256 189.564 78.9154 190.4 78.9154H191.5V78.6077C191.5 77.7718 190.962 77.3538 189.885 77.3538C189.613 77.3538 189.269 77.3923 188.854 77.4692C188.444 77.5462 188.041 77.6513 187.646 77.7846L187.085 76.1692C187.598 75.9744 188.139 75.8256 188.708 75.7231C189.277 75.6154 189.798 75.5615 190.269 75.5615C191.469 75.5615 192.364 75.8051 192.954 76.2923C193.544 76.7795 193.839 77.4974 193.839 78.4462V81.6462ZM190.023 82.5231C190.3 82.5231 190.58 82.4436 190.862 82.2846C191.144 82.1205 191.357 81.9 191.5 81.6231V80.3H190.9C190.233 80.3 189.739 80.4026 189.416 80.6077C189.092 80.8128 188.931 81.1179 188.931 81.5231C188.931 81.841 189.026 82.0872 189.216 82.2615C189.41 82.4359 189.68 82.5231 190.023 82.5231ZM204.29 75.8308L203.129 84H200.444L199.744 78.5077L199.013 84H196.375L195.167 75.8308H197.39L197.921 82.4846L198.783 76.8615H200.829L201.598 82.4846L202.144 75.8308H204.29ZM212.296 81.6462C212.296 81.9487 212.337 82.1718 212.419 82.3154C212.501 82.4538 212.639 82.559 212.834 82.6308L212.334 84.2308C211.837 84.1846 211.424 84.0769 211.096 83.9077C210.773 83.7333 210.519 83.4821 210.334 83.1538C210.032 83.5179 209.639 83.7949 209.157 83.9846C208.68 84.1692 208.175 84.2615 207.642 84.2615C207.088 84.2615 206.601 84.1538 206.18 83.9385C205.765 83.7179 205.444 83.4154 205.219 83.0308C204.993 82.641 204.88 82.1949 204.88 81.6923C204.88 81.1077 205.037 80.6077 205.349 80.1923C205.662 79.7769 206.116 79.4615 206.711 79.2462C207.306 79.0256 208.021 78.9154 208.857 78.9154H209.957V78.6077C209.957 77.7718 209.419 77.3538 208.342 77.3538C208.07 77.3538 207.726 77.3923 207.311 77.4692C206.901 77.5462 206.498 77.6513 206.103 77.7846L205.542 76.1692C206.055 75.9744 206.596 75.8256 207.165 75.7231C207.734 75.6154 208.255 75.5615 208.726 75.5615C209.926 75.5615 210.821 75.8051 211.411 76.2923C212.001 76.7795 212.296 77.4974 212.296 78.4462V81.6462ZM208.48 82.5231C208.757 82.5231 209.037 82.4436 209.319 82.2846C209.601 82.1205 209.814 81.9 209.957 81.6231V80.3H209.357C208.691 80.3 208.196 80.4026 207.873 80.6077C207.549 80.8128 207.388 81.1179 207.388 81.5231C207.388 81.841 207.483 82.0872 207.673 82.2615C207.867 82.4359 208.137 82.5231 208.48 82.5231ZM218.17 71.5538C218.447 71.5538 218.693 71.6154 218.909 71.7385C219.124 71.8564 219.293 72.0205 219.416 72.2308C219.54 72.4359 219.601 72.6667 219.601 72.9231C219.601 73.1795 219.54 73.4128 219.416 73.6231C219.293 73.8333 219.122 74 218.901 74.1231C218.686 74.241 218.442 74.3 218.17 74.3C217.893 74.3 217.645 74.241 217.424 74.1231C217.204 74 217.032 73.8333 216.909 73.6231C216.786 73.4128 216.724 73.1795 216.724 72.9231C216.724 72.6667 216.786 72.4359 216.909 72.2308C217.032 72.0205 217.204 71.8564 217.424 71.7385C217.645 71.6154 217.893 71.5538 218.17 71.5538ZM214.97 75.8308H219.64V82.3385H221.716V84H214.893V82.3385H217.209V77.4923H214.97V75.8308ZM231.23 83.5231C230.886 83.7487 230.486 83.9282 230.03 84.0615C229.578 84.1949 229.086 84.2615 228.553 84.2615C227.507 84.2615 226.719 83.9949 226.191 83.4615C225.663 82.9282 225.399 82.1795 225.399 81.2154V77.5077H223.683V75.8308H225.399V74.0615L227.83 73.7692V75.8308H230.46L230.222 77.5077H227.83V81.2154C227.83 81.6205 227.919 81.9103 228.099 82.0846C228.283 82.259 228.581 82.3462 228.991 82.3462C229.504 82.3462 229.981 82.2231 230.422 81.9769L231.23 83.5231ZM249.787 76.2538C249.469 76.3513 249.128 76.4154 248.764 76.4462C248.405 76.4769 247.956 76.4923 247.417 76.4923C248.356 76.9231 248.825 77.6026 248.825 78.5308C248.825 79.0641 248.702 79.541 248.456 79.9615C248.215 80.3769 247.864 80.7026 247.402 80.9385C246.946 81.1692 246.405 81.2846 245.779 81.2846C245.512 81.2846 245.287 81.2744 245.102 81.2538C244.923 81.2282 244.746 81.1872 244.571 81.1308C244.448 81.2179 244.346 81.3333 244.264 81.4769C244.187 81.6154 244.148 81.7615 244.148 81.9154C244.148 82.1256 244.23 82.2923 244.394 82.4154C244.558 82.5333 244.838 82.5923 245.233 82.5923H246.694C247.228 82.5923 247.712 82.6897 248.148 82.8846C248.589 83.0744 248.933 83.3385 249.179 83.6769C249.43 84.0103 249.556 84.3821 249.556 84.7923C249.556 85.5872 249.22 86.1974 248.548 86.6231C247.876 87.0487 246.923 87.2615 245.687 87.2615C244.835 87.2615 244.158 87.1744 243.656 87C243.158 86.8256 242.802 86.559 242.587 86.2C242.371 85.8462 242.264 85.3872 242.264 84.8231H243.433C243.433 85.1564 243.494 85.4205 243.617 85.6154C243.746 85.8154 243.971 85.9641 244.294 86.0615C244.623 86.159 245.084 86.2077 245.679 86.2077C246.561 86.2077 247.21 86.0974 247.625 85.8769C248.04 85.6564 248.248 85.3231 248.248 84.8769C248.248 84.5026 248.079 84.2154 247.74 84.0154C247.402 83.8154 246.961 83.7154 246.417 83.7154H244.971C244.525 83.7154 244.148 83.6462 243.84 83.5077C243.533 83.3692 243.305 83.1846 243.156 82.9538C243.007 82.7231 242.933 82.4692 242.933 82.1923C242.933 81.9308 243.01 81.6769 243.164 81.4308C243.317 81.1846 243.538 80.9667 243.825 80.7769C243.358 80.5308 243.015 80.2256 242.794 79.8615C242.574 79.4974 242.464 79.0564 242.464 78.5385C242.464 78 242.599 77.5179 242.871 77.0923C243.148 76.6615 243.53 76.3256 244.017 76.0846C244.51 75.8436 245.069 75.7231 245.694 75.7231C246.346 75.7231 246.884 75.6974 247.31 75.6462C247.735 75.5897 248.092 75.5154 248.379 75.4231C248.671 75.3308 249.007 75.2026 249.387 75.0385L249.787 76.2538ZM245.694 76.6692C245.064 76.6692 244.587 76.8385 244.264 77.1769C243.946 77.5154 243.787 77.9692 243.787 78.5385C243.787 79.1128 243.948 79.5718 244.271 79.9154C244.599 80.2538 245.084 80.4231 245.725 80.4231C246.289 80.4231 246.723 80.259 247.025 79.9308C247.333 79.5974 247.487 79.1308 247.487 78.5308C247.487 77.9205 247.335 77.459 247.033 77.1462C246.73 76.8282 246.284 76.6692 245.694 76.6692ZM253.046 80.4077C253.066 81.0128 253.184 81.5179 253.4 81.9231C253.615 82.3231 253.897 82.6205 254.246 82.8154C254.595 83.0051 254.984 83.1 255.415 83.1C255.815 83.1 256.182 83.041 256.515 82.9231C256.854 82.8051 257.207 82.6205 257.577 82.3692L258.184 83.2231C257.805 83.5205 257.369 83.7538 256.877 83.9231C256.39 84.0923 255.897 84.1769 255.4 84.1769C254.625 84.1769 253.959 84.0026 253.4 83.6538C252.841 83.3051 252.415 82.8128 252.123 82.1769C251.836 81.541 251.692 80.8026 251.692 79.9615C251.692 79.1462 251.838 78.4179 252.131 77.7769C252.423 77.1359 252.836 76.6359 253.369 76.2769C253.902 75.9128 254.523 75.7308 255.231 75.7308C255.907 75.7308 256.492 75.8897 256.984 76.2077C257.482 76.5256 257.861 76.9846 258.123 77.5846C258.39 78.1795 258.523 78.8846 258.523 79.7C258.523 79.9359 258.513 80.1718 258.492 80.4077H253.046ZM255.246 76.7923C254.62 76.7923 254.11 77.0128 253.715 77.4538C253.325 77.8897 253.105 78.541 253.054 79.4077H257.277C257.261 78.5564 257.074 77.9077 256.715 77.4615C256.356 77.0154 255.866 76.7923 255.246 76.7923ZM267.69 83.5923C267.418 83.7718 267.082 83.9128 266.682 84.0154C266.287 84.1231 265.9 84.1769 265.521 84.1769C264.951 84.1769 264.462 84.0744 264.051 83.8692C263.646 83.659 263.336 83.3692 263.121 83C262.905 82.6308 262.798 82.2077 262.798 81.7308V76.9H260.936V75.9H262.798V74.0615L264.09 73.9077V75.9H266.89L266.736 76.9H264.09V81.7154C264.09 82.1769 264.21 82.5231 264.451 82.7538C264.698 82.9846 265.092 83.1 265.636 83.1C266.185 83.1 266.703 82.9718 267.19 82.7154L267.69 83.5923ZM274.449 73.2385C275.116 73.2385 275.682 73.3231 276.149 73.4923C276.621 73.6564 277.077 73.9154 277.518 74.2692L276.772 75.1385C276.147 74.6154 275.406 74.3538 274.549 74.3538C273.934 74.3538 273.382 74.4974 272.895 74.7846C272.413 75.0718 272.026 75.5385 271.734 76.1846C271.447 76.8308 271.303 77.6692 271.303 78.7C271.303 79.7103 271.441 80.5385 271.718 81.1846C271.995 81.8308 272.372 82.3 272.849 82.5923C273.331 82.8846 273.888 83.0308 274.518 83.0308C275.057 83.0308 275.518 82.9513 275.903 82.7923C276.288 82.6333 276.647 82.4179 276.98 82.1462L277.672 83.0231C277.313 83.3718 276.872 83.6513 276.349 83.8615C275.826 84.0718 275.211 84.1769 274.503 84.1769C273.631 84.1769 272.847 83.9641 272.149 83.5385C271.457 83.1128 270.911 82.4897 270.511 81.6692C270.116 80.8436 269.918 79.8538 269.918 78.7C269.918 77.5513 270.121 76.5667 270.526 75.7462C270.931 74.9205 271.477 74.2974 272.164 73.8769C272.852 73.4513 273.613 73.2385 274.449 73.2385ZM282.801 75.7308C283.549 75.7308 284.183 75.9026 284.701 76.2462C285.219 76.5846 285.608 77.0718 285.87 77.7077C286.137 78.3385 286.27 79.0846 286.27 79.9462C286.27 80.7821 286.134 81.5179 285.862 82.1538C285.596 82.7897 285.201 83.2872 284.678 83.6462C284.155 84 283.524 84.1769 282.785 84.1769C282.037 84.1769 281.401 84.0051 280.878 83.6615C280.36 83.3128 279.967 82.8231 279.701 82.1923C279.434 81.5615 279.301 80.8179 279.301 79.9615C279.301 79.1205 279.434 78.3821 279.701 77.7462C279.972 77.1103 280.37 76.6154 280.893 76.2615C281.421 75.9077 282.057 75.7308 282.801 75.7308ZM282.801 76.7846C282.098 76.7846 281.57 77.0462 281.216 77.5692C280.862 78.0872 280.685 78.8846 280.685 79.9615C280.685 81.0231 280.86 81.8154 281.208 82.3385C281.557 82.8564 282.083 83.1154 282.785 83.1154C283.488 83.1154 284.014 82.8564 284.362 82.3385C284.711 81.8154 284.885 81.0179 284.885 79.9462C284.885 78.8795 284.711 78.0872 284.362 77.5692C284.014 77.0462 283.493 76.7846 282.801 76.7846ZM288.945 84V75.9H290.045L290.145 77.0231C290.468 76.6179 290.873 76.3026 291.36 76.0769C291.852 75.8462 292.339 75.7308 292.822 75.7308C293.596 75.7308 294.168 75.9359 294.537 76.3462C294.911 76.7564 295.098 77.3462 295.098 78.1154V84H293.806V79.0692C293.806 78.4641 293.773 78.0026 293.706 77.6846C293.645 77.3667 293.514 77.1308 293.314 76.9769C293.119 76.8231 292.822 76.7462 292.422 76.7462C291.986 76.7462 291.573 76.8821 291.183 77.1538C290.798 77.4205 290.483 77.7359 290.237 78.1V84H288.945ZM304.604 83.5923C304.332 83.7718 303.996 83.9128 303.596 84.0154C303.201 84.1231 302.814 84.1769 302.435 84.1769C301.865 84.1769 301.376 84.0744 300.965 83.8692C300.56 83.659 300.25 83.3692 300.035 83C299.819 82.6308 299.712 82.2077 299.712 81.7308V76.9H297.85V75.9H299.712V74.0615L301.004 73.9077V75.9H303.804L303.65 76.9H301.004V81.7154C301.004 82.1769 301.124 82.5231 301.365 82.7538C301.612 82.9846 302.006 83.1 302.55 83.1C303.099 83.1 303.617 82.9718 304.104 82.7154L304.604 83.5923ZM312.871 75.7231C313.081 75.7231 313.273 75.7385 313.448 75.7692C313.622 75.7949 313.812 75.8385 314.017 75.9L313.832 78.6385H312.771V76.9154H312.702C312.076 76.9154 311.543 77.1359 311.102 77.5769C310.661 78.0179 310.304 78.6846 310.032 79.5769V83.0077H311.679V84H307.479V83.0077H308.74V76.8923H307.479V75.9H309.725L309.963 77.8154C310.291 77.1128 310.681 76.5897 311.132 76.2462C311.589 75.8974 312.168 75.7231 312.871 75.7231ZM322.43 82.2308C322.43 82.5487 322.481 82.7846 322.584 82.9385C322.687 83.0872 322.856 83.1974 323.092 83.2692L322.776 84.1769C321.997 84.0744 321.502 83.6949 321.292 83.0385C321.004 83.4128 320.64 83.6974 320.199 83.8923C319.763 84.0821 319.281 84.1769 318.753 84.1769C318.22 84.1769 317.756 84.0744 317.361 83.8692C316.966 83.6641 316.663 83.3744 316.453 83C316.243 82.6205 316.138 82.1795 316.138 81.6769C316.138 80.841 316.463 80.2 317.115 79.7538C317.766 79.3077 318.707 79.0846 319.938 79.0846H321.13V78.4077C321.13 77.8436 320.966 77.4359 320.638 77.1846C320.31 76.9282 319.83 76.8 319.199 76.8C318.589 76.8 317.887 76.9385 317.092 77.2154L316.753 76.2385C317.656 75.9 318.538 75.7308 319.399 75.7308C320.389 75.7308 321.14 75.9641 321.653 76.4308C322.171 76.8923 322.43 77.5308 322.43 78.3462V82.2308ZM319.084 83.1923C319.484 83.1923 319.863 83.0923 320.222 82.8923C320.587 82.6872 320.889 82.4051 321.13 82.0462V79.9615H319.961C319.104 79.9615 318.484 80.1077 318.099 80.4C317.715 80.6923 317.522 81.1128 317.522 81.6615C317.522 82.6821 318.043 83.1923 319.084 83.1923ZM329.52 83.0615C330.243 83.0615 330.946 82.8256 331.628 82.3538L332.259 83.2C331.905 83.4974 331.479 83.7359 330.982 83.9154C330.484 84.0897 329.997 84.1769 329.52 84.1769C328.725 84.1769 328.041 84.0051 327.466 83.6615C326.897 83.3179 326.464 82.8308 326.166 82.2C325.869 81.5692 325.72 80.8308 325.72 79.9846C325.72 79.1692 325.871 78.441 326.174 77.8C326.477 77.1538 326.915 76.6487 327.489 76.2846C328.064 75.9154 328.746 75.7308 329.536 75.7308C330.566 75.7308 331.469 76.0436 332.243 76.6692L331.612 77.5308C330.915 77.0487 330.218 76.8077 329.52 76.8077C329.043 76.8077 328.625 76.9256 328.266 77.1615C327.907 77.3974 327.625 77.7538 327.42 78.2308C327.22 78.7077 327.12 79.2923 327.12 79.9846C327.12 81.0205 327.336 81.7923 327.766 82.3C328.202 82.8077 328.787 83.0615 329.52 83.0615ZM341.518 83.5923C341.246 83.7718 340.91 83.9128 340.51 84.0154C340.115 84.1231 339.728 84.1769 339.349 84.1769C338.779 84.1769 338.29 84.0744 337.879 83.8692C337.474 83.659 337.164 83.3692 336.949 83C336.733 82.6308 336.626 82.2077 336.626 81.7308V76.9H334.764V75.9H336.626V74.0615L337.918 73.9077V75.9H340.718L340.564 76.9H337.918V81.7154C337.918 82.1769 338.038 82.5231 338.279 82.7538C338.526 82.9846 338.921 83.1 339.464 83.1C340.013 83.1 340.531 82.9718 341.018 82.7154L341.518 83.5923ZM54.8032 100.231C54.8032 100.549 54.8545 100.785 54.957 100.938C55.0596 101.087 55.2288 101.197 55.4647 101.269L55.1493 102.177C54.3699 102.074 53.875 101.695 53.6647 101.038C53.3775 101.413 53.0134 101.697 52.5724 101.892C52.1365 102.082 51.6545 102.177 51.1263 102.177C50.5929 102.177 50.1288 102.074 49.734 101.869C49.3391 101.664 49.0365 101.374 48.8263 101C48.616 100.621 48.5109 100.179 48.5109 99.6769C48.5109 98.841 48.8365 98.2 49.4878 97.7538C50.1391 97.3077 51.0801 97.0846 52.3109 97.0846H53.5032V96.4077C53.5032 95.8436 53.3391 95.4359 53.0109 95.1846C52.6827 94.9282 52.2032 94.8 51.5724 94.8C50.9622 94.8 50.2596 94.9385 49.4647 95.2154L49.1263 94.2385C50.0288 93.9 50.9109 93.7308 51.7724 93.7308C52.7622 93.7308 53.5134 93.9641 54.0263 94.4308C54.5442 94.8923 54.8032 95.5308 54.8032 96.3462V100.231ZM51.457 101.192C51.857 101.192 52.2365 101.092 52.5955 100.892C52.9596 100.687 53.2622 100.405 53.5032 100.046V97.9615H52.334C51.4775 97.9615 50.857 98.1077 50.4724 98.4C50.0878 98.6923 49.8955 99.1128 49.8955 99.6615C49.8955 100.682 50.416 101.192 51.457 101.192ZM63.7009 93.7231C63.9112 93.7231 64.1035 93.7385 64.2779 93.7692C64.4522 93.7949 64.642 93.8385 64.8471 93.9L64.6625 96.6385H63.6009V94.9154H63.5317C62.9061 94.9154 62.3727 95.1359 61.9317 95.5769C61.4907 96.0179 61.1343 96.6846 60.8625 97.5769V101.008H62.5086V102H58.3086V101.008H59.5702V94.8923H58.3086V93.9H60.5548L60.7932 95.8154C61.1214 95.1128 61.5112 94.5897 61.9625 94.2462C62.4189 93.8974 62.9984 93.7231 63.7009 93.7231ZM74.8756 93.9L73.4602 102H71.6294L70.5833 96.0538L69.4448 102H67.6602L66.1833 93.9H67.5064L68.5371 101.2L69.8294 94.9308H71.3602L72.5833 101.2L73.6141 93.9H74.8756ZM77.7041 98.4077C77.7246 99.0128 77.8426 99.5179 78.058 99.9231C78.2733 100.323 78.5554 100.621 78.9041 100.815C79.2528 101.005 79.6426 101.1 80.0733 101.1C80.4733 101.1 80.84 101.041 81.1733 100.923C81.5118 100.805 81.8657 100.621 82.2349 100.369L82.8426 101.223C82.4631 101.521 82.0272 101.754 81.5349 101.923C81.0477 102.092 80.5554 102.177 80.058 102.177C79.2836 102.177 78.6169 102.003 78.058 101.654C77.499 101.305 77.0733 100.813 76.781 100.177C76.4939 99.541 76.3503 98.8026 76.3503 97.9615C76.3503 97.1462 76.4964 96.4179 76.7887 95.7769C77.081 95.1359 77.4939 94.6359 78.0272 94.2769C78.5605 93.9128 79.181 93.7308 79.8887 93.7308C80.5657 93.7308 81.1503 93.8897 81.6426 94.2077C82.14 94.5256 82.5195 94.9846 82.781 95.5846C83.0477 96.1795 83.181 96.8846 83.181 97.7C83.181 97.9359 83.1708 98.1718 83.1503 98.4077H77.7041ZM79.9041 94.7923C79.2785 94.7923 78.7682 95.0128 78.3733 95.4538C77.9836 95.8897 77.7631 96.541 77.7118 97.4077H81.9349C81.9195 96.5564 81.7323 95.9077 81.3733 95.4615C81.0144 95.0154 80.5246 94.7923 79.9041 94.7923ZM91.7172 100.231C91.7172 100.549 91.7685 100.785 91.8711 100.938C91.9737 101.087 92.1429 101.197 92.3788 101.269L92.0634 102.177C91.2839 102.074 90.789 101.695 90.5788 101.038C90.2916 101.413 89.9275 101.697 89.4865 101.892C89.0506 102.082 88.5685 102.177 88.0403 102.177C87.507 102.177 87.0429 102.074 86.648 101.869C86.2531 101.664 85.9506 101.374 85.7403 101C85.5301 100.621 85.4249 100.179 85.4249 99.6769C85.4249 98.841 85.7506 98.2 86.4019 97.7538C87.0531 97.3077 87.9942 97.0846 89.2249 97.0846H90.4172V96.4077C90.4172 95.8436 90.2531 95.4359 89.9249 95.1846C89.5967 94.9282 89.1172 94.8 88.4865 94.8C87.8762 94.8 87.1737 94.9385 86.3788 95.2154L86.0403 94.2385C86.9429 93.9 87.8249 93.7308 88.6865 93.7308C89.6762 93.7308 90.4275 93.9641 90.9403 94.4308C91.4583 94.8923 91.7172 95.5308 91.7172 96.3462V100.231ZM88.3711 101.192C88.7711 101.192 89.1506 101.092 89.5096 100.892C89.8737 100.687 90.1762 100.405 90.4172 100.046V97.9615H89.248C88.3916 97.9615 87.7711 98.1077 87.3865 98.4C87.0019 98.6923 86.8096 99.1128 86.8096 99.6615C86.8096 100.682 87.3301 101.192 88.3711 101.192ZM100.561 93.9H101.9L98.9535 102H97.4535L94.5304 93.9H95.8996L98.2458 100.823L100.561 93.9ZM105.39 98.4077C105.41 99.0128 105.528 99.5179 105.744 99.9231C105.959 100.323 106.241 100.621 106.59 100.815C106.938 101.005 107.328 101.1 107.759 101.1C108.159 101.1 108.526 101.041 108.859 100.923C109.197 100.805 109.551 100.621 109.92 100.369L110.528 101.223C110.149 101.521 109.713 101.754 109.22 101.923C108.733 102.092 108.241 102.177 107.744 102.177C106.969 102.177 106.302 102.003 105.744 101.654C105.185 101.305 104.759 100.813 104.467 100.177C104.179 99.541 104.036 98.8026 104.036 97.9615C104.036 97.1462 104.182 96.4179 104.474 95.7769C104.767 95.1359 105.179 94.6359 105.713 94.2769C106.246 93.9128 106.867 93.7308 107.574 93.7308C108.251 93.7308 108.836 93.8897 109.328 94.2077C109.826 94.5256 110.205 94.9846 110.467 95.5846C110.733 96.1795 110.867 96.8846 110.867 97.7C110.867 97.9359 110.856 98.1718 110.836 98.4077H105.39ZM107.59 94.7923C106.964 94.7923 106.454 95.0128 106.059 95.4538C105.669 95.8897 105.449 96.541 105.397 97.4077H109.62C109.605 96.5564 109.418 95.9077 109.059 95.4615C108.7 95.0154 108.21 94.7923 107.59 94.7923ZM117.564 91.2385C118.231 91.2385 118.798 91.3231 119.264 91.4923C119.736 91.6564 120.193 91.9154 120.634 92.2692L119.887 93.1385C119.262 92.6154 118.521 92.3538 117.664 92.3538C117.049 92.3538 116.498 92.4974 116.01 92.7846C115.528 93.0718 115.141 93.5385 114.849 94.1846C114.562 94.8308 114.418 95.6692 114.418 96.7C114.418 97.7103 114.557 98.5385 114.834 99.1846C115.11 99.8308 115.487 100.3 115.964 100.592C116.446 100.885 117.003 101.031 117.634 101.031C118.172 101.031 118.634 100.951 119.018 100.792C119.403 100.633 119.762 100.418 120.095 100.146L120.787 101.023C120.428 101.372 119.987 101.651 119.464 101.862C118.941 102.072 118.326 102.177 117.618 102.177C116.746 102.177 115.962 101.964 115.264 101.538C114.572 101.113 114.026 100.49 113.626 99.6692C113.231 98.8436 113.034 97.8538 113.034 96.7C113.034 95.5513 113.236 94.5667 113.641 93.7462C114.046 92.9205 114.593 92.2974 115.28 91.8769C115.967 91.4513 116.728 91.2385 117.564 91.2385ZM125.985 100C125.985 100.379 126.103 100.659 126.339 100.838C126.58 101.013 126.908 101.1 127.324 101.1C127.76 101.1 128.213 101.005 128.685 100.815L129.031 101.762C128.785 101.885 128.498 101.985 128.17 102.062C127.842 102.138 127.488 102.177 127.108 102.177C126.631 102.177 126.208 102.087 125.839 101.908C125.475 101.728 125.193 101.469 124.993 101.131C124.793 100.792 124.693 100.392 124.693 99.9308V91.6615H122.208V90.6385H125.985V100ZM135.129 90.1077C135.411 90.1077 135.639 90.1949 135.814 90.3692C135.988 90.5385 136.075 90.7513 136.075 91.0077C136.075 91.2744 135.988 91.4949 135.814 91.6692C135.639 91.8436 135.411 91.9308 135.129 91.9308C134.857 91.9308 134.634 91.8436 134.46 91.6692C134.285 91.4897 134.198 91.2692 134.198 91.0077C134.198 90.7513 134.285 90.5385 134.46 90.3692C134.634 90.1949 134.857 90.1077 135.129 90.1077ZM132.444 93.9H136.16V100.977H138.444V102H132.368V100.977H134.868V94.9231H132.444V93.9ZM142.304 98.4077C142.324 99.0128 142.442 99.5179 142.658 99.9231C142.873 100.323 143.155 100.621 143.504 100.815C143.852 101.005 144.242 101.1 144.673 101.1C145.073 101.1 145.44 101.041 145.773 100.923C146.111 100.805 146.465 100.621 146.834 100.369L147.442 101.223C147.063 101.521 146.627 101.754 146.134 101.923C145.647 102.092 145.155 102.177 144.658 102.177C143.883 102.177 143.217 102.003 142.658 101.654C142.099 101.305 141.673 100.813 141.381 100.177C141.093 99.541 140.95 98.8026 140.95 97.9615C140.95 97.1462 141.096 96.4179 141.388 95.7769C141.681 95.1359 142.093 94.6359 142.627 94.2769C143.16 93.9128 143.781 93.7308 144.488 93.7308C145.165 93.7308 145.75 93.8897 146.242 94.2077C146.74 94.5256 147.119 94.9846 147.381 95.5846C147.647 96.1795 147.781 96.8846 147.781 97.7C147.781 97.9359 147.77 98.1718 147.75 98.4077H142.304ZM144.504 94.7923C143.878 94.7923 143.368 95.0128 142.973 95.4538C142.583 95.8897 142.363 96.541 142.311 97.4077H146.534C146.519 96.5564 146.332 95.9077 145.973 95.4615C145.614 95.0154 145.124 94.7923 144.504 94.7923ZM150.517 102V93.9H151.617L151.717 95.0231C152.04 94.6179 152.445 94.3026 152.932 94.0769C153.425 93.8462 153.912 93.7308 154.394 93.7308C155.168 93.7308 155.74 93.9359 156.109 94.3462C156.484 94.7564 156.671 95.3462 156.671 96.1154V102H155.378V97.0692C155.378 96.4641 155.345 96.0026 155.278 95.6846C155.217 95.3667 155.086 95.1308 154.886 94.9769C154.691 94.8231 154.394 94.7462 153.994 94.7462C153.558 94.7462 153.145 94.8821 152.755 95.1538C152.371 95.4205 152.055 95.7359 151.809 96.1V102H150.517ZM166.176 101.592C165.904 101.772 165.568 101.913 165.168 102.015C164.774 102.123 164.386 102.177 164.007 102.177C163.438 102.177 162.948 102.074 162.538 101.869C162.133 101.659 161.822 101.369 161.607 101C161.392 100.631 161.284 100.208 161.284 99.7308V94.9H159.422V93.9H161.284V92.0615L162.576 91.9077V93.9H165.376L165.222 94.9H162.576V99.7154C162.576 100.177 162.697 100.523 162.938 100.754C163.184 100.985 163.579 101.1 164.122 101.1C164.671 101.1 165.189 100.972 165.676 100.715L166.176 101.592ZM52.6647 119.062C53.3878 119.062 54.0904 118.826 54.7724 118.354L55.4032 119.2C55.0493 119.497 54.6237 119.736 54.1263 119.915C53.6288 120.09 53.1416 120.177 52.6647 120.177C51.8699 120.177 51.1852 120.005 50.6109 119.662C50.0416 119.318 49.6083 118.831 49.3109 118.2C49.0134 117.569 48.8647 116.831 48.8647 115.985C48.8647 115.169 49.016 114.441 49.3186 113.8C49.6211 113.154 50.0596 112.649 50.634 112.285C51.2083 111.915 51.8904 111.731 52.6801 111.731C53.7109 111.731 54.6134 112.044 55.3878 112.669L54.757 113.531C54.0596 113.049 53.3622 112.808 52.6647 112.808C52.1878 112.808 51.7699 112.926 51.4109 113.162C51.0519 113.397 50.7699 113.754 50.5647 114.231C50.3647 114.708 50.2647 115.292 50.2647 115.985C50.2647 117.021 50.4801 117.792 50.9109 118.3C51.3468 118.808 51.9314 119.062 52.6647 119.062ZM61.3163 111.731C62.065 111.731 62.6984 111.903 63.2163 112.246C63.7343 112.585 64.124 113.072 64.3855 113.708C64.6522 114.338 64.7855 115.085 64.7855 115.946C64.7855 116.782 64.6496 117.518 64.3779 118.154C64.1112 118.79 63.7163 119.287 63.1932 119.646C62.6702 120 62.0394 120.177 61.3009 120.177C60.5522 120.177 59.9163 120.005 59.3932 119.662C58.8753 119.313 58.483 118.823 58.2163 118.192C57.9496 117.562 57.8163 116.818 57.8163 115.962C57.8163 115.121 57.9496 114.382 58.2163 113.746C58.4881 113.11 58.8855 112.615 59.4086 112.262C59.9368 111.908 60.5727 111.731 61.3163 111.731ZM61.3163 112.785C60.6138 112.785 60.0855 113.046 59.7317 113.569C59.3779 114.087 59.2009 114.885 59.2009 115.962C59.2009 117.023 59.3753 117.815 59.724 118.338C60.0727 118.856 60.5984 119.115 61.3009 119.115C62.0035 119.115 62.5291 118.856 62.8779 118.338C63.2266 117.815 63.4009 117.018 63.4009 115.946C63.4009 114.879 63.2266 114.087 62.8779 113.569C62.5291 113.046 62.0086 112.785 61.3163 112.785ZM67.4602 120V111.9H68.5602L68.6602 113.023C68.9833 112.618 69.3884 112.303 69.8756 112.077C70.3679 111.846 70.8551 111.731 71.3371 111.731C72.1115 111.731 72.6833 111.936 73.0525 112.346C73.4269 112.756 73.6141 113.346 73.6141 114.115V120H72.3218V115.069C72.3218 114.464 72.2884 114.003 72.2218 113.685C72.1602 113.367 72.0294 113.131 71.8294 112.977C71.6346 112.823 71.3371 112.746 70.9371 112.746C70.5012 112.746 70.0884 112.882 69.6987 113.154C69.3141 113.421 68.9987 113.736 68.7525 114.1V120H67.4602ZM83.1195 119.592C82.8477 119.772 82.5118 119.913 82.1118 120.015C81.7169 120.123 81.3298 120.177 80.9503 120.177C80.381 120.177 79.8913 120.074 79.481 119.869C79.0759 119.659 78.7657 119.369 78.5503 119C78.3349 118.631 78.2272 118.208 78.2272 117.731V112.9H76.3657V111.9H78.2272V110.062L79.5195 109.908V111.9H82.3195L82.1657 112.9H79.5195V117.715C79.5195 118.177 79.64 118.523 79.881 118.754C80.1272 118.985 80.5221 119.1 81.0657 119.1C81.6144 119.1 82.1323 118.972 82.6195 118.715L83.1195 119.592ZM91.3865 111.723C91.5967 111.723 91.789 111.738 91.9634 111.769C92.1378 111.795 92.3275 111.838 92.5326 111.9L92.348 114.638H91.2865V112.915H91.2172C90.5916 112.915 90.0583 113.136 89.6172 113.577C89.1762 114.018 88.8198 114.685 88.548 115.577V119.008H90.1942V120H85.9942V119.008H87.2557V112.892H85.9942V111.9H88.2403L88.4788 113.815C88.807 113.113 89.1967 112.59 89.648 112.246C90.1044 111.897 90.6839 111.723 91.3865 111.723ZM100.946 118.231C100.946 118.549 100.997 118.785 101.1 118.938C101.202 119.087 101.371 119.197 101.607 119.269L101.292 120.177C100.512 120.074 100.018 119.695 99.8073 119.038C99.5201 119.413 99.156 119.697 98.715 119.892C98.2791 120.082 97.797 120.177 97.2688 120.177C96.7355 120.177 96.2714 120.074 95.8765 119.869C95.4817 119.664 95.1791 119.374 94.9688 119C94.7586 118.621 94.6535 118.179 94.6535 117.677C94.6535 116.841 94.9791 116.2 95.6304 115.754C96.2817 115.308 97.2227 115.085 98.4535 115.085H99.6458V114.408C99.6458 113.844 99.4817 113.436 99.1535 113.185C98.8253 112.928 98.3458 112.8 97.715 112.8C97.1047 112.8 96.4022 112.938 95.6073 113.215L95.2688 112.238C96.1714 111.9 97.0535 111.731 97.915 111.731C98.9047 111.731 99.656 111.964 100.169 112.431C100.687 112.892 100.946 113.531 100.946 114.346V118.231ZM97.5996 119.192C97.9996 119.192 98.3791 119.092 98.7381 118.892C99.1022 118.687 99.4047 118.405 99.6458 118.046V115.962H98.4765C97.6201 115.962 96.9996 116.108 96.615 116.4C96.2304 116.692 96.0381 117.113 96.0381 117.662C96.0381 118.682 96.5586 119.192 97.5996 119.192ZM108.036 119.062C108.759 119.062 109.461 118.826 110.144 118.354L110.774 119.2C110.42 119.497 109.995 119.736 109.497 119.915C109 120.09 108.513 120.177 108.036 120.177C107.241 120.177 106.556 120.005 105.982 119.662C105.413 119.318 104.979 118.831 104.682 118.2C104.385 117.569 104.236 116.831 104.236 115.985C104.236 115.169 104.387 114.441 104.69 113.8C104.992 113.154 105.431 112.649 106.005 112.285C106.579 111.915 107.261 111.731 108.051 111.731C109.082 111.731 109.985 112.044 110.759 112.669L110.128 113.531C109.431 113.049 108.733 112.808 108.036 112.808C107.559 112.808 107.141 112.926 106.782 113.162C106.423 113.397 106.141 113.754 105.936 114.231C105.736 114.708 105.636 115.292 105.636 115.985C105.636 117.021 105.851 117.792 106.282 118.3C106.718 118.808 107.302 119.062 108.036 119.062ZM120.034 119.592C119.762 119.772 119.426 119.913 119.026 120.015C118.631 120.123 118.244 120.177 117.864 120.177C117.295 120.177 116.805 120.074 116.395 119.869C115.99 119.659 115.68 119.369 115.464 119C115.249 118.631 115.141 118.208 115.141 117.731V112.9H113.28V111.9H115.141V110.062L116.434 109.908V111.9H119.234L119.08 112.9H116.434V117.715C116.434 118.177 116.554 118.523 116.795 118.754C117.041 118.985 117.436 119.1 117.98 119.1C118.528 119.1 119.046 118.972 119.534 118.715L120.034 119.592ZM122.87 109.408H128.931V110.477H126.577V118.931H128.931V120H122.87V118.931H125.224V110.477H122.87V109.408ZM139.014 114.654C139.014 116.659 138.552 118.051 137.629 118.831C136.711 119.61 135.578 120 134.229 120H131.798V109.408H134.06C135.003 109.408 135.837 109.551 136.56 109.838C137.283 110.121 137.873 110.649 138.329 111.423C138.785 112.197 139.014 113.274 139.014 114.654ZM137.591 114.654C137.591 113.505 137.434 112.626 137.121 112.015C136.809 111.405 136.419 111 135.952 110.8C135.491 110.6 134.965 110.5 134.375 110.5H133.129V118.931H134.391C135.309 118.931 136.07 118.618 136.675 117.992C137.285 117.362 137.591 116.249 137.591 114.654Z" fill="white"/>
<path d="M100.546 36.1615C99.9201 36.1615 99.4304 36.2564 99.0765 36.4462C98.7227 36.6359 98.5663 36.9513 98.6073 37.3923L98.9304 40.5462C98.9458 40.6744 98.9535 40.8 98.9535 40.9231C98.9535 41.4256 98.8304 41.8128 98.5842 42.0846C98.3432 42.3513 97.9791 42.5282 97.4919 42.6154C97.9894 42.7026 98.356 42.8744 98.5919 43.1308C98.8329 43.3821 98.9535 43.7615 98.9535 44.2692C98.9535 44.3974 98.9458 44.5359 98.9304 44.6846L98.6073 47.8385C98.6022 47.8692 98.5996 47.9128 98.5996 47.9692C98.5996 48.7026 99.2483 49.0692 100.546 49.0692V50.0846C99.6176 50.0846 98.8611 49.9256 98.2765 49.6077C97.697 49.2949 97.4073 48.7615 97.4073 48.0077C97.4073 47.8692 97.4124 47.7615 97.4227 47.6846L97.7304 44.7615C97.7406 44.6897 97.7458 44.5872 97.7458 44.4538C97.7458 44.1513 97.6765 43.9051 97.5381 43.7154C97.3996 43.5256 97.1586 43.3821 96.815 43.2846C96.4765 43.1821 96.0073 43.1308 95.4073 43.1308V42.1C96.0073 42.1 96.4765 42.0513 96.815 41.9538C97.1586 41.8564 97.3996 41.7128 97.5381 41.5231C97.6765 41.3333 97.7458 41.0897 97.7458 40.7923C97.7458 40.659 97.7406 40.5564 97.7304 40.4846L97.4227 37.5462C97.4124 37.4692 97.4073 37.3615 97.4073 37.2231C97.4073 36.4692 97.697 35.9359 98.2765 35.6231C98.8611 35.3051 99.6176 35.1462 100.546 35.1462V36.1615ZM225.083 35.1462C226.012 35.1462 226.765 35.3051 227.345 35.6231C227.93 35.9359 228.222 36.4692 228.222 37.2231C228.222 37.3615 228.217 37.4692 228.207 37.5462L227.899 40.4846C227.889 40.5974 227.883 40.6821 227.883 40.7385C227.883 41.1949 228.063 41.5359 228.422 41.7615C228.781 41.9872 229.381 42.1 230.222 42.1V43.1308C229.386 43.1308 228.786 43.2462 228.422 43.4769C228.063 43.7026 227.883 44.0462 227.883 44.5077C227.883 44.5641 227.889 44.6487 227.899 44.7615L228.207 47.6846C228.217 47.7615 228.222 47.8692 228.222 48.0077C228.222 48.7615 227.93 49.2949 227.345 49.6077C226.765 49.9256 226.012 50.0846 225.083 50.0846V49.0692C226.453 49.0692 227.099 48.659 227.022 47.8385L226.699 44.6846C226.683 44.5359 226.676 44.3974 226.676 44.2692C226.676 43.7513 226.804 43.3692 227.06 43.1231C227.317 42.8769 227.732 42.7128 228.307 42.6308C227.748 42.5385 227.335 42.3564 227.068 42.0846C226.807 41.8128 226.676 41.4231 226.676 40.9154C226.676 40.7974 226.683 40.6744 226.699 40.5462L227.022 37.3923C227.027 37.3615 227.03 37.3179 227.03 37.2615C227.03 36.8667 226.853 36.5846 226.499 36.4154C226.15 36.2462 225.678 36.1615 225.083 36.1615V35.1462ZM291.298 40.6385H290.16L289.914 36.6385H291.537L291.298 40.6385ZM293.868 40.6385H292.729L292.498 36.6385H294.114L293.868 40.6385ZM301.835 47.0615C302.558 47.0615 303.26 46.8256 303.942 46.3538L304.573 47.2C304.219 47.4974 303.794 47.7359 303.296 47.9154C302.799 48.0897 302.312 48.1769 301.835 48.1769C301.04 48.1769 300.355 48.0051 299.781 47.6615C299.212 47.3179 298.778 46.8308 298.481 46.2C298.183 45.5692 298.035 44.8308 298.035 43.9846C298.035 43.1692 298.186 42.441 298.488 41.8C298.791 41.1538 299.23 40.6487 299.804 40.2846C300.378 39.9154 301.06 39.7308 301.85 39.7308C302.881 39.7308 303.783 40.0436 304.558 40.6692L303.927 41.5308C303.23 41.0487 302.532 40.8077 301.835 40.8077C301.358 40.8077 300.94 40.9256 300.581 41.1615C300.222 41.3974 299.94 41.7538 299.735 42.2308C299.535 42.7077 299.435 43.2923 299.435 43.9846C299.435 45.0205 299.65 45.7923 300.081 46.3C300.517 46.8077 301.101 47.0615 301.835 47.0615ZM313.202 46.2308C313.202 46.5487 313.253 46.7846 313.355 46.9385C313.458 47.0872 313.627 47.1974 313.863 47.2692L313.548 48.1769C312.768 48.0744 312.273 47.6949 312.063 47.0385C311.776 47.4128 311.412 47.6974 310.971 47.8923C310.535 48.0821 310.053 48.1769 309.525 48.1769C308.991 48.1769 308.527 48.0744 308.132 47.8692C307.738 47.6641 307.435 47.3744 307.225 47C307.014 46.6205 306.909 46.1795 306.909 45.6769C306.909 44.841 307.235 44.2 307.886 43.7538C308.538 43.3077 309.479 43.0846 310.709 43.0846H311.902V42.4077C311.902 41.8436 311.738 41.4359 311.409 41.1846C311.081 40.9282 310.602 40.8 309.971 40.8C309.361 40.8 308.658 40.9385 307.863 41.2154L307.525 40.2385C308.427 39.9 309.309 39.7308 310.171 39.7308C311.161 39.7308 311.912 39.9641 312.425 40.4308C312.943 40.8923 313.202 41.5308 313.202 42.3462V46.2308ZM309.855 47.1923C310.255 47.1923 310.635 47.0923 310.994 46.8923C311.358 46.6872 311.661 46.4051 311.902 46.0462V43.9615H310.732C309.876 43.9615 309.255 44.1077 308.871 44.4C308.486 44.6923 308.294 45.1128 308.294 45.6615C308.294 46.6821 308.814 47.1923 309.855 47.1923ZM320.292 47.0615C321.015 47.0615 321.717 46.8256 322.399 46.3538L323.03 47.2C322.676 47.4974 322.251 47.7359 321.753 47.9154C321.256 48.0897 320.769 48.1769 320.292 48.1769C319.497 48.1769 318.812 48.0051 318.238 47.6615C317.669 47.3179 317.235 46.8308 316.938 46.2C316.64 45.5692 316.492 44.8308 316.492 43.9846C316.492 43.1692 316.643 42.441 316.946 41.8C317.248 41.1538 317.687 40.6487 318.261 40.2846C318.835 39.9154 319.517 39.7308 320.307 39.7308C321.338 39.7308 322.24 40.0436 323.015 40.6692L322.384 41.5308C321.687 41.0487 320.989 40.8077 320.292 40.8077C319.815 40.8077 319.397 40.9256 319.038 41.1615C318.679 41.3974 318.397 41.7538 318.192 42.2308C317.992 42.7077 317.892 43.2923 317.892 43.9846C317.892 45.0205 318.107 45.7923 318.538 46.3C318.974 46.8077 319.558 47.0615 320.292 47.0615ZM327.151 41.0077C327.464 40.5974 327.848 40.2821 328.305 40.0615C328.766 39.841 329.243 39.7308 329.736 39.7308C330.51 39.7308 331.082 39.9359 331.451 40.3462C331.825 40.7564 332.012 41.3462 332.012 42.1154V48H330.72V42.1462C330.72 41.6641 330.607 41.3103 330.382 41.0846C330.156 40.859 329.802 40.7462 329.32 40.7462C328.895 40.7462 328.487 40.8821 328.097 41.1538C327.707 41.4205 327.392 41.7359 327.151 42.1V48H325.859V36.6538L327.151 36.5154V41.0077ZM336.103 44.4077C336.123 45.0128 336.241 45.5179 336.456 45.9231C336.672 46.3231 336.954 46.6205 337.303 46.8154C337.651 47.0051 338.041 47.1 338.472 47.1C338.872 47.1 339.238 47.041 339.572 46.9231C339.91 46.8051 340.264 46.6205 340.633 46.3692L341.241 47.2231C340.862 47.5205 340.426 47.7538 339.933 47.9231C339.446 48.0923 338.954 48.1769 338.456 48.1769C337.682 48.1769 337.015 48.0026 336.456 47.6538C335.897 47.3051 335.472 46.8128 335.179 46.1769C334.892 45.541 334.749 44.8026 334.749 43.9615C334.749 43.1462 334.895 42.4179 335.187 41.7769C335.479 41.1359 335.892 40.6359 336.426 40.2769C336.959 39.9128 337.579 39.7308 338.287 39.7308C338.964 39.7308 339.549 39.8897 340.041 40.2077C340.538 40.5256 340.918 40.9846 341.179 41.5846C341.446 42.1795 341.579 42.8846 341.579 43.7C341.579 43.9359 341.569 44.1718 341.549 44.4077H336.103ZM338.303 40.7923C337.677 40.7923 337.167 41.0128 336.772 41.4538C336.382 41.8897 336.162 42.541 336.11 43.4077H340.333C340.318 42.5564 340.131 41.9077 339.772 41.4615C339.413 41.0154 338.923 40.7923 338.303 40.7923ZM351.731 39.9L350.316 48H348.485L347.439 42.0538L346.3 48H344.516L343.039 39.9H344.362L345.393 47.2L346.685 40.9308H348.216L349.439 47.2L350.47 39.9H351.731ZM354.56 44.4077C354.58 45.0128 354.698 45.5179 354.913 45.9231C355.129 46.3231 355.411 46.6205 355.76 46.8154C356.108 47.0051 356.498 47.1 356.929 47.1C357.329 47.1 357.695 47.041 358.029 46.9231C358.367 46.8051 358.721 46.6205 359.09 46.3692L359.698 47.2231C359.319 47.5205 358.883 47.7538 358.39 47.9231C357.903 48.0923 357.411 48.1769 356.913 48.1769C356.139 48.1769 355.472 48.0026 354.913 47.6538C354.354 47.3051 353.929 46.8128 353.637 46.1769C353.349 45.541 353.206 44.8026 353.206 43.9615C353.206 43.1462 353.352 42.4179 353.644 41.7769C353.937 41.1359 354.349 40.6359 354.883 40.2769C355.416 39.9128 356.037 39.7308 356.744 39.7308C357.421 39.7308 358.006 39.8897 358.498 40.2077C358.995 40.5256 359.375 40.9846 359.637 41.5846C359.903 42.1795 360.037 42.8846 360.037 43.7C360.037 43.9359 360.026 44.1718 360.006 44.4077H354.56ZM356.76 40.7923C356.134 40.7923 355.624 41.0128 355.229 41.4538C354.839 41.8897 354.619 42.541 354.567 43.4077H358.79C358.775 42.5564 358.588 41.9077 358.229 41.4615C357.87 41.0154 357.38 40.7923 356.76 40.7923ZM368.573 46.2308C368.573 46.5487 368.624 46.7846 368.727 46.9385C368.829 47.0872 368.998 47.1974 369.234 47.2692L368.919 48.1769C368.139 48.0744 367.645 47.6949 367.434 47.0385C367.147 47.4128 366.783 47.6974 366.342 47.8923C365.906 48.0821 365.424 48.1769 364.896 48.1769C364.362 48.1769 363.898 48.0744 363.503 47.8692C363.109 47.6641 362.806 47.3744 362.596 47C362.386 46.6205 362.28 46.1795 362.28 45.6769C362.28 44.841 362.606 44.2 363.257 43.7538C363.909 43.3077 364.85 43.0846 366.08 43.0846H367.273V42.4077C367.273 41.8436 367.109 41.4359 366.78 41.1846C366.452 40.9282 365.973 40.8 365.342 40.8C364.732 40.8 364.029 40.9385 363.234 41.2154L362.896 40.2385C363.798 39.9 364.68 39.7308 365.542 39.7308C366.532 39.7308 367.283 39.9641 367.796 40.4308C368.314 40.8923 368.573 41.5308 368.573 42.3462V46.2308ZM365.227 47.1923C365.627 47.1923 366.006 47.0923 366.365 46.8923C366.729 46.6872 367.032 46.4051 367.273 46.0462V43.9615H366.103C365.247 43.9615 364.627 44.1077 364.242 44.4C363.857 44.6923 363.665 45.1128 363.665 45.6615C363.665 46.6821 364.186 47.1923 365.227 47.1923ZM377.417 39.9H378.755L375.809 48H374.309L371.386 39.9H372.755L375.101 46.8231L377.417 39.9ZM382.245 44.4077C382.266 45.0128 382.384 45.5179 382.599 45.9231C382.814 46.3231 383.096 46.6205 383.445 46.8154C383.794 47.0051 384.184 47.1 384.614 47.1C385.014 47.1 385.381 47.041 385.714 46.9231C386.053 46.8051 386.407 46.6205 386.776 46.3692L387.384 47.2231C387.004 47.5205 386.568 47.7538 386.076 47.9231C385.589 48.0923 385.096 48.1769 384.599 48.1769C383.825 48.1769 383.158 48.0026 382.599 47.6538C382.04 47.3051 381.614 46.8128 381.322 46.1769C381.035 45.541 380.891 44.8026 380.891 43.9615C380.891 43.1462 381.037 42.4179 381.33 41.7769C381.622 41.1359 382.035 40.6359 382.568 40.2769C383.102 39.9128 383.722 39.7308 384.43 39.7308C385.107 39.7308 385.691 39.8897 386.184 40.2077C386.681 40.5256 387.061 40.9846 387.322 41.5846C387.589 42.1795 387.722 42.8846 387.722 43.7C387.722 43.9359 387.712 44.1718 387.691 44.4077H382.245ZM384.445 40.7923C383.819 40.7923 383.309 41.0128 382.914 41.4538C382.525 41.8897 382.304 42.541 382.253 43.4077H386.476C386.461 42.5564 386.273 41.9077 385.914 41.4615C385.555 41.0154 385.066 40.7923 384.445 40.7923ZM392.812 40.6385H391.674L391.427 36.6385H393.051L392.812 40.6385ZM395.381 40.6385H394.243L394.012 36.6385H395.627L395.381 40.6385ZM402.741 40.1385C402.977 40.1385 403.189 40.1949 403.379 40.3077C403.569 40.4154 403.718 40.5641 403.825 40.7538C403.938 40.9436 403.994 41.1513 403.994 41.3769C403.994 41.6026 403.938 41.8128 403.825 42.0077C403.718 42.1974 403.569 42.3487 403.379 42.4615C403.189 42.5744 402.977 42.6308 402.741 42.6308C402.51 42.6308 402.3 42.5744 402.11 42.4615C401.925 42.3487 401.777 42.1974 401.664 42.0077C401.556 41.8128 401.502 41.6026 401.502 41.3769C401.502 41.1513 401.556 40.9436 401.664 40.7538C401.777 40.5641 401.925 40.4154 402.11 40.3077C402.3 40.1949 402.51 40.1385 402.741 40.1385ZM402.741 45.4538C402.977 45.4538 403.189 45.5103 403.379 45.6231C403.569 45.7308 403.718 45.8795 403.825 46.0692C403.938 46.2538 403.994 46.459 403.994 46.6846C403.994 46.8846 403.971 47.0795 403.925 47.2692C403.879 47.459 403.8 47.6718 403.687 47.9077L402.441 50.7692H401.271L402.01 47.7154C401.851 47.6077 401.725 47.4641 401.633 47.2846C401.546 47.1 401.502 46.9026 401.502 46.6923C401.502 46.4667 401.556 46.259 401.664 46.0692C401.777 45.8795 401.925 45.7308 402.11 45.6231C402.3 45.5103 402.51 45.4538 402.741 45.4538ZM169.051 77.2H175.035V78.3154H169.051V77.2ZM169.051 80.1154H175.035V81.2385H169.051V80.1154ZM346.039 78.6154C346.039 79.6615 346.157 80.5744 346.393 81.3538C346.634 82.1282 346.987 82.8308 347.454 83.4615C347.926 84.0923 348.552 84.7538 349.331 85.4462L348.654 86.1538C347.757 85.4256 347.023 84.7077 346.454 84C345.885 83.2974 345.446 82.5077 345.139 81.6308C344.836 80.7538 344.685 79.7487 344.685 78.6154C344.685 77.4821 344.836 76.4769 345.139 75.6C345.446 74.7231 345.885 73.9333 346.454 73.2308C347.023 72.5231 347.757 71.8051 348.654 71.0769L349.331 71.7846C348.541 72.4872 347.913 73.1513 347.446 73.7769C346.98 74.4026 346.629 75.1026 346.393 75.8769C346.157 76.6513 346.039 77.5641 346.039 78.6154ZM172.043 99.4692C172.279 99.4692 172.492 99.5256 172.682 99.6385C172.871 99.7462 173.02 99.8949 173.128 100.085C173.235 100.269 173.289 100.474 173.289 100.7C173.289 100.89 173.266 101.079 173.22 101.269C173.174 101.459 173.097 101.672 172.989 101.908L171.743 104.762H170.574L171.312 101.723C171.159 101.61 171.035 101.464 170.943 101.285C170.856 101.1 170.812 100.905 170.812 100.7C170.812 100.474 170.866 100.269 170.974 100.085C171.082 99.8949 171.228 99.7462 171.412 99.6385C171.602 99.5256 171.812 99.4692 172.043 99.4692ZM144.358 117.469C144.593 117.469 144.806 117.526 144.996 117.638C145.186 117.746 145.334 117.895 145.442 118.085C145.55 118.269 145.604 118.474 145.604 118.7C145.604 118.89 145.581 119.079 145.534 119.269C145.488 119.459 145.411 119.672 145.304 119.908L144.058 122.762H142.888L143.627 119.723C143.473 119.61 143.35 119.464 143.258 119.285C143.17 119.1 143.127 118.905 143.127 118.7C143.127 118.474 143.181 118.269 143.288 118.085C143.396 117.895 143.542 117.746 143.727 117.638C143.917 117.526 144.127 117.469 144.358 117.469ZM34.9615 132.615C34.9615 131.564 34.8436 130.651 34.6077 129.877C34.3718 129.103 34.0205 128.403 33.5538 127.777C33.0872 127.151 32.459 126.487 31.6692 125.785L32.3462 125.077C33.2436 125.805 33.9769 126.523 34.5462 127.231C35.1154 127.933 35.5513 128.723 35.8538 129.6C36.1615 130.477 36.3154 131.482 36.3154 132.615C36.3154 133.749 36.1615 134.754 35.8538 135.631C35.5513 136.508 35.1154 137.297 34.5462 138C33.9769 138.708 33.2436 139.426 32.3462 140.154L31.6692 139.446C32.4487 138.754 33.0718 138.092 33.5385 137.462C34.0103 136.831 34.3641 136.128 34.6 135.354C34.841 134.574 34.9615 133.662 34.9615 132.615ZM42.8285 130.138C43.0644 130.138 43.2772 130.195 43.467 130.308C43.6567 130.415 43.8054 130.564 43.9131 130.754C44.026 130.944 44.0824 131.151 44.0824 131.377C44.0824 131.603 44.026 131.813 43.9131 132.008C43.8054 132.197 43.6567 132.349 43.467 132.462C43.2772 132.574 43.0644 132.631 42.8285 132.631C42.5977 132.631 42.3875 132.574 42.1977 132.462C42.0131 132.349 41.8644 132.197 41.7516 132.008C41.6439 131.813 41.5901 131.603 41.5901 131.377C41.5901 131.151 41.6439 130.944 41.7516 130.754C41.8644 130.564 42.0131 130.415 42.1977 130.308C42.3875 130.195 42.5977 130.138 42.8285 130.138ZM42.8285 135.454C43.0644 135.454 43.2772 135.51 43.467 135.623C43.6567 135.731 43.8054 135.879 43.9131 136.069C44.026 136.254 44.0824 136.459 44.0824 136.685C44.0824 136.885 44.0593 137.079 44.0131 137.269C43.967 137.459 43.8875 137.672 43.7747 137.908L42.5285 140.769H41.3593L42.0977 137.715C41.9388 137.608 41.8131 137.464 41.7208 137.285C41.6336 137.1 41.5901 136.903 41.5901 136.692C41.5901 136.467 41.6439 136.259 41.7516 136.069C41.8644 135.879 42.0131 135.731 42.1977 135.623C42.3875 135.51 42.5977 135.454 42.8285 135.454Z" fill="#999999"/>
</svg>
