<svg width="437" height="175" viewBox="0 0 437 175" fill="none" xmlns="http://www.w3.org/2000/svg">
<rect width="437" height="175" rx="10" fill="#1A1A1A"/>
<path d="M38.6 34.5538C38.8769 34.5538 39.1231 34.6154 39.3385 34.7385C39.5538 34.8564 39.7231 35.0205 39.8462 35.2308C39.9692 35.4359 40.0308 35.6667 40.0308 35.9231C40.0308 36.1795 39.9692 36.4128 39.8462 36.6231C39.7231 36.8333 39.5513 37 39.3308 37.1231C39.1154 37.241 38.8718 37.3 38.6 37.3C38.3231 37.3 38.0744 37.241 37.8538 37.1231C37.6333 37 37.4615 36.8333 37.3385 36.6231C37.2154 36.4128 37.1538 36.1795 37.1538 35.9231C37.1538 35.6667 37.2154 35.4359 37.3385 35.2308C37.4615 35.0205 37.6333 34.8564 37.8538 34.7385C38.0744 34.6154 38.3231 34.5538 38.6 34.5538ZM35.4 38.8308H40.0692V45.3385H42.1462V47H35.3231V45.3385H37.6385V40.4923H35.4V38.8308ZM50.3439 38.5615C50.9285 38.5615 51.3593 38.7513 51.6362 39.1308C51.9131 39.5103 52.0516 40.1179 52.0516 40.9538V47H49.967V41.2308C49.967 40.9385 49.9388 40.7359 49.8824 40.6231C49.826 40.5051 49.7183 40.4462 49.5593 40.4462C49.4208 40.4462 49.2824 40.4872 49.1439 40.5692C49.0106 40.6462 48.867 40.7821 48.7131 40.9769V47H47.0054V41.2308C47.0054 40.9385 46.9772 40.7359 46.9208 40.6231C46.8644 40.5051 46.7567 40.4462 46.5977 40.4462C46.4593 40.4462 46.3208 40.4872 46.1824 40.5692C46.049 40.6462 45.9054 40.7821 45.7516 40.9769V47H43.6362V38.8308H45.4208L45.5824 39.6231C45.849 39.259 46.1131 38.9923 46.3747 38.8231C46.6362 38.6487 46.9413 38.5615 47.2901 38.5615C47.608 38.5615 47.8721 38.641 48.0824 38.8C48.2977 38.959 48.4516 39.2026 48.5439 39.5308C49.1029 38.8846 49.7029 38.5615 50.3439 38.5615ZM58.057 38.5615C59.0878 38.5615 59.8416 38.9385 60.3186 39.6923C60.8006 40.441 61.0416 41.5077 61.0416 42.8923C61.0416 43.7385 60.916 44.4923 60.6647 45.1538C60.4186 45.8103 60.0596 46.3256 59.5878 46.7C59.116 47.0744 58.5545 47.2615 57.9032 47.2615C57.1083 47.2615 56.4622 46.9769 55.9647 46.4077V50.1538L53.534 50.4077V38.8308H55.6878L55.7955 39.7462C56.1134 39.341 56.4673 39.0436 56.857 38.8538C57.2468 38.659 57.6468 38.5615 58.057 38.5615ZM57.3032 40.3538C57.0314 40.3538 56.7852 40.4359 56.5647 40.6C56.3493 40.759 56.1493 40.9923 55.9647 41.3V44.7462C56.1391 45.0026 56.3186 45.1897 56.5032 45.3077C56.6929 45.4205 56.9134 45.4769 57.1647 45.4769C57.6109 45.4769 57.9493 45.2744 58.1801 44.8692C58.416 44.4641 58.534 43.8154 58.534 42.9231C58.534 42.2667 58.4852 41.7513 58.3878 41.3769C58.2955 40.9974 58.1596 40.7333 57.9801 40.5846C57.8006 40.4308 57.575 40.3538 57.3032 40.3538ZM66.3009 38.5615C67.1266 38.5615 67.8368 38.741 68.4317 39.1C69.0317 39.4538 69.4881 39.9564 69.8009 40.6077C70.1138 41.259 70.2702 42.0205 70.2702 42.8923C70.2702 43.8 70.1112 44.5821 69.7932 45.2385C69.4804 45.8897 69.0266 46.3897 68.4317 46.7385C67.8368 47.0872 67.1266 47.2615 66.3009 47.2615C65.4702 47.2615 64.7573 47.0897 64.1625 46.7462C63.5676 46.4026 63.1138 45.9051 62.8009 45.2538C62.4881 44.5974 62.3317 43.8154 62.3317 42.9077C62.3317 42.041 62.4881 41.2821 62.8009 40.6308C63.1189 39.9744 63.5753 39.4667 64.1702 39.1077C64.7702 38.7436 65.4804 38.5615 66.3009 38.5615ZM66.3009 40.3538C65.8035 40.3538 65.4343 40.559 65.1932 40.9692C64.9573 41.3795 64.8394 42.0256 64.8394 42.9077C64.8394 43.8051 64.9573 44.459 65.1932 44.8692C65.4291 45.2744 65.7984 45.4769 66.3009 45.4769C66.8035 45.4769 67.1727 45.2718 67.4086 44.8615C67.6445 44.4513 67.7625 43.7949 67.7625 42.8923C67.7625 42.0154 67.642 41.3744 67.4009 40.9692C67.165 40.559 66.7984 40.3538 66.3009 40.3538ZM78.2294 38.5846C78.7166 38.5846 79.1653 38.6667 79.5756 38.8308L79.1218 42.2462H77.5987V40.7385C77.1474 40.8205 76.7474 41.0667 76.3987 41.4769C76.05 41.8872 75.7756 42.4051 75.5756 43.0308V45.3692H77.191V47H72.0679V45.3692H73.1448V40.4462H72.0679V38.8308H74.9987L75.4448 40.6692C75.7371 39.9667 76.1089 39.4436 76.5602 39.1C77.0166 38.7564 77.573 38.5846 78.2294 38.5846ZM88.5733 46.5231C88.2298 46.7487 87.8298 46.9282 87.3733 47.0615C86.9221 47.1949 86.4298 47.2615 85.8964 47.2615C84.8503 47.2615 84.0631 46.9949 83.5349 46.4615C83.0067 45.9282 82.7426 45.1795 82.7426 44.2154V40.5077H81.0272V38.8308H82.7426V37.0615L85.1733 36.7692V38.8308H87.8041L87.5657 40.5077H85.1733V44.2154C85.1733 44.6205 85.2631 44.9103 85.4426 45.0846C85.6272 45.259 85.9246 45.3462 86.3349 45.3462C86.8477 45.3462 87.3246 45.2231 87.7657 44.9769L88.5733 46.5231ZM125.587 39.2538C125.269 39.3513 124.928 39.4154 124.564 39.4462C124.205 39.4769 123.757 39.4923 123.218 39.4923C124.157 39.9231 124.626 40.6026 124.626 41.5308C124.626 42.0641 124.503 42.541 124.257 42.9615C124.016 43.3769 123.664 43.7026 123.203 43.9385C122.746 44.1692 122.205 44.2846 121.58 44.2846C121.313 44.2846 121.087 44.2744 120.903 44.2538C120.723 44.2282 120.546 44.1872 120.372 44.1308C120.249 44.2179 120.146 44.3333 120.064 44.4769C119.987 44.6154 119.949 44.7615 119.949 44.9154C119.949 45.1256 120.031 45.2923 120.195 45.4154C120.359 45.5333 120.639 45.5923 121.034 45.5923H122.495C123.028 45.5923 123.513 45.6897 123.949 45.8846C124.39 46.0744 124.734 46.3385 124.98 46.6769C125.231 47.0103 125.357 47.3821 125.357 47.7923C125.357 48.5872 125.021 49.1974 124.349 49.6231C123.677 50.0487 122.723 50.2615 121.487 50.2615C120.636 50.2615 119.959 50.1744 119.457 50C118.959 49.8256 118.603 49.559 118.387 49.2C118.172 48.8462 118.064 48.3872 118.064 47.8231H119.234C119.234 48.1564 119.295 48.4205 119.418 48.6154C119.546 48.8154 119.772 48.9641 120.095 49.0615C120.423 49.159 120.885 49.2077 121.48 49.2077C122.362 49.2077 123.01 49.0974 123.426 48.8769C123.841 48.6564 124.049 48.3231 124.049 47.8769C124.049 47.5026 123.88 47.2154 123.541 47.0154C123.203 46.8154 122.762 46.7154 122.218 46.7154H120.772C120.326 46.7154 119.949 46.6462 119.641 46.5077C119.334 46.3692 119.105 46.1846 118.957 45.9538C118.808 45.7231 118.734 45.4692 118.734 45.1923C118.734 44.9308 118.81 44.6769 118.964 44.4308C119.118 44.1846 119.339 43.9667 119.626 43.7769C119.159 43.5308 118.816 43.2256 118.595 42.8615C118.375 42.4974 118.264 42.0564 118.264 41.5385C118.264 41 118.4 40.5179 118.672 40.0923C118.949 39.6615 119.331 39.3256 119.818 39.0846C120.31 38.8436 120.869 38.7231 121.495 38.7231C122.146 38.7231 122.685 38.6974 123.11 38.6462C123.536 38.5897 123.893 38.5154 124.18 38.4231C124.472 38.3308 124.808 38.2026 125.187 38.0385L125.587 39.2538ZM121.495 39.6692C120.864 39.6692 120.387 39.8385 120.064 40.1769C119.746 40.5154 119.587 40.9692 119.587 41.5385C119.587 42.1128 119.749 42.5718 120.072 42.9154C120.4 43.2538 120.885 43.4231 121.526 43.4231C122.09 43.4231 122.523 43.259 122.826 42.9308C123.134 42.5974 123.287 42.1308 123.287 41.5308C123.287 40.9205 123.136 40.459 122.834 40.1462C122.531 39.8282 122.085 39.6692 121.495 39.6692ZM128.847 43.4077C128.867 44.0128 128.985 44.5179 129.201 44.9231C129.416 45.3231 129.698 45.6205 130.047 45.8154C130.395 46.0051 130.785 46.1 131.216 46.1C131.616 46.1 131.983 46.041 132.316 45.9231C132.654 45.8051 133.008 45.6205 133.377 45.3692L133.985 46.2231C133.606 46.5205 133.17 46.7538 132.677 46.9231C132.19 47.0923 131.698 47.1769 131.201 47.1769C130.426 47.1769 129.76 47.0026 129.201 46.6538C128.642 46.3051 128.216 45.8128 127.924 45.1769C127.636 44.541 127.493 43.8026 127.493 42.9615C127.493 42.1462 127.639 41.4179 127.931 40.7769C128.224 40.1359 128.636 39.6359 129.17 39.2769C129.703 38.9128 130.324 38.7308 131.031 38.7308C131.708 38.7308 132.293 38.8897 132.785 39.2077C133.283 39.5256 133.662 39.9846 133.924 40.5846C134.19 41.1795 134.324 41.8846 134.324 42.7C134.324 42.9359 134.313 43.1718 134.293 43.4077H128.847ZM131.047 39.7923C130.421 39.7923 129.911 40.0128 129.516 40.4538C129.126 40.8897 128.906 41.541 128.854 42.4077H133.077C133.062 41.5564 132.875 40.9077 132.516 40.4615C132.157 40.0154 131.667 39.7923 131.047 39.7923ZM143.491 46.5923C143.219 46.7718 142.883 46.9128 142.483 47.0154C142.088 47.1231 141.701 47.1769 141.321 47.1769C140.752 47.1769 140.262 47.0744 139.852 46.8692C139.447 46.659 139.137 46.3692 138.921 46C138.706 45.6308 138.598 45.2077 138.598 44.7308V39.9H136.737V38.9H138.598V37.0615L139.891 36.9077V38.9H142.691L142.537 39.9H139.891V44.7154C139.891 45.1769 140.011 45.5231 140.252 45.7538C140.498 45.9846 140.893 46.1 141.437 46.1C141.985 46.1 142.503 45.9718 142.991 45.7154L143.491 46.5923ZM150.25 36.2385C150.917 36.2385 151.483 36.3231 151.95 36.4923C152.422 36.6564 152.878 36.9154 153.319 37.2692L152.573 38.1385C151.947 37.6154 151.206 37.3538 150.35 37.3538C149.734 37.3538 149.183 37.4974 148.696 37.7846C148.214 38.0718 147.827 38.5385 147.534 39.1846C147.247 39.8308 147.104 40.6692 147.104 41.7C147.104 42.7103 147.242 43.5385 147.519 44.1846C147.796 44.8308 148.173 45.3 148.65 45.5923C149.132 45.8846 149.688 46.0308 150.319 46.0308C150.858 46.0308 151.319 45.9513 151.704 45.7923C152.088 45.6333 152.447 45.4179 152.781 45.1462L153.473 46.0231C153.114 46.3718 152.673 46.6513 152.15 46.8615C151.627 47.0718 151.011 47.1769 150.304 47.1769C149.432 47.1769 148.647 46.9641 147.95 46.5385C147.258 46.1128 146.711 45.4897 146.311 44.6692C145.917 43.8436 145.719 42.8538 145.719 41.7C145.719 40.5513 145.922 39.5667 146.327 38.7462C146.732 37.9205 147.278 37.2974 147.965 36.8769C148.652 36.4513 149.414 36.2385 150.25 36.2385ZM158.601 38.7308C159.35 38.7308 159.984 38.9026 160.501 39.2462C161.019 39.5846 161.409 40.0718 161.671 40.7077C161.937 41.3385 162.071 42.0846 162.071 42.9462C162.071 43.7821 161.935 44.5179 161.663 45.1538C161.396 45.7897 161.001 46.2872 160.478 46.6462C159.955 47 159.325 47.1769 158.586 47.1769C157.837 47.1769 157.201 47.0051 156.678 46.6615C156.16 46.3128 155.768 45.8231 155.501 45.1923C155.235 44.5615 155.101 43.8179 155.101 42.9615C155.101 42.1205 155.235 41.3821 155.501 40.7462C155.773 40.1103 156.171 39.6154 156.694 39.2615C157.222 38.9077 157.858 38.7308 158.601 38.7308ZM158.601 39.7846C157.899 39.7846 157.371 40.0462 157.017 40.5692C156.663 41.0872 156.486 41.8846 156.486 42.9615C156.486 44.0231 156.66 44.8154 157.009 45.3385C157.358 45.8564 157.884 46.1154 158.586 46.1154C159.289 46.1154 159.814 45.8564 160.163 45.3385C160.512 44.8154 160.686 44.0179 160.686 42.9462C160.686 41.8795 160.512 41.0872 160.163 40.5692C159.814 40.0462 159.294 39.7846 158.601 39.7846ZM164.745 47V38.9H165.845L165.945 40.0231C166.268 39.6179 166.674 39.3026 167.161 39.0769C167.653 38.8462 168.14 38.7308 168.622 38.7308C169.397 38.7308 169.968 38.9359 170.338 39.3462C170.712 39.7564 170.899 40.3462 170.899 41.1154V47H169.607V42.0692C169.607 41.4641 169.574 41.0026 169.507 40.6846C169.445 40.3667 169.315 40.1308 169.115 39.9769C168.92 39.8231 168.622 39.7462 168.222 39.7462C167.786 39.7462 167.374 39.8821 166.984 40.1538C166.599 40.4205 166.284 40.7359 166.038 41.1V47H164.745ZM180.405 46.5923C180.133 46.7718 179.797 46.9128 179.397 47.0154C179.002 47.1231 178.615 47.1769 178.235 47.1769C177.666 47.1769 177.176 47.0744 176.766 46.8692C176.361 46.659 176.051 46.3692 175.835 46C175.62 45.6308 175.512 45.2077 175.512 44.7308V39.9H173.651V38.9H175.512V37.0615L176.805 36.9077V38.9H179.605L179.451 39.9H176.805V44.7154C176.805 45.1769 176.925 45.5231 177.166 45.7538C177.412 45.9846 177.807 46.1 178.351 46.1C178.9 46.1 179.417 45.9718 179.905 45.7154L180.405 46.5923ZM188.672 38.7231C188.882 38.7231 189.074 38.7385 189.249 38.7692C189.423 38.7949 189.613 38.8385 189.818 38.9L189.633 41.6385H188.572V39.9154H188.502C187.877 39.9154 187.343 40.1359 186.902 40.5769C186.461 41.0179 186.105 41.6846 185.833 42.5769V46.0077H187.479V47H183.279V46.0077H184.541V39.8923H183.279V38.9H185.525L185.764 40.8154C186.092 40.1128 186.482 39.5897 186.933 39.2462C187.39 38.8974 187.969 38.7231 188.672 38.7231ZM198.231 45.2308C198.231 45.5487 198.282 45.7846 198.385 45.9385C198.487 46.0872 198.657 46.1974 198.892 46.2692L198.577 47.1769C197.798 47.0744 197.303 46.6949 197.092 46.0385C196.805 46.4128 196.441 46.6974 196 46.8923C195.564 47.0821 195.082 47.1769 194.554 47.1769C194.021 47.1769 193.557 47.0744 193.162 46.8692C192.767 46.6641 192.464 46.3744 192.254 46C192.044 45.6205 191.939 45.1795 191.939 44.6769C191.939 43.841 192.264 43.2 192.916 42.7538C193.567 42.3077 194.508 42.0846 195.739 42.0846H196.931V41.4077C196.931 40.8436 196.767 40.4359 196.439 40.1846C196.11 39.9282 195.631 39.8 195 39.8C194.39 39.8 193.687 39.9385 192.892 40.2154L192.554 39.2385C193.457 38.9 194.339 38.7308 195.2 38.7308C196.19 38.7308 196.941 38.9641 197.454 39.4308C197.972 39.8923 198.231 40.5308 198.231 41.3462V45.2308ZM194.885 46.1923C195.285 46.1923 195.664 46.0923 196.023 45.8923C196.387 45.6872 196.69 45.4051 196.931 45.0462V42.9615H195.762C194.905 42.9615 194.285 43.1077 193.9 43.4C193.516 43.6923 193.323 44.1128 193.323 44.6615C193.323 45.6821 193.844 46.1923 194.885 46.1923ZM205.321 46.0615C206.044 46.0615 206.747 45.8256 207.429 45.3538L208.059 46.2C207.706 46.4974 207.28 46.7359 206.783 46.9154C206.285 47.0897 205.798 47.1769 205.321 47.1769C204.526 47.1769 203.841 47.0051 203.267 46.6615C202.698 46.3179 202.265 45.8308 201.967 45.2C201.67 44.5692 201.521 43.8308 201.521 42.9846C201.521 42.1692 201.672 41.441 201.975 40.8C202.277 40.1538 202.716 39.6487 203.29 39.2846C203.865 38.9154 204.547 38.7308 205.336 38.7308C206.367 38.7308 207.27 39.0436 208.044 39.6692L207.413 40.5308C206.716 40.0487 206.018 39.8077 205.321 39.8077C204.844 39.8077 204.426 39.9256 204.067 40.1615C203.708 40.3974 203.426 40.7538 203.221 41.2308C203.021 41.7077 202.921 42.2923 202.921 42.9846C202.921 44.0205 203.136 44.7923 203.567 45.3C204.003 45.8077 204.588 46.0615 205.321 46.0615ZM217.319 46.5923C217.047 46.7718 216.711 46.9128 216.311 47.0154C215.916 47.1231 215.529 47.1769 215.149 47.1769C214.58 47.1769 214.091 47.0744 213.68 46.8692C213.275 46.659 212.965 46.3692 212.749 46C212.534 45.6308 212.426 45.2077 212.426 44.7308V39.9H210.565V38.9H212.426V37.0615L213.719 36.9077V38.9H216.519L216.365 39.9H213.719V44.7154C213.719 45.1769 213.839 45.5231 214.08 45.7538C214.326 45.9846 214.721 46.1 215.265 46.1C215.814 46.1 216.332 45.9718 216.819 45.7154L217.319 46.5923ZM252.533 35.3308C253.594 35.3308 254.528 35.5026 255.333 35.8462L254.664 37.4308C254.12 37.2256 253.535 37.1231 252.91 37.1231C252.428 37.1231 252.082 37.2103 251.871 37.3846C251.666 37.559 251.564 37.8487 251.564 38.2538V39.3462H254.225L253.956 41.0308H251.564V47H249.148V41.0308H247.433V39.3462H249.148V38.1615C249.148 37.6179 249.276 37.1333 249.533 36.7077C249.794 36.2769 250.179 35.941 250.687 35.7C251.199 35.4538 251.815 35.3308 252.533 35.3308ZM262.8 38.5846C263.287 38.5846 263.736 38.6667 264.146 38.8308L263.692 42.2462H262.169V40.7385C261.718 40.8205 261.318 41.0667 260.969 41.4769C260.62 41.8872 260.346 42.4051 260.146 43.0308V45.3692H261.761V47H256.638V45.3692H257.715V40.4462H256.638V38.8308H259.569L260.015 40.6692C260.307 39.9667 260.679 39.4436 261.131 39.1C261.587 38.7564 262.143 38.5846 262.8 38.5846ZM269.328 38.5615C270.154 38.5615 270.864 38.741 271.459 39.1C272.059 39.4538 272.515 39.9564 272.828 40.6077C273.141 41.259 273.298 42.0205 273.298 42.8923C273.298 43.8 273.139 44.5821 272.821 45.2385C272.508 45.8897 272.054 46.3897 271.459 46.7385C270.864 47.0872 270.154 47.2615 269.328 47.2615C268.498 47.2615 267.785 47.0897 267.19 46.7462C266.595 46.4026 266.141 45.9051 265.828 45.2538C265.515 44.5974 265.359 43.8154 265.359 42.9077C265.359 42.041 265.515 41.2821 265.828 40.6308C266.146 39.9744 266.603 39.4667 267.198 39.1077C267.798 38.7436 268.508 38.5615 269.328 38.5615ZM269.328 40.3538C268.831 40.3538 268.462 40.559 268.221 40.9692C267.985 41.3795 267.867 42.0256 267.867 42.9077C267.867 43.8051 267.985 44.459 268.221 44.8692C268.456 45.2744 268.826 45.4769 269.328 45.4769C269.831 45.4769 270.2 45.2718 270.436 44.8615C270.672 44.4513 270.79 43.7949 270.79 42.8923C270.79 42.0154 270.669 41.3744 270.428 40.9692C270.192 40.559 269.826 40.3538 269.328 40.3538ZM281.057 38.5615C281.641 38.5615 282.072 38.7513 282.349 39.1308C282.626 39.5103 282.764 40.1179 282.764 40.9538V47H280.68V41.2308C280.68 40.9385 280.652 40.7359 280.595 40.6231C280.539 40.5051 280.431 40.4462 280.272 40.4462C280.134 40.4462 279.995 40.4872 279.857 40.5692C279.723 40.6462 279.58 40.7821 279.426 40.9769V47H277.718V41.2308C277.718 40.9385 277.69 40.7359 277.634 40.6231C277.577 40.5051 277.47 40.4462 277.311 40.4462C277.172 40.4462 277.034 40.4872 276.895 40.5692C276.762 40.6462 276.618 40.7821 276.464 40.9769V47H274.349V38.8308H276.134L276.295 39.6231C276.562 39.259 276.826 38.9923 277.088 38.8231C277.349 38.6487 277.654 38.5615 278.003 38.5615C278.321 38.5615 278.585 38.641 278.795 38.8C279.011 38.959 279.164 39.2026 279.257 39.5308C279.816 38.8846 280.416 38.5615 281.057 38.5615ZM39.4077 81.3462C39.7205 81.3462 40.0205 81.2872 40.3077 81.1692C40.6 81.0462 40.9077 80.8718 41.2308 80.6462L42.3154 82.1846C41.9308 82.5128 41.4795 82.7744 40.9615 82.9692C40.4436 83.1641 39.8821 83.2615 39.2769 83.2615C38.4103 83.2615 37.659 83.0821 37.0231 82.7231C36.3872 82.3641 35.9 81.8615 35.5615 81.2154C35.2231 80.5692 35.0538 79.8205 35.0538 78.9692C35.0538 78.1179 35.2282 77.359 35.5769 76.6923C35.9256 76.0256 36.4205 75.5051 37.0615 75.1308C37.7077 74.7513 38.4615 74.5615 39.3231 74.5615C39.9333 74.5615 40.4795 74.6462 40.9615 74.8154C41.4487 74.9846 41.9 75.241 42.3154 75.5846L41.2615 77.0462C40.6718 76.6359 40.059 76.4308 39.4231 76.4308C38.8436 76.4308 38.3923 76.6333 38.0692 77.0385C37.7513 77.4436 37.5923 78.0872 37.5923 78.9692C37.5923 79.8205 37.7538 80.4308 38.0769 80.8C38.4 81.1641 38.8436 81.3462 39.4077 81.3462ZM47.8439 74.5615C48.6695 74.5615 49.3798 74.741 49.9747 75.1C50.5747 75.4538 51.0311 75.9564 51.3439 76.6077C51.6567 77.259 51.8131 78.0205 51.8131 78.8923C51.8131 79.8 51.6542 80.5821 51.3362 81.2385C51.0234 81.8897 50.5695 82.3897 49.9747 82.7385C49.3798 83.0872 48.6695 83.2615 47.8439 83.2615C47.0131 83.2615 46.3003 83.0897 45.7054 82.7462C45.1106 82.4026 44.6567 81.9051 44.3439 81.2538C44.0311 80.5974 43.8747 79.8154 43.8747 78.9077C43.8747 78.041 44.0311 77.2821 44.3439 76.6308C44.6618 75.9744 45.1183 75.4667 45.7131 75.1077C46.3131 74.7436 47.0234 74.5615 47.8439 74.5615ZM47.8439 76.3538C47.3465 76.3538 46.9772 76.559 46.7362 76.9692C46.5003 77.3795 46.3824 78.0256 46.3824 78.9077C46.3824 79.8051 46.5003 80.459 46.7362 80.8692C46.9721 81.2744 47.3413 81.4769 47.8439 81.4769C48.3465 81.4769 48.7157 81.2718 48.9516 80.8615C49.1875 80.4513 49.3054 79.7949 49.3054 78.8923C49.3054 78.0154 49.1849 77.3744 48.9439 76.9692C48.708 76.559 48.3413 76.3538 47.8439 76.3538ZM53.534 83V74.8308H55.657L55.8263 75.7769C56.1955 75.3615 56.5827 75.0564 56.9878 74.8615C57.3929 74.6615 57.8519 74.5615 58.3647 74.5615C59.0673 74.5615 59.616 74.7769 60.0109 75.2077C60.4109 75.6333 60.6109 76.2308 60.6109 77V83H58.1801V77.7C58.1801 77.3615 58.1545 77.0949 58.1032 76.9C58.057 76.7051 57.9775 76.5667 57.8647 76.4846C57.7519 76.3974 57.5955 76.3538 57.3955 76.3538C57.1493 76.3538 56.9083 76.4333 56.6724 76.5923C56.4416 76.7462 56.2057 76.9769 55.9647 77.2846V83H53.534ZM66.0394 81.5231C66.4548 81.5231 66.783 81.459 67.024 81.3308C67.2702 81.1974 67.3932 81.0051 67.3932 80.7538C67.3932 80.5744 67.3445 80.4282 67.2471 80.3154C67.1496 80.1974 66.9676 80.0872 66.7009 79.9846C66.4343 79.8769 66.0189 79.7462 65.4548 79.5923C64.6343 79.3718 64.0061 79.0692 63.5702 78.6846C63.1394 78.3 62.924 77.7667 62.924 77.0846C62.924 76.5923 63.0599 76.1564 63.3317 75.7769C63.6086 75.3974 64.0138 75.1 64.5471 74.8846C65.0804 74.6692 65.7214 74.5615 66.4702 74.5615C67.7676 74.5615 68.8702 74.8923 69.7779 75.5538L68.8086 76.9846C68.4548 76.7692 68.083 76.6 67.6932 76.4769C67.3086 76.3538 66.924 76.2923 66.5394 76.2923C66.1445 76.2923 65.8496 76.3462 65.6548 76.4538C65.465 76.5564 65.3702 76.7128 65.3702 76.9231C65.3702 77.0667 65.4189 77.1872 65.5163 77.2846C65.6189 77.3821 65.8009 77.4821 66.0625 77.5846C66.3291 77.6872 66.742 77.8179 67.3009 77.9769C67.8907 78.141 68.3702 78.3231 68.7394 78.5231C69.1086 78.7179 69.3958 78.9795 69.6009 79.3077C69.8112 79.6308 69.9163 80.0487 69.9163 80.5615C69.9163 81.1359 69.742 81.6282 69.3932 82.0385C69.0496 82.4436 68.5855 82.7487 68.0009 82.9538C67.4163 83.159 66.7676 83.2615 66.0548 83.2615C65.2907 83.2615 64.6035 83.1538 63.9932 82.9385C63.383 82.7179 62.8573 82.4154 62.4163 82.0308L63.6394 80.6615C63.9779 80.9282 64.3496 81.1385 64.7548 81.2923C65.1599 81.4462 65.5881 81.5231 66.0394 81.5231ZM79.3448 82.5231C79.0012 82.7487 78.6012 82.9282 78.1448 83.0615C77.6935 83.1949 77.2012 83.2615 76.6679 83.2615C75.6218 83.2615 74.8346 82.9949 74.3064 82.4615C73.7782 81.9282 73.5141 81.1795 73.5141 80.2154V76.5077H71.7987V74.8308H73.5141V73.0615L75.9448 72.7692V74.8308H78.5756L78.3371 76.5077H75.9448V80.2154C75.9448 80.6205 76.0346 80.9103 76.2141 81.0846C76.3987 81.259 76.6961 81.3462 77.1064 81.3462C77.6192 81.3462 78.0961 81.2231 78.5371 80.9769L79.3448 82.5231ZM94.5788 82.0615C95.3019 82.0615 96.0044 81.8256 96.6865 81.3538L97.3172 82.2C96.9634 82.4974 96.5378 82.7359 96.0403 82.9154C95.5429 83.0897 95.0557 83.1769 94.5788 83.1769C93.7839 83.1769 93.0993 83.0051 92.5249 82.6615C91.9557 82.3179 91.5224 81.8308 91.2249 81.2C90.9275 80.5692 90.7788 79.8308 90.7788 78.9846C90.7788 78.1692 90.9301 77.441 91.2326 76.8C91.5352 76.1538 91.9737 75.6487 92.548 75.2846C93.1224 74.9154 93.8044 74.7308 94.5942 74.7308C95.6249 74.7308 96.5275 75.0436 97.3019 75.6692L96.6711 76.5308C95.9737 76.0487 95.2762 75.8077 94.5788 75.8077C94.1019 75.8077 93.6839 75.9256 93.3249 76.1615C92.966 76.3974 92.6839 76.7538 92.4788 77.2308C92.2788 77.7077 92.1788 78.2923 92.1788 78.9846C92.1788 80.0205 92.3942 80.7923 92.8249 81.3C93.2608 81.8077 93.8455 82.0615 94.5788 82.0615ZM103.23 74.7308C103.979 74.7308 104.612 74.9026 105.13 75.2462C105.648 75.5846 106.038 76.0718 106.3 76.7077C106.566 77.3385 106.7 78.0846 106.7 78.9462C106.7 79.7821 106.564 80.5179 106.292 81.1538C106.025 81.7897 105.63 82.2872 105.107 82.6462C104.584 83 103.953 83.1769 103.215 83.1769C102.466 83.1769 101.83 83.0051 101.307 82.6615C100.789 82.3128 100.397 81.8231 100.13 81.1923C99.8637 80.5615 99.7304 79.8179 99.7304 78.9615C99.7304 78.1205 99.8637 77.3821 100.13 76.7462C100.402 76.1103 100.8 75.6154 101.323 75.2615C101.851 74.9077 102.487 74.7308 103.23 74.7308ZM103.23 75.7846C102.528 75.7846 102 76.0462 101.646 76.5692C101.292 77.0872 101.115 77.8846 101.115 78.9615C101.115 80.0231 101.289 80.8154 101.638 81.3385C101.987 81.8564 102.512 82.1154 103.215 82.1154C103.918 82.1154 104.443 81.8564 104.792 81.3385C105.141 80.8154 105.315 80.0179 105.315 78.9462C105.315 77.8795 105.141 77.0872 104.792 76.5692C104.443 76.0462 103.923 75.7846 103.23 75.7846ZM109.374 83V74.9H110.474L110.574 76.0231C110.897 75.6179 111.302 75.3026 111.79 75.0769C112.282 74.8462 112.769 74.7308 113.251 74.7308C114.026 74.7308 114.597 74.9359 114.967 75.3462C115.341 75.7564 115.528 76.3462 115.528 77.1154V83H114.236V78.0692C114.236 77.4641 114.202 77.0026 114.136 76.6846C114.074 76.3667 113.944 76.1308 113.744 75.9769C113.549 75.8231 113.251 75.7462 112.851 75.7462C112.415 75.7462 112.002 75.8821 111.613 76.1538C111.228 76.4205 110.913 76.7359 110.667 77.1V83H109.374ZM125.034 82.5923C124.762 82.7718 124.426 82.9128 124.026 83.0154C123.631 83.1231 123.244 83.1769 122.864 83.1769C122.295 83.1769 121.805 83.0744 121.395 82.8692C120.99 82.659 120.68 82.3692 120.464 82C120.249 81.6308 120.141 81.2077 120.141 80.7308V75.9H118.28V74.9H120.141V73.0615L121.434 72.9077V74.9H124.234L124.08 75.9H121.434V80.7154C121.434 81.1769 121.554 81.5231 121.795 81.7538C122.041 81.9846 122.436 82.1 122.98 82.1C123.528 82.1 124.046 81.9718 124.534 81.7154L125.034 82.5923ZM133.301 74.7231C133.511 74.7231 133.703 74.7385 133.877 74.7692C134.052 74.7949 134.242 74.8385 134.447 74.9L134.262 77.6385H133.201V75.9154H133.131C132.506 75.9154 131.972 76.1359 131.531 76.5769C131.09 77.0179 130.734 77.6846 130.462 78.5769V82.0077H132.108V83H127.908V82.0077H129.17V75.8923H127.908V74.9H130.154L130.393 76.8154C130.721 76.1128 131.111 75.5897 131.562 75.2462C132.018 74.8974 132.598 74.7231 133.301 74.7231ZM142.86 81.2308C142.86 81.5487 142.911 81.7846 143.014 81.9385C143.116 82.0872 143.285 82.1974 143.521 82.2692L143.206 83.1769C142.426 83.0744 141.932 82.6949 141.721 82.0385C141.434 82.4128 141.07 82.6974 140.629 82.8923C140.193 83.0821 139.711 83.1769 139.183 83.1769C138.65 83.1769 138.185 83.0744 137.791 82.8692C137.396 82.6641 137.093 82.3744 136.883 82C136.673 81.6205 136.568 81.1795 136.568 80.6769C136.568 79.841 136.893 79.2 137.544 78.7538C138.196 78.3077 139.137 78.0846 140.368 78.0846H141.56V77.4077C141.56 76.8436 141.396 76.4359 141.068 76.1846C140.739 75.9282 140.26 75.8 139.629 75.8C139.019 75.8 138.316 75.9385 137.521 76.2154L137.183 75.2385C138.085 74.9 138.968 74.7308 139.829 74.7308C140.819 74.7308 141.57 74.9641 142.083 75.4308C142.601 75.8923 142.86 76.5308 142.86 77.3462V81.2308ZM139.514 82.1923C139.914 82.1923 140.293 82.0923 140.652 81.8923C141.016 81.6872 141.319 81.4051 141.56 81.0462V78.9615H140.391C139.534 78.9615 138.914 79.1077 138.529 79.4C138.144 79.6923 137.952 80.1128 137.952 80.6615C137.952 81.6821 138.473 82.1923 139.514 82.1923ZM149.95 82.0615C150.673 82.0615 151.376 81.8256 152.058 81.3538L152.688 82.2C152.334 82.4974 151.909 82.7359 151.411 82.9154C150.914 83.0897 150.427 83.1769 149.95 83.1769C149.155 83.1769 148.47 83.0051 147.896 82.6615C147.327 82.3179 146.893 81.8308 146.596 81.2C146.299 80.5692 146.15 79.8308 146.15 78.9846C146.15 78.1692 146.301 77.441 146.604 76.8C146.906 76.1538 147.345 75.6487 147.919 75.2846C148.493 74.9154 149.176 74.7308 149.965 74.7308C150.996 74.7308 151.899 75.0436 152.673 75.6692L152.042 76.5308C151.345 76.0487 150.647 75.8077 149.95 75.8077C149.473 75.8077 149.055 75.9256 148.696 76.1615C148.337 76.3974 148.055 76.7538 147.85 77.2308C147.65 77.7077 147.55 78.2923 147.55 78.9846C147.55 80.0205 147.765 80.7923 148.196 81.3C148.632 81.8077 149.217 82.0615 149.95 82.0615ZM161.948 82.5923C161.676 82.7718 161.34 82.9128 160.94 83.0154C160.545 83.1231 160.158 83.1769 159.778 83.1769C159.209 83.1769 158.719 83.0744 158.309 82.8692C157.904 82.659 157.594 82.3692 157.378 82C157.163 81.6308 157.055 81.2077 157.055 80.7308V75.9H155.194V74.9H157.055V73.0615L158.348 72.9077V74.9H161.148L160.994 75.9H158.348V80.7154C158.348 81.1769 158.468 81.5231 158.709 81.7538C158.955 81.9846 159.35 82.1 159.894 82.1C160.442 82.1 160.96 81.9718 161.448 81.7154L161.948 82.5923ZM198.839 80.6462C198.839 80.9487 198.88 81.1718 198.962 81.3154C199.044 81.4538 199.182 81.559 199.377 81.6308L198.877 83.2308C198.38 83.1846 197.967 83.0769 197.639 82.9077C197.316 82.7333 197.062 82.4821 196.877 82.1538C196.575 82.5179 196.182 82.7949 195.7 82.9846C195.223 83.1692 194.718 83.2615 194.185 83.2615C193.631 83.2615 193.144 83.1538 192.723 82.9385C192.308 82.7179 191.987 82.4154 191.762 82.0308C191.536 81.641 191.423 81.1949 191.423 80.6923C191.423 80.1077 191.58 79.6077 191.892 79.1923C192.205 78.7769 192.659 78.4615 193.254 78.2462C193.849 78.0256 194.564 77.9154 195.4 77.9154H196.5V77.6077C196.5 76.7718 195.962 76.3538 194.885 76.3538C194.613 76.3538 194.269 76.3923 193.854 76.4692C193.444 76.5462 193.041 76.6513 192.646 76.7846L192.085 75.1692C192.598 74.9744 193.139 74.8256 193.708 74.7231C194.277 74.6154 194.798 74.5615 195.269 74.5615C196.469 74.5615 197.364 74.8051 197.954 75.2923C198.544 75.7795 198.839 76.4974 198.839 77.4462V80.6462ZM195.023 81.5231C195.3 81.5231 195.58 81.4436 195.862 81.2846C196.144 81.1205 196.357 80.9 196.5 80.6231V79.3H195.9C195.233 79.3 194.739 79.4026 194.416 79.6077C194.092 79.8128 193.931 80.1179 193.931 80.5231C193.931 80.841 194.026 81.0872 194.216 81.2615C194.41 81.4359 194.68 81.5231 195.023 81.5231ZM209.29 74.8308L208.129 83H205.444L204.744 77.5077L204.013 83H201.375L200.167 74.8308H202.39L202.921 81.4846L203.783 75.8615H205.829L206.598 81.4846L207.144 74.8308H209.29ZM217.296 80.6462C217.296 80.9487 217.337 81.1718 217.419 81.3154C217.501 81.4538 217.639 81.559 217.834 81.6308L217.334 83.2308C216.837 83.1846 216.424 83.0769 216.096 82.9077C215.773 82.7333 215.519 82.4821 215.334 82.1538C215.032 82.5179 214.639 82.7949 214.157 82.9846C213.68 83.1692 213.175 83.2615 212.642 83.2615C212.088 83.2615 211.601 83.1538 211.18 82.9385C210.765 82.7179 210.444 82.4154 210.219 82.0308C209.993 81.641 209.88 81.1949 209.88 80.6923C209.88 80.1077 210.037 79.6077 210.349 79.1923C210.662 78.7769 211.116 78.4615 211.711 78.2462C212.306 78.0256 213.021 77.9154 213.857 77.9154H214.957V77.6077C214.957 76.7718 214.419 76.3538 213.342 76.3538C213.07 76.3538 212.726 76.3923 212.311 76.4692C211.901 76.5462 211.498 76.6513 211.103 76.7846L210.542 75.1692C211.055 74.9744 211.596 74.8256 212.165 74.7231C212.734 74.6154 213.255 74.5615 213.726 74.5615C214.926 74.5615 215.821 74.8051 216.411 75.2923C217.001 75.7795 217.296 76.4974 217.296 77.4462V80.6462ZM213.48 81.5231C213.757 81.5231 214.037 81.4436 214.319 81.2846C214.601 81.1205 214.814 80.9 214.957 80.6231V79.3H214.357C213.691 79.3 213.196 79.4026 212.873 79.6077C212.549 79.8128 212.388 80.1179 212.388 80.5231C212.388 80.841 212.483 81.0872 212.673 81.2615C212.867 81.4359 213.137 81.5231 213.48 81.5231ZM223.17 70.5538C223.447 70.5538 223.693 70.6154 223.909 70.7385C224.124 70.8564 224.293 71.0205 224.416 71.2308C224.54 71.4359 224.601 71.6667 224.601 71.9231C224.601 72.1795 224.54 72.4128 224.416 72.6231C224.293 72.8333 224.122 73 223.901 73.1231C223.686 73.241 223.442 73.3 223.17 73.3C222.893 73.3 222.645 73.241 222.424 73.1231C222.204 73 222.032 72.8333 221.909 72.6231C221.786 72.4128 221.724 72.1795 221.724 71.9231C221.724 71.6667 221.786 71.4359 221.909 71.2308C222.032 71.0205 222.204 70.8564 222.424 70.7385C222.645 70.6154 222.893 70.5538 223.17 70.5538ZM219.97 74.8308H224.64V81.3385H226.716V83H219.893V81.3385H222.209V76.4923H219.97V74.8308ZM236.23 82.5231C235.886 82.7487 235.486 82.9282 235.03 83.0615C234.578 83.1949 234.086 83.2615 233.553 83.2615C232.507 83.2615 231.719 82.9949 231.191 82.4615C230.663 81.9282 230.399 81.1795 230.399 80.2154V76.5077H228.683V74.8308H230.399V73.0615L232.83 72.7692V74.8308H235.46L235.222 76.5077H232.83V80.2154C232.83 80.6205 232.919 80.9103 233.099 81.0846C233.283 81.259 233.581 81.3462 233.991 81.3462C234.504 81.3462 234.981 81.2231 235.422 80.9769L236.23 82.5231ZM254.787 75.2538C254.469 75.3513 254.128 75.4154 253.764 75.4462C253.405 75.4769 252.956 75.4923 252.417 75.4923C253.356 75.9231 253.825 76.6026 253.825 77.5308C253.825 78.0641 253.702 78.541 253.456 78.9615C253.215 79.3769 252.864 79.7026 252.402 79.9385C251.946 80.1692 251.405 80.2846 250.779 80.2846C250.512 80.2846 250.287 80.2744 250.102 80.2538C249.923 80.2282 249.746 80.1872 249.571 80.1308C249.448 80.2179 249.346 80.3333 249.264 80.4769C249.187 80.6154 249.148 80.7615 249.148 80.9154C249.148 81.1256 249.23 81.2923 249.394 81.4154C249.558 81.5333 249.838 81.5923 250.233 81.5923H251.694C252.228 81.5923 252.712 81.6897 253.148 81.8846C253.589 82.0744 253.933 82.3385 254.179 82.6769C254.43 83.0103 254.556 83.3821 254.556 83.7923C254.556 84.5872 254.22 85.1974 253.548 85.6231C252.876 86.0487 251.923 86.2615 250.687 86.2615C249.835 86.2615 249.158 86.1744 248.656 86C248.158 85.8256 247.802 85.559 247.587 85.2C247.371 84.8462 247.264 84.3872 247.264 83.8231H248.433C248.433 84.1564 248.494 84.4205 248.617 84.6154C248.746 84.8154 248.971 84.9641 249.294 85.0615C249.623 85.159 250.084 85.2077 250.679 85.2077C251.561 85.2077 252.21 85.0974 252.625 84.8769C253.04 84.6564 253.248 84.3231 253.248 83.8769C253.248 83.5026 253.079 83.2154 252.74 83.0154C252.402 82.8154 251.961 82.7154 251.417 82.7154H249.971C249.525 82.7154 249.148 82.6462 248.84 82.5077C248.533 82.3692 248.305 82.1846 248.156 81.9538C248.007 81.7231 247.933 81.4692 247.933 81.1923C247.933 80.9308 248.01 80.6769 248.164 80.4308C248.317 80.1846 248.538 79.9667 248.825 79.7769C248.358 79.5308 248.015 79.2256 247.794 78.8615C247.574 78.4974 247.464 78.0564 247.464 77.5385C247.464 77 247.599 76.5179 247.871 76.0923C248.148 75.6615 248.53 75.3256 249.017 75.0846C249.51 74.8436 250.069 74.7231 250.694 74.7231C251.346 74.7231 251.884 74.6974 252.31 74.6462C252.735 74.5897 253.092 74.5154 253.379 74.4231C253.671 74.3308 254.007 74.2026 254.387 74.0385L254.787 75.2538ZM250.694 75.6692C250.064 75.6692 249.587 75.8385 249.264 76.1769C248.946 76.5154 248.787 76.9692 248.787 77.5385C248.787 78.1128 248.948 78.5718 249.271 78.9154C249.599 79.2538 250.084 79.4231 250.725 79.4231C251.289 79.4231 251.723 79.259 252.025 78.9308C252.333 78.5974 252.487 78.1308 252.487 77.5308C252.487 76.9205 252.335 76.459 252.033 76.1462C251.73 75.8282 251.284 75.6692 250.694 75.6692ZM258.046 79.4077C258.066 80.0128 258.184 80.5179 258.4 80.9231C258.615 81.3231 258.897 81.6205 259.246 81.8154C259.595 82.0051 259.984 82.1 260.415 82.1C260.815 82.1 261.182 82.041 261.515 81.9231C261.854 81.8051 262.207 81.6205 262.577 81.3692L263.184 82.2231C262.805 82.5205 262.369 82.7538 261.877 82.9231C261.39 83.0923 260.897 83.1769 260.4 83.1769C259.625 83.1769 258.959 83.0026 258.4 82.6538C257.841 82.3051 257.415 81.8128 257.123 81.1769C256.836 80.541 256.692 79.8026 256.692 78.9615C256.692 78.1462 256.838 77.4179 257.131 76.7769C257.423 76.1359 257.836 75.6359 258.369 75.2769C258.902 74.9128 259.523 74.7308 260.231 74.7308C260.907 74.7308 261.492 74.8897 261.984 75.2077C262.482 75.5256 262.861 75.9846 263.123 76.5846C263.39 77.1795 263.523 77.8846 263.523 78.7C263.523 78.9359 263.513 79.1718 263.492 79.4077H258.046ZM260.246 75.7923C259.62 75.7923 259.11 76.0128 258.715 76.4538C258.325 76.8897 258.105 77.541 258.054 78.4077H262.277C262.261 77.5564 262.074 76.9077 261.715 76.4615C261.356 76.0154 260.866 75.7923 260.246 75.7923ZM272.69 82.5923C272.418 82.7718 272.082 82.9128 271.682 83.0154C271.287 83.1231 270.9 83.1769 270.521 83.1769C269.951 83.1769 269.462 83.0744 269.051 82.8692C268.646 82.659 268.336 82.3692 268.121 82C267.905 81.6308 267.798 81.2077 267.798 80.7308V75.9H265.936V74.9H267.798V73.0615L269.09 72.9077V74.9H271.89L271.736 75.9H269.09V80.7154C269.09 81.1769 269.21 81.5231 269.451 81.7538C269.698 81.9846 270.092 82.1 270.636 82.1C271.185 82.1 271.703 81.9718 272.19 81.7154L272.69 82.5923ZM279.449 72.2385C280.116 72.2385 280.682 72.3231 281.149 72.4923C281.621 72.6564 282.077 72.9154 282.518 73.2692L281.772 74.1385C281.147 73.6154 280.406 73.3538 279.549 73.3538C278.934 73.3538 278.382 73.4974 277.895 73.7846C277.413 74.0718 277.026 74.5385 276.734 75.1846C276.447 75.8308 276.303 76.6692 276.303 77.7C276.303 78.7103 276.441 79.5385 276.718 80.1846C276.995 80.8308 277.372 81.3 277.849 81.5923C278.331 81.8846 278.888 82.0308 279.518 82.0308C280.057 82.0308 280.518 81.9513 280.903 81.7923C281.288 81.6333 281.647 81.4179 281.98 81.1462L282.672 82.0231C282.313 82.3718 281.872 82.6513 281.349 82.8615C280.826 83.0718 280.211 83.1769 279.503 83.1769C278.631 83.1769 277.847 82.9641 277.149 82.5385C276.457 82.1128 275.911 81.4897 275.511 80.6692C275.116 79.8436 274.918 78.8538 274.918 77.7C274.918 76.5513 275.121 75.5667 275.526 74.7462C275.931 73.9205 276.477 73.2974 277.164 72.8769C277.852 72.4513 278.613 72.2385 279.449 72.2385ZM287.801 74.7308C288.549 74.7308 289.183 74.9026 289.701 75.2462C290.219 75.5846 290.608 76.0718 290.87 76.7077C291.137 77.3385 291.27 78.0846 291.27 78.9462C291.27 79.7821 291.134 80.5179 290.862 81.1538C290.596 81.7897 290.201 82.2872 289.678 82.6462C289.155 83 288.524 83.1769 287.785 83.1769C287.037 83.1769 286.401 83.0051 285.878 82.6615C285.36 82.3128 284.967 81.8231 284.701 81.1923C284.434 80.5615 284.301 79.8179 284.301 78.9615C284.301 78.1205 284.434 77.3821 284.701 76.7462C284.972 76.1103 285.37 75.6154 285.893 75.2615C286.421 74.9077 287.057 74.7308 287.801 74.7308ZM287.801 75.7846C287.098 75.7846 286.57 76.0462 286.216 76.5692C285.862 77.0872 285.685 77.8846 285.685 78.9615C285.685 80.0231 285.86 80.8154 286.208 81.3385C286.557 81.8564 287.083 82.1154 287.785 82.1154C288.488 82.1154 289.014 81.8564 289.362 81.3385C289.711 80.8154 289.885 80.0179 289.885 78.9462C289.885 77.8795 289.711 77.0872 289.362 76.5692C289.014 76.0462 288.493 75.7846 287.801 75.7846ZM293.945 83V74.9H295.045L295.145 76.0231C295.468 75.6179 295.873 75.3026 296.36 75.0769C296.852 74.8462 297.339 74.7308 297.822 74.7308C298.596 74.7308 299.168 74.9359 299.537 75.3462C299.911 75.7564 300.098 76.3462 300.098 77.1154V83H298.806V78.0692C298.806 77.4641 298.773 77.0026 298.706 76.6846C298.645 76.3667 298.514 76.1308 298.314 75.9769C298.119 75.8231 297.822 75.7462 297.422 75.7462C296.986 75.7462 296.573 75.8821 296.183 76.1538C295.798 76.4205 295.483 76.7359 295.237 77.1V83H293.945ZM309.604 82.5923C309.332 82.7718 308.996 82.9128 308.596 83.0154C308.201 83.1231 307.814 83.1769 307.435 83.1769C306.865 83.1769 306.376 83.0744 305.965 82.8692C305.56 82.659 305.25 82.3692 305.035 82C304.819 81.6308 304.712 81.2077 304.712 80.7308V75.9H302.85V74.9H304.712V73.0615L306.004 72.9077V74.9H308.804L308.65 75.9H306.004V80.7154C306.004 81.1769 306.124 81.5231 306.365 81.7538C306.612 81.9846 307.006 82.1 307.55 82.1C308.099 82.1 308.617 81.9718 309.104 81.7154L309.604 82.5923ZM317.871 74.7231C318.081 74.7231 318.273 74.7385 318.448 74.7692C318.622 74.7949 318.812 74.8385 319.017 74.9L318.832 77.6385H317.771V75.9154H317.702C317.076 75.9154 316.543 76.1359 316.102 76.5769C315.661 77.0179 315.304 77.6846 315.032 78.5769V82.0077H316.679V83H312.479V82.0077H313.74V75.8923H312.479V74.9H314.725L314.963 76.8154C315.291 76.1128 315.681 75.5897 316.132 75.2462C316.589 74.8974 317.168 74.7231 317.871 74.7231ZM327.43 81.2308C327.43 81.5487 327.481 81.7846 327.584 81.9385C327.687 82.0872 327.856 82.1974 328.092 82.2692L327.776 83.1769C326.997 83.0744 326.502 82.6949 326.292 82.0385C326.004 82.4128 325.64 82.6974 325.199 82.8923C324.763 83.0821 324.281 83.1769 323.753 83.1769C323.22 83.1769 322.756 83.0744 322.361 82.8692C321.966 82.6641 321.663 82.3744 321.453 82C321.243 81.6205 321.138 81.1795 321.138 80.6769C321.138 79.841 321.463 79.2 322.115 78.7538C322.766 78.3077 323.707 78.0846 324.938 78.0846H326.13V77.4077C326.13 76.8436 325.966 76.4359 325.638 76.1846C325.31 75.9282 324.83 75.8 324.199 75.8C323.589 75.8 322.887 75.9385 322.092 76.2154L321.753 75.2385C322.656 74.9 323.538 74.7308 324.399 74.7308C325.389 74.7308 326.14 74.9641 326.653 75.4308C327.171 75.8923 327.43 76.5308 327.43 77.3462V81.2308ZM324.084 82.1923C324.484 82.1923 324.863 82.0923 325.222 81.8923C325.587 81.6872 325.889 81.4051 326.13 81.0462V78.9615H324.961C324.104 78.9615 323.484 79.1077 323.099 79.4C322.715 79.6923 322.522 80.1128 322.522 80.6615C322.522 81.6821 323.043 82.1923 324.084 82.1923ZM334.52 82.0615C335.243 82.0615 335.946 81.8256 336.628 81.3538L337.259 82.2C336.905 82.4974 336.479 82.7359 335.982 82.9154C335.484 83.0897 334.997 83.1769 334.52 83.1769C333.725 83.1769 333.041 83.0051 332.466 82.6615C331.897 82.3179 331.464 81.8308 331.166 81.2C330.869 80.5692 330.72 79.8308 330.72 78.9846C330.72 78.1692 330.871 77.441 331.174 76.8C331.477 76.1538 331.915 75.6487 332.489 75.2846C333.064 74.9154 333.746 74.7308 334.536 74.7308C335.566 74.7308 336.469 75.0436 337.243 75.6692L336.612 76.5308C335.915 76.0487 335.218 75.8077 334.52 75.8077C334.043 75.8077 333.625 75.9256 333.266 76.1615C332.907 76.3974 332.625 76.7538 332.42 77.2308C332.22 77.7077 332.12 78.2923 332.12 78.9846C332.12 80.0205 332.336 80.7923 332.766 81.3C333.202 81.8077 333.787 82.0615 334.52 82.0615ZM346.518 82.5923C346.246 82.7718 345.91 82.9128 345.51 83.0154C345.115 83.1231 344.728 83.1769 344.349 83.1769C343.779 83.1769 343.29 83.0744 342.879 82.8692C342.474 82.659 342.164 82.3692 341.949 82C341.733 81.6308 341.626 81.2077 341.626 80.7308V75.9H339.764V74.9H341.626V73.0615L342.918 72.9077V74.9H345.718L345.564 75.9H342.918V80.7154C342.918 81.1769 343.038 81.5231 343.279 81.7538C343.526 81.9846 343.921 82.1 344.464 82.1C345.013 82.1 345.531 81.9718 346.018 81.7154L346.518 82.5923ZM59.8032 99.2308C59.8032 99.5487 59.8545 99.7846 59.957 99.9385C60.0596 100.087 60.2288 100.197 60.4647 100.269L60.1493 101.177C59.3699 101.074 58.875 100.695 58.6647 100.038C58.3775 100.413 58.0134 100.697 57.5724 100.892C57.1365 101.082 56.6545 101.177 56.1263 101.177C55.5929 101.177 55.1288 101.074 54.734 100.869C54.3391 100.664 54.0365 100.374 53.8263 100C53.616 99.6205 53.5109 99.1795 53.5109 98.6769C53.5109 97.841 53.8365 97.2 54.4878 96.7538C55.1391 96.3077 56.0801 96.0846 57.3109 96.0846H58.5032V95.4077C58.5032 94.8436 58.3391 94.4359 58.0109 94.1846C57.6827 93.9282 57.2032 93.8 56.5724 93.8C55.9622 93.8 55.2596 93.9385 54.4647 94.2154L54.1263 93.2385C55.0288 92.9 55.9109 92.7308 56.7724 92.7308C57.7622 92.7308 58.5134 92.9641 59.0263 93.4308C59.5442 93.8923 59.8032 94.5308 59.8032 95.3462V99.2308ZM56.457 100.192C56.857 100.192 57.2365 100.092 57.5955 99.8923C57.9596 99.6872 58.2622 99.4051 58.5032 99.0462V96.9615H57.334C56.4775 96.9615 55.857 97.1077 55.4724 97.4C55.0878 97.6923 54.8955 98.1128 54.8955 98.6615C54.8955 99.6821 55.416 100.192 56.457 100.192ZM68.7009 92.7231C68.9112 92.7231 69.1035 92.7385 69.2779 92.7692C69.4522 92.7949 69.642 92.8385 69.8471 92.9L69.6625 95.6385H68.6009V93.9154H68.5317C67.9061 93.9154 67.3727 94.1359 66.9317 94.5769C66.4907 95.0179 66.1343 95.6846 65.8625 96.5769V100.008H67.5086V101H63.3086V100.008H64.5702V93.8923H63.3086V92.9H65.5548L65.7932 94.8154C66.1214 94.1128 66.5112 93.5897 66.9625 93.2462C67.4189 92.8974 67.9984 92.7231 68.7009 92.7231ZM79.8756 92.9L78.4602 101H76.6294L75.5833 95.0538L74.4448 101H72.6602L71.1833 92.9H72.5064L73.5371 100.2L74.8294 93.9308H76.3602L77.5833 100.2L78.6141 92.9H79.8756ZM82.7041 97.4077C82.7246 98.0128 82.8426 98.5179 83.058 98.9231C83.2733 99.3231 83.5554 99.6205 83.9041 99.8154C84.2528 100.005 84.6426 100.1 85.0733 100.1C85.4733 100.1 85.84 100.041 86.1733 99.9231C86.5118 99.8051 86.8657 99.6205 87.2349 99.3692L87.8426 100.223C87.4631 100.521 87.0272 100.754 86.5349 100.923C86.0477 101.092 85.5554 101.177 85.058 101.177C84.2836 101.177 83.6169 101.003 83.058 100.654C82.499 100.305 82.0733 99.8128 81.781 99.1769C81.4939 98.541 81.3503 97.8026 81.3503 96.9615C81.3503 96.1462 81.4964 95.4179 81.7887 94.7769C82.081 94.1359 82.4939 93.6359 83.0272 93.2769C83.5605 92.9128 84.181 92.7308 84.8887 92.7308C85.5657 92.7308 86.1503 92.8897 86.6426 93.2077C87.14 93.5256 87.5195 93.9846 87.781 94.5846C88.0477 95.1795 88.181 95.8846 88.181 96.7C88.181 96.9359 88.1708 97.1718 88.1503 97.4077H82.7041ZM84.9041 93.7923C84.2785 93.7923 83.7682 94.0128 83.3733 94.4538C82.9836 94.8897 82.7631 95.541 82.7118 96.4077H86.9349C86.9195 95.5564 86.7323 94.9077 86.3733 94.4615C86.0144 94.0154 85.5246 93.7923 84.9041 93.7923ZM96.7172 99.2308C96.7172 99.5487 96.7685 99.7846 96.8711 99.9385C96.9737 100.087 97.1429 100.197 97.3788 100.269L97.0634 101.177C96.2839 101.074 95.789 100.695 95.5788 100.038C95.2916 100.413 94.9275 100.697 94.4865 100.892C94.0506 101.082 93.5685 101.177 93.0403 101.177C92.507 101.177 92.0429 101.074 91.648 100.869C91.2531 100.664 90.9506 100.374 90.7403 100C90.5301 99.6205 90.4249 99.1795 90.4249 98.6769C90.4249 97.841 90.7506 97.2 91.4019 96.7538C92.0531 96.3077 92.9942 96.0846 94.2249 96.0846H95.4172V95.4077C95.4172 94.8436 95.2531 94.4359 94.9249 94.1846C94.5967 93.9282 94.1172 93.8 93.4865 93.8C92.8762 93.8 92.1737 93.9385 91.3788 94.2154L91.0403 93.2385C91.9429 92.9 92.8249 92.7308 93.6865 92.7308C94.6762 92.7308 95.4275 92.9641 95.9403 93.4308C96.4583 93.8923 96.7172 94.5308 96.7172 95.3462V99.2308ZM93.3711 100.192C93.7711 100.192 94.1506 100.092 94.5096 99.8923C94.8737 99.6872 95.1762 99.4051 95.4172 99.0462V96.9615H94.248C93.3916 96.9615 92.7711 97.1077 92.3865 97.4C92.0019 97.6923 91.8096 98.1128 91.8096 98.6615C91.8096 99.6821 92.3301 100.192 93.3711 100.192ZM105.561 92.9H106.9L103.953 101H102.453L99.5304 92.9H100.9L103.246 99.8231L105.561 92.9ZM110.39 97.4077C110.41 98.0128 110.528 98.5179 110.744 98.9231C110.959 99.3231 111.241 99.6205 111.59 99.8154C111.938 100.005 112.328 100.1 112.759 100.1C113.159 100.1 113.526 100.041 113.859 99.9231C114.197 99.8051 114.551 99.6205 114.92 99.3692L115.528 100.223C115.149 100.521 114.713 100.754 114.22 100.923C113.733 101.092 113.241 101.177 112.744 101.177C111.969 101.177 111.302 101.003 110.744 100.654C110.185 100.305 109.759 99.8128 109.467 99.1769C109.179 98.541 109.036 97.8026 109.036 96.9615C109.036 96.1462 109.182 95.4179 109.474 94.7769C109.767 94.1359 110.179 93.6359 110.713 93.2769C111.246 92.9128 111.867 92.7308 112.574 92.7308C113.251 92.7308 113.836 92.8897 114.328 93.2077C114.826 93.5256 115.205 93.9846 115.467 94.5846C115.733 95.1795 115.867 95.8846 115.867 96.7C115.867 96.9359 115.856 97.1718 115.836 97.4077H110.39ZM112.59 93.7923C111.964 93.7923 111.454 94.0128 111.059 94.4538C110.669 94.8897 110.449 95.541 110.397 96.4077H114.62C114.605 95.5564 114.418 94.9077 114.059 94.4615C113.7 94.0154 113.21 93.7923 112.59 93.7923ZM122.564 90.2385C123.231 90.2385 123.798 90.3231 124.264 90.4923C124.736 90.6564 125.193 90.9154 125.634 91.2692L124.887 92.1385C124.262 91.6154 123.521 91.3538 122.664 91.3538C122.049 91.3538 121.498 91.4974 121.01 91.7846C120.528 92.0718 120.141 92.5385 119.849 93.1846C119.562 93.8308 119.418 94.6692 119.418 95.7C119.418 96.7103 119.557 97.5385 119.834 98.1846C120.11 98.8308 120.487 99.3 120.964 99.5923C121.446 99.8846 122.003 100.031 122.634 100.031C123.172 100.031 123.634 99.9513 124.018 99.7923C124.403 99.6333 124.762 99.4179 125.095 99.1462L125.787 100.023C125.428 100.372 124.987 100.651 124.464 100.862C123.941 101.072 123.326 101.177 122.618 101.177C121.746 101.177 120.962 100.964 120.264 100.538C119.572 100.113 119.026 99.4897 118.626 98.6692C118.231 97.8436 118.034 96.8538 118.034 95.7C118.034 94.5513 118.236 93.5667 118.641 92.7462C119.046 91.9205 119.593 91.2974 120.28 90.8769C120.967 90.4513 121.728 90.2385 122.564 90.2385ZM130.985 99C130.985 99.3795 131.103 99.659 131.339 99.8385C131.58 100.013 131.908 100.1 132.324 100.1C132.76 100.1 133.213 100.005 133.685 99.8154L134.031 100.762C133.785 100.885 133.498 100.985 133.17 101.062C132.842 101.138 132.488 101.177 132.108 101.177C131.631 101.177 131.208 101.087 130.839 100.908C130.475 100.728 130.193 100.469 129.993 100.131C129.793 99.7923 129.693 99.3923 129.693 98.9308V90.6615H127.208V89.6385H130.985V99ZM140.129 89.1077C140.411 89.1077 140.639 89.1949 140.814 89.3692C140.988 89.5385 141.075 89.7513 141.075 90.0077C141.075 90.2744 140.988 90.4949 140.814 90.6692C140.639 90.8436 140.411 90.9308 140.129 90.9308C139.857 90.9308 139.634 90.8436 139.46 90.6692C139.285 90.4897 139.198 90.2692 139.198 90.0077C139.198 89.7513 139.285 89.5385 139.46 89.3692C139.634 89.1949 139.857 89.1077 140.129 89.1077ZM137.444 92.9H141.16V99.9769H143.444V101H137.368V99.9769H139.868V93.9231H137.444V92.9ZM147.304 97.4077C147.324 98.0128 147.442 98.5179 147.658 98.9231C147.873 99.3231 148.155 99.6205 148.504 99.8154C148.852 100.005 149.242 100.1 149.673 100.1C150.073 100.1 150.44 100.041 150.773 99.9231C151.111 99.8051 151.465 99.6205 151.834 99.3692L152.442 100.223C152.063 100.521 151.627 100.754 151.134 100.923C150.647 101.092 150.155 101.177 149.658 101.177C148.883 101.177 148.217 101.003 147.658 100.654C147.099 100.305 146.673 99.8128 146.381 99.1769C146.093 98.541 145.95 97.8026 145.95 96.9615C145.95 96.1462 146.096 95.4179 146.388 94.7769C146.681 94.1359 147.093 93.6359 147.627 93.2769C148.16 92.9128 148.781 92.7308 149.488 92.7308C150.165 92.7308 150.75 92.8897 151.242 93.2077C151.74 93.5256 152.119 93.9846 152.381 94.5846C152.647 95.1795 152.781 95.8846 152.781 96.7C152.781 96.9359 152.77 97.1718 152.75 97.4077H147.304ZM149.504 93.7923C148.878 93.7923 148.368 94.0128 147.973 94.4538C147.583 94.8897 147.363 95.541 147.311 96.4077H151.534C151.519 95.5564 151.332 94.9077 150.973 94.4615C150.614 94.0154 150.124 93.7923 149.504 93.7923ZM155.517 101V92.9H156.617L156.717 94.0231C157.04 93.6179 157.445 93.3026 157.932 93.0769C158.425 92.8462 158.912 92.7308 159.394 92.7308C160.168 92.7308 160.74 92.9359 161.109 93.3462C161.484 93.7564 161.671 94.3462 161.671 95.1154V101H160.378V96.0692C160.378 95.4641 160.345 95.0026 160.278 94.6846C160.217 94.3667 160.086 94.1308 159.886 93.9769C159.691 93.8231 159.394 93.7462 158.994 93.7462C158.558 93.7462 158.145 93.8821 157.755 94.1538C157.371 94.4205 157.055 94.7359 156.809 95.1V101H155.517ZM171.176 100.592C170.904 100.772 170.568 100.913 170.168 101.015C169.774 101.123 169.386 101.177 169.007 101.177C168.438 101.177 167.948 101.074 167.538 100.869C167.133 100.659 166.822 100.369 166.607 100C166.392 99.6308 166.284 99.2077 166.284 98.7308V93.9H164.422V92.9H166.284V91.0615L167.576 90.9077V92.9H170.376L170.222 93.9H167.576V98.7154C167.576 99.1769 167.697 99.5231 167.938 99.7538C168.184 99.9846 168.579 100.1 169.122 100.1C169.671 100.1 170.189 99.9718 170.676 99.7154L171.176 100.592ZM57.6647 118.062C58.3878 118.062 59.0904 117.826 59.7724 117.354L60.4032 118.2C60.0493 118.497 59.6237 118.736 59.1263 118.915C58.6288 119.09 58.1416 119.177 57.6647 119.177C56.8699 119.177 56.1852 119.005 55.6109 118.662C55.0416 118.318 54.6083 117.831 54.3109 117.2C54.0134 116.569 53.8647 115.831 53.8647 114.985C53.8647 114.169 54.016 113.441 54.3186 112.8C54.6211 112.154 55.0596 111.649 55.634 111.285C56.2083 110.915 56.8904 110.731 57.6801 110.731C58.7109 110.731 59.6134 111.044 60.3878 111.669L59.757 112.531C59.0596 112.049 58.3622 111.808 57.6647 111.808C57.1878 111.808 56.7699 111.926 56.4109 112.162C56.0519 112.397 55.7699 112.754 55.5647 113.231C55.3647 113.708 55.2647 114.292 55.2647 114.985C55.2647 116.021 55.4801 116.792 55.9109 117.3C56.3468 117.808 56.9314 118.062 57.6647 118.062ZM66.3163 110.731C67.065 110.731 67.6984 110.903 68.2163 111.246C68.7343 111.585 69.124 112.072 69.3855 112.708C69.6522 113.338 69.7855 114.085 69.7855 114.946C69.7855 115.782 69.6496 116.518 69.3779 117.154C69.1112 117.79 68.7163 118.287 68.1932 118.646C67.6702 119 67.0394 119.177 66.3009 119.177C65.5522 119.177 64.9163 119.005 64.3932 118.662C63.8753 118.313 63.483 117.823 63.2163 117.192C62.9496 116.562 62.8163 115.818 62.8163 114.962C62.8163 114.121 62.9496 113.382 63.2163 112.746C63.4881 112.11 63.8855 111.615 64.4086 111.262C64.9368 110.908 65.5727 110.731 66.3163 110.731ZM66.3163 111.785C65.6138 111.785 65.0855 112.046 64.7317 112.569C64.3779 113.087 64.2009 113.885 64.2009 114.962C64.2009 116.023 64.3753 116.815 64.724 117.338C65.0727 117.856 65.5984 118.115 66.3009 118.115C67.0035 118.115 67.5291 117.856 67.8779 117.338C68.2266 116.815 68.4009 116.018 68.4009 114.946C68.4009 113.879 68.2266 113.087 67.8779 112.569C67.5291 112.046 67.0086 111.785 66.3163 111.785ZM72.4602 119V110.9H73.5602L73.6602 112.023C73.9833 111.618 74.3884 111.303 74.8756 111.077C75.3679 110.846 75.8551 110.731 76.3371 110.731C77.1115 110.731 77.6833 110.936 78.0525 111.346C78.4269 111.756 78.6141 112.346 78.6141 113.115V119H77.3218V114.069C77.3218 113.464 77.2884 113.003 77.2218 112.685C77.1602 112.367 77.0294 112.131 76.8294 111.977C76.6346 111.823 76.3371 111.746 75.9371 111.746C75.5012 111.746 75.0884 111.882 74.6987 112.154C74.3141 112.421 73.9987 112.736 73.7525 113.1V119H72.4602ZM88.1195 118.592C87.8477 118.772 87.5118 118.913 87.1118 119.015C86.7169 119.123 86.3298 119.177 85.9503 119.177C85.381 119.177 84.8913 119.074 84.481 118.869C84.0759 118.659 83.7657 118.369 83.5503 118C83.3349 117.631 83.2272 117.208 83.2272 116.731V111.9H81.3657V110.9H83.2272V109.062L84.5195 108.908V110.9H87.3195L87.1657 111.9H84.5195V116.715C84.5195 117.177 84.64 117.523 84.881 117.754C85.1272 117.985 85.5221 118.1 86.0657 118.1C86.6144 118.1 87.1323 117.972 87.6195 117.715L88.1195 118.592ZM96.3865 110.723C96.5967 110.723 96.789 110.738 96.9634 110.769C97.1378 110.795 97.3275 110.838 97.5326 110.9L97.348 113.638H96.2865V111.915H96.2172C95.5916 111.915 95.0583 112.136 94.6172 112.577C94.1762 113.018 93.8198 113.685 93.548 114.577V118.008H95.1942V119H90.9942V118.008H92.2557V111.892H90.9942V110.9H93.2403L93.4788 112.815C93.807 112.113 94.1967 111.59 94.648 111.246C95.1044 110.897 95.6839 110.723 96.3865 110.723ZM105.946 117.231C105.946 117.549 105.997 117.785 106.1 117.938C106.202 118.087 106.371 118.197 106.607 118.269L106.292 119.177C105.512 119.074 105.018 118.695 104.807 118.038C104.52 118.413 104.156 118.697 103.715 118.892C103.279 119.082 102.797 119.177 102.269 119.177C101.736 119.177 101.271 119.074 100.877 118.869C100.482 118.664 100.179 118.374 99.9688 118C99.7586 117.621 99.6535 117.179 99.6535 116.677C99.6535 115.841 99.9791 115.2 100.63 114.754C101.282 114.308 102.223 114.085 103.453 114.085H104.646V113.408C104.646 112.844 104.482 112.436 104.153 112.185C103.825 111.928 103.346 111.8 102.715 111.8C102.105 111.8 101.402 111.938 100.607 112.215L100.269 111.238C101.171 110.9 102.053 110.731 102.915 110.731C103.905 110.731 104.656 110.964 105.169 111.431C105.687 111.892 105.946 112.531 105.946 113.346V117.231ZM102.6 118.192C103 118.192 103.379 118.092 103.738 117.892C104.102 117.687 104.405 117.405 104.646 117.046V114.962H103.477C102.62 114.962 102 115.108 101.615 115.4C101.23 115.692 101.038 116.113 101.038 116.662C101.038 117.682 101.559 118.192 102.6 118.192ZM113.036 118.062C113.759 118.062 114.461 117.826 115.144 117.354L115.774 118.2C115.42 118.497 114.995 118.736 114.497 118.915C114 119.09 113.513 119.177 113.036 119.177C112.241 119.177 111.556 119.005 110.982 118.662C110.413 118.318 109.979 117.831 109.682 117.2C109.385 116.569 109.236 115.831 109.236 114.985C109.236 114.169 109.387 113.441 109.69 112.8C109.992 112.154 110.431 111.649 111.005 111.285C111.579 110.915 112.261 110.731 113.051 110.731C114.082 110.731 114.985 111.044 115.759 111.669L115.128 112.531C114.431 112.049 113.733 111.808 113.036 111.808C112.559 111.808 112.141 111.926 111.782 112.162C111.423 112.397 111.141 112.754 110.936 113.231C110.736 113.708 110.636 114.292 110.636 114.985C110.636 116.021 110.851 116.792 111.282 117.3C111.718 117.808 112.302 118.062 113.036 118.062ZM125.034 118.592C124.762 118.772 124.426 118.913 124.026 119.015C123.631 119.123 123.244 119.177 122.864 119.177C122.295 119.177 121.805 119.074 121.395 118.869C120.99 118.659 120.68 118.369 120.464 118C120.249 117.631 120.141 117.208 120.141 116.731V111.9H118.28V110.9H120.141V109.062L121.434 108.908V110.9H124.234L124.08 111.9H121.434V116.715C121.434 117.177 121.554 117.523 121.795 117.754C122.041 117.985 122.436 118.1 122.98 118.1C123.528 118.1 124.046 117.972 124.534 117.715L125.034 118.592ZM127.87 108.408H133.931V109.477H131.577V117.931H133.931V119H127.87V117.931H130.224V109.477H127.87V108.408ZM144.014 113.654C144.014 115.659 143.552 117.051 142.629 117.831C141.711 118.61 140.578 119 139.229 119H136.798V108.408H139.06C140.003 108.408 140.837 108.551 141.56 108.838C142.283 109.121 142.873 109.649 143.329 110.423C143.785 111.197 144.014 112.274 144.014 113.654ZM142.591 113.654C142.591 112.505 142.434 111.626 142.121 111.015C141.809 110.405 141.419 110 140.952 109.8C140.491 109.6 139.965 109.5 139.375 109.5H138.129V117.931H139.391C140.309 117.931 141.07 117.618 141.675 116.992C142.285 116.362 142.591 115.249 142.591 113.654Z" fill="white"/>
<path d="M105.546 35.1615C104.92 35.1615 104.43 35.2564 104.077 35.4462C103.723 35.6359 103.566 35.9513 103.607 36.3923L103.93 39.5462C103.946 39.6744 103.953 39.8 103.953 39.9231C103.953 40.4256 103.83 40.8128 103.584 41.0846C103.343 41.3513 102.979 41.5282 102.492 41.6154C102.989 41.7026 103.356 41.8744 103.592 42.1308C103.833 42.3821 103.953 42.7615 103.953 43.2692C103.953 43.3974 103.946 43.5359 103.93 43.6846L103.607 46.8385C103.602 46.8692 103.6 46.9128 103.6 46.9692C103.6 47.7026 104.248 48.0692 105.546 48.0692V49.0846C104.618 49.0846 103.861 48.9256 103.277 48.6077C102.697 48.2949 102.407 47.7615 102.407 47.0077C102.407 46.8692 102.412 46.7615 102.423 46.6846L102.73 43.7615C102.741 43.6897 102.746 43.5872 102.746 43.4538C102.746 43.1513 102.677 42.9051 102.538 42.7154C102.4 42.5256 102.159 42.3821 101.815 42.2846C101.477 42.1821 101.007 42.1308 100.407 42.1308V41.1C101.007 41.1 101.477 41.0513 101.815 40.9538C102.159 40.8564 102.4 40.7128 102.538 40.5231C102.677 40.3333 102.746 40.0897 102.746 39.7923C102.746 39.659 102.741 39.5564 102.73 39.4846L102.423 36.5462C102.412 36.4692 102.407 36.3615 102.407 36.2231C102.407 35.4692 102.697 34.9359 103.277 34.6231C103.861 34.3051 104.618 34.1462 105.546 34.1462V35.1615ZM230.083 34.1462C231.012 34.1462 231.765 34.3051 232.345 34.6231C232.93 34.9359 233.222 35.4692 233.222 36.2231C233.222 36.3615 233.217 36.4692 233.207 36.5462L232.899 39.4846C232.889 39.5974 232.883 39.6821 232.883 39.7385C232.883 40.1949 233.063 40.5359 233.422 40.7615C233.781 40.9872 234.381 41.1 235.222 41.1V42.1308C234.386 42.1308 233.786 42.2462 233.422 42.4769C233.063 42.7026 232.883 43.0462 232.883 43.5077C232.883 43.5641 232.889 43.6487 232.899 43.7615L233.207 46.6846C233.217 46.7615 233.222 46.8692 233.222 47.0077C233.222 47.7615 232.93 48.2949 232.345 48.6077C231.765 48.9256 231.012 49.0846 230.083 49.0846V48.0692C231.453 48.0692 232.099 47.659 232.022 46.8385L231.699 43.6846C231.683 43.5359 231.676 43.3974 231.676 43.2692C231.676 42.7513 231.804 42.3692 232.06 42.1231C232.317 41.8769 232.732 41.7128 233.307 41.6308C232.748 41.5385 232.335 41.3564 232.068 41.0846C231.807 40.8128 231.676 40.4231 231.676 39.9154C231.676 39.7974 231.683 39.6744 231.699 39.5462L232.022 36.3923C232.027 36.3615 232.03 36.3179 232.03 36.2615C232.03 35.8667 231.853 35.5846 231.499 35.4154C231.15 35.2462 230.678 35.1615 230.083 35.1615V34.1462ZM296.298 39.6385H295.16L294.914 35.6385H296.537L296.298 39.6385ZM298.868 39.6385H297.729L297.498 35.6385H299.114L298.868 39.6385ZM306.835 46.0615C307.558 46.0615 308.26 45.8256 308.942 45.3538L309.573 46.2C309.219 46.4974 308.794 46.7359 308.296 46.9154C307.799 47.0897 307.312 47.1769 306.835 47.1769C306.04 47.1769 305.355 47.0051 304.781 46.6615C304.212 46.3179 303.778 45.8308 303.481 45.2C303.183 44.5692 303.035 43.8308 303.035 42.9846C303.035 42.1692 303.186 41.441 303.488 40.8C303.791 40.1538 304.23 39.6487 304.804 39.2846C305.378 38.9154 306.06 38.7308 306.85 38.7308C307.881 38.7308 308.783 39.0436 309.558 39.6692L308.927 40.5308C308.23 40.0487 307.532 39.8077 306.835 39.8077C306.358 39.8077 305.94 39.9256 305.581 40.1615C305.222 40.3974 304.94 40.7538 304.735 41.2308C304.535 41.7077 304.435 42.2923 304.435 42.9846C304.435 44.0205 304.65 44.7923 305.081 45.3C305.517 45.8077 306.101 46.0615 306.835 46.0615ZM318.202 45.2308C318.202 45.5487 318.253 45.7846 318.355 45.9385C318.458 46.0872 318.627 46.1974 318.863 46.2692L318.548 47.1769C317.768 47.0744 317.273 46.6949 317.063 46.0385C316.776 46.4128 316.412 46.6974 315.971 46.8923C315.535 47.0821 315.053 47.1769 314.525 47.1769C313.991 47.1769 313.527 47.0744 313.132 46.8692C312.738 46.6641 312.435 46.3744 312.225 46C312.014 45.6205 311.909 45.1795 311.909 44.6769C311.909 43.841 312.235 43.2 312.886 42.7538C313.538 42.3077 314.479 42.0846 315.709 42.0846H316.902V41.4077C316.902 40.8436 316.738 40.4359 316.409 40.1846C316.081 39.9282 315.602 39.8 314.971 39.8C314.361 39.8 313.658 39.9385 312.863 40.2154L312.525 39.2385C313.427 38.9 314.309 38.7308 315.171 38.7308C316.161 38.7308 316.912 38.9641 317.425 39.4308C317.943 39.8923 318.202 40.5308 318.202 41.3462V45.2308ZM314.855 46.1923C315.255 46.1923 315.635 46.0923 315.994 45.8923C316.358 45.6872 316.661 45.4051 316.902 45.0462V42.9615H315.732C314.876 42.9615 314.255 43.1077 313.871 43.4C313.486 43.6923 313.294 44.1128 313.294 44.6615C313.294 45.6821 313.814 46.1923 314.855 46.1923ZM325.292 46.0615C326.015 46.0615 326.717 45.8256 327.399 45.3538L328.03 46.2C327.676 46.4974 327.251 46.7359 326.753 46.9154C326.256 47.0897 325.769 47.1769 325.292 47.1769C324.497 47.1769 323.812 47.0051 323.238 46.6615C322.669 46.3179 322.235 45.8308 321.938 45.2C321.64 44.5692 321.492 43.8308 321.492 42.9846C321.492 42.1692 321.643 41.441 321.946 40.8C322.248 40.1538 322.687 39.6487 323.261 39.2846C323.835 38.9154 324.517 38.7308 325.307 38.7308C326.338 38.7308 327.24 39.0436 328.015 39.6692L327.384 40.5308C326.687 40.0487 325.989 39.8077 325.292 39.8077C324.815 39.8077 324.397 39.9256 324.038 40.1615C323.679 40.3974 323.397 40.7538 323.192 41.2308C322.992 41.7077 322.892 42.2923 322.892 42.9846C322.892 44.0205 323.107 44.7923 323.538 45.3C323.974 45.8077 324.558 46.0615 325.292 46.0615ZM332.151 40.0077C332.464 39.5974 332.848 39.2821 333.305 39.0615C333.766 38.841 334.243 38.7308 334.736 38.7308C335.51 38.7308 336.082 38.9359 336.451 39.3462C336.825 39.7564 337.012 40.3462 337.012 41.1154V47H335.72V41.1462C335.72 40.6641 335.607 40.3103 335.382 40.0846C335.156 39.859 334.802 39.7462 334.32 39.7462C333.895 39.7462 333.487 39.8821 333.097 40.1538C332.707 40.4205 332.392 40.7359 332.151 41.1V47H330.859V35.6538L332.151 35.5154V40.0077ZM347.503 38.9L346.087 47H344.256L343.21 41.0538L342.072 47H340.287L338.81 38.9H340.133L341.164 46.2L342.456 39.9308H343.987L345.21 46.2L346.241 38.9H347.503ZM350.331 43.4077C350.352 44.0128 350.47 44.5179 350.685 44.9231C350.9 45.3231 351.182 45.6205 351.531 45.8154C351.88 46.0051 352.27 46.1 352.7 46.1C353.1 46.1 353.467 46.041 353.8 45.9231C354.139 45.8051 354.493 45.6205 354.862 45.3692L355.47 46.2231C355.09 46.5205 354.654 46.7538 354.162 46.9231C353.675 47.0923 353.182 47.1769 352.685 47.1769C351.911 47.1769 351.244 47.0026 350.685 46.6538C350.126 46.3051 349.7 45.8128 349.408 45.1769C349.121 44.541 348.977 43.8026 348.977 42.9615C348.977 42.1462 349.123 41.4179 349.416 40.7769C349.708 40.1359 350.121 39.6359 350.654 39.2769C351.187 38.9128 351.808 38.7308 352.516 38.7308C353.193 38.7308 353.777 38.8897 354.27 39.2077C354.767 39.5256 355.146 39.9846 355.408 40.5846C355.675 41.1795 355.808 41.8846 355.808 42.7C355.808 42.9359 355.798 43.1718 355.777 43.4077H350.331ZM352.531 39.7923C351.905 39.7923 351.395 40.0128 351 40.4538C350.611 40.8897 350.39 41.541 350.339 42.4077H354.562C354.546 41.5564 354.359 40.9077 354 40.4615C353.641 40.0154 353.152 39.7923 352.531 39.7923ZM364.344 45.2308C364.344 45.5487 364.395 45.7846 364.498 45.9385C364.601 46.0872 364.77 46.1974 365.006 46.2692L364.69 47.1769C363.911 47.0744 363.416 46.6949 363.206 46.0385C362.919 46.4128 362.554 46.6974 362.113 46.8923C361.678 47.0821 361.195 47.1769 360.667 47.1769C360.134 47.1769 359.67 47.0744 359.275 46.8692C358.88 46.6641 358.578 46.3744 358.367 46C358.157 45.6205 358.052 45.1795 358.052 44.6769C358.052 43.841 358.378 43.2 359.029 42.7538C359.68 42.3077 360.621 42.0846 361.852 42.0846H363.044V41.4077C363.044 40.8436 362.88 40.4359 362.552 40.1846C362.224 39.9282 361.744 39.8 361.113 39.8C360.503 39.8 359.801 39.9385 359.006 40.2154L358.667 39.2385C359.57 38.9 360.452 38.7308 361.313 38.7308C362.303 38.7308 363.054 38.9641 363.567 39.4308C364.085 39.8923 364.344 40.5308 364.344 41.3462V45.2308ZM360.998 46.1923C361.398 46.1923 361.778 46.0923 362.137 45.8923C362.501 45.6872 362.803 45.4051 363.044 45.0462V42.9615H361.875C361.019 42.9615 360.398 43.1077 360.013 43.4C359.629 43.6923 359.437 44.1128 359.437 44.6615C359.437 45.6821 359.957 46.1923 360.998 46.1923ZM373.188 38.9H374.527L371.58 47H370.08L367.157 38.9H368.527L370.873 45.8231L373.188 38.9ZM378.017 43.4077C378.037 44.0128 378.155 44.5179 378.37 44.9231C378.586 45.3231 378.868 45.6205 379.217 45.8154C379.565 46.0051 379.955 46.1 380.386 46.1C380.786 46.1 381.153 46.041 381.486 45.9231C381.824 45.8051 382.178 45.6205 382.547 45.3692L383.155 46.2231C382.776 46.5205 382.34 46.7538 381.847 46.9231C381.36 47.0923 380.868 47.1769 380.37 47.1769C379.596 47.1769 378.929 47.0026 378.37 46.6538C377.811 46.3051 377.386 45.8128 377.094 45.1769C376.806 44.541 376.663 43.8026 376.663 42.9615C376.663 42.1462 376.809 41.4179 377.101 40.7769C377.394 40.1359 377.806 39.6359 378.34 39.2769C378.873 38.9128 379.494 38.7308 380.201 38.7308C380.878 38.7308 381.463 38.8897 381.955 39.2077C382.453 39.5256 382.832 39.9846 383.094 40.5846C383.36 41.1795 383.494 41.8846 383.494 42.7C383.494 42.9359 383.483 43.1718 383.463 43.4077H378.017ZM380.217 39.7923C379.591 39.7923 379.081 40.0128 378.686 40.4538C378.296 40.8897 378.076 41.541 378.024 42.4077H382.247C382.232 41.5564 382.045 40.9077 381.686 40.4615C381.327 40.0154 380.837 39.7923 380.217 39.7923ZM388.584 39.6385H387.445L387.199 35.6385H388.822L388.584 39.6385ZM391.153 39.6385H390.014L389.784 35.6385H391.399L391.153 39.6385ZM398.512 39.1385C398.748 39.1385 398.961 39.1949 399.151 39.3077C399.34 39.4154 399.489 39.5641 399.597 39.7538C399.71 39.9436 399.766 40.1513 399.766 40.3769C399.766 40.6026 399.71 40.8128 399.597 41.0077C399.489 41.1974 399.34 41.3487 399.151 41.4615C398.961 41.5744 398.748 41.6308 398.512 41.6308C398.281 41.6308 398.071 41.5744 397.881 41.4615C397.697 41.3487 397.548 41.1974 397.435 41.0077C397.327 40.8128 397.274 40.6026 397.274 40.3769C397.274 40.1513 397.327 39.9436 397.435 39.7538C397.548 39.5641 397.697 39.4154 397.881 39.3077C398.071 39.1949 398.281 39.1385 398.512 39.1385ZM398.512 44.4538C398.748 44.4538 398.961 44.5103 399.151 44.6231C399.34 44.7308 399.489 44.8795 399.597 45.0692C399.71 45.2538 399.766 45.459 399.766 45.6846C399.766 45.8846 399.743 46.0795 399.697 46.2692C399.651 46.459 399.571 46.6718 399.458 46.9077L398.212 49.7692H397.043L397.781 46.7154C397.622 46.6077 397.497 46.4641 397.404 46.2846C397.317 46.1 397.274 45.9026 397.274 45.6923C397.274 45.4667 397.327 45.259 397.435 45.0692C397.548 44.8795 397.697 44.7308 397.881 44.6231C398.071 44.5103 398.281 44.4538 398.512 44.4538ZM174.051 76.2H180.035V77.3154H174.051V76.2ZM174.051 79.1154H180.035V80.2385H174.051V79.1154ZM351.039 77.6154C351.039 78.6615 351.157 79.5744 351.393 80.3538C351.634 81.1282 351.987 81.8308 352.454 82.4615C352.926 83.0923 353.552 83.7538 354.331 84.4462L353.654 85.1538C352.757 84.4256 352.023 83.7077 351.454 83C350.885 82.2974 350.446 81.5077 350.139 80.6308C349.836 79.7538 349.685 78.7487 349.685 77.6154C349.685 76.4821 349.836 75.4769 350.139 74.6C350.446 73.7231 350.885 72.9333 351.454 72.2308C352.023 71.5231 352.757 70.8051 353.654 70.0769L354.331 70.7846C353.541 71.4872 352.913 72.1513 352.446 72.7769C351.98 73.4026 351.629 74.1026 351.393 74.8769C351.157 75.6513 351.039 76.5641 351.039 77.6154ZM177.043 98.4692C177.279 98.4692 177.492 98.5256 177.682 98.6385C177.871 98.7462 178.02 98.8949 178.128 99.0846C178.235 99.2692 178.289 99.4744 178.289 99.7C178.289 99.8897 178.266 100.079 178.22 100.269C178.174 100.459 178.097 100.672 177.989 100.908L176.743 103.762H175.574L176.312 100.723C176.159 100.61 176.035 100.464 175.943 100.285C175.856 100.1 175.812 99.9051 175.812 99.7C175.812 99.4744 175.866 99.2692 175.974 99.0846C176.082 98.8949 176.228 98.7462 176.412 98.6385C176.602 98.5256 176.812 98.4692 177.043 98.4692ZM149.358 116.469C149.593 116.469 149.806 116.526 149.996 116.638C150.186 116.746 150.334 116.895 150.442 117.085C150.55 117.269 150.604 117.474 150.604 117.7C150.604 117.89 150.581 118.079 150.534 118.269C150.488 118.459 150.411 118.672 150.304 118.908L149.058 121.762H147.888L148.627 118.723C148.473 118.61 148.35 118.464 148.258 118.285C148.17 118.1 148.127 117.905 148.127 117.7C148.127 117.474 148.181 117.269 148.288 117.085C148.396 116.895 148.542 116.746 148.727 116.638C148.917 116.526 149.127 116.469 149.358 116.469ZM39.9615 131.615C39.9615 130.564 39.8436 129.651 39.6077 128.877C39.3718 128.103 39.0205 127.403 38.5538 126.777C38.0872 126.151 37.459 125.487 36.6692 124.785L37.3462 124.077C38.2436 124.805 38.9769 125.523 39.5462 126.231C40.1154 126.933 40.5513 127.723 40.8538 128.6C41.1615 129.477 41.3154 130.482 41.3154 131.615C41.3154 132.749 41.1615 133.754 40.8538 134.631C40.5513 135.508 40.1154 136.297 39.5462 137C38.9769 137.708 38.2436 138.426 37.3462 139.154L36.6692 138.446C37.4487 137.754 38.0718 137.092 38.5385 136.462C39.0103 135.831 39.3641 135.128 39.6 134.354C39.841 133.574 39.9615 132.662 39.9615 131.615ZM47.8285 129.138C48.0644 129.138 48.2772 129.195 48.467 129.308C48.6567 129.415 48.8054 129.564 48.9131 129.754C49.026 129.944 49.0824 130.151 49.0824 130.377C49.0824 130.603 49.026 130.813 48.9131 131.008C48.8054 131.197 48.6567 131.349 48.467 131.462C48.2772 131.574 48.0644 131.631 47.8285 131.631C47.5977 131.631 47.3875 131.574 47.1977 131.462C47.0131 131.349 46.8644 131.197 46.7516 131.008C46.6439 130.813 46.5901 130.603 46.5901 130.377C46.5901 130.151 46.6439 129.944 46.7516 129.754C46.8644 129.564 47.0131 129.415 47.1977 129.308C47.3875 129.195 47.5977 129.138 47.8285 129.138ZM47.8285 134.454C48.0644 134.454 48.2772 134.51 48.467 134.623C48.6567 134.731 48.8054 134.879 48.9131 135.069C49.026 135.254 49.0824 135.459 49.0824 135.685C49.0824 135.885 49.0593 136.079 49.0131 136.269C48.967 136.459 48.8875 136.672 48.7747 136.908L47.5285 139.769H46.3593L47.0977 136.715C46.9388 136.608 46.8131 136.464 46.7208 136.285C46.6336 136.1 46.5901 135.903 46.5901 135.692C46.5901 135.467 46.6439 135.259 46.7516 135.069C46.8644 134.879 47.0131 134.731 47.1977 134.623C47.3875 134.51 47.5977 134.454 47.8285 134.454Z" fill="#999999"/>
</svg>
