<svg width="400" height="175" viewBox="0 0 400 175" fill="none" xmlns="http://www.w3.org/2000/svg">
<rect width="400" height="175" rx="10" fill="#1A1A1A"/>
<path d="M38.6 34.5538C38.8769 34.5538 39.1231 34.6154 39.3385 34.7385C39.5538 34.8564 39.7231 35.0205 39.8462 35.2308C39.9692 35.4359 40.0308 35.6667 40.0308 35.9231C40.0308 36.1795 39.9692 36.4128 39.8462 36.6231C39.7231 36.8333 39.5513 37 39.3308 37.1231C39.1154 37.241 38.8718 37.3 38.6 37.3C38.3231 37.3 38.0744 37.241 37.8538 37.1231C37.6333 37 37.4615 36.8333 37.3385 36.6231C37.2154 36.4128 37.1538 36.1795 37.1538 35.9231C37.1538 35.6667 37.2154 35.4359 37.3385 35.2308C37.4615 35.0205 37.6333 34.8564 37.8538 34.7385C38.0744 34.6154 38.3231 34.5538 38.6 34.5538ZM35.4 38.8308H40.0692V45.3385H42.1462V47H35.3231V45.3385H37.6385V40.4923H35.4V38.8308ZM50.3439 38.5615C50.9285 38.5615 51.3593 38.7513 51.6362 39.1308C51.9131 39.5103 52.0516 40.1179 52.0516 40.9538V47H49.967V41.2308C49.967 40.9385 49.9388 40.7359 49.8824 40.6231C49.826 40.5051 49.7183 40.4462 49.5593 40.4462C49.4208 40.4462 49.2824 40.4872 49.1439 40.5692C49.0106 40.6462 48.867 40.7821 48.7131 40.9769V47H47.0054V41.2308C47.0054 40.9385 46.9772 40.7359 46.9208 40.6231C46.8644 40.5051 46.7567 40.4462 46.5977 40.4462C46.4593 40.4462 46.3208 40.4872 46.1824 40.5692C46.049 40.6462 45.9054 40.7821 45.7516 40.9769V47H43.6362V38.8308H45.4208L45.5824 39.6231C45.849 39.259 46.1131 38.9923 46.3747 38.8231C46.6362 38.6487 46.9413 38.5615 47.2901 38.5615C47.608 38.5615 47.8721 38.641 48.0824 38.8C48.2977 38.959 48.4516 39.2026 48.5439 39.5308C49.1029 38.8846 49.7029 38.5615 50.3439 38.5615ZM58.057 38.5615C59.0878 38.5615 59.8416 38.9385 60.3186 39.6923C60.8006 40.441 61.0416 41.5077 61.0416 42.8923C61.0416 43.7385 60.916 44.4923 60.6647 45.1538C60.4186 45.8103 60.0596 46.3256 59.5878 46.7C59.116 47.0744 58.5545 47.2615 57.9032 47.2615C57.1083 47.2615 56.4622 46.9769 55.9647 46.4077V50.1538L53.534 50.4077V38.8308H55.6878L55.7955 39.7462C56.1134 39.341 56.4673 39.0436 56.857 38.8538C57.2468 38.659 57.6468 38.5615 58.057 38.5615ZM57.3032 40.3538C57.0314 40.3538 56.7852 40.4359 56.5647 40.6C56.3493 40.759 56.1493 40.9923 55.9647 41.3V44.7462C56.1391 45.0026 56.3186 45.1897 56.5032 45.3077C56.6929 45.4205 56.9134 45.4769 57.1647 45.4769C57.6109 45.4769 57.9493 45.2744 58.1801 44.8692C58.416 44.4641 58.534 43.8154 58.534 42.9231C58.534 42.2667 58.4852 41.7513 58.3878 41.3769C58.2955 40.9974 58.1596 40.7333 57.9801 40.5846C57.8006 40.4308 57.575 40.3538 57.3032 40.3538ZM66.3009 38.5615C67.1266 38.5615 67.8368 38.741 68.4317 39.1C69.0317 39.4538 69.4881 39.9564 69.8009 40.6077C70.1138 41.259 70.2702 42.0205 70.2702 42.8923C70.2702 43.8 70.1112 44.5821 69.7932 45.2385C69.4804 45.8897 69.0266 46.3897 68.4317 46.7385C67.8368 47.0872 67.1266 47.2615 66.3009 47.2615C65.4702 47.2615 64.7573 47.0897 64.1625 46.7462C63.5676 46.4026 63.1138 45.9051 62.8009 45.2538C62.4881 44.5974 62.3317 43.8154 62.3317 42.9077C62.3317 42.041 62.4881 41.2821 62.8009 40.6308C63.1189 39.9744 63.5753 39.4667 64.1702 39.1077C64.7702 38.7436 65.4804 38.5615 66.3009 38.5615ZM66.3009 40.3538C65.8035 40.3538 65.4343 40.559 65.1932 40.9692C64.9573 41.3795 64.8394 42.0256 64.8394 42.9077C64.8394 43.8051 64.9573 44.459 65.1932 44.8692C65.4291 45.2744 65.7984 45.4769 66.3009 45.4769C66.8035 45.4769 67.1727 45.2718 67.4086 44.8615C67.6445 44.4513 67.7625 43.7949 67.7625 42.8923C67.7625 42.0154 67.642 41.3744 67.4009 40.9692C67.165 40.559 66.7984 40.3538 66.3009 40.3538ZM78.2294 38.5846C78.7166 38.5846 79.1653 38.6667 79.5756 38.8308L79.1218 42.2462H77.5987V40.7385C77.1474 40.8205 76.7474 41.0667 76.3987 41.4769C76.05 41.8872 75.7756 42.4051 75.5756 43.0308V45.3692H77.191V47H72.0679V45.3692H73.1448V40.4462H72.0679V38.8308H74.9987L75.4448 40.6692C75.7371 39.9667 76.1089 39.4436 76.5602 39.1C77.0166 38.7564 77.573 38.5846 78.2294 38.5846ZM88.5733 46.5231C88.2298 46.7487 87.8298 46.9282 87.3733 47.0615C86.9221 47.1949 86.4298 47.2615 85.8964 47.2615C84.8503 47.2615 84.0631 46.9949 83.5349 46.4615C83.0067 45.9282 82.7426 45.1795 82.7426 44.2154V40.5077H81.0272V38.8308H82.7426V37.0615L85.1733 36.7692V38.8308H87.8041L87.5657 40.5077H85.1733V44.2154C85.1733 44.6205 85.2631 44.9103 85.4426 45.0846C85.6272 45.259 85.9246 45.3462 86.3349 45.3462C86.8477 45.3462 87.3246 45.2231 87.7657 44.9769L88.5733 46.5231ZM125.587 39.2538C125.269 39.3513 124.928 39.4154 124.564 39.4462C124.205 39.4769 123.757 39.4923 123.218 39.4923C124.157 39.9231 124.626 40.6026 124.626 41.5308C124.626 42.0641 124.503 42.541 124.257 42.9615C124.016 43.3769 123.664 43.7026 123.203 43.9385C122.746 44.1692 122.205 44.2846 121.58 44.2846C121.313 44.2846 121.087 44.2744 120.903 44.2538C120.723 44.2282 120.546 44.1872 120.372 44.1308C120.249 44.2179 120.146 44.3333 120.064 44.4769C119.987 44.6154 119.949 44.7615 119.949 44.9154C119.949 45.1256 120.031 45.2923 120.195 45.4154C120.359 45.5333 120.639 45.5923 121.034 45.5923H122.495C123.028 45.5923 123.513 45.6897 123.949 45.8846C124.39 46.0744 124.734 46.3385 124.98 46.6769C125.231 47.0103 125.357 47.3821 125.357 47.7923C125.357 48.5872 125.021 49.1974 124.349 49.6231C123.677 50.0487 122.723 50.2615 121.487 50.2615C120.636 50.2615 119.959 50.1744 119.457 50C118.959 49.8256 118.603 49.559 118.387 49.2C118.172 48.8462 118.064 48.3872 118.064 47.8231H119.234C119.234 48.1564 119.295 48.4205 119.418 48.6154C119.546 48.8154 119.772 48.9641 120.095 49.0615C120.423 49.159 120.885 49.2077 121.48 49.2077C122.362 49.2077 123.01 49.0974 123.426 48.8769C123.841 48.6564 124.049 48.3231 124.049 47.8769C124.049 47.5026 123.88 47.2154 123.541 47.0154C123.203 46.8154 122.762 46.7154 122.218 46.7154H120.772C120.326 46.7154 119.949 46.6462 119.641 46.5077C119.334 46.3692 119.105 46.1846 118.957 45.9538C118.808 45.7231 118.734 45.4692 118.734 45.1923C118.734 44.9308 118.81 44.6769 118.964 44.4308C119.118 44.1846 119.339 43.9667 119.626 43.7769C119.159 43.5308 118.816 43.2256 118.595 42.8615C118.375 42.4974 118.264 42.0564 118.264 41.5385C118.264 41 118.4 40.5179 118.672 40.0923C118.949 39.6615 119.331 39.3256 119.818 39.0846C120.31 38.8436 120.869 38.7231 121.495 38.7231C122.146 38.7231 122.685 38.6974 123.11 38.6462C123.536 38.5897 123.893 38.5154 124.18 38.4231C124.472 38.3308 124.808 38.2026 125.187 38.0385L125.587 39.2538ZM121.495 39.6692C120.864 39.6692 120.387 39.8385 120.064 40.1769C119.746 40.5154 119.587 40.9692 119.587 41.5385C119.587 42.1128 119.749 42.5718 120.072 42.9154C120.4 43.2538 120.885 43.4231 121.526 43.4231C122.09 43.4231 122.523 43.259 122.826 42.9308C123.134 42.5974 123.287 42.1308 123.287 41.5308C123.287 40.9205 123.136 40.459 122.834 40.1462C122.531 39.8282 122.085 39.6692 121.495 39.6692ZM128.847 43.4077C128.867 44.0128 128.985 44.5179 129.201 44.9231C129.416 45.3231 129.698 45.6205 130.047 45.8154C130.395 46.0051 130.785 46.1 131.216 46.1C131.616 46.1 131.983 46.041 132.316 45.9231C132.654 45.8051 133.008 45.6205 133.377 45.3692L133.985 46.2231C133.606 46.5205 133.17 46.7538 132.677 46.9231C132.19 47.0923 131.698 47.1769 131.201 47.1769C130.426 47.1769 129.76 47.0026 129.201 46.6538C128.642 46.3051 128.216 45.8128 127.924 45.1769C127.636 44.541 127.493 43.8026 127.493 42.9615C127.493 42.1462 127.639 41.4179 127.931 40.7769C128.224 40.1359 128.636 39.6359 129.17 39.2769C129.703 38.9128 130.324 38.7308 131.031 38.7308C131.708 38.7308 132.293 38.8897 132.785 39.2077C133.283 39.5256 133.662 39.9846 133.924 40.5846C134.19 41.1795 134.324 41.8846 134.324 42.7C134.324 42.9359 134.313 43.1718 134.293 43.4077H128.847ZM131.047 39.7923C130.421 39.7923 129.911 40.0128 129.516 40.4538C129.126 40.8897 128.906 41.541 128.854 42.4077H133.077C133.062 41.5564 132.875 40.9077 132.516 40.4615C132.157 40.0154 131.667 39.7923 131.047 39.7923ZM143.491 46.5923C143.219 46.7718 142.883 46.9128 142.483 47.0154C142.088 47.1231 141.701 47.1769 141.321 47.1769C140.752 47.1769 140.262 47.0744 139.852 46.8692C139.447 46.659 139.137 46.3692 138.921 46C138.706 45.6308 138.598 45.2077 138.598 44.7308V39.9H136.737V38.9H138.598V37.0615L139.891 36.9077V38.9H142.691L142.537 39.9H139.891V44.7154C139.891 45.1769 140.011 45.5231 140.252 45.7538C140.498 45.9846 140.893 46.1 141.437 46.1C141.985 46.1 142.503 45.9718 142.991 45.7154L143.491 46.5923ZM153.242 41.6538C153.242 43.659 152.781 45.0513 151.858 45.8308C150.94 46.6103 149.806 47 148.458 47H146.027V36.4077H148.288C149.232 36.4077 150.065 36.5513 150.788 36.8385C151.511 37.1205 152.101 37.6487 152.558 38.4231C153.014 39.1974 153.242 40.2744 153.242 41.6538ZM151.819 41.6538C151.819 40.5051 151.663 39.6256 151.35 39.0154C151.037 38.4051 150.647 38 150.181 37.8C149.719 37.6 149.193 37.5 148.604 37.5H147.358V45.9308H148.619C149.537 45.9308 150.299 45.6179 150.904 44.9923C151.514 44.3615 151.819 43.2487 151.819 41.6538ZM161.317 45.2308C161.317 45.5487 161.368 45.7846 161.471 45.9385C161.573 46.0872 161.742 46.1974 161.978 46.2692L161.663 47.1769C160.884 47.0744 160.389 46.6949 160.178 46.0385C159.891 46.4128 159.527 46.6974 159.086 46.8923C158.65 47.0821 158.168 47.1769 157.64 47.1769C157.107 47.1769 156.642 47.0744 156.248 46.8692C155.853 46.6641 155.55 46.3744 155.34 46C155.13 45.6205 155.025 45.1795 155.025 44.6769C155.025 43.841 155.35 43.2 156.001 42.7538C156.653 42.3077 157.594 42.0846 158.825 42.0846H160.017V41.4077C160.017 40.8436 159.853 40.4359 159.525 40.1846C159.196 39.9282 158.717 39.8 158.086 39.8C157.476 39.8 156.773 39.9385 155.978 40.2154L155.64 39.2385C156.542 38.9 157.425 38.7308 158.286 38.7308C159.276 38.7308 160.027 38.9641 160.54 39.4308C161.058 39.8923 161.317 40.5308 161.317 41.3462V45.2308ZM157.971 46.1923C158.371 46.1923 158.75 46.0923 159.109 45.8923C159.473 45.6872 159.776 45.4051 160.017 45.0462V42.9615H158.848C157.991 42.9615 157.371 43.1077 156.986 43.4C156.601 43.6923 156.409 44.1128 156.409 44.6615C156.409 45.6821 156.93 46.1923 157.971 46.1923ZM171.176 46.5923C170.904 46.7718 170.568 46.9128 170.168 47.0154C169.774 47.1231 169.386 47.1769 169.007 47.1769C168.438 47.1769 167.948 47.0744 167.538 46.8692C167.133 46.659 166.822 46.3692 166.607 46C166.392 45.6308 166.284 45.2077 166.284 44.7308V39.9H164.422V38.9H166.284V37.0615L167.576 36.9077V38.9H170.376L170.222 39.9H167.576V44.7154C167.576 45.1769 167.697 45.5231 167.938 45.7538C168.184 45.9846 168.579 46.1 169.122 46.1C169.671 46.1 170.189 45.9718 170.676 45.7154L171.176 46.5923ZM179.774 45.2308C179.774 45.5487 179.825 45.7846 179.928 45.9385C180.03 46.0872 180.2 46.1974 180.435 46.2692L180.12 47.1769C179.341 47.0744 178.846 46.6949 178.635 46.0385C178.348 46.4128 177.984 46.6974 177.543 46.8923C177.107 47.0821 176.625 47.1769 176.097 47.1769C175.564 47.1769 175.1 47.0744 174.705 46.8692C174.31 46.6641 174.007 46.3744 173.797 46C173.587 45.6205 173.482 45.1795 173.482 44.6769C173.482 43.841 173.807 43.2 174.459 42.7538C175.11 42.3077 176.051 42.0846 177.282 42.0846H178.474V41.4077C178.474 40.8436 178.31 40.4359 177.982 40.1846C177.653 39.9282 177.174 39.8 176.543 39.8C175.933 39.8 175.23 39.9385 174.435 40.2154L174.097 39.2385C175 38.9 175.882 38.7308 176.743 38.7308C177.733 38.7308 178.484 38.9641 178.997 39.4308C179.515 39.8923 179.774 40.5308 179.774 41.3462V45.2308ZM176.428 46.1923C176.828 46.1923 177.207 46.0923 177.566 45.8923C177.93 45.6872 178.233 45.4051 178.474 45.0462V42.9615H177.305C176.448 42.9615 175.828 43.1077 175.443 43.4C175.059 43.6923 174.866 44.1128 174.866 44.6615C174.866 45.6821 175.387 46.1923 176.428 46.1923ZM215.619 35.3308C216.68 35.3308 217.614 35.5026 218.419 35.8462L217.749 37.4308C217.206 37.2256 216.621 37.1231 215.996 37.1231C215.514 37.1231 215.167 37.2103 214.957 37.3846C214.752 37.559 214.649 37.8487 214.649 38.2538V39.3462H217.311L217.042 41.0308H214.649V47H212.234V41.0308H210.519V39.3462H212.234V38.1615C212.234 37.6179 212.362 37.1333 212.619 36.7077C212.88 36.2769 213.265 35.941 213.773 35.7C214.285 35.4538 214.901 35.3308 215.619 35.3308ZM225.886 38.5846C226.373 38.5846 226.822 38.6667 227.232 38.8308L226.778 42.2462H225.255V40.7385C224.804 40.8205 224.404 41.0667 224.055 41.4769C223.706 41.8872 223.432 42.4051 223.232 43.0308V45.3692H224.847V47H219.724V45.3692H220.801V40.4462H219.724V38.8308H222.655L223.101 40.6692C223.393 39.9667 223.765 39.4436 224.216 39.1C224.673 38.7564 225.229 38.5846 225.886 38.5846ZM232.414 38.5615C233.24 38.5615 233.95 38.741 234.545 39.1C235.145 39.4538 235.601 39.9564 235.914 40.6077C236.227 41.259 236.383 42.0205 236.383 42.8923C236.383 43.8 236.224 44.5821 235.907 45.2385C235.594 45.8897 235.14 46.3897 234.545 46.7385C233.95 47.0872 233.24 47.2615 232.414 47.2615C231.583 47.2615 230.871 47.0897 230.276 46.7462C229.681 46.4026 229.227 45.9051 228.914 45.2538C228.601 44.5974 228.445 43.8154 228.445 42.9077C228.445 42.041 228.601 41.2821 228.914 40.6308C229.232 39.9744 229.689 39.4667 230.283 39.1077C230.883 38.7436 231.594 38.5615 232.414 38.5615ZM232.414 40.3538C231.917 40.3538 231.548 40.559 231.307 40.9692C231.071 41.3795 230.953 42.0256 230.953 42.9077C230.953 43.8051 231.071 44.459 231.307 44.8692C231.542 45.2744 231.912 45.4769 232.414 45.4769C232.917 45.4769 233.286 45.2718 233.522 44.8615C233.758 44.4513 233.876 43.7949 233.876 42.8923C233.876 42.0154 233.755 41.3744 233.514 40.9692C233.278 40.559 232.912 40.3538 232.414 40.3538ZM244.143 38.5615C244.727 38.5615 245.158 38.7513 245.435 39.1308C245.712 39.5103 245.85 40.1179 245.85 40.9538V47H243.766V41.2308C243.766 40.9385 243.738 40.7359 243.681 40.6231C243.625 40.5051 243.517 40.4462 243.358 40.4462C243.22 40.4462 243.081 40.4872 242.943 40.5692C242.809 40.6462 242.666 40.7821 242.512 40.9769V47H240.804V41.2308C240.804 40.9385 240.776 40.7359 240.72 40.6231C240.663 40.5051 240.556 40.4462 240.397 40.4462C240.258 40.4462 240.12 40.4872 239.981 40.5692C239.848 40.6462 239.704 40.7821 239.55 40.9769V47H237.435V38.8308H239.22L239.381 39.6231C239.648 39.259 239.912 38.9923 240.173 38.8231C240.435 38.6487 240.74 38.5615 241.089 38.5615C241.407 38.5615 241.671 38.641 241.881 38.8C242.097 38.959 242.25 39.2026 242.343 39.5308C242.902 38.8846 243.502 38.5615 244.143 38.5615ZM39.4077 81.3462C39.7205 81.3462 40.0205 81.2872 40.3077 81.1692C40.6 81.0462 40.9077 80.8718 41.2308 80.6462L42.3154 82.1846C41.9308 82.5128 41.4795 82.7744 40.9615 82.9692C40.4436 83.1641 39.8821 83.2615 39.2769 83.2615C38.4103 83.2615 37.659 83.0821 37.0231 82.7231C36.3872 82.3641 35.9 81.8615 35.5615 81.2154C35.2231 80.5692 35.0538 79.8205 35.0538 78.9692C35.0538 78.1179 35.2282 77.359 35.5769 76.6923C35.9256 76.0256 36.4205 75.5051 37.0615 75.1308C37.7077 74.7513 38.4615 74.5615 39.3231 74.5615C39.9333 74.5615 40.4795 74.6462 40.9615 74.8154C41.4487 74.9846 41.9 75.241 42.3154 75.5846L41.2615 77.0462C40.6718 76.6359 40.059 76.4308 39.4231 76.4308C38.8436 76.4308 38.3923 76.6333 38.0692 77.0385C37.7513 77.4436 37.5923 78.0872 37.5923 78.9692C37.5923 79.8205 37.7538 80.4308 38.0769 80.8C38.4 81.1641 38.8436 81.3462 39.4077 81.3462ZM47.8439 74.5615C48.6695 74.5615 49.3798 74.741 49.9747 75.1C50.5747 75.4538 51.0311 75.9564 51.3439 76.6077C51.6567 77.259 51.8131 78.0205 51.8131 78.8923C51.8131 79.8 51.6542 80.5821 51.3362 81.2385C51.0234 81.8897 50.5695 82.3897 49.9747 82.7385C49.3798 83.0872 48.6695 83.2615 47.8439 83.2615C47.0131 83.2615 46.3003 83.0897 45.7054 82.7462C45.1106 82.4026 44.6567 81.9051 44.3439 81.2538C44.0311 80.5974 43.8747 79.8154 43.8747 78.9077C43.8747 78.041 44.0311 77.2821 44.3439 76.6308C44.6618 75.9744 45.1183 75.4667 45.7131 75.1077C46.3131 74.7436 47.0234 74.5615 47.8439 74.5615ZM47.8439 76.3538C47.3465 76.3538 46.9772 76.559 46.7362 76.9692C46.5003 77.3795 46.3824 78.0256 46.3824 78.9077C46.3824 79.8051 46.5003 80.459 46.7362 80.8692C46.9721 81.2744 47.3413 81.4769 47.8439 81.4769C48.3465 81.4769 48.7157 81.2718 48.9516 80.8615C49.1875 80.4513 49.3054 79.7949 49.3054 78.8923C49.3054 78.0154 49.1849 77.3744 48.9439 76.9692C48.708 76.559 48.3413 76.3538 47.8439 76.3538ZM53.534 83V74.8308H55.657L55.8263 75.7769C56.1955 75.3615 56.5827 75.0564 56.9878 74.8615C57.3929 74.6615 57.8519 74.5615 58.3647 74.5615C59.0673 74.5615 59.616 74.7769 60.0109 75.2077C60.4109 75.6333 60.6109 76.2308 60.6109 77V83H58.1801V77.7C58.1801 77.3615 58.1545 77.0949 58.1032 76.9C58.057 76.7051 57.9775 76.5667 57.8647 76.4846C57.7519 76.3974 57.5955 76.3538 57.3955 76.3538C57.1493 76.3538 56.9083 76.4333 56.6724 76.5923C56.4416 76.7462 56.2057 76.9769 55.9647 77.2846V83H53.534ZM66.0394 81.5231C66.4548 81.5231 66.783 81.459 67.024 81.3308C67.2702 81.1974 67.3932 81.0051 67.3932 80.7538C67.3932 80.5744 67.3445 80.4282 67.2471 80.3154C67.1496 80.1974 66.9676 80.0872 66.7009 79.9846C66.4343 79.8769 66.0189 79.7462 65.4548 79.5923C64.6343 79.3718 64.0061 79.0692 63.5702 78.6846C63.1394 78.3 62.924 77.7667 62.924 77.0846C62.924 76.5923 63.0599 76.1564 63.3317 75.7769C63.6086 75.3974 64.0138 75.1 64.5471 74.8846C65.0804 74.6692 65.7214 74.5615 66.4702 74.5615C67.7676 74.5615 68.8702 74.8923 69.7779 75.5538L68.8086 76.9846C68.4548 76.7692 68.083 76.6 67.6932 76.4769C67.3086 76.3538 66.924 76.2923 66.5394 76.2923C66.1445 76.2923 65.8496 76.3462 65.6548 76.4538C65.465 76.5564 65.3702 76.7128 65.3702 76.9231C65.3702 77.0667 65.4189 77.1872 65.5163 77.2846C65.6189 77.3821 65.8009 77.4821 66.0625 77.5846C66.3291 77.6872 66.742 77.8179 67.3009 77.9769C67.8907 78.141 68.3702 78.3231 68.7394 78.5231C69.1086 78.7179 69.3958 78.9795 69.6009 79.3077C69.8112 79.6308 69.9163 80.0487 69.9163 80.5615C69.9163 81.1359 69.742 81.6282 69.3932 82.0385C69.0496 82.4436 68.5855 82.7487 68.0009 82.9538C67.4163 83.159 66.7676 83.2615 66.0548 83.2615C65.2907 83.2615 64.6035 83.1538 63.9932 82.9385C63.383 82.7179 62.8573 82.4154 62.4163 82.0308L63.6394 80.6615C63.9779 80.9282 64.3496 81.1385 64.7548 81.2923C65.1599 81.4462 65.5881 81.5231 66.0394 81.5231ZM79.3448 82.5231C79.0012 82.7487 78.6012 82.9282 78.1448 83.0615C77.6935 83.1949 77.2012 83.2615 76.6679 83.2615C75.6218 83.2615 74.8346 82.9949 74.3064 82.4615C73.7782 81.9282 73.5141 81.1795 73.5141 80.2154V76.5077H71.7987V74.8308H73.5141V73.0615L75.9448 72.7692V74.8308H78.5756L78.3371 76.5077H75.9448V80.2154C75.9448 80.6205 76.0346 80.9103 76.2141 81.0846C76.3987 81.259 76.6961 81.3462 77.1064 81.3462C77.6192 81.3462 78.0961 81.2231 78.5371 80.9769L79.3448 82.5231ZM95.7634 71.4769L97.0557 71.6385V83H95.9249L95.8019 81.9308C95.5044 82.3513 95.1608 82.6641 94.7711 82.8692C94.3814 83.0744 93.9583 83.1769 93.5019 83.1769C92.4762 83.1769 91.7044 82.8 91.1865 82.0462C90.6737 81.2923 90.4172 80.2641 90.4172 78.9615C90.4172 78.1462 90.5429 77.4179 90.7942 76.7769C91.0506 76.1359 91.4172 75.6359 91.8942 75.2769C92.3762 74.9128 92.9429 74.7308 93.5942 74.7308C94.0557 74.7308 94.4634 74.8103 94.8172 74.9692C95.1762 75.1282 95.4916 75.3667 95.7634 75.6846V71.4769ZM93.9326 75.7692C93.2506 75.7692 92.7275 76.0385 92.3634 76.5769C92.0044 77.1103 91.8249 77.9051 91.8249 78.9615C91.8249 80.0077 91.989 80.7974 92.3172 81.3308C92.6506 81.8641 93.1352 82.1308 93.7711 82.1308C94.5352 82.1308 95.1993 81.7051 95.7634 80.8538V76.8077C95.5429 76.4795 95.2737 76.2256 94.9557 76.0462C94.6429 75.8615 94.3019 75.7692 93.9326 75.7692ZM105.946 81.2308C105.946 81.5487 105.997 81.7846 106.1 81.9385C106.202 82.0872 106.371 82.1974 106.607 82.2692L106.292 83.1769C105.512 83.0744 105.018 82.6949 104.807 82.0385C104.52 82.4128 104.156 82.6974 103.715 82.8923C103.279 83.0821 102.797 83.1769 102.269 83.1769C101.736 83.1769 101.271 83.0744 100.877 82.8692C100.482 82.6641 100.179 82.3744 99.9688 82C99.7586 81.6205 99.6535 81.1795 99.6535 80.6769C99.6535 79.841 99.9791 79.2 100.63 78.7538C101.282 78.3077 102.223 78.0846 103.453 78.0846H104.646V77.4077C104.646 76.8436 104.482 76.4359 104.153 76.1846C103.825 75.9282 103.346 75.8 102.715 75.8C102.105 75.8 101.402 75.9385 100.607 76.2154L100.269 75.2385C101.171 74.9 102.053 74.7308 102.915 74.7308C103.905 74.7308 104.656 74.9641 105.169 75.4308C105.687 75.8923 105.946 76.5308 105.946 77.3462V81.2308ZM102.6 82.1923C103 82.1923 103.379 82.0923 103.738 81.8923C104.102 81.6872 104.405 81.4051 104.646 81.0462V78.9615H103.477C102.62 78.9615 102 79.1077 101.615 79.4C101.23 79.6923 101.038 80.1128 101.038 80.6615C101.038 81.6821 101.559 82.1923 102.6 82.1923ZM115.805 82.5923C115.533 82.7718 115.197 82.9128 114.797 83.0154C114.402 83.1231 114.015 83.1769 113.636 83.1769C113.067 83.1769 112.577 83.0744 112.167 82.8692C111.761 82.659 111.451 82.3692 111.236 82C111.02 81.6308 110.913 81.2077 110.913 80.7308V75.9H109.051V74.9H110.913V73.0615L112.205 72.9077V74.9H115.005L114.851 75.9H112.205V80.7154C112.205 81.1769 112.326 81.5231 112.567 81.7538C112.813 81.9846 113.208 82.1 113.751 82.1C114.3 82.1 114.818 81.9718 115.305 81.7154L115.805 82.5923ZM124.403 81.2308C124.403 81.5487 124.454 81.7846 124.557 81.9385C124.659 82.0872 124.828 82.1974 125.064 82.2692L124.749 83.1769C123.969 83.0744 123.475 82.6949 123.264 82.0385C122.977 82.4128 122.613 82.6974 122.172 82.8923C121.736 83.0821 121.254 83.1769 120.726 83.1769C120.193 83.1769 119.728 83.0744 119.334 82.8692C118.939 82.6641 118.636 82.3744 118.426 82C118.216 81.6205 118.11 81.1795 118.11 80.6769C118.11 79.841 118.436 79.2 119.087 78.7538C119.739 78.3077 120.68 78.0846 121.91 78.0846H123.103V77.4077C123.103 76.8436 122.939 76.4359 122.61 76.1846C122.282 75.9282 121.803 75.8 121.172 75.8C120.562 75.8 119.859 75.9385 119.064 76.2154L118.726 75.2385C119.628 74.9 120.51 74.7308 121.372 74.7308C122.362 74.7308 123.113 74.9641 123.626 75.4308C124.144 75.8923 124.403 76.5308 124.403 77.3462V81.2308ZM121.057 82.1923C121.457 82.1923 121.836 82.0923 122.195 81.8923C122.559 81.6872 122.862 81.4051 123.103 81.0462V78.9615H121.934C121.077 78.9615 120.457 79.1077 120.072 79.4C119.687 79.6923 119.495 80.1128 119.495 80.6615C119.495 81.6821 120.016 82.1923 121.057 82.1923ZM161.925 80.6462C161.925 80.9487 161.966 81.1718 162.048 81.3154C162.13 81.4538 162.268 81.559 162.463 81.6308L161.963 83.2308C161.466 83.1846 161.053 83.0769 160.725 82.9077C160.401 82.7333 160.148 82.4821 159.963 82.1538C159.66 82.5179 159.268 82.7949 158.786 82.9846C158.309 83.1692 157.804 83.2615 157.271 83.2615C156.717 83.2615 156.23 83.1538 155.809 82.9385C155.394 82.7179 155.073 82.4154 154.848 82.0308C154.622 81.641 154.509 81.1949 154.509 80.6923C154.509 80.1077 154.666 79.6077 154.978 79.1923C155.291 78.7769 155.745 78.4615 156.34 78.2462C156.935 78.0256 157.65 77.9154 158.486 77.9154H159.586V77.6077C159.586 76.7718 159.048 76.3538 157.971 76.3538C157.699 76.3538 157.355 76.3923 156.94 76.4692C156.53 76.5462 156.127 76.6513 155.732 76.7846L155.171 75.1692C155.684 74.9744 156.225 74.8256 156.794 74.7231C157.363 74.6154 157.884 74.5615 158.355 74.5615C159.555 74.5615 160.45 74.8051 161.04 75.2923C161.63 75.7795 161.925 76.4974 161.925 77.4462V80.6462ZM158.109 81.5231C158.386 81.5231 158.666 81.4436 158.948 81.2846C159.23 81.1205 159.442 80.9 159.586 80.6231V79.3H158.986C158.319 79.3 157.825 79.4026 157.501 79.6077C157.178 79.8128 157.017 80.1179 157.017 80.5231C157.017 80.841 157.112 81.0872 157.301 81.2615C157.496 81.4359 157.766 81.5231 158.109 81.5231ZM172.376 74.8308L171.215 83H168.53L167.83 77.5077L167.099 83H164.461L163.253 74.8308H165.476L166.007 81.4846L166.868 75.8615H168.915L169.684 81.4846L170.23 74.8308H172.376ZM180.382 80.6462C180.382 80.9487 180.423 81.1718 180.505 81.3154C180.587 81.4538 180.725 81.559 180.92 81.6308L180.42 83.2308C179.923 83.1846 179.51 83.0769 179.182 82.9077C178.859 82.7333 178.605 82.4821 178.42 82.1538C178.117 82.5179 177.725 82.7949 177.243 82.9846C176.766 83.1692 176.261 83.2615 175.728 83.2615C175.174 83.2615 174.687 83.1538 174.266 82.9385C173.851 82.7179 173.53 82.4154 173.305 82.0308C173.079 81.641 172.966 81.1949 172.966 80.6923C172.966 80.1077 173.123 79.6077 173.435 79.1923C173.748 78.7769 174.202 78.4615 174.797 78.2462C175.392 78.0256 176.107 77.9154 176.943 77.9154H178.043V77.6077C178.043 76.7718 177.505 76.3538 176.428 76.3538C176.156 76.3538 175.812 76.3923 175.397 76.4692C174.987 76.5462 174.584 76.6513 174.189 76.7846L173.628 75.1692C174.141 74.9744 174.682 74.8256 175.251 74.7231C175.82 74.6154 176.341 74.5615 176.812 74.5615C178.012 74.5615 178.907 74.8051 179.497 75.2923C180.087 75.7795 180.382 76.4974 180.382 77.4462V80.6462ZM176.566 81.5231C176.843 81.5231 177.123 81.4436 177.405 81.2846C177.687 81.1205 177.9 80.9 178.043 80.6231V79.3H177.443C176.776 79.3 176.282 79.4026 175.959 79.6077C175.635 79.8128 175.474 80.1179 175.474 80.5231C175.474 80.841 175.569 81.0872 175.759 81.2615C175.953 81.4359 176.223 81.5231 176.566 81.5231ZM186.256 70.5538C186.533 70.5538 186.779 70.6154 186.995 70.7385C187.21 70.8564 187.379 71.0205 187.502 71.2308C187.625 71.4359 187.687 71.6667 187.687 71.9231C187.687 72.1795 187.625 72.4128 187.502 72.6231C187.379 72.8333 187.208 73 186.987 73.1231C186.772 73.241 186.528 73.3 186.256 73.3C185.979 73.3 185.731 73.241 185.51 73.1231C185.29 73 185.118 72.8333 184.995 72.6231C184.872 72.4128 184.81 72.1795 184.81 71.9231C184.81 71.6667 184.872 71.4359 184.995 71.2308C185.118 71.0205 185.29 70.8564 185.51 70.7385C185.731 70.6154 185.979 70.5538 186.256 70.5538ZM183.056 74.8308H187.725V81.3385H189.802V83H182.979V81.3385H185.295V76.4923H183.056V74.8308ZM199.316 82.5231C198.972 82.7487 198.572 82.9282 198.116 83.0615C197.664 83.1949 197.172 83.2615 196.639 83.2615C195.592 83.2615 194.805 82.9949 194.277 82.4615C193.749 81.9282 193.485 81.1795 193.485 80.2154V76.5077H191.769V74.8308H193.485V73.0615L195.916 72.7692V74.8308H198.546L198.308 76.5077H195.916V80.2154C195.916 80.6205 196.005 80.9103 196.185 81.0846C196.369 81.259 196.667 81.3462 197.077 81.3462C197.59 81.3462 198.067 81.2231 198.508 80.9769L199.316 82.5231ZM217.873 75.2538C217.555 75.3513 217.214 75.4154 216.849 75.4462C216.491 75.4769 216.042 75.4923 215.503 75.4923C216.442 75.9231 216.911 76.6026 216.911 77.5308C216.911 78.0641 216.788 78.541 216.542 78.9615C216.301 79.3769 215.949 79.7026 215.488 79.9385C215.032 80.1692 214.491 80.2846 213.865 80.2846C213.598 80.2846 213.373 80.2744 213.188 80.2538C213.008 80.2282 212.832 80.1872 212.657 80.1308C212.534 80.2179 212.432 80.3333 212.349 80.4769C212.273 80.6154 212.234 80.7615 212.234 80.9154C212.234 81.1256 212.316 81.2923 212.48 81.4154C212.644 81.5333 212.924 81.5923 213.319 81.5923H214.78C215.314 81.5923 215.798 81.6897 216.234 81.8846C216.675 82.0744 217.019 82.3385 217.265 82.6769C217.516 83.0103 217.642 83.3821 217.642 83.7923C217.642 84.5872 217.306 85.1974 216.634 85.6231C215.962 86.0487 215.008 86.2615 213.773 86.2615C212.921 86.2615 212.244 86.1744 211.742 86C211.244 85.8256 210.888 85.559 210.673 85.2C210.457 84.8462 210.349 84.3872 210.349 83.8231H211.519C211.519 84.1564 211.58 84.4205 211.703 84.6154C211.832 84.8154 212.057 84.9641 212.38 85.0615C212.708 85.159 213.17 85.2077 213.765 85.2077C214.647 85.2077 215.296 85.0974 215.711 84.8769C216.126 84.6564 216.334 84.3231 216.334 83.8769C216.334 83.5026 216.165 83.2154 215.826 83.0154C215.488 82.8154 215.047 82.7154 214.503 82.7154H213.057C212.611 82.7154 212.234 82.6462 211.926 82.5077C211.619 82.3692 211.391 82.1846 211.242 81.9538C211.093 81.7231 211.019 81.4692 211.019 81.1923C211.019 80.9308 211.096 80.6769 211.249 80.4308C211.403 80.1846 211.624 79.9667 211.911 79.7769C211.444 79.5308 211.101 79.2256 210.88 78.8615C210.66 78.4974 210.549 78.0564 210.549 77.5385C210.549 77 210.685 76.5179 210.957 76.0923C211.234 75.6615 211.616 75.3256 212.103 75.0846C212.596 74.8436 213.155 74.7231 213.78 74.7231C214.432 74.7231 214.97 74.6974 215.396 74.6462C215.821 74.5897 216.178 74.5154 216.465 74.4231C216.757 74.3308 217.093 74.2026 217.473 74.0385L217.873 75.2538ZM213.78 75.6692C213.149 75.6692 212.673 75.8385 212.349 76.1769C212.032 76.5154 211.873 76.9692 211.873 77.5385C211.873 78.1128 212.034 78.5718 212.357 78.9154C212.685 79.2538 213.17 79.4231 213.811 79.4231C214.375 79.4231 214.808 79.259 215.111 78.9308C215.419 78.5974 215.573 78.1308 215.573 77.5308C215.573 76.9205 215.421 76.459 215.119 76.1462C214.816 75.8282 214.37 75.6692 213.78 75.6692ZM221.132 79.4077C221.152 80.0128 221.27 80.5179 221.486 80.9231C221.701 81.3231 221.983 81.6205 222.332 81.8154C222.681 82.0051 223.07 82.1 223.501 82.1C223.901 82.1 224.268 82.041 224.601 81.9231C224.94 81.8051 225.293 81.6205 225.663 81.3692L226.27 82.2231C225.891 82.5205 225.455 82.7538 224.963 82.9231C224.475 83.0923 223.983 83.1769 223.486 83.1769C222.711 83.1769 222.045 83.0026 221.486 82.6538C220.927 82.3051 220.501 81.8128 220.209 81.1769C219.922 80.541 219.778 79.8026 219.778 78.9615C219.778 78.1462 219.924 77.4179 220.216 76.7769C220.509 76.1359 220.922 75.6359 221.455 75.2769C221.988 74.9128 222.609 74.7308 223.316 74.7308C223.993 74.7308 224.578 74.8897 225.07 75.2077C225.568 75.5256 225.947 75.9846 226.209 76.5846C226.475 77.1795 226.609 77.8846 226.609 78.7C226.609 78.9359 226.599 79.1718 226.578 79.4077H221.132ZM223.332 75.7923C222.706 75.7923 222.196 76.0128 221.801 76.4538C221.411 76.8897 221.191 77.541 221.14 78.4077H225.363C225.347 77.5564 225.16 76.9077 224.801 76.4615C224.442 76.0154 223.952 75.7923 223.332 75.7923ZM235.776 82.5923C235.504 82.7718 235.168 82.9128 234.768 83.0154C234.373 83.1231 233.986 83.1769 233.607 83.1769C233.037 83.1769 232.548 83.0744 232.137 82.8692C231.732 82.659 231.422 82.3692 231.207 82C230.991 81.6308 230.883 81.2077 230.883 80.7308V75.9H229.022V74.9H230.883V73.0615L232.176 72.9077V74.9H234.976L234.822 75.9H232.176V80.7154C232.176 81.1769 232.296 81.5231 232.537 81.7538C232.783 81.9846 233.178 82.1 233.722 82.1C234.271 82.1 234.789 81.9718 235.276 81.7154L235.776 82.5923ZM245.527 77.6538C245.527 79.659 245.066 81.0513 244.143 81.8308C243.225 82.6103 242.091 83 240.743 83H238.312V72.4077H240.573C241.517 72.4077 242.35 72.5513 243.073 72.8385C243.797 73.1205 244.386 73.6487 244.843 74.4231C245.299 75.1974 245.527 76.2744 245.527 77.6538ZM244.104 77.6538C244.104 76.5051 243.948 75.6256 243.635 75.0154C243.322 74.4051 242.932 74 242.466 73.8C242.004 73.6 241.479 73.5 240.889 73.5H239.643V81.9308H240.904C241.822 81.9308 242.584 81.6179 243.189 80.9923C243.799 80.3615 244.104 79.2487 244.104 77.6538ZM253.602 81.2308C253.602 81.5487 253.653 81.7846 253.756 81.9385C253.858 82.0872 254.028 82.1974 254.264 82.2692L253.948 83.1769C253.169 83.0744 252.674 82.6949 252.464 82.0385C252.176 82.4128 251.812 82.6974 251.371 82.8923C250.935 83.0821 250.453 83.1769 249.925 83.1769C249.392 83.1769 248.928 83.0744 248.533 82.8692C248.138 82.6641 247.835 82.3744 247.625 82C247.415 81.6205 247.31 81.1795 247.31 80.6769C247.31 79.841 247.635 79.2 248.287 78.7538C248.938 78.3077 249.879 78.0846 251.11 78.0846H252.302V77.4077C252.302 76.8436 252.138 76.4359 251.81 76.1846C251.482 75.9282 251.002 75.8 250.371 75.8C249.761 75.8 249.058 75.9385 248.264 76.2154L247.925 75.2385C248.828 74.9 249.71 74.7308 250.571 74.7308C251.561 74.7308 252.312 74.9641 252.825 75.4308C253.343 75.8923 253.602 76.5308 253.602 77.3462V81.2308ZM250.256 82.1923C250.656 82.1923 251.035 82.0923 251.394 81.8923C251.758 81.6872 252.061 81.4051 252.302 81.0462V78.9615H251.133C250.276 78.9615 249.656 79.1077 249.271 79.4C248.887 79.6923 248.694 80.1128 248.694 80.6615C248.694 81.6821 249.215 82.1923 250.256 82.1923ZM263.461 82.5923C263.19 82.7718 262.854 82.9128 262.454 83.0154C262.059 83.1231 261.672 83.1769 261.292 83.1769C260.723 83.1769 260.233 83.0744 259.823 82.8692C259.418 82.659 259.107 82.3692 258.892 82C258.677 81.6308 258.569 81.2077 258.569 80.7308V75.9H256.707V74.9H258.569V73.0615L259.861 72.9077V74.9H262.661L262.507 75.9H259.861V80.7154C259.861 81.1769 259.982 81.5231 260.223 81.7538C260.469 81.9846 260.864 82.1 261.407 82.1C261.956 82.1 262.474 81.9718 262.961 81.7154L263.461 82.5923ZM272.059 81.2308C272.059 81.5487 272.11 81.7846 272.213 81.9385C272.315 82.0872 272.485 82.1974 272.721 82.2692L272.405 83.1769C271.626 83.0744 271.131 82.6949 270.921 82.0385C270.633 82.4128 270.269 82.6974 269.828 82.8923C269.392 83.0821 268.91 83.1769 268.382 83.1769C267.849 83.1769 267.385 83.0744 266.99 82.8692C266.595 82.6641 266.292 82.3744 266.082 82C265.872 81.6205 265.767 81.1795 265.767 80.6769C265.767 79.841 266.092 79.2 266.744 78.7538C267.395 78.3077 268.336 78.0846 269.567 78.0846H270.759V77.4077C270.759 76.8436 270.595 76.4359 270.267 76.1846C269.939 75.9282 269.459 75.8 268.828 75.8C268.218 75.8 267.515 75.9385 266.721 76.2154L266.382 75.2385C267.285 74.9 268.167 74.7308 269.028 74.7308C270.018 74.7308 270.769 74.9641 271.282 75.4308C271.8 75.8923 272.059 76.5308 272.059 77.3462V81.2308ZM268.713 82.1923C269.113 82.1923 269.492 82.0923 269.851 81.8923C270.215 81.6872 270.518 81.4051 270.759 81.0462V78.9615H269.59C268.733 78.9615 268.113 79.1077 267.728 79.4C267.344 79.6923 267.151 80.1128 267.151 80.6615C267.151 81.6821 267.672 82.1923 268.713 82.1923ZM59.8032 99.2308C59.8032 99.5487 59.8545 99.7846 59.957 99.9385C60.0596 100.087 60.2288 100.197 60.4647 100.269L60.1493 101.177C59.3699 101.074 58.875 100.695 58.6647 100.038C58.3775 100.413 58.0134 100.697 57.5724 100.892C57.1365 101.082 56.6545 101.177 56.1263 101.177C55.5929 101.177 55.1288 101.074 54.734 100.869C54.3391 100.664 54.0365 100.374 53.8263 100C53.616 99.6205 53.5109 99.1795 53.5109 98.6769C53.5109 97.841 53.8365 97.2 54.4878 96.7538C55.1391 96.3077 56.0801 96.0846 57.3109 96.0846H58.5032V95.4077C58.5032 94.8436 58.3391 94.4359 58.0109 94.1846C57.6827 93.9282 57.2032 93.8 56.5724 93.8C55.9622 93.8 55.2596 93.9385 54.4647 94.2154L54.1263 93.2385C55.0288 92.9 55.9109 92.7308 56.7724 92.7308C57.7622 92.7308 58.5134 92.9641 59.0263 93.4308C59.5442 93.8923 59.8032 94.5308 59.8032 95.3462V99.2308ZM56.457 100.192C56.857 100.192 57.2365 100.092 57.5955 99.8923C57.9596 99.6872 58.2622 99.4051 58.5032 99.0462V96.9615H57.334C56.4775 96.9615 55.857 97.1077 55.4724 97.4C55.0878 97.6923 54.8955 98.1128 54.8955 98.6615C54.8955 99.6821 55.416 100.192 56.457 100.192ZM68.7009 92.7231C68.9112 92.7231 69.1035 92.7385 69.2779 92.7692C69.4522 92.7949 69.642 92.8385 69.8471 92.9L69.6625 95.6385H68.6009V93.9154H68.5317C67.9061 93.9154 67.3727 94.1359 66.9317 94.5769C66.4907 95.0179 66.1343 95.6846 65.8625 96.5769V100.008H67.5086V101H63.3086V100.008H64.5702V93.8923H63.3086V92.9H65.5548L65.7932 94.8154C66.1214 94.1128 66.5112 93.5897 66.9625 93.2462C67.4189 92.8974 67.9984 92.7231 68.7009 92.7231ZM79.8756 92.9L78.4602 101H76.6294L75.5833 95.0538L74.4448 101H72.6602L71.1833 92.9H72.5064L73.5371 100.2L74.8294 93.9308H76.3602L77.5833 100.2L78.6141 92.9H79.8756ZM82.7041 97.4077C82.7246 98.0128 82.8426 98.5179 83.058 98.9231C83.2733 99.3231 83.5554 99.6205 83.9041 99.8154C84.2528 100.005 84.6426 100.1 85.0733 100.1C85.4733 100.1 85.84 100.041 86.1733 99.9231C86.5118 99.8051 86.8657 99.6205 87.2349 99.3692L87.8426 100.223C87.4631 100.521 87.0272 100.754 86.5349 100.923C86.0477 101.092 85.5554 101.177 85.058 101.177C84.2836 101.177 83.6169 101.003 83.058 100.654C82.499 100.305 82.0733 99.8128 81.781 99.1769C81.4939 98.541 81.3503 97.8026 81.3503 96.9615C81.3503 96.1462 81.4964 95.4179 81.7887 94.7769C82.081 94.1359 82.4939 93.6359 83.0272 93.2769C83.5605 92.9128 84.181 92.7308 84.8887 92.7308C85.5657 92.7308 86.1503 92.8897 86.6426 93.2077C87.14 93.5256 87.5195 93.9846 87.781 94.5846C88.0477 95.1795 88.181 95.8846 88.181 96.7C88.181 96.9359 88.1708 97.1718 88.1503 97.4077H82.7041ZM84.9041 93.7923C84.2785 93.7923 83.7682 94.0128 83.3733 94.4538C82.9836 94.8897 82.7631 95.541 82.7118 96.4077H86.9349C86.9195 95.5564 86.7323 94.9077 86.3733 94.4615C86.0144 94.0154 85.5246 93.7923 84.9041 93.7923ZM96.7172 99.2308C96.7172 99.5487 96.7685 99.7846 96.8711 99.9385C96.9737 100.087 97.1429 100.197 97.3788 100.269L97.0634 101.177C96.2839 101.074 95.789 100.695 95.5788 100.038C95.2916 100.413 94.9275 100.697 94.4865 100.892C94.0506 101.082 93.5685 101.177 93.0403 101.177C92.507 101.177 92.0429 101.074 91.648 100.869C91.2531 100.664 90.9506 100.374 90.7403 100C90.5301 99.6205 90.4249 99.1795 90.4249 98.6769C90.4249 97.841 90.7506 97.2 91.4019 96.7538C92.0531 96.3077 92.9942 96.0846 94.2249 96.0846H95.4172V95.4077C95.4172 94.8436 95.2531 94.4359 94.9249 94.1846C94.5967 93.9282 94.1172 93.8 93.4865 93.8C92.8762 93.8 92.1737 93.9385 91.3788 94.2154L91.0403 93.2385C91.9429 92.9 92.8249 92.7308 93.6865 92.7308C94.6762 92.7308 95.4275 92.9641 95.9403 93.4308C96.4583 93.8923 96.7172 94.5308 96.7172 95.3462V99.2308ZM93.3711 100.192C93.7711 100.192 94.1506 100.092 94.5096 99.8923C94.8737 99.6872 95.1762 99.4051 95.4172 99.0462V96.9615H94.248C93.3916 96.9615 92.7711 97.1077 92.3865 97.4C92.0019 97.6923 91.8096 98.1128 91.8096 98.6615C91.8096 99.6821 92.3301 100.192 93.3711 100.192ZM105.561 92.9H106.9L103.953 101H102.453L99.5304 92.9H100.9L103.246 99.8231L105.561 92.9ZM110.39 97.4077C110.41 98.0128 110.528 98.5179 110.744 98.9231C110.959 99.3231 111.241 99.6205 111.59 99.8154C111.938 100.005 112.328 100.1 112.759 100.1C113.159 100.1 113.526 100.041 113.859 99.9231C114.197 99.8051 114.551 99.6205 114.92 99.3692L115.528 100.223C115.149 100.521 114.713 100.754 114.22 100.923C113.733 101.092 113.241 101.177 112.744 101.177C111.969 101.177 111.302 101.003 110.744 100.654C110.185 100.305 109.759 99.8128 109.467 99.1769C109.179 98.541 109.036 97.8026 109.036 96.9615C109.036 96.1462 109.182 95.4179 109.474 94.7769C109.767 94.1359 110.179 93.6359 110.713 93.2769C111.246 92.9128 111.867 92.7308 112.574 92.7308C113.251 92.7308 113.836 92.8897 114.328 93.2077C114.826 93.5256 115.205 93.9846 115.467 94.5846C115.733 95.1795 115.867 95.8846 115.867 96.7C115.867 96.9359 115.856 97.1718 115.836 97.4077H110.39ZM112.59 93.7923C111.964 93.7923 111.454 94.0128 111.059 94.4538C110.669 94.8897 110.449 95.541 110.397 96.4077H114.62C114.605 95.5564 114.418 94.9077 114.059 94.4615C113.7 94.0154 113.21 93.7923 112.59 93.7923ZM122.564 90.2385C123.231 90.2385 123.798 90.3231 124.264 90.4923C124.736 90.6564 125.193 90.9154 125.634 91.2692L124.887 92.1385C124.262 91.6154 123.521 91.3538 122.664 91.3538C122.049 91.3538 121.498 91.4974 121.01 91.7846C120.528 92.0718 120.141 92.5385 119.849 93.1846C119.562 93.8308 119.418 94.6692 119.418 95.7C119.418 96.7103 119.557 97.5385 119.834 98.1846C120.11 98.8308 120.487 99.3 120.964 99.5923C121.446 99.8846 122.003 100.031 122.634 100.031C123.172 100.031 123.634 99.9513 124.018 99.7923C124.403 99.6333 124.762 99.4179 125.095 99.1462L125.787 100.023C125.428 100.372 124.987 100.651 124.464 100.862C123.941 101.072 123.326 101.177 122.618 101.177C121.746 101.177 120.962 100.964 120.264 100.538C119.572 100.113 119.026 99.4897 118.626 98.6692C118.231 97.8436 118.034 96.8538 118.034 95.7C118.034 94.5513 118.236 93.5667 118.641 92.7462C119.046 91.9205 119.593 91.2974 120.28 90.8769C120.967 90.4513 121.728 90.2385 122.564 90.2385ZM130.985 99C130.985 99.3795 131.103 99.659 131.339 99.8385C131.58 100.013 131.908 100.1 132.324 100.1C132.76 100.1 133.213 100.005 133.685 99.8154L134.031 100.762C133.785 100.885 133.498 100.985 133.17 101.062C132.842 101.138 132.488 101.177 132.108 101.177C131.631 101.177 131.208 101.087 130.839 100.908C130.475 100.728 130.193 100.469 129.993 100.131C129.793 99.7923 129.693 99.3923 129.693 98.9308V90.6615H127.208V89.6385H130.985V99ZM140.129 89.1077C140.411 89.1077 140.639 89.1949 140.814 89.3692C140.988 89.5385 141.075 89.7513 141.075 90.0077C141.075 90.2744 140.988 90.4949 140.814 90.6692C140.639 90.8436 140.411 90.9308 140.129 90.9308C139.857 90.9308 139.634 90.8436 139.46 90.6692C139.285 90.4897 139.198 90.2692 139.198 90.0077C139.198 89.7513 139.285 89.5385 139.46 89.3692C139.634 89.1949 139.857 89.1077 140.129 89.1077ZM137.444 92.9H141.16V99.9769H143.444V101H137.368V99.9769H139.868V93.9231H137.444V92.9ZM147.304 97.4077C147.324 98.0128 147.442 98.5179 147.658 98.9231C147.873 99.3231 148.155 99.6205 148.504 99.8154C148.852 100.005 149.242 100.1 149.673 100.1C150.073 100.1 150.44 100.041 150.773 99.9231C151.111 99.8051 151.465 99.6205 151.834 99.3692L152.442 100.223C152.063 100.521 151.627 100.754 151.134 100.923C150.647 101.092 150.155 101.177 149.658 101.177C148.883 101.177 148.217 101.003 147.658 100.654C147.099 100.305 146.673 99.8128 146.381 99.1769C146.093 98.541 145.95 97.8026 145.95 96.9615C145.95 96.1462 146.096 95.4179 146.388 94.7769C146.681 94.1359 147.093 93.6359 147.627 93.2769C148.16 92.9128 148.781 92.7308 149.488 92.7308C150.165 92.7308 150.75 92.8897 151.242 93.2077C151.74 93.5256 152.119 93.9846 152.381 94.5846C152.647 95.1795 152.781 95.8846 152.781 96.7C152.781 96.9359 152.77 97.1718 152.75 97.4077H147.304ZM149.504 93.7923C148.878 93.7923 148.368 94.0128 147.973 94.4538C147.583 94.8897 147.363 95.541 147.311 96.4077H151.534C151.519 95.5564 151.332 94.9077 150.973 94.4615C150.614 94.0154 150.124 93.7923 149.504 93.7923ZM155.517 101V92.9H156.617L156.717 94.0231C157.04 93.6179 157.445 93.3026 157.932 93.0769C158.425 92.8462 158.912 92.7308 159.394 92.7308C160.168 92.7308 160.74 92.9359 161.109 93.3462C161.484 93.7564 161.671 94.3462 161.671 95.1154V101H160.378V96.0692C160.378 95.4641 160.345 95.0026 160.278 94.6846C160.217 94.3667 160.086 94.1308 159.886 93.9769C159.691 93.8231 159.394 93.7462 158.994 93.7462C158.558 93.7462 158.145 93.8821 157.755 94.1538C157.371 94.4205 157.055 94.7359 156.809 95.1V101H155.517ZM171.176 100.592C170.904 100.772 170.568 100.913 170.168 101.015C169.774 101.123 169.386 101.177 169.007 101.177C168.438 101.177 167.948 101.074 167.538 100.869C167.133 100.659 166.822 100.369 166.607 100C166.392 99.6308 166.284 99.2077 166.284 98.7308V93.9H164.422V92.9H166.284V91.0615L167.576 90.9077V92.9H170.376L170.222 93.9H167.576V98.7154C167.576 99.1769 167.697 99.5231 167.938 99.7538C168.184 99.9846 168.579 100.1 169.122 100.1C169.671 100.1 170.189 99.9718 170.676 99.7154L171.176 100.592ZM60.434 118.592C60.1622 118.772 59.8263 118.913 59.4263 119.015C59.0314 119.123 58.6442 119.177 58.2647 119.177C57.6955 119.177 57.2057 119.074 56.7955 118.869C56.3904 118.659 56.0801 118.369 55.8647 118C55.6493 117.631 55.5416 117.208 55.5416 116.731V111.9H53.6801V110.9H55.5416V109.062L56.834 108.908V110.9H59.634L59.4801 111.9H56.834V116.715C56.834 117.177 56.9545 117.523 57.1955 117.754C57.4416 117.985 57.8365 118.1 58.3801 118.1C58.9288 118.1 59.4468 117.972 59.934 117.715L60.434 118.592ZM68.7009 110.723C68.9112 110.723 69.1035 110.738 69.2779 110.769C69.4522 110.795 69.642 110.838 69.8471 110.9L69.6625 113.638H68.6009V111.915H68.5317C67.9061 111.915 67.3727 112.136 66.9317 112.577C66.4907 113.018 66.1343 113.685 65.8625 114.577V118.008H67.5086V119H63.3086V118.008H64.5702V111.892H63.3086V110.9H65.5548L65.7932 112.815C66.1214 112.113 66.5112 111.59 66.9625 111.246C67.4189 110.897 67.9984 110.723 68.7009 110.723ZM78.2602 117.231C78.2602 117.549 78.3115 117.785 78.4141 117.938C78.5166 118.087 78.6859 118.197 78.9218 118.269L78.6064 119.177C77.8269 119.074 77.332 118.695 77.1218 118.038C76.8346 118.413 76.4705 118.697 76.0294 118.892C75.5935 119.082 75.1115 119.177 74.5833 119.177C74.05 119.177 73.5859 119.074 73.191 118.869C72.7961 118.664 72.4935 118.374 72.2833 118C72.073 117.621 71.9679 117.179 71.9679 116.677C71.9679 115.841 72.2935 115.2 72.9448 114.754C73.5961 114.308 74.5371 114.085 75.7679 114.085H76.9602V113.408C76.9602 112.844 76.7961 112.436 76.4679 112.185C76.1397 111.928 75.6602 111.8 75.0294 111.8C74.4192 111.8 73.7166 111.938 72.9218 112.215L72.5833 111.238C73.4859 110.9 74.3679 110.731 75.2294 110.731C76.2192 110.731 76.9705 110.964 77.4833 111.431C78.0012 111.892 78.2602 112.531 78.2602 113.346V117.231ZM74.9141 118.192C75.3141 118.192 75.6935 118.092 76.0525 117.892C76.4166 117.687 76.7192 117.405 76.9602 117.046V114.962H75.791C74.9346 114.962 74.3141 115.108 73.9294 115.4C73.5448 115.692 73.3525 116.113 73.3525 116.662C73.3525 117.682 73.873 118.192 74.9141 118.192ZM81.6887 119V110.9H82.7887L82.8887 112.023C83.2118 111.618 83.6169 111.303 84.1041 111.077C84.5964 110.846 85.0836 110.731 85.5657 110.731C86.34 110.731 86.9118 110.936 87.281 111.346C87.6554 111.756 87.8426 112.346 87.8426 113.115V119H86.5503V114.069C86.5503 113.464 86.5169 113.003 86.4503 112.685C86.3887 112.367 86.258 112.131 86.058 111.977C85.8631 111.823 85.5657 111.746 85.1657 111.746C84.7298 111.746 84.3169 111.882 83.9272 112.154C83.5426 112.421 83.2272 112.736 82.981 113.1V119H81.6887ZM93.6711 118.108C94.2916 118.108 94.7813 117.992 95.1403 117.762C95.5044 117.531 95.6865 117.218 95.6865 116.823C95.6865 116.556 95.6378 116.338 95.5403 116.169C95.448 115.995 95.2608 115.836 94.9788 115.692C94.7019 115.549 94.2839 115.408 93.7249 115.269C93.1044 115.115 92.5967 114.949 92.2019 114.769C91.8121 114.585 91.507 114.346 91.2865 114.054C91.0711 113.762 90.9634 113.39 90.9634 112.938C90.9634 112.492 91.0916 112.103 91.348 111.769C91.6044 111.436 91.9634 111.179 92.4249 111C92.8916 110.821 93.4301 110.731 94.0403 110.731C94.6506 110.731 95.1993 110.813 95.6865 110.977C96.1788 111.136 96.6096 111.351 96.9788 111.623L96.4096 112.5C96.0711 112.269 95.7147 112.092 95.3403 111.969C94.9711 111.841 94.5429 111.777 94.0557 111.777C93.4455 111.777 92.9993 111.872 92.7172 112.062C92.4403 112.246 92.3019 112.505 92.3019 112.838C92.3019 113.079 92.366 113.277 92.4942 113.431C92.6275 113.585 92.8403 113.723 93.1326 113.846C93.4301 113.964 93.8711 114.103 94.4557 114.262C95.0403 114.421 95.5198 114.597 95.8942 114.792C96.2685 114.987 96.5608 115.244 96.7711 115.562C96.9813 115.874 97.0865 116.274 97.0865 116.762C97.0865 117.31 96.9275 117.767 96.6096 118.131C96.2916 118.49 95.8737 118.754 95.3557 118.923C94.8429 119.092 94.2813 119.177 93.6711 119.177C92.3993 119.177 91.3429 118.813 90.5019 118.085L91.2403 117.231C91.5685 117.508 91.9403 117.723 92.3557 117.877C92.7711 118.031 93.2096 118.108 93.6711 118.108ZM105.946 117.231C105.946 117.549 105.997 117.785 106.1 117.938C106.202 118.087 106.371 118.197 106.607 118.269L106.292 119.177C105.512 119.074 105.018 118.695 104.807 118.038C104.52 118.413 104.156 118.697 103.715 118.892C103.279 119.082 102.797 119.177 102.269 119.177C101.736 119.177 101.271 119.074 100.877 118.869C100.482 118.664 100.179 118.374 99.9688 118C99.7586 117.621 99.6535 117.179 99.6535 116.677C99.6535 115.841 99.9791 115.2 100.63 114.754C101.282 114.308 102.223 114.085 103.453 114.085H104.646V113.408C104.646 112.844 104.482 112.436 104.153 112.185C103.825 111.928 103.346 111.8 102.715 111.8C102.105 111.8 101.402 111.938 100.607 112.215L100.269 111.238C101.171 110.9 102.053 110.731 102.915 110.731C103.905 110.731 104.656 110.964 105.169 111.431C105.687 111.892 105.946 112.531 105.946 113.346V117.231ZM102.6 118.192C103 118.192 103.379 118.092 103.738 117.892C104.102 117.687 104.405 117.405 104.646 117.046V114.962H103.477C102.62 114.962 102 115.108 101.615 115.4C101.23 115.692 101.038 116.113 101.038 116.662C101.038 117.682 101.559 118.192 102.6 118.192ZM113.036 118.062C113.759 118.062 114.461 117.826 115.144 117.354L115.774 118.2C115.42 118.497 114.995 118.736 114.497 118.915C114 119.09 113.513 119.177 113.036 119.177C112.241 119.177 111.556 119.005 110.982 118.662C110.413 118.318 109.979 117.831 109.682 117.2C109.385 116.569 109.236 115.831 109.236 114.985C109.236 114.169 109.387 113.441 109.69 112.8C109.992 112.154 110.431 111.649 111.005 111.285C111.579 110.915 112.261 110.731 113.051 110.731C114.082 110.731 114.985 111.044 115.759 111.669L115.128 112.531C114.431 112.049 113.733 111.808 113.036 111.808C112.559 111.808 112.141 111.926 111.782 112.162C111.423 112.397 111.141 112.754 110.936 113.231C110.736 113.708 110.636 114.292 110.636 114.985C110.636 116.021 110.851 116.792 111.282 117.3C111.718 117.808 112.302 118.062 113.036 118.062ZM125.034 118.592C124.762 118.772 124.426 118.913 124.026 119.015C123.631 119.123 123.244 119.177 122.864 119.177C122.295 119.177 121.805 119.074 121.395 118.869C120.99 118.659 120.68 118.369 120.464 118C120.249 117.631 120.141 117.208 120.141 116.731V111.9H118.28V110.9H120.141V109.062L121.434 108.908V110.9H124.234L124.08 111.9H121.434V116.715C121.434 117.177 121.554 117.523 121.795 117.754C122.041 117.985 122.436 118.1 122.98 118.1C123.528 118.1 124.046 117.972 124.534 117.715L125.034 118.592ZM130.901 107.108C131.183 107.108 131.411 107.195 131.585 107.369C131.76 107.538 131.847 107.751 131.847 108.008C131.847 108.274 131.76 108.495 131.585 108.669C131.411 108.844 131.183 108.931 130.901 108.931C130.629 108.931 130.406 108.844 130.231 108.669C130.057 108.49 129.97 108.269 129.97 108.008C129.97 107.751 130.057 107.538 130.231 107.369C130.406 107.195 130.629 107.108 130.901 107.108ZM128.216 110.9H131.931V117.977H134.216V119H128.139V117.977H130.639V111.923H128.216V110.9ZM140.144 110.731C140.893 110.731 141.526 110.903 142.044 111.246C142.562 111.585 142.952 112.072 143.214 112.708C143.48 113.338 143.614 114.085 143.614 114.946C143.614 115.782 143.478 116.518 143.206 117.154C142.939 117.79 142.544 118.287 142.021 118.646C141.498 119 140.868 119.177 140.129 119.177C139.38 119.177 138.744 119.005 138.221 118.662C137.703 118.313 137.311 117.823 137.044 117.192C136.778 116.562 136.644 115.818 136.644 114.962C136.644 114.121 136.778 113.382 137.044 112.746C137.316 112.11 137.714 111.615 138.237 111.262C138.765 110.908 139.401 110.731 140.144 110.731ZM140.144 111.785C139.442 111.785 138.914 112.046 138.56 112.569C138.206 113.087 138.029 113.885 138.029 114.962C138.029 116.023 138.203 116.815 138.552 117.338C138.901 117.856 139.426 118.115 140.129 118.115C140.832 118.115 141.357 117.856 141.706 117.338C142.055 116.815 142.229 116.018 142.229 114.946C142.229 113.879 142.055 113.087 141.706 112.569C141.357 112.046 140.837 111.785 140.144 111.785ZM146.288 119V110.9H147.388L147.488 112.023C147.811 111.618 148.217 111.303 148.704 111.077C149.196 110.846 149.683 110.731 150.165 110.731C150.94 110.731 151.511 110.936 151.881 111.346C152.255 111.756 152.442 112.346 152.442 113.115V119H151.15V114.069C151.15 113.464 151.117 113.003 151.05 112.685C150.988 112.367 150.858 112.131 150.658 111.977C150.463 111.823 150.165 111.746 149.765 111.746C149.329 111.746 148.917 111.882 148.527 112.154C148.142 112.421 147.827 112.736 147.581 113.1V119H146.288ZM155.555 108.408H161.617V109.477H159.263V117.931H161.617V119H155.555V117.931H157.909V109.477H155.555V108.408ZM171.699 113.654C171.699 115.659 171.238 117.051 170.315 117.831C169.397 118.61 168.263 119 166.915 119H164.484V108.408H166.745C167.689 108.408 168.522 108.551 169.245 108.838C169.968 109.121 170.558 109.649 171.015 110.423C171.471 111.197 171.699 112.274 171.699 113.654ZM170.276 113.654C170.276 112.505 170.12 111.626 169.807 111.015C169.494 110.405 169.104 110 168.638 109.8C168.176 109.6 167.651 109.5 167.061 109.5H165.815V117.931H167.076C167.994 117.931 168.756 117.618 169.361 116.992C169.971 116.362 170.276 115.249 170.276 113.654Z" fill="white"/>
<path d="M105.546 35.1615C104.92 35.1615 104.43 35.2564 104.077 35.4462C103.723 35.6359 103.566 35.9513 103.607 36.3923L103.93 39.5462C103.946 39.6744 103.953 39.8 103.953 39.9231C103.953 40.4256 103.83 40.8128 103.584 41.0846C103.343 41.3513 102.979 41.5282 102.492 41.6154C102.989 41.7026 103.356 41.8744 103.592 42.1308C103.833 42.3821 103.953 42.7615 103.953 43.2692C103.953 43.3974 103.946 43.5359 103.93 43.6846L103.607 46.8385C103.602 46.8692 103.6 46.9128 103.6 46.9692C103.6 47.7026 104.248 48.0692 105.546 48.0692V49.0846C104.618 49.0846 103.861 48.9256 103.277 48.6077C102.697 48.2949 102.407 47.7615 102.407 47.0077C102.407 46.8692 102.412 46.7615 102.423 46.6846L102.73 43.7615C102.741 43.6897 102.746 43.5872 102.746 43.4538C102.746 43.1513 102.677 42.9051 102.538 42.7154C102.4 42.5256 102.159 42.3821 101.815 42.2846C101.477 42.1821 101.007 42.1308 100.407 42.1308V41.1C101.007 41.1 101.477 41.0513 101.815 40.9538C102.159 40.8564 102.4 40.7128 102.538 40.5231C102.677 40.3333 102.746 40.0897 102.746 39.7923C102.746 39.659 102.741 39.5564 102.73 39.4846L102.423 36.5462C102.412 36.4692 102.407 36.3615 102.407 36.2231C102.407 35.4692 102.697 34.9359 103.277 34.6231C103.861 34.3051 104.618 34.1462 105.546 34.1462V35.1615ZM193.169 34.1462C194.098 34.1462 194.851 34.3051 195.431 34.6231C196.016 34.9359 196.308 35.4692 196.308 36.2231C196.308 36.3615 196.303 36.4692 196.292 36.5462L195.985 39.4846C195.975 39.5974 195.969 39.6821 195.969 39.7385C195.969 40.1949 196.149 40.5359 196.508 40.7615C196.867 40.9872 197.467 41.1 198.308 41.1V42.1308C197.472 42.1308 196.872 42.2462 196.508 42.4769C196.149 42.7026 195.969 43.0462 195.969 43.5077C195.969 43.5641 195.975 43.6487 195.985 43.7615L196.292 46.6846C196.303 46.7615 196.308 46.8692 196.308 47.0077C196.308 47.7615 196.016 48.2949 195.431 48.6077C194.851 48.9256 194.098 49.0846 193.169 49.0846V48.0692C194.539 48.0692 195.185 47.659 195.108 46.8385L194.785 43.6846C194.769 43.5359 194.762 43.3974 194.762 43.2692C194.762 42.7513 194.89 42.3692 195.146 42.1231C195.403 41.8769 195.818 41.7128 196.392 41.6308C195.833 41.5385 195.421 41.3564 195.154 41.0846C194.892 40.8128 194.762 40.4231 194.762 39.9154C194.762 39.7974 194.769 39.6744 194.785 39.5462L195.108 36.3923C195.113 36.3615 195.116 36.3179 195.116 36.2615C195.116 35.8667 194.939 35.5846 194.585 35.4154C194.236 35.2462 193.764 35.1615 193.169 35.1615V34.1462ZM259.384 39.6385H258.246L258 35.6385H259.623L259.384 39.6385ZM261.954 39.6385H260.815L260.584 35.6385H262.2L261.954 39.6385ZM269.921 46.0615C270.644 46.0615 271.346 45.8256 272.028 45.3538L272.659 46.2C272.305 46.4974 271.88 46.7359 271.382 46.9154C270.885 47.0897 270.398 47.1769 269.921 47.1769C269.126 47.1769 268.441 47.0051 267.867 46.6615C267.298 46.3179 266.864 45.8308 266.567 45.2C266.269 44.5692 266.121 43.8308 266.121 42.9846C266.121 42.1692 266.272 41.441 266.574 40.8C266.877 40.1538 267.315 39.6487 267.89 39.2846C268.464 38.9154 269.146 38.7308 269.936 38.7308C270.967 38.7308 271.869 39.0436 272.644 39.6692L272.013 40.5308C271.315 40.0487 270.618 39.8077 269.921 39.8077C269.444 39.8077 269.026 39.9256 268.667 40.1615C268.308 40.3974 268.026 40.7538 267.821 41.2308C267.621 41.7077 267.521 42.2923 267.521 42.9846C267.521 44.0205 267.736 44.7923 268.167 45.3C268.603 45.8077 269.187 46.0615 269.921 46.0615ZM281.288 45.2308C281.288 45.5487 281.339 45.7846 281.441 45.9385C281.544 46.0872 281.713 46.1974 281.949 46.2692L281.634 47.1769C280.854 47.0744 280.359 46.6949 280.149 46.0385C279.862 46.4128 279.498 46.6974 279.057 46.8923C278.621 47.0821 278.139 47.1769 277.611 47.1769C277.077 47.1769 276.613 47.0744 276.218 46.8692C275.823 46.6641 275.521 46.3744 275.311 46C275.1 45.6205 274.995 45.1795 274.995 44.6769C274.995 43.841 275.321 43.2 275.972 42.7538C276.623 42.3077 277.564 42.0846 278.795 42.0846H279.988V41.4077C279.988 40.8436 279.823 40.4359 279.495 40.1846C279.167 39.9282 278.688 39.8 278.057 39.8C277.447 39.8 276.744 39.9385 275.949 40.2154L275.611 39.2385C276.513 38.9 277.395 38.7308 278.257 38.7308C279.247 38.7308 279.998 38.9641 280.511 39.4308C281.029 39.8923 281.288 40.5308 281.288 41.3462V45.2308ZM277.941 46.1923C278.341 46.1923 278.721 46.0923 279.08 45.8923C279.444 45.6872 279.747 45.4051 279.988 45.0462V42.9615H278.818C277.962 42.9615 277.341 43.1077 276.957 43.4C276.572 43.6923 276.38 44.1128 276.38 44.6615C276.38 45.6821 276.9 46.1923 277.941 46.1923ZM288.378 46.0615C289.101 46.0615 289.803 45.8256 290.485 45.3538L291.116 46.2C290.762 46.4974 290.337 46.7359 289.839 46.9154C289.342 47.0897 288.855 47.1769 288.378 47.1769C287.583 47.1769 286.898 47.0051 286.324 46.6615C285.755 46.3179 285.321 45.8308 285.024 45.2C284.726 44.5692 284.578 43.8308 284.578 42.9846C284.578 42.1692 284.729 41.441 285.031 40.8C285.334 40.1538 285.772 39.6487 286.347 39.2846C286.921 38.9154 287.603 38.7308 288.393 38.7308C289.424 38.7308 290.326 39.0436 291.101 39.6692L290.47 40.5308C289.772 40.0487 289.075 39.8077 288.378 39.8077C287.901 39.8077 287.483 39.9256 287.124 40.1615C286.765 40.3974 286.483 40.7538 286.278 41.2308C286.078 41.7077 285.978 42.2923 285.978 42.9846C285.978 44.0205 286.193 44.7923 286.624 45.3C287.06 45.8077 287.644 46.0615 288.378 46.0615ZM295.237 40.0077C295.55 39.5974 295.934 39.2821 296.391 39.0615C296.852 38.841 297.329 38.7308 297.822 38.7308C298.596 38.7308 299.168 38.9359 299.537 39.3462C299.911 39.7564 300.098 40.3462 300.098 41.1154V47H298.806V41.1462C298.806 40.6641 298.693 40.3103 298.468 40.0846C298.242 39.859 297.888 39.7462 297.406 39.7462C296.98 39.7462 296.573 39.8821 296.183 40.1538C295.793 40.4205 295.478 40.7359 295.237 41.1V47H293.945V35.6538L295.237 35.5154V40.0077ZM310.588 38.9L309.173 47H307.342L306.296 41.0538L305.158 47H303.373L301.896 38.9H303.219L304.25 46.2L305.542 39.9308H307.073L308.296 46.2L309.327 38.9H310.588ZM313.417 43.4077C313.438 44.0128 313.555 44.5179 313.771 44.9231C313.986 45.3231 314.268 45.6205 314.617 45.8154C314.966 46.0051 315.355 46.1 315.786 46.1C316.186 46.1 316.553 46.041 316.886 45.9231C317.225 45.8051 317.579 45.6205 317.948 45.3692L318.555 46.2231C318.176 46.5205 317.74 46.7538 317.248 46.9231C316.761 47.0923 316.268 47.1769 315.771 47.1769C314.996 47.1769 314.33 47.0026 313.771 46.6538C313.212 46.3051 312.786 45.8128 312.494 45.1769C312.207 44.541 312.063 43.8026 312.063 42.9615C312.063 42.1462 312.209 41.4179 312.502 40.7769C312.794 40.1359 313.207 39.6359 313.74 39.2769C314.273 38.9128 314.894 38.7308 315.602 38.7308C316.279 38.7308 316.863 38.8897 317.355 39.2077C317.853 39.5256 318.232 39.9846 318.494 40.5846C318.761 41.1795 318.894 41.8846 318.894 42.7C318.894 42.9359 318.884 43.1718 318.863 43.4077H313.417ZM315.617 39.7923C314.991 39.7923 314.481 40.0128 314.086 40.4538C313.696 40.8897 313.476 41.541 313.425 42.4077H317.648C317.632 41.5564 317.445 40.9077 317.086 40.4615C316.727 40.0154 316.238 39.7923 315.617 39.7923ZM327.43 45.2308C327.43 45.5487 327.481 45.7846 327.584 45.9385C327.687 46.0872 327.856 46.1974 328.092 46.2692L327.776 47.1769C326.997 47.0744 326.502 46.6949 326.292 46.0385C326.004 46.4128 325.64 46.6974 325.199 46.8923C324.763 47.0821 324.281 47.1769 323.753 47.1769C323.22 47.1769 322.756 47.0744 322.361 46.8692C321.966 46.6641 321.663 46.3744 321.453 46C321.243 45.6205 321.138 45.1795 321.138 44.6769C321.138 43.841 321.463 43.2 322.115 42.7538C322.766 42.3077 323.707 42.0846 324.938 42.0846H326.13V41.4077C326.13 40.8436 325.966 40.4359 325.638 40.1846C325.31 39.9282 324.83 39.8 324.199 39.8C323.589 39.8 322.887 39.9385 322.092 40.2154L321.753 39.2385C322.656 38.9 323.538 38.7308 324.399 38.7308C325.389 38.7308 326.14 38.9641 326.653 39.4308C327.171 39.8923 327.43 40.5308 327.43 41.3462V45.2308ZM324.084 46.1923C324.484 46.1923 324.863 46.0923 325.222 45.8923C325.587 45.6872 325.889 45.4051 326.13 45.0462V42.9615H324.961C324.104 42.9615 323.484 43.1077 323.099 43.4C322.715 43.6923 322.522 44.1128 322.522 44.6615C322.522 45.6821 323.043 46.1923 324.084 46.1923ZM336.274 38.9H337.613L334.666 47H333.166L330.243 38.9H331.612L333.959 45.8231L336.274 38.9ZM341.103 43.4077C341.123 44.0128 341.241 44.5179 341.456 44.9231C341.672 45.3231 341.954 45.6205 342.303 45.8154C342.651 46.0051 343.041 46.1 343.472 46.1C343.872 46.1 344.238 46.041 344.572 45.9231C344.91 45.8051 345.264 45.6205 345.633 45.3692L346.241 46.2231C345.862 46.5205 345.426 46.7538 344.933 46.9231C344.446 47.0923 343.954 47.1769 343.456 47.1769C342.682 47.1769 342.015 47.0026 341.456 46.6538C340.897 46.3051 340.472 45.8128 340.179 45.1769C339.892 44.541 339.749 43.8026 339.749 42.9615C339.749 42.1462 339.895 41.4179 340.187 40.7769C340.479 40.1359 340.892 39.6359 341.426 39.2769C341.959 38.9128 342.579 38.7308 343.287 38.7308C343.964 38.7308 344.549 38.8897 345.041 39.2077C345.538 39.5256 345.918 39.9846 346.179 40.5846C346.446 41.1795 346.579 41.8846 346.579 42.7C346.579 42.9359 346.569 43.1718 346.549 43.4077H341.103ZM343.303 39.7923C342.677 39.7923 342.167 40.0128 341.772 40.4538C341.382 40.8897 341.162 41.541 341.11 42.4077H345.333C345.318 41.5564 345.131 40.9077 344.772 40.4615C344.413 40.0154 343.923 39.7923 343.303 39.7923ZM351.67 39.6385H350.531L350.285 35.6385H351.908L351.67 39.6385ZM354.239 39.6385H353.1L352.87 35.6385H354.485L354.239 39.6385ZM361.598 39.1385C361.834 39.1385 362.047 39.1949 362.237 39.3077C362.426 39.4154 362.575 39.5641 362.683 39.7538C362.795 39.9436 362.852 40.1513 362.852 40.3769C362.852 40.6026 362.795 40.8128 362.683 41.0077C362.575 41.1974 362.426 41.3487 362.237 41.4615C362.047 41.5744 361.834 41.6308 361.598 41.6308C361.367 41.6308 361.157 41.5744 360.967 41.4615C360.783 41.3487 360.634 41.1974 360.521 41.0077C360.413 40.8128 360.36 40.6026 360.36 40.3769C360.36 40.1513 360.413 39.9436 360.521 39.7538C360.634 39.5641 360.783 39.4154 360.967 39.3077C361.157 39.1949 361.367 39.1385 361.598 39.1385ZM361.598 44.4538C361.834 44.4538 362.047 44.5103 362.237 44.6231C362.426 44.7308 362.575 44.8795 362.683 45.0692C362.795 45.2538 362.852 45.459 362.852 45.6846C362.852 45.8846 362.829 46.0795 362.783 46.2692C362.737 46.459 362.657 46.6718 362.544 46.9077L361.298 49.7692H360.129L360.867 46.7154C360.708 46.6077 360.583 46.4641 360.49 46.2846C360.403 46.1 360.36 45.9026 360.36 45.6923C360.36 45.4667 360.413 45.259 360.521 45.0692C360.634 44.8795 360.783 44.7308 360.967 44.6231C361.157 44.5103 361.367 44.4538 361.598 44.4538ZM137.137 76.2H143.121V77.3154H137.137V76.2ZM137.137 79.1154H143.121V80.2385H137.137V79.1154ZM277.211 77.6154C277.211 78.6615 277.329 79.5744 277.564 80.3538C277.806 81.1282 278.159 81.8308 278.626 82.4615C279.098 83.0923 279.723 83.7538 280.503 84.4462L279.826 85.1538C278.929 84.4256 278.195 83.7077 277.626 83C277.057 82.2974 276.618 81.5077 276.311 80.6308C276.008 79.7538 275.857 78.7487 275.857 77.6154C275.857 76.4821 276.008 75.4769 276.311 74.6C276.618 73.7231 277.057 72.9333 277.626 72.2308C278.195 71.5231 278.929 70.8051 279.826 70.0769L280.503 70.7846C279.713 71.4872 279.085 72.1513 278.618 72.7769C278.152 73.4026 277.8 74.1026 277.564 74.8769C277.329 75.6513 277.211 76.5641 277.211 77.6154ZM177.043 98.4692C177.279 98.4692 177.492 98.5256 177.682 98.6385C177.871 98.7462 178.02 98.8949 178.128 99.0846C178.235 99.2692 178.289 99.4744 178.289 99.7C178.289 99.8897 178.266 100.079 178.22 100.269C178.174 100.459 178.097 100.672 177.989 100.908L176.743 103.762H175.574L176.312 100.723C176.159 100.61 176.035 100.464 175.943 100.285C175.856 100.1 175.812 99.9051 175.812 99.7C175.812 99.4744 175.866 99.2692 175.974 99.0846C176.082 98.8949 176.228 98.7462 176.412 98.6385C176.602 98.5256 176.812 98.4692 177.043 98.4692ZM177.043 116.469C177.279 116.469 177.492 116.526 177.682 116.638C177.871 116.746 178.02 116.895 178.128 117.085C178.235 117.269 178.289 117.474 178.289 117.7C178.289 117.89 178.266 118.079 178.22 118.269C178.174 118.459 178.097 118.672 177.989 118.908L176.743 121.762H175.574L176.312 118.723C176.159 118.61 176.035 118.464 175.943 118.285C175.856 118.1 175.812 117.905 175.812 117.7C175.812 117.474 175.866 117.269 175.974 117.085C176.082 116.895 176.228 116.746 176.412 116.638C176.602 116.526 176.812 116.469 177.043 116.469ZM39.9615 131.615C39.9615 130.564 39.8436 129.651 39.6077 128.877C39.3718 128.103 39.0205 127.403 38.5538 126.777C38.0872 126.151 37.459 125.487 36.6692 124.785L37.3462 124.077C38.2436 124.805 38.9769 125.523 39.5462 126.231C40.1154 126.933 40.5513 127.723 40.8538 128.6C41.1615 129.477 41.3154 130.482 41.3154 131.615C41.3154 132.749 41.1615 133.754 40.8538 134.631C40.5513 135.508 40.1154 136.297 39.5462 137C38.9769 137.708 38.2436 138.426 37.3462 139.154L36.6692 138.446C37.4487 137.754 38.0718 137.092 38.5385 136.462C39.0103 135.831 39.3641 135.128 39.6 134.354C39.841 133.574 39.9615 132.662 39.9615 131.615ZM47.8285 129.138C48.0644 129.138 48.2772 129.195 48.467 129.308C48.6567 129.415 48.8054 129.564 48.9131 129.754C49.026 129.944 49.0824 130.151 49.0824 130.377C49.0824 130.603 49.026 130.813 48.9131 131.008C48.8054 131.197 48.6567 131.349 48.467 131.462C48.2772 131.574 48.0644 131.631 47.8285 131.631C47.5977 131.631 47.3875 131.574 47.1977 131.462C47.0131 131.349 46.8644 131.197 46.7516 131.008C46.6439 130.813 46.5901 130.603 46.5901 130.377C46.5901 130.151 46.6439 129.944 46.7516 129.754C46.8644 129.564 47.0131 129.415 47.1977 129.308C47.3875 129.195 47.5977 129.138 47.8285 129.138ZM47.8285 134.454C48.0644 134.454 48.2772 134.51 48.467 134.623C48.6567 134.731 48.8054 134.879 48.9131 135.069C49.026 135.254 49.0824 135.459 49.0824 135.685C49.0824 135.885 49.0593 136.079 49.0131 136.269C48.967 136.459 48.8875 136.672 48.7747 136.908L47.5285 139.769H46.3593L47.0977 136.715C46.9388 136.608 46.8131 136.464 46.7208 136.285C46.6336 136.1 46.5901 135.903 46.5901 135.692C46.5901 135.467 46.6439 135.259 46.7516 135.069C46.8644 134.879 47.0131 134.731 47.1977 134.623C47.3875 134.51 47.5977 134.454 47.8285 134.454Z" fill="#999999"/>
</svg>
