<svg width="400" height="175" viewBox="0 0 400 175" fill="none" xmlns="http://www.w3.org/2000/svg">
<rect width="400" height="175" rx="10" fill="#1A1A1A"/>
<path d="M33.6 34.5538C33.8769 34.5538 34.1231 34.6154 34.3385 34.7385C34.5538 34.8564 34.7231 35.0205 34.8462 35.2308C34.9692 35.4359 35.0308 35.6667 35.0308 35.9231C35.0308 36.1795 34.9692 36.4128 34.8462 36.6231C34.7231 36.8333 34.5513 37 34.3308 37.1231C34.1154 37.241 33.8718 37.3 33.6 37.3C33.3231 37.3 33.0744 37.241 32.8538 37.1231C32.6333 37 32.4615 36.8333 32.3385 36.6231C32.2154 36.4128 32.1538 36.1795 32.1538 35.9231C32.1538 35.6667 32.2154 35.4359 32.3385 35.2308C32.4615 35.0205 32.6333 34.8564 32.8538 34.7385C33.0744 34.6154 33.3231 34.5538 33.6 34.5538ZM30.4 38.8308H35.0692V45.3385H37.1462V47H30.3231V45.3385H32.6385V40.4923H30.4V38.8308ZM45.3439 38.5615C45.9285 38.5615 46.3593 38.7513 46.6362 39.1308C46.9131 39.5103 47.0516 40.1179 47.0516 40.9538V47H44.967V41.2308C44.967 40.9385 44.9388 40.7359 44.8824 40.6231C44.826 40.5051 44.7183 40.4462 44.5593 40.4462C44.4208 40.4462 44.2824 40.4872 44.1439 40.5692C44.0106 40.6462 43.867 40.7821 43.7131 40.9769V47H42.0054V41.2308C42.0054 40.9385 41.9772 40.7359 41.9208 40.6231C41.8644 40.5051 41.7567 40.4462 41.5977 40.4462C41.4593 40.4462 41.3208 40.4872 41.1824 40.5692C41.049 40.6462 40.9054 40.7821 40.7516 40.9769V47H38.6362V38.8308H40.4208L40.5824 39.6231C40.849 39.259 41.1131 38.9923 41.3747 38.8231C41.6362 38.6487 41.9413 38.5615 42.2901 38.5615C42.608 38.5615 42.8721 38.641 43.0824 38.8C43.2977 38.959 43.4516 39.2026 43.5439 39.5308C44.1029 38.8846 44.7029 38.5615 45.3439 38.5615ZM53.057 38.5615C54.0878 38.5615 54.8416 38.9385 55.3186 39.6923C55.8006 40.441 56.0416 41.5077 56.0416 42.8923C56.0416 43.7385 55.916 44.4923 55.6647 45.1538C55.4186 45.8103 55.0596 46.3256 54.5878 46.7C54.116 47.0744 53.5545 47.2615 52.9032 47.2615C52.1083 47.2615 51.4622 46.9769 50.9647 46.4077V50.1538L48.534 50.4077V38.8308H50.6878L50.7955 39.7462C51.1134 39.341 51.4673 39.0436 51.857 38.8538C52.2468 38.659 52.6468 38.5615 53.057 38.5615ZM52.3032 40.3538C52.0314 40.3538 51.7852 40.4359 51.5647 40.6C51.3493 40.759 51.1493 40.9923 50.9647 41.3V44.7462C51.1391 45.0026 51.3186 45.1897 51.5032 45.3077C51.6929 45.4205 51.9134 45.4769 52.1647 45.4769C52.6109 45.4769 52.9493 45.2744 53.1801 44.8692C53.416 44.4641 53.534 43.8154 53.534 42.9231C53.534 42.2667 53.4852 41.7513 53.3878 41.3769C53.2955 40.9974 53.1596 40.7333 52.9801 40.5846C52.8006 40.4308 52.575 40.3538 52.3032 40.3538ZM61.3009 38.5615C62.1266 38.5615 62.8368 38.741 63.4317 39.1C64.0317 39.4538 64.4881 39.9564 64.8009 40.6077C65.1138 41.259 65.2702 42.0205 65.2702 42.8923C65.2702 43.8 65.1112 44.5821 64.7932 45.2385C64.4804 45.8897 64.0266 46.3897 63.4317 46.7385C62.8368 47.0872 62.1266 47.2615 61.3009 47.2615C60.4702 47.2615 59.7573 47.0897 59.1625 46.7462C58.5676 46.4026 58.1138 45.9051 57.8009 45.2538C57.4881 44.5974 57.3317 43.8154 57.3317 42.9077C57.3317 42.041 57.4881 41.2821 57.8009 40.6308C58.1189 39.9744 58.5753 39.4667 59.1702 39.1077C59.7702 38.7436 60.4804 38.5615 61.3009 38.5615ZM61.3009 40.3538C60.8035 40.3538 60.4343 40.559 60.1932 40.9692C59.9573 41.3795 59.8394 42.0256 59.8394 42.9077C59.8394 43.8051 59.9573 44.459 60.1932 44.8692C60.4291 45.2744 60.7984 45.4769 61.3009 45.4769C61.8035 45.4769 62.1727 45.2718 62.4086 44.8615C62.6445 44.4513 62.7625 43.7949 62.7625 42.8923C62.7625 42.0154 62.642 41.3744 62.4009 40.9692C62.165 40.559 61.7984 40.3538 61.3009 40.3538ZM73.2294 38.5846C73.7166 38.5846 74.1653 38.6667 74.5756 38.8308L74.1218 42.2462H72.5987V40.7385C72.1474 40.8205 71.7474 41.0667 71.3987 41.4769C71.05 41.8872 70.7756 42.4051 70.5756 43.0308V45.3692H72.191V47H67.0679V45.3692H68.1448V40.4462H67.0679V38.8308H69.9987L70.4448 40.6692C70.7371 39.9667 71.1089 39.4436 71.5602 39.1C72.0166 38.7564 72.573 38.5846 73.2294 38.5846ZM83.5733 46.5231C83.2298 46.7487 82.8298 46.9282 82.3733 47.0615C81.9221 47.1949 81.4298 47.2615 80.8964 47.2615C79.8503 47.2615 79.0631 46.9949 78.5349 46.4615C78.0067 45.9282 77.7426 45.1795 77.7426 44.2154V40.5077H76.0272V38.8308H77.7426V37.0615L80.1733 36.7692V38.8308H82.8041L82.5657 40.5077H80.1733V44.2154C80.1733 44.6205 80.2631 44.9103 80.4426 45.0846C80.6272 45.259 80.9246 45.3462 81.3349 45.3462C81.8477 45.3462 82.3246 45.2231 82.7657 44.9769L83.5733 46.5231ZM120.587 39.2538C120.269 39.3513 119.928 39.4154 119.564 39.4462C119.205 39.4769 118.757 39.4923 118.218 39.4923C119.157 39.9231 119.626 40.6026 119.626 41.5308C119.626 42.0641 119.503 42.541 119.257 42.9615C119.016 43.3769 118.664 43.7026 118.203 43.9385C117.746 44.1692 117.205 44.2846 116.58 44.2846C116.313 44.2846 116.087 44.2744 115.903 44.2538C115.723 44.2282 115.546 44.1872 115.372 44.1308C115.249 44.2179 115.146 44.3333 115.064 44.4769C114.987 44.6154 114.949 44.7615 114.949 44.9154C114.949 45.1256 115.031 45.2923 115.195 45.4154C115.359 45.5333 115.639 45.5923 116.034 45.5923H117.495C118.028 45.5923 118.513 45.6897 118.949 45.8846C119.39 46.0744 119.734 46.3385 119.98 46.6769C120.231 47.0103 120.357 47.3821 120.357 47.7923C120.357 48.5872 120.021 49.1974 119.349 49.6231C118.677 50.0487 117.723 50.2615 116.487 50.2615C115.636 50.2615 114.959 50.1744 114.457 50C113.959 49.8256 113.603 49.559 113.387 49.2C113.172 48.8462 113.064 48.3872 113.064 47.8231H114.234C114.234 48.1564 114.295 48.4205 114.418 48.6154C114.546 48.8154 114.772 48.9641 115.095 49.0615C115.423 49.159 115.885 49.2077 116.48 49.2077C117.362 49.2077 118.01 49.0974 118.426 48.8769C118.841 48.6564 119.049 48.3231 119.049 47.8769C119.049 47.5026 118.88 47.2154 118.541 47.0154C118.203 46.8154 117.762 46.7154 117.218 46.7154H115.772C115.326 46.7154 114.949 46.6462 114.641 46.5077C114.334 46.3692 114.105 46.1846 113.957 45.9538C113.808 45.7231 113.734 45.4692 113.734 45.1923C113.734 44.9308 113.81 44.6769 113.964 44.4308C114.118 44.1846 114.339 43.9667 114.626 43.7769C114.159 43.5308 113.816 43.2256 113.595 42.8615C113.375 42.4974 113.264 42.0564 113.264 41.5385C113.264 41 113.4 40.5179 113.672 40.0923C113.949 39.6615 114.331 39.3256 114.818 39.0846C115.31 38.8436 115.869 38.7231 116.495 38.7231C117.146 38.7231 117.685 38.6974 118.11 38.6462C118.536 38.5897 118.893 38.5154 119.18 38.4231C119.472 38.3308 119.808 38.2026 120.187 38.0385L120.587 39.2538ZM116.495 39.6692C115.864 39.6692 115.387 39.8385 115.064 40.1769C114.746 40.5154 114.587 40.9692 114.587 41.5385C114.587 42.1128 114.749 42.5718 115.072 42.9154C115.4 43.2538 115.885 43.4231 116.526 43.4231C117.09 43.4231 117.523 43.259 117.826 42.9308C118.134 42.5974 118.287 42.1308 118.287 41.5308C118.287 40.9205 118.136 40.459 117.834 40.1462C117.531 39.8282 117.085 39.6692 116.495 39.6692ZM123.847 43.4077C123.867 44.0128 123.985 44.5179 124.201 44.9231C124.416 45.3231 124.698 45.6205 125.047 45.8154C125.395 46.0051 125.785 46.1 126.216 46.1C126.616 46.1 126.983 46.041 127.316 45.9231C127.654 45.8051 128.008 45.6205 128.377 45.3692L128.985 46.2231C128.606 46.5205 128.17 46.7538 127.677 46.9231C127.19 47.0923 126.698 47.1769 126.201 47.1769C125.426 47.1769 124.76 47.0026 124.201 46.6538C123.642 46.3051 123.216 45.8128 122.924 45.1769C122.636 44.541 122.493 43.8026 122.493 42.9615C122.493 42.1462 122.639 41.4179 122.931 40.7769C123.224 40.1359 123.636 39.6359 124.17 39.2769C124.703 38.9128 125.324 38.7308 126.031 38.7308C126.708 38.7308 127.293 38.8897 127.785 39.2077C128.283 39.5256 128.662 39.9846 128.924 40.5846C129.19 41.1795 129.324 41.8846 129.324 42.7C129.324 42.9359 129.313 43.1718 129.293 43.4077H123.847ZM126.047 39.7923C125.421 39.7923 124.911 40.0128 124.516 40.4538C124.126 40.8897 123.906 41.541 123.854 42.4077H128.077C128.062 41.5564 127.875 40.9077 127.516 40.4615C127.157 40.0154 126.667 39.7923 126.047 39.7923ZM138.491 46.5923C138.219 46.7718 137.883 46.9128 137.483 47.0154C137.088 47.1231 136.701 47.1769 136.321 47.1769C135.752 47.1769 135.262 47.0744 134.852 46.8692C134.447 46.659 134.137 46.3692 133.921 46C133.706 45.6308 133.598 45.2077 133.598 44.7308V39.9H131.737V38.9H133.598V37.0615L134.891 36.9077V38.9H137.691L137.537 39.9H134.891V44.7154C134.891 45.1769 135.011 45.5231 135.252 45.7538C135.498 45.9846 135.893 46.1 136.437 46.1C136.985 46.1 137.503 45.9718 137.991 45.7154L138.491 46.5923ZM148.242 41.6538C148.242 43.659 147.781 45.0513 146.858 45.8308C145.94 46.6103 144.806 47 143.458 47H141.027V36.4077H143.288C144.232 36.4077 145.065 36.5513 145.788 36.8385C146.511 37.1205 147.101 37.6487 147.558 38.4231C148.014 39.1974 148.242 40.2744 148.242 41.6538ZM146.819 41.6538C146.819 40.5051 146.663 39.6256 146.35 39.0154C146.037 38.4051 145.647 38 145.181 37.8C144.719 37.6 144.193 37.5 143.604 37.5H142.358V45.9308H143.619C144.537 45.9308 145.299 45.6179 145.904 44.9923C146.514 44.3615 146.819 43.2487 146.819 41.6538ZM156.317 45.2308C156.317 45.5487 156.368 45.7846 156.471 45.9385C156.573 46.0872 156.742 46.1974 156.978 46.2692L156.663 47.1769C155.884 47.0744 155.389 46.6949 155.178 46.0385C154.891 46.4128 154.527 46.6974 154.086 46.8923C153.65 47.0821 153.168 47.1769 152.64 47.1769C152.107 47.1769 151.642 47.0744 151.248 46.8692C150.853 46.6641 150.55 46.3744 150.34 46C150.13 45.6205 150.025 45.1795 150.025 44.6769C150.025 43.841 150.35 43.2 151.001 42.7538C151.653 42.3077 152.594 42.0846 153.825 42.0846H155.017V41.4077C155.017 40.8436 154.853 40.4359 154.525 40.1846C154.196 39.9282 153.717 39.8 153.086 39.8C152.476 39.8 151.773 39.9385 150.978 40.2154L150.64 39.2385C151.542 38.9 152.425 38.7308 153.286 38.7308C154.276 38.7308 155.027 38.9641 155.54 39.4308C156.058 39.8923 156.317 40.5308 156.317 41.3462V45.2308ZM152.971 46.1923C153.371 46.1923 153.75 46.0923 154.109 45.8923C154.473 45.6872 154.776 45.4051 155.017 45.0462V42.9615H153.848C152.991 42.9615 152.371 43.1077 151.986 43.4C151.601 43.6923 151.409 44.1128 151.409 44.6615C151.409 45.6821 151.93 46.1923 152.971 46.1923ZM166.176 46.5923C165.904 46.7718 165.568 46.9128 165.168 47.0154C164.774 47.1231 164.386 47.1769 164.007 47.1769C163.438 47.1769 162.948 47.0744 162.538 46.8692C162.133 46.659 161.822 46.3692 161.607 46C161.392 45.6308 161.284 45.2077 161.284 44.7308V39.9H159.422V38.9H161.284V37.0615L162.576 36.9077V38.9H165.376L165.222 39.9H162.576V44.7154C162.576 45.1769 162.697 45.5231 162.938 45.7538C163.184 45.9846 163.579 46.1 164.122 46.1C164.671 46.1 165.189 45.9718 165.676 45.7154L166.176 46.5923ZM174.774 45.2308C174.774 45.5487 174.825 45.7846 174.928 45.9385C175.03 46.0872 175.2 46.1974 175.435 46.2692L175.12 47.1769C174.341 47.0744 173.846 46.6949 173.635 46.0385C173.348 46.4128 172.984 46.6974 172.543 46.8923C172.107 47.0821 171.625 47.1769 171.097 47.1769C170.564 47.1769 170.1 47.0744 169.705 46.8692C169.31 46.6641 169.007 46.3744 168.797 46C168.587 45.6205 168.482 45.1795 168.482 44.6769C168.482 43.841 168.807 43.2 169.459 42.7538C170.11 42.3077 171.051 42.0846 172.282 42.0846H173.474V41.4077C173.474 40.8436 173.31 40.4359 172.982 40.1846C172.653 39.9282 172.174 39.8 171.543 39.8C170.933 39.8 170.23 39.9385 169.435 40.2154L169.097 39.2385C170 38.9 170.882 38.7308 171.743 38.7308C172.733 38.7308 173.484 38.9641 173.997 39.4308C174.515 39.8923 174.774 40.5308 174.774 41.3462V45.2308ZM171.428 46.1923C171.828 46.1923 172.207 46.0923 172.566 45.8923C172.93 45.6872 173.233 45.4051 173.474 45.0462V42.9615H172.305C171.448 42.9615 170.828 43.1077 170.443 43.4C170.059 43.6923 169.866 44.1128 169.866 44.6615C169.866 45.6821 170.387 46.1923 171.428 46.1923ZM210.619 35.3308C211.68 35.3308 212.614 35.5026 213.419 35.8462L212.749 37.4308C212.206 37.2256 211.621 37.1231 210.996 37.1231C210.514 37.1231 210.167 37.2103 209.957 37.3846C209.752 37.559 209.649 37.8487 209.649 38.2538V39.3462H212.311L212.042 41.0308H209.649V47H207.234V41.0308H205.519V39.3462H207.234V38.1615C207.234 37.6179 207.362 37.1333 207.619 36.7077C207.88 36.2769 208.265 35.941 208.773 35.7C209.285 35.4538 209.901 35.3308 210.619 35.3308ZM220.886 38.5846C221.373 38.5846 221.822 38.6667 222.232 38.8308L221.778 42.2462H220.255V40.7385C219.804 40.8205 219.404 41.0667 219.055 41.4769C218.706 41.8872 218.432 42.4051 218.232 43.0308V45.3692H219.847V47H214.724V45.3692H215.801V40.4462H214.724V38.8308H217.655L218.101 40.6692C218.393 39.9667 218.765 39.4436 219.216 39.1C219.673 38.7564 220.229 38.5846 220.886 38.5846ZM227.414 38.5615C228.24 38.5615 228.95 38.741 229.545 39.1C230.145 39.4538 230.601 39.9564 230.914 40.6077C231.227 41.259 231.383 42.0205 231.383 42.8923C231.383 43.8 231.224 44.5821 230.907 45.2385C230.594 45.8897 230.14 46.3897 229.545 46.7385C228.95 47.0872 228.24 47.2615 227.414 47.2615C226.583 47.2615 225.871 47.0897 225.276 46.7462C224.681 46.4026 224.227 45.9051 223.914 45.2538C223.601 44.5974 223.445 43.8154 223.445 42.9077C223.445 42.041 223.601 41.2821 223.914 40.6308C224.232 39.9744 224.689 39.4667 225.283 39.1077C225.883 38.7436 226.594 38.5615 227.414 38.5615ZM227.414 40.3538C226.917 40.3538 226.548 40.559 226.307 40.9692C226.071 41.3795 225.953 42.0256 225.953 42.9077C225.953 43.8051 226.071 44.459 226.307 44.8692C226.542 45.2744 226.912 45.4769 227.414 45.4769C227.917 45.4769 228.286 45.2718 228.522 44.8615C228.758 44.4513 228.876 43.7949 228.876 42.8923C228.876 42.0154 228.755 41.3744 228.514 40.9692C228.278 40.559 227.912 40.3538 227.414 40.3538ZM239.143 38.5615C239.727 38.5615 240.158 38.7513 240.435 39.1308C240.712 39.5103 240.85 40.1179 240.85 40.9538V47H238.766V41.2308C238.766 40.9385 238.738 40.7359 238.681 40.6231C238.625 40.5051 238.517 40.4462 238.358 40.4462C238.22 40.4462 238.081 40.4872 237.943 40.5692C237.809 40.6462 237.666 40.7821 237.512 40.9769V47H235.804V41.2308C235.804 40.9385 235.776 40.7359 235.72 40.6231C235.663 40.5051 235.556 40.4462 235.397 40.4462C235.258 40.4462 235.12 40.4872 234.981 40.5692C234.848 40.6462 234.704 40.7821 234.55 40.9769V47H232.435V38.8308H234.22L234.381 39.6231C234.648 39.259 234.912 38.9923 235.173 38.8231C235.435 38.6487 235.74 38.5615 236.089 38.5615C236.407 38.5615 236.671 38.641 236.881 38.8C237.097 38.959 237.25 39.2026 237.343 39.5308C237.902 38.8846 238.502 38.5615 239.143 38.5615ZM34.4077 81.3462C34.7205 81.3462 35.0205 81.2872 35.3077 81.1692C35.6 81.0462 35.9077 80.8718 36.2308 80.6462L37.3154 82.1846C36.9308 82.5128 36.4795 82.7744 35.9615 82.9692C35.4436 83.1641 34.8821 83.2615 34.2769 83.2615C33.4103 83.2615 32.659 83.0821 32.0231 82.7231C31.3872 82.3641 30.9 81.8615 30.5615 81.2154C30.2231 80.5692 30.0538 79.8205 30.0538 78.9692C30.0538 78.1179 30.2282 77.359 30.5769 76.6923C30.9256 76.0256 31.4205 75.5051 32.0615 75.1308C32.7077 74.7513 33.4615 74.5615 34.3231 74.5615C34.9333 74.5615 35.4795 74.6462 35.9615 74.8154C36.4487 74.9846 36.9 75.241 37.3154 75.5846L36.2615 77.0462C35.6718 76.6359 35.059 76.4308 34.4231 76.4308C33.8436 76.4308 33.3923 76.6333 33.0692 77.0385C32.7513 77.4436 32.5923 78.0872 32.5923 78.9692C32.5923 79.8205 32.7538 80.4308 33.0769 80.8C33.4 81.1641 33.8436 81.3462 34.4077 81.3462ZM42.8439 74.5615C43.6695 74.5615 44.3798 74.741 44.9747 75.1C45.5747 75.4538 46.0311 75.9564 46.3439 76.6077C46.6567 77.259 46.8131 78.0205 46.8131 78.8923C46.8131 79.8 46.6542 80.5821 46.3362 81.2385C46.0234 81.8897 45.5695 82.3897 44.9747 82.7385C44.3798 83.0872 43.6695 83.2615 42.8439 83.2615C42.0131 83.2615 41.3003 83.0897 40.7054 82.7462C40.1106 82.4026 39.6567 81.9051 39.3439 81.2538C39.0311 80.5974 38.8747 79.8154 38.8747 78.9077C38.8747 78.041 39.0311 77.2821 39.3439 76.6308C39.6618 75.9744 40.1183 75.4667 40.7131 75.1077C41.3131 74.7436 42.0234 74.5615 42.8439 74.5615ZM42.8439 76.3538C42.3465 76.3538 41.9772 76.559 41.7362 76.9692C41.5003 77.3795 41.3824 78.0256 41.3824 78.9077C41.3824 79.8051 41.5003 80.459 41.7362 80.8692C41.9721 81.2744 42.3413 81.4769 42.8439 81.4769C43.3465 81.4769 43.7157 81.2718 43.9516 80.8615C44.1875 80.4513 44.3054 79.7949 44.3054 78.8923C44.3054 78.0154 44.1849 77.3744 43.9439 76.9692C43.708 76.559 43.3413 76.3538 42.8439 76.3538ZM48.534 83V74.8308H50.657L50.8263 75.7769C51.1955 75.3615 51.5827 75.0564 51.9878 74.8615C52.3929 74.6615 52.8519 74.5615 53.3647 74.5615C54.0673 74.5615 54.616 74.7769 55.0109 75.2077C55.4109 75.6333 55.6109 76.2308 55.6109 77V83H53.1801V77.7C53.1801 77.3615 53.1545 77.0949 53.1032 76.9C53.057 76.7051 52.9775 76.5667 52.8647 76.4846C52.7519 76.3974 52.5955 76.3538 52.3955 76.3538C52.1493 76.3538 51.9083 76.4333 51.6724 76.5923C51.4416 76.7462 51.2057 76.9769 50.9647 77.2846V83H48.534ZM61.0394 81.5231C61.4548 81.5231 61.783 81.459 62.024 81.3308C62.2702 81.1974 62.3932 81.0051 62.3932 80.7538C62.3932 80.5744 62.3445 80.4282 62.2471 80.3154C62.1496 80.1974 61.9676 80.0872 61.7009 79.9846C61.4343 79.8769 61.0189 79.7462 60.4548 79.5923C59.6343 79.3718 59.0061 79.0692 58.5702 78.6846C58.1394 78.3 57.924 77.7667 57.924 77.0846C57.924 76.5923 58.0599 76.1564 58.3317 75.7769C58.6086 75.3974 59.0138 75.1 59.5471 74.8846C60.0804 74.6692 60.7214 74.5615 61.4702 74.5615C62.7676 74.5615 63.8702 74.8923 64.7779 75.5538L63.8086 76.9846C63.4548 76.7692 63.083 76.6 62.6932 76.4769C62.3086 76.3538 61.924 76.2923 61.5394 76.2923C61.1445 76.2923 60.8496 76.3462 60.6548 76.4538C60.465 76.5564 60.3702 76.7128 60.3702 76.9231C60.3702 77.0667 60.4189 77.1872 60.5163 77.2846C60.6189 77.3821 60.8009 77.4821 61.0625 77.5846C61.3291 77.6872 61.742 77.8179 62.3009 77.9769C62.8907 78.141 63.3702 78.3231 63.7394 78.5231C64.1086 78.7179 64.3958 78.9795 64.6009 79.3077C64.8112 79.6308 64.9163 80.0487 64.9163 80.5615C64.9163 81.1359 64.742 81.6282 64.3932 82.0385C64.0496 82.4436 63.5855 82.7487 63.0009 82.9538C62.4163 83.159 61.7676 83.2615 61.0548 83.2615C60.2907 83.2615 59.6035 83.1538 58.9932 82.9385C58.383 82.7179 57.8573 82.4154 57.4163 82.0308L58.6394 80.6615C58.9779 80.9282 59.3496 81.1385 59.7548 81.2923C60.1599 81.4462 60.5881 81.5231 61.0394 81.5231ZM74.3448 82.5231C74.0012 82.7487 73.6012 82.9282 73.1448 83.0615C72.6935 83.1949 72.2012 83.2615 71.6679 83.2615C70.6218 83.2615 69.8346 82.9949 69.3064 82.4615C68.7782 81.9282 68.5141 81.1795 68.5141 80.2154V76.5077H66.7987V74.8308H68.5141V73.0615L70.9448 72.7692V74.8308H73.5756L73.3371 76.5077H70.9448V80.2154C70.9448 80.6205 71.0346 80.9103 71.2141 81.0846C71.3987 81.259 71.6961 81.3462 72.1064 81.3462C72.6192 81.3462 73.0961 81.2231 73.5371 80.9769L74.3448 82.5231ZM90.7634 71.4769L92.0557 71.6385V83H90.9249L90.8019 81.9308C90.5044 82.3513 90.1608 82.6641 89.7711 82.8692C89.3814 83.0744 88.9583 83.1769 88.5019 83.1769C87.4762 83.1769 86.7044 82.8 86.1865 82.0462C85.6737 81.2923 85.4172 80.2641 85.4172 78.9615C85.4172 78.1462 85.5429 77.4179 85.7942 76.7769C86.0506 76.1359 86.4172 75.6359 86.8942 75.2769C87.3762 74.9128 87.9429 74.7308 88.5942 74.7308C89.0557 74.7308 89.4634 74.8103 89.8172 74.9692C90.1762 75.1282 90.4916 75.3667 90.7634 75.6846V71.4769ZM88.9326 75.7692C88.2506 75.7692 87.7275 76.0385 87.3634 76.5769C87.0044 77.1103 86.8249 77.9051 86.8249 78.9615C86.8249 80.0077 86.989 80.7974 87.3172 81.3308C87.6506 81.8641 88.1352 82.1308 88.7711 82.1308C89.5352 82.1308 90.1993 81.7051 90.7634 80.8538V76.8077C90.5429 76.4795 90.2737 76.2256 89.9557 76.0462C89.6429 75.8615 89.3019 75.7692 88.9326 75.7692ZM100.946 81.2308C100.946 81.5487 100.997 81.7846 101.1 81.9385C101.202 82.0872 101.371 82.1974 101.607 82.2692L101.292 83.1769C100.512 83.0744 100.018 82.6949 99.8073 82.0385C99.5201 82.4128 99.156 82.6974 98.715 82.8923C98.2791 83.0821 97.797 83.1769 97.2688 83.1769C96.7355 83.1769 96.2714 83.0744 95.8765 82.8692C95.4817 82.6641 95.1791 82.3744 94.9688 82C94.7586 81.6205 94.6535 81.1795 94.6535 80.6769C94.6535 79.841 94.9791 79.2 95.6304 78.7538C96.2817 78.3077 97.2227 78.0846 98.4535 78.0846H99.6458V77.4077C99.6458 76.8436 99.4817 76.4359 99.1535 76.1846C98.8253 75.9282 98.3458 75.8 97.715 75.8C97.1047 75.8 96.4022 75.9385 95.6073 76.2154L95.2688 75.2385C96.1714 74.9 97.0535 74.7308 97.915 74.7308C98.9047 74.7308 99.656 74.9641 100.169 75.4308C100.687 75.8923 100.946 76.5308 100.946 77.3462V81.2308ZM97.5996 82.1923C97.9996 82.1923 98.3791 82.0923 98.7381 81.8923C99.1022 81.6872 99.4047 81.4051 99.6458 81.0462V78.9615H98.4765C97.6201 78.9615 96.9996 79.1077 96.615 79.4C96.2304 79.6923 96.0381 80.1128 96.0381 80.6615C96.0381 81.6821 96.5586 82.1923 97.5996 82.1923ZM110.805 82.5923C110.533 82.7718 110.197 82.9128 109.797 83.0154C109.402 83.1231 109.015 83.1769 108.636 83.1769C108.067 83.1769 107.577 83.0744 107.167 82.8692C106.761 82.659 106.451 82.3692 106.236 82C106.02 81.6308 105.913 81.2077 105.913 80.7308V75.9H104.051V74.9H105.913V73.0615L107.205 72.9077V74.9H110.005L109.851 75.9H107.205V80.7154C107.205 81.1769 107.326 81.5231 107.567 81.7538C107.813 81.9846 108.208 82.1 108.751 82.1C109.3 82.1 109.818 81.9718 110.305 81.7154L110.805 82.5923ZM119.403 81.2308C119.403 81.5487 119.454 81.7846 119.557 81.9385C119.659 82.0872 119.828 82.1974 120.064 82.2692L119.749 83.1769C118.969 83.0744 118.475 82.6949 118.264 82.0385C117.977 82.4128 117.613 82.6974 117.172 82.8923C116.736 83.0821 116.254 83.1769 115.726 83.1769C115.193 83.1769 114.728 83.0744 114.334 82.8692C113.939 82.6641 113.636 82.3744 113.426 82C113.216 81.6205 113.11 81.1795 113.11 80.6769C113.11 79.841 113.436 79.2 114.087 78.7538C114.739 78.3077 115.68 78.0846 116.91 78.0846H118.103V77.4077C118.103 76.8436 117.939 76.4359 117.61 76.1846C117.282 75.9282 116.803 75.8 116.172 75.8C115.562 75.8 114.859 75.9385 114.064 76.2154L113.726 75.2385C114.628 74.9 115.51 74.7308 116.372 74.7308C117.362 74.7308 118.113 74.9641 118.626 75.4308C119.144 75.8923 119.403 76.5308 119.403 77.3462V81.2308ZM116.057 82.1923C116.457 82.1923 116.836 82.0923 117.195 81.8923C117.559 81.6872 117.862 81.4051 118.103 81.0462V78.9615H116.934C116.077 78.9615 115.457 79.1077 115.072 79.4C114.687 79.6923 114.495 80.1128 114.495 80.6615C114.495 81.6821 115.016 82.1923 116.057 82.1923ZM156.925 80.6462C156.925 80.9487 156.966 81.1718 157.048 81.3154C157.13 81.4538 157.268 81.559 157.463 81.6308L156.963 83.2308C156.466 83.1846 156.053 83.0769 155.725 82.9077C155.401 82.7333 155.148 82.4821 154.963 82.1538C154.66 82.5179 154.268 82.7949 153.786 82.9846C153.309 83.1692 152.804 83.2615 152.271 83.2615C151.717 83.2615 151.23 83.1538 150.809 82.9385C150.394 82.7179 150.073 82.4154 149.848 82.0308C149.622 81.641 149.509 81.1949 149.509 80.6923C149.509 80.1077 149.666 79.6077 149.978 79.1923C150.291 78.7769 150.745 78.4615 151.34 78.2462C151.935 78.0256 152.65 77.9154 153.486 77.9154H154.586V77.6077C154.586 76.7718 154.048 76.3538 152.971 76.3538C152.699 76.3538 152.355 76.3923 151.94 76.4692C151.53 76.5462 151.127 76.6513 150.732 76.7846L150.171 75.1692C150.684 74.9744 151.225 74.8256 151.794 74.7231C152.363 74.6154 152.884 74.5615 153.355 74.5615C154.555 74.5615 155.45 74.8051 156.04 75.2923C156.63 75.7795 156.925 76.4974 156.925 77.4462V80.6462ZM153.109 81.5231C153.386 81.5231 153.666 81.4436 153.948 81.2846C154.23 81.1205 154.442 80.9 154.586 80.6231V79.3H153.986C153.319 79.3 152.825 79.4026 152.501 79.6077C152.178 79.8128 152.017 80.1179 152.017 80.5231C152.017 80.841 152.112 81.0872 152.301 81.2615C152.496 81.4359 152.766 81.5231 153.109 81.5231ZM167.376 74.8308L166.215 83H163.53L162.83 77.5077L162.099 83H159.461L158.253 74.8308H160.476L161.007 81.4846L161.868 75.8615H163.915L164.684 81.4846L165.23 74.8308H167.376ZM175.382 80.6462C175.382 80.9487 175.423 81.1718 175.505 81.3154C175.587 81.4538 175.725 81.559 175.92 81.6308L175.42 83.2308C174.923 83.1846 174.51 83.0769 174.182 82.9077C173.859 82.7333 173.605 82.4821 173.42 82.1538C173.117 82.5179 172.725 82.7949 172.243 82.9846C171.766 83.1692 171.261 83.2615 170.728 83.2615C170.174 83.2615 169.687 83.1538 169.266 82.9385C168.851 82.7179 168.53 82.4154 168.305 82.0308C168.079 81.641 167.966 81.1949 167.966 80.6923C167.966 80.1077 168.123 79.6077 168.435 79.1923C168.748 78.7769 169.202 78.4615 169.797 78.2462C170.392 78.0256 171.107 77.9154 171.943 77.9154H173.043V77.6077C173.043 76.7718 172.505 76.3538 171.428 76.3538C171.156 76.3538 170.812 76.3923 170.397 76.4692C169.987 76.5462 169.584 76.6513 169.189 76.7846L168.628 75.1692C169.141 74.9744 169.682 74.8256 170.251 74.7231C170.82 74.6154 171.341 74.5615 171.812 74.5615C173.012 74.5615 173.907 74.8051 174.497 75.2923C175.087 75.7795 175.382 76.4974 175.382 77.4462V80.6462ZM171.566 81.5231C171.843 81.5231 172.123 81.4436 172.405 81.2846C172.687 81.1205 172.9 80.9 173.043 80.6231V79.3H172.443C171.776 79.3 171.282 79.4026 170.959 79.6077C170.635 79.8128 170.474 80.1179 170.474 80.5231C170.474 80.841 170.569 81.0872 170.759 81.2615C170.953 81.4359 171.223 81.5231 171.566 81.5231ZM181.256 70.5538C181.533 70.5538 181.779 70.6154 181.995 70.7385C182.21 70.8564 182.379 71.0205 182.502 71.2308C182.625 71.4359 182.687 71.6667 182.687 71.9231C182.687 72.1795 182.625 72.4128 182.502 72.6231C182.379 72.8333 182.208 73 181.987 73.1231C181.772 73.241 181.528 73.3 181.256 73.3C180.979 73.3 180.731 73.241 180.51 73.1231C180.29 73 180.118 72.8333 179.995 72.6231C179.872 72.4128 179.81 72.1795 179.81 71.9231C179.81 71.6667 179.872 71.4359 179.995 71.2308C180.118 71.0205 180.29 70.8564 180.51 70.7385C180.731 70.6154 180.979 70.5538 181.256 70.5538ZM178.056 74.8308H182.725V81.3385H184.802V83H177.979V81.3385H180.295V76.4923H178.056V74.8308ZM194.316 82.5231C193.972 82.7487 193.572 82.9282 193.116 83.0615C192.664 83.1949 192.172 83.2615 191.639 83.2615C190.592 83.2615 189.805 82.9949 189.277 82.4615C188.749 81.9282 188.485 81.1795 188.485 80.2154V76.5077H186.769V74.8308H188.485V73.0615L190.916 72.7692V74.8308H193.546L193.308 76.5077H190.916V80.2154C190.916 80.6205 191.005 80.9103 191.185 81.0846C191.369 81.259 191.667 81.3462 192.077 81.3462C192.59 81.3462 193.067 81.2231 193.508 80.9769L194.316 82.5231ZM212.873 75.2538C212.555 75.3513 212.214 75.4154 211.849 75.4462C211.491 75.4769 211.042 75.4923 210.503 75.4923C211.442 75.9231 211.911 76.6026 211.911 77.5308C211.911 78.0641 211.788 78.541 211.542 78.9615C211.301 79.3769 210.949 79.7026 210.488 79.9385C210.032 80.1692 209.491 80.2846 208.865 80.2846C208.598 80.2846 208.373 80.2744 208.188 80.2538C208.008 80.2282 207.832 80.1872 207.657 80.1308C207.534 80.2179 207.432 80.3333 207.349 80.4769C207.273 80.6154 207.234 80.7615 207.234 80.9154C207.234 81.1256 207.316 81.2923 207.48 81.4154C207.644 81.5333 207.924 81.5923 208.319 81.5923H209.78C210.314 81.5923 210.798 81.6897 211.234 81.8846C211.675 82.0744 212.019 82.3385 212.265 82.6769C212.516 83.0103 212.642 83.3821 212.642 83.7923C212.642 84.5872 212.306 85.1974 211.634 85.6231C210.962 86.0487 210.008 86.2615 208.773 86.2615C207.921 86.2615 207.244 86.1744 206.742 86C206.244 85.8256 205.888 85.559 205.673 85.2C205.457 84.8462 205.349 84.3872 205.349 83.8231H206.519C206.519 84.1564 206.58 84.4205 206.703 84.6154C206.832 84.8154 207.057 84.9641 207.38 85.0615C207.708 85.159 208.17 85.2077 208.765 85.2077C209.647 85.2077 210.296 85.0974 210.711 84.8769C211.126 84.6564 211.334 84.3231 211.334 83.8769C211.334 83.5026 211.165 83.2154 210.826 83.0154C210.488 82.8154 210.047 82.7154 209.503 82.7154H208.057C207.611 82.7154 207.234 82.6462 206.926 82.5077C206.619 82.3692 206.391 82.1846 206.242 81.9538C206.093 81.7231 206.019 81.4692 206.019 81.1923C206.019 80.9308 206.096 80.6769 206.249 80.4308C206.403 80.1846 206.624 79.9667 206.911 79.7769C206.444 79.5308 206.101 79.2256 205.88 78.8615C205.66 78.4974 205.549 78.0564 205.549 77.5385C205.549 77 205.685 76.5179 205.957 76.0923C206.234 75.6615 206.616 75.3256 207.103 75.0846C207.596 74.8436 208.155 74.7231 208.78 74.7231C209.432 74.7231 209.97 74.6974 210.396 74.6462C210.821 74.5897 211.178 74.5154 211.465 74.4231C211.757 74.3308 212.093 74.2026 212.473 74.0385L212.873 75.2538ZM208.78 75.6692C208.149 75.6692 207.673 75.8385 207.349 76.1769C207.032 76.5154 206.873 76.9692 206.873 77.5385C206.873 78.1128 207.034 78.5718 207.357 78.9154C207.685 79.2538 208.17 79.4231 208.811 79.4231C209.375 79.4231 209.808 79.259 210.111 78.9308C210.419 78.5974 210.573 78.1308 210.573 77.5308C210.573 76.9205 210.421 76.459 210.119 76.1462C209.816 75.8282 209.37 75.6692 208.78 75.6692ZM216.132 79.4077C216.152 80.0128 216.27 80.5179 216.486 80.9231C216.701 81.3231 216.983 81.6205 217.332 81.8154C217.681 82.0051 218.07 82.1 218.501 82.1C218.901 82.1 219.268 82.041 219.601 81.9231C219.94 81.8051 220.293 81.6205 220.663 81.3692L221.27 82.2231C220.891 82.5205 220.455 82.7538 219.963 82.9231C219.475 83.0923 218.983 83.1769 218.486 83.1769C217.711 83.1769 217.045 83.0026 216.486 82.6538C215.927 82.3051 215.501 81.8128 215.209 81.1769C214.922 80.541 214.778 79.8026 214.778 78.9615C214.778 78.1462 214.924 77.4179 215.216 76.7769C215.509 76.1359 215.922 75.6359 216.455 75.2769C216.988 74.9128 217.609 74.7308 218.316 74.7308C218.993 74.7308 219.578 74.8897 220.07 75.2077C220.568 75.5256 220.947 75.9846 221.209 76.5846C221.475 77.1795 221.609 77.8846 221.609 78.7C221.609 78.9359 221.599 79.1718 221.578 79.4077H216.132ZM218.332 75.7923C217.706 75.7923 217.196 76.0128 216.801 76.4538C216.411 76.8897 216.191 77.541 216.14 78.4077H220.363C220.347 77.5564 220.16 76.9077 219.801 76.4615C219.442 76.0154 218.952 75.7923 218.332 75.7923ZM230.776 82.5923C230.504 82.7718 230.168 82.9128 229.768 83.0154C229.373 83.1231 228.986 83.1769 228.607 83.1769C228.037 83.1769 227.548 83.0744 227.137 82.8692C226.732 82.659 226.422 82.3692 226.207 82C225.991 81.6308 225.883 81.2077 225.883 80.7308V75.9H224.022V74.9H225.883V73.0615L227.176 72.9077V74.9H229.976L229.822 75.9H227.176V80.7154C227.176 81.1769 227.296 81.5231 227.537 81.7538C227.783 81.9846 228.178 82.1 228.722 82.1C229.271 82.1 229.789 81.9718 230.276 81.7154L230.776 82.5923ZM240.527 77.6538C240.527 79.659 240.066 81.0513 239.143 81.8308C238.225 82.6103 237.091 83 235.743 83H233.312V72.4077H235.573C236.517 72.4077 237.35 72.5513 238.073 72.8385C238.797 73.1205 239.386 73.6487 239.843 74.4231C240.299 75.1974 240.527 76.2744 240.527 77.6538ZM239.104 77.6538C239.104 76.5051 238.948 75.6256 238.635 75.0154C238.322 74.4051 237.932 74 237.466 73.8C237.004 73.6 236.479 73.5 235.889 73.5H234.643V81.9308H235.904C236.822 81.9308 237.584 81.6179 238.189 80.9923C238.799 80.3615 239.104 79.2487 239.104 77.6538ZM248.602 81.2308C248.602 81.5487 248.653 81.7846 248.756 81.9385C248.858 82.0872 249.028 82.1974 249.264 82.2692L248.948 83.1769C248.169 83.0744 247.674 82.6949 247.464 82.0385C247.176 82.4128 246.812 82.6974 246.371 82.8923C245.935 83.0821 245.453 83.1769 244.925 83.1769C244.392 83.1769 243.928 83.0744 243.533 82.8692C243.138 82.6641 242.835 82.3744 242.625 82C242.415 81.6205 242.31 81.1795 242.31 80.6769C242.31 79.841 242.635 79.2 243.287 78.7538C243.938 78.3077 244.879 78.0846 246.11 78.0846H247.302V77.4077C247.302 76.8436 247.138 76.4359 246.81 76.1846C246.482 75.9282 246.002 75.8 245.371 75.8C244.761 75.8 244.058 75.9385 243.264 76.2154L242.925 75.2385C243.828 74.9 244.71 74.7308 245.571 74.7308C246.561 74.7308 247.312 74.9641 247.825 75.4308C248.343 75.8923 248.602 76.5308 248.602 77.3462V81.2308ZM245.256 82.1923C245.656 82.1923 246.035 82.0923 246.394 81.8923C246.758 81.6872 247.061 81.4051 247.302 81.0462V78.9615H246.133C245.276 78.9615 244.656 79.1077 244.271 79.4C243.887 79.6923 243.694 80.1128 243.694 80.6615C243.694 81.6821 244.215 82.1923 245.256 82.1923ZM258.461 82.5923C258.19 82.7718 257.854 82.9128 257.454 83.0154C257.059 83.1231 256.672 83.1769 256.292 83.1769C255.723 83.1769 255.233 83.0744 254.823 82.8692C254.418 82.659 254.107 82.3692 253.892 82C253.677 81.6308 253.569 81.2077 253.569 80.7308V75.9H251.707V74.9H253.569V73.0615L254.861 72.9077V74.9H257.661L257.507 75.9H254.861V80.7154C254.861 81.1769 254.982 81.5231 255.223 81.7538C255.469 81.9846 255.864 82.1 256.407 82.1C256.956 82.1 257.474 81.9718 257.961 81.7154L258.461 82.5923ZM267.059 81.2308C267.059 81.5487 267.11 81.7846 267.213 81.9385C267.315 82.0872 267.485 82.1974 267.721 82.2692L267.405 83.1769C266.626 83.0744 266.131 82.6949 265.921 82.0385C265.633 82.4128 265.269 82.6974 264.828 82.8923C264.392 83.0821 263.91 83.1769 263.382 83.1769C262.849 83.1769 262.385 83.0744 261.99 82.8692C261.595 82.6641 261.292 82.3744 261.082 82C260.872 81.6205 260.767 81.1795 260.767 80.6769C260.767 79.841 261.092 79.2 261.744 78.7538C262.395 78.3077 263.336 78.0846 264.567 78.0846H265.759V77.4077C265.759 76.8436 265.595 76.4359 265.267 76.1846C264.939 75.9282 264.459 75.8 263.828 75.8C263.218 75.8 262.515 75.9385 261.721 76.2154L261.382 75.2385C262.285 74.9 263.167 74.7308 264.028 74.7308C265.018 74.7308 265.769 74.9641 266.282 75.4308C266.8 75.8923 267.059 76.5308 267.059 77.3462V81.2308ZM263.713 82.1923C264.113 82.1923 264.492 82.0923 264.851 81.8923C265.215 81.6872 265.518 81.4051 265.759 81.0462V78.9615H264.59C263.733 78.9615 263.113 79.1077 262.728 79.4C262.344 79.6923 262.151 80.1128 262.151 80.6615C262.151 81.6821 262.672 82.1923 263.713 82.1923ZM54.8032 99.2308C54.8032 99.5487 54.8545 99.7846 54.957 99.9385C55.0596 100.087 55.2288 100.197 55.4647 100.269L55.1493 101.177C54.3699 101.074 53.875 100.695 53.6647 100.038C53.3775 100.413 53.0134 100.697 52.5724 100.892C52.1365 101.082 51.6545 101.177 51.1263 101.177C50.5929 101.177 50.1288 101.074 49.734 100.869C49.3391 100.664 49.0365 100.374 48.8263 100C48.616 99.6205 48.5109 99.1795 48.5109 98.6769C48.5109 97.841 48.8365 97.2 49.4878 96.7538C50.1391 96.3077 51.0801 96.0846 52.3109 96.0846H53.5032V95.4077C53.5032 94.8436 53.3391 94.4359 53.0109 94.1846C52.6827 93.9282 52.2032 93.8 51.5724 93.8C50.9622 93.8 50.2596 93.9385 49.4647 94.2154L49.1263 93.2385C50.0288 92.9 50.9109 92.7308 51.7724 92.7308C52.7622 92.7308 53.5134 92.9641 54.0263 93.4308C54.5442 93.8923 54.8032 94.5308 54.8032 95.3462V99.2308ZM51.457 100.192C51.857 100.192 52.2365 100.092 52.5955 99.8923C52.9596 99.6872 53.2622 99.4051 53.5032 99.0462V96.9615H52.334C51.4775 96.9615 50.857 97.1077 50.4724 97.4C50.0878 97.6923 49.8955 98.1128 49.8955 98.6615C49.8955 99.6821 50.416 100.192 51.457 100.192ZM63.7009 92.7231C63.9112 92.7231 64.1035 92.7385 64.2779 92.7692C64.4522 92.7949 64.642 92.8385 64.8471 92.9L64.6625 95.6385H63.6009V93.9154H63.5317C62.9061 93.9154 62.3727 94.1359 61.9317 94.5769C61.4907 95.0179 61.1343 95.6846 60.8625 96.5769V100.008H62.5086V101H58.3086V100.008H59.5702V93.8923H58.3086V92.9H60.5548L60.7932 94.8154C61.1214 94.1128 61.5112 93.5897 61.9625 93.2462C62.4189 92.8974 62.9984 92.7231 63.7009 92.7231ZM74.8756 92.9L73.4602 101H71.6294L70.5833 95.0538L69.4448 101H67.6602L66.1833 92.9H67.5064L68.5371 100.2L69.8294 93.9308H71.3602L72.5833 100.2L73.6141 92.9H74.8756ZM77.7041 97.4077C77.7246 98.0128 77.8426 98.5179 78.058 98.9231C78.2733 99.3231 78.5554 99.6205 78.9041 99.8154C79.2528 100.005 79.6426 100.1 80.0733 100.1C80.4733 100.1 80.84 100.041 81.1733 99.9231C81.5118 99.8051 81.8657 99.6205 82.2349 99.3692L82.8426 100.223C82.4631 100.521 82.0272 100.754 81.5349 100.923C81.0477 101.092 80.5554 101.177 80.058 101.177C79.2836 101.177 78.6169 101.003 78.058 100.654C77.499 100.305 77.0733 99.8128 76.781 99.1769C76.4939 98.541 76.3503 97.8026 76.3503 96.9615C76.3503 96.1462 76.4964 95.4179 76.7887 94.7769C77.081 94.1359 77.4939 93.6359 78.0272 93.2769C78.5605 92.9128 79.181 92.7308 79.8887 92.7308C80.5657 92.7308 81.1503 92.8897 81.6426 93.2077C82.14 93.5256 82.5195 93.9846 82.781 94.5846C83.0477 95.1795 83.181 95.8846 83.181 96.7C83.181 96.9359 83.1708 97.1718 83.1503 97.4077H77.7041ZM79.9041 93.7923C79.2785 93.7923 78.7682 94.0128 78.3733 94.4538C77.9836 94.8897 77.7631 95.541 77.7118 96.4077H81.9349C81.9195 95.5564 81.7323 94.9077 81.3733 94.4615C81.0144 94.0154 80.5246 93.7923 79.9041 93.7923ZM91.7172 99.2308C91.7172 99.5487 91.7685 99.7846 91.8711 99.9385C91.9737 100.087 92.1429 100.197 92.3788 100.269L92.0634 101.177C91.2839 101.074 90.789 100.695 90.5788 100.038C90.2916 100.413 89.9275 100.697 89.4865 100.892C89.0506 101.082 88.5685 101.177 88.0403 101.177C87.507 101.177 87.0429 101.074 86.648 100.869C86.2531 100.664 85.9506 100.374 85.7403 100C85.5301 99.6205 85.4249 99.1795 85.4249 98.6769C85.4249 97.841 85.7506 97.2 86.4019 96.7538C87.0531 96.3077 87.9942 96.0846 89.2249 96.0846H90.4172V95.4077C90.4172 94.8436 90.2531 94.4359 89.9249 94.1846C89.5967 93.9282 89.1172 93.8 88.4865 93.8C87.8762 93.8 87.1737 93.9385 86.3788 94.2154L86.0403 93.2385C86.9429 92.9 87.8249 92.7308 88.6865 92.7308C89.6762 92.7308 90.4275 92.9641 90.9403 93.4308C91.4583 93.8923 91.7172 94.5308 91.7172 95.3462V99.2308ZM88.3711 100.192C88.7711 100.192 89.1506 100.092 89.5096 99.8923C89.8737 99.6872 90.1762 99.4051 90.4172 99.0462V96.9615H89.248C88.3916 96.9615 87.7711 97.1077 87.3865 97.4C87.0019 97.6923 86.8096 98.1128 86.8096 98.6615C86.8096 99.6821 87.3301 100.192 88.3711 100.192ZM100.561 92.9H101.9L98.9535 101H97.4535L94.5304 92.9H95.8996L98.2458 99.8231L100.561 92.9ZM105.39 97.4077C105.41 98.0128 105.528 98.5179 105.744 98.9231C105.959 99.3231 106.241 99.6205 106.59 99.8154C106.938 100.005 107.328 100.1 107.759 100.1C108.159 100.1 108.526 100.041 108.859 99.9231C109.197 99.8051 109.551 99.6205 109.92 99.3692L110.528 100.223C110.149 100.521 109.713 100.754 109.22 100.923C108.733 101.092 108.241 101.177 107.744 101.177C106.969 101.177 106.302 101.003 105.744 100.654C105.185 100.305 104.759 99.8128 104.467 99.1769C104.179 98.541 104.036 97.8026 104.036 96.9615C104.036 96.1462 104.182 95.4179 104.474 94.7769C104.767 94.1359 105.179 93.6359 105.713 93.2769C106.246 92.9128 106.867 92.7308 107.574 92.7308C108.251 92.7308 108.836 92.8897 109.328 93.2077C109.826 93.5256 110.205 93.9846 110.467 94.5846C110.733 95.1795 110.867 95.8846 110.867 96.7C110.867 96.9359 110.856 97.1718 110.836 97.4077H105.39ZM107.59 93.7923C106.964 93.7923 106.454 94.0128 106.059 94.4538C105.669 94.8897 105.449 95.541 105.397 96.4077H109.62C109.605 95.5564 109.418 94.9077 109.059 94.4615C108.7 94.0154 108.21 93.7923 107.59 93.7923ZM117.564 90.2385C118.231 90.2385 118.798 90.3231 119.264 90.4923C119.736 90.6564 120.193 90.9154 120.634 91.2692L119.887 92.1385C119.262 91.6154 118.521 91.3538 117.664 91.3538C117.049 91.3538 116.498 91.4974 116.01 91.7846C115.528 92.0718 115.141 92.5385 114.849 93.1846C114.562 93.8308 114.418 94.6692 114.418 95.7C114.418 96.7103 114.557 97.5385 114.834 98.1846C115.11 98.8308 115.487 99.3 115.964 99.5923C116.446 99.8846 117.003 100.031 117.634 100.031C118.172 100.031 118.634 99.9513 119.018 99.7923C119.403 99.6333 119.762 99.4179 120.095 99.1462L120.787 100.023C120.428 100.372 119.987 100.651 119.464 100.862C118.941 101.072 118.326 101.177 117.618 101.177C116.746 101.177 115.962 100.964 115.264 100.538C114.572 100.113 114.026 99.4897 113.626 98.6692C113.231 97.8436 113.034 96.8538 113.034 95.7C113.034 94.5513 113.236 93.5667 113.641 92.7462C114.046 91.9205 114.593 91.2974 115.28 90.8769C115.967 90.4513 116.728 90.2385 117.564 90.2385ZM125.985 99C125.985 99.3795 126.103 99.659 126.339 99.8385C126.58 100.013 126.908 100.1 127.324 100.1C127.76 100.1 128.213 100.005 128.685 99.8154L129.031 100.762C128.785 100.885 128.498 100.985 128.17 101.062C127.842 101.138 127.488 101.177 127.108 101.177C126.631 101.177 126.208 101.087 125.839 100.908C125.475 100.728 125.193 100.469 124.993 100.131C124.793 99.7923 124.693 99.3923 124.693 98.9308V90.6615H122.208V89.6385H125.985V99ZM135.129 89.1077C135.411 89.1077 135.639 89.1949 135.814 89.3692C135.988 89.5385 136.075 89.7513 136.075 90.0077C136.075 90.2744 135.988 90.4949 135.814 90.6692C135.639 90.8436 135.411 90.9308 135.129 90.9308C134.857 90.9308 134.634 90.8436 134.46 90.6692C134.285 90.4897 134.198 90.2692 134.198 90.0077C134.198 89.7513 134.285 89.5385 134.46 89.3692C134.634 89.1949 134.857 89.1077 135.129 89.1077ZM132.444 92.9H136.16V99.9769H138.444V101H132.368V99.9769H134.868V93.9231H132.444V92.9ZM142.304 97.4077C142.324 98.0128 142.442 98.5179 142.658 98.9231C142.873 99.3231 143.155 99.6205 143.504 99.8154C143.852 100.005 144.242 100.1 144.673 100.1C145.073 100.1 145.44 100.041 145.773 99.9231C146.111 99.8051 146.465 99.6205 146.834 99.3692L147.442 100.223C147.063 100.521 146.627 100.754 146.134 100.923C145.647 101.092 145.155 101.177 144.658 101.177C143.883 101.177 143.217 101.003 142.658 100.654C142.099 100.305 141.673 99.8128 141.381 99.1769C141.093 98.541 140.95 97.8026 140.95 96.9615C140.95 96.1462 141.096 95.4179 141.388 94.7769C141.681 94.1359 142.093 93.6359 142.627 93.2769C143.16 92.9128 143.781 92.7308 144.488 92.7308C145.165 92.7308 145.75 92.8897 146.242 93.2077C146.74 93.5256 147.119 93.9846 147.381 94.5846C147.647 95.1795 147.781 95.8846 147.781 96.7C147.781 96.9359 147.77 97.1718 147.75 97.4077H142.304ZM144.504 93.7923C143.878 93.7923 143.368 94.0128 142.973 94.4538C142.583 94.8897 142.363 95.541 142.311 96.4077H146.534C146.519 95.5564 146.332 94.9077 145.973 94.4615C145.614 94.0154 145.124 93.7923 144.504 93.7923ZM150.517 101V92.9H151.617L151.717 94.0231C152.04 93.6179 152.445 93.3026 152.932 93.0769C153.425 92.8462 153.912 92.7308 154.394 92.7308C155.168 92.7308 155.74 92.9359 156.109 93.3462C156.484 93.7564 156.671 94.3462 156.671 95.1154V101H155.378V96.0692C155.378 95.4641 155.345 95.0026 155.278 94.6846C155.217 94.3667 155.086 94.1308 154.886 93.9769C154.691 93.8231 154.394 93.7462 153.994 93.7462C153.558 93.7462 153.145 93.8821 152.755 94.1538C152.371 94.4205 152.055 94.7359 151.809 95.1V101H150.517ZM166.176 100.592C165.904 100.772 165.568 100.913 165.168 101.015C164.774 101.123 164.386 101.177 164.007 101.177C163.438 101.177 162.948 101.074 162.538 100.869C162.133 100.659 161.822 100.369 161.607 100C161.392 99.6308 161.284 99.2077 161.284 98.7308V93.9H159.422V92.9H161.284V91.0615L162.576 90.9077V92.9H165.376L165.222 93.9H162.576V98.7154C162.576 99.1769 162.697 99.5231 162.938 99.7538C163.184 99.9846 163.579 100.1 164.122 100.1C164.671 100.1 165.189 99.9718 165.676 99.7154L166.176 100.592ZM55.434 118.592C55.1622 118.772 54.8263 118.913 54.4263 119.015C54.0314 119.123 53.6442 119.177 53.2647 119.177C52.6955 119.177 52.2057 119.074 51.7955 118.869C51.3904 118.659 51.0801 118.369 50.8647 118C50.6493 117.631 50.5416 117.208 50.5416 116.731V111.9H48.6801V110.9H50.5416V109.062L51.834 108.908V110.9H54.634L54.4801 111.9H51.834V116.715C51.834 117.177 51.9545 117.523 52.1955 117.754C52.4416 117.985 52.8365 118.1 53.3801 118.1C53.9288 118.1 54.4468 117.972 54.934 117.715L55.434 118.592ZM63.7009 110.723C63.9112 110.723 64.1035 110.738 64.2779 110.769C64.4522 110.795 64.642 110.838 64.8471 110.9L64.6625 113.638H63.6009V111.915H63.5317C62.9061 111.915 62.3727 112.136 61.9317 112.577C61.4907 113.018 61.1343 113.685 60.8625 114.577V118.008H62.5086V119H58.3086V118.008H59.5702V111.892H58.3086V110.9H60.5548L60.7932 112.815C61.1214 112.113 61.5112 111.59 61.9625 111.246C62.4189 110.897 62.9984 110.723 63.7009 110.723ZM73.2602 117.231C73.2602 117.549 73.3115 117.785 73.4141 117.938C73.5166 118.087 73.6859 118.197 73.9218 118.269L73.6064 119.177C72.8269 119.074 72.332 118.695 72.1218 118.038C71.8346 118.413 71.4705 118.697 71.0294 118.892C70.5935 119.082 70.1115 119.177 69.5833 119.177C69.05 119.177 68.5859 119.074 68.191 118.869C67.7961 118.664 67.4935 118.374 67.2833 118C67.073 117.621 66.9679 117.179 66.9679 116.677C66.9679 115.841 67.2935 115.2 67.9448 114.754C68.5961 114.308 69.5371 114.085 70.7679 114.085H71.9602V113.408C71.9602 112.844 71.7961 112.436 71.4679 112.185C71.1397 111.928 70.6602 111.8 70.0294 111.8C69.4192 111.8 68.7166 111.938 67.9218 112.215L67.5833 111.238C68.4859 110.9 69.3679 110.731 70.2294 110.731C71.2192 110.731 71.9705 110.964 72.4833 111.431C73.0012 111.892 73.2602 112.531 73.2602 113.346V117.231ZM69.9141 118.192C70.3141 118.192 70.6935 118.092 71.0525 117.892C71.4166 117.687 71.7192 117.405 71.9602 117.046V114.962H70.791C69.9346 114.962 69.3141 115.108 68.9294 115.4C68.5448 115.692 68.3525 116.113 68.3525 116.662C68.3525 117.682 68.873 118.192 69.9141 118.192ZM76.6887 119V110.9H77.7887L77.8887 112.023C78.2118 111.618 78.6169 111.303 79.1041 111.077C79.5964 110.846 80.0836 110.731 80.5657 110.731C81.34 110.731 81.9118 110.936 82.281 111.346C82.6554 111.756 82.8426 112.346 82.8426 113.115V119H81.5503V114.069C81.5503 113.464 81.5169 113.003 81.4503 112.685C81.3887 112.367 81.258 112.131 81.058 111.977C80.8631 111.823 80.5657 111.746 80.1657 111.746C79.7298 111.746 79.3169 111.882 78.9272 112.154C78.5426 112.421 78.2272 112.736 77.981 113.1V119H76.6887ZM88.6711 118.108C89.2916 118.108 89.7813 117.992 90.1403 117.762C90.5044 117.531 90.6865 117.218 90.6865 116.823C90.6865 116.556 90.6378 116.338 90.5403 116.169C90.448 115.995 90.2608 115.836 89.9788 115.692C89.7019 115.549 89.2839 115.408 88.7249 115.269C88.1044 115.115 87.5967 114.949 87.2019 114.769C86.8121 114.585 86.507 114.346 86.2865 114.054C86.0711 113.762 85.9634 113.39 85.9634 112.938C85.9634 112.492 86.0916 112.103 86.348 111.769C86.6044 111.436 86.9634 111.179 87.4249 111C87.8916 110.821 88.4301 110.731 89.0403 110.731C89.6506 110.731 90.1993 110.813 90.6865 110.977C91.1788 111.136 91.6096 111.351 91.9788 111.623L91.4096 112.5C91.0711 112.269 90.7147 112.092 90.3403 111.969C89.9711 111.841 89.5429 111.777 89.0557 111.777C88.4455 111.777 87.9993 111.872 87.7172 112.062C87.4403 112.246 87.3019 112.505 87.3019 112.838C87.3019 113.079 87.366 113.277 87.4942 113.431C87.6275 113.585 87.8403 113.723 88.1326 113.846C88.4301 113.964 88.8711 114.103 89.4557 114.262C90.0403 114.421 90.5198 114.597 90.8942 114.792C91.2685 114.987 91.5608 115.244 91.7711 115.562C91.9813 115.874 92.0865 116.274 92.0865 116.762C92.0865 117.31 91.9275 117.767 91.6096 118.131C91.2916 118.49 90.8737 118.754 90.3557 118.923C89.8429 119.092 89.2813 119.177 88.6711 119.177C87.3993 119.177 86.3429 118.813 85.5019 118.085L86.2403 117.231C86.5685 117.508 86.9403 117.723 87.3557 117.877C87.7711 118.031 88.2096 118.108 88.6711 118.108ZM100.946 117.231C100.946 117.549 100.997 117.785 101.1 117.938C101.202 118.087 101.371 118.197 101.607 118.269L101.292 119.177C100.512 119.074 100.018 118.695 99.8073 118.038C99.5201 118.413 99.156 118.697 98.715 118.892C98.2791 119.082 97.797 119.177 97.2688 119.177C96.7355 119.177 96.2714 119.074 95.8765 118.869C95.4817 118.664 95.1791 118.374 94.9688 118C94.7586 117.621 94.6535 117.179 94.6535 116.677C94.6535 115.841 94.9791 115.2 95.6304 114.754C96.2817 114.308 97.2227 114.085 98.4535 114.085H99.6458V113.408C99.6458 112.844 99.4817 112.436 99.1535 112.185C98.8253 111.928 98.3458 111.8 97.715 111.8C97.1047 111.8 96.4022 111.938 95.6073 112.215L95.2688 111.238C96.1714 110.9 97.0535 110.731 97.915 110.731C98.9047 110.731 99.656 110.964 100.169 111.431C100.687 111.892 100.946 112.531 100.946 113.346V117.231ZM97.5996 118.192C97.9996 118.192 98.3791 118.092 98.7381 117.892C99.1022 117.687 99.4047 117.405 99.6458 117.046V114.962H98.4765C97.6201 114.962 96.9996 115.108 96.615 115.4C96.2304 115.692 96.0381 116.113 96.0381 116.662C96.0381 117.682 96.5586 118.192 97.5996 118.192ZM108.036 118.062C108.759 118.062 109.461 117.826 110.144 117.354L110.774 118.2C110.42 118.497 109.995 118.736 109.497 118.915C109 119.09 108.513 119.177 108.036 119.177C107.241 119.177 106.556 119.005 105.982 118.662C105.413 118.318 104.979 117.831 104.682 117.2C104.385 116.569 104.236 115.831 104.236 114.985C104.236 114.169 104.387 113.441 104.69 112.8C104.992 112.154 105.431 111.649 106.005 111.285C106.579 110.915 107.261 110.731 108.051 110.731C109.082 110.731 109.985 111.044 110.759 111.669L110.128 112.531C109.431 112.049 108.733 111.808 108.036 111.808C107.559 111.808 107.141 111.926 106.782 112.162C106.423 112.397 106.141 112.754 105.936 113.231C105.736 113.708 105.636 114.292 105.636 114.985C105.636 116.021 105.851 116.792 106.282 117.3C106.718 117.808 107.302 118.062 108.036 118.062ZM120.034 118.592C119.762 118.772 119.426 118.913 119.026 119.015C118.631 119.123 118.244 119.177 117.864 119.177C117.295 119.177 116.805 119.074 116.395 118.869C115.99 118.659 115.68 118.369 115.464 118C115.249 117.631 115.141 117.208 115.141 116.731V111.9H113.28V110.9H115.141V109.062L116.434 108.908V110.9H119.234L119.08 111.9H116.434V116.715C116.434 117.177 116.554 117.523 116.795 117.754C117.041 117.985 117.436 118.1 117.98 118.1C118.528 118.1 119.046 117.972 119.534 117.715L120.034 118.592ZM125.901 107.108C126.183 107.108 126.411 107.195 126.585 107.369C126.76 107.538 126.847 107.751 126.847 108.008C126.847 108.274 126.76 108.495 126.585 108.669C126.411 108.844 126.183 108.931 125.901 108.931C125.629 108.931 125.406 108.844 125.231 108.669C125.057 108.49 124.97 108.269 124.97 108.008C124.97 107.751 125.057 107.538 125.231 107.369C125.406 107.195 125.629 107.108 125.901 107.108ZM123.216 110.9H126.931V117.977H129.216V119H123.139V117.977H125.639V111.923H123.216V110.9ZM135.144 110.731C135.893 110.731 136.526 110.903 137.044 111.246C137.562 111.585 137.952 112.072 138.214 112.708C138.48 113.338 138.614 114.085 138.614 114.946C138.614 115.782 138.478 116.518 138.206 117.154C137.939 117.79 137.544 118.287 137.021 118.646C136.498 119 135.868 119.177 135.129 119.177C134.38 119.177 133.744 119.005 133.221 118.662C132.703 118.313 132.311 117.823 132.044 117.192C131.778 116.562 131.644 115.818 131.644 114.962C131.644 114.121 131.778 113.382 132.044 112.746C132.316 112.11 132.714 111.615 133.237 111.262C133.765 110.908 134.401 110.731 135.144 110.731ZM135.144 111.785C134.442 111.785 133.914 112.046 133.56 112.569C133.206 113.087 133.029 113.885 133.029 114.962C133.029 116.023 133.203 116.815 133.552 117.338C133.901 117.856 134.426 118.115 135.129 118.115C135.832 118.115 136.357 117.856 136.706 117.338C137.055 116.815 137.229 116.018 137.229 114.946C137.229 113.879 137.055 113.087 136.706 112.569C136.357 112.046 135.837 111.785 135.144 111.785ZM141.288 119V110.9H142.388L142.488 112.023C142.811 111.618 143.217 111.303 143.704 111.077C144.196 110.846 144.683 110.731 145.165 110.731C145.94 110.731 146.511 110.936 146.881 111.346C147.255 111.756 147.442 112.346 147.442 113.115V119H146.15V114.069C146.15 113.464 146.117 113.003 146.05 112.685C145.988 112.367 145.858 112.131 145.658 111.977C145.463 111.823 145.165 111.746 144.765 111.746C144.329 111.746 143.917 111.882 143.527 112.154C143.142 112.421 142.827 112.736 142.581 113.1V119H141.288ZM150.555 108.408H156.617V109.477H154.263V117.931H156.617V119H150.555V117.931H152.909V109.477H150.555V108.408ZM166.699 113.654C166.699 115.659 166.238 117.051 165.315 117.831C164.397 118.61 163.263 119 161.915 119H159.484V108.408H161.745C162.689 108.408 163.522 108.551 164.245 108.838C164.968 109.121 165.558 109.649 166.015 110.423C166.471 111.197 166.699 112.274 166.699 113.654ZM165.276 113.654C165.276 112.505 165.12 111.626 164.807 111.015C164.494 110.405 164.104 110 163.638 109.8C163.176 109.6 162.651 109.5 162.061 109.5H160.815V117.931H162.076C162.994 117.931 163.756 117.618 164.361 116.992C164.971 116.362 165.276 115.249 165.276 113.654Z" fill="white"/>
<path d="M100.546 35.1615C99.9201 35.1615 99.4304 35.2564 99.0765 35.4462C98.7227 35.6359 98.5663 35.9513 98.6073 36.3923L98.9304 39.5462C98.9458 39.6744 98.9535 39.8 98.9535 39.9231C98.9535 40.4256 98.8304 40.8128 98.5842 41.0846C98.3432 41.3513 97.9791 41.5282 97.4919 41.6154C97.9894 41.7026 98.356 41.8744 98.5919 42.1308C98.8329 42.3821 98.9535 42.7615 98.9535 43.2692C98.9535 43.3974 98.9458 43.5359 98.9304 43.6846L98.6073 46.8385C98.6022 46.8692 98.5996 46.9128 98.5996 46.9692C98.5996 47.7026 99.2483 48.0692 100.546 48.0692V49.0846C99.6176 49.0846 98.8611 48.9256 98.2765 48.6077C97.697 48.2949 97.4073 47.7615 97.4073 47.0077C97.4073 46.8692 97.4124 46.7615 97.4227 46.6846L97.7304 43.7615C97.7406 43.6897 97.7458 43.5872 97.7458 43.4538C97.7458 43.1513 97.6765 42.9051 97.5381 42.7154C97.3996 42.5256 97.1586 42.3821 96.815 42.2846C96.4765 42.1821 96.0073 42.1308 95.4073 42.1308V41.1C96.0073 41.1 96.4765 41.0513 96.815 40.9538C97.1586 40.8564 97.3996 40.7128 97.5381 40.5231C97.6765 40.3333 97.7458 40.0897 97.7458 39.7923C97.7458 39.659 97.7406 39.5564 97.7304 39.4846L97.4227 36.5462C97.4124 36.4692 97.4073 36.3615 97.4073 36.2231C97.4073 35.4692 97.697 34.9359 98.2765 34.6231C98.8611 34.3051 99.6176 34.1462 100.546 34.1462V35.1615ZM188.169 34.1462C189.098 34.1462 189.851 34.3051 190.431 34.6231C191.016 34.9359 191.308 35.4692 191.308 36.2231C191.308 36.3615 191.303 36.4692 191.292 36.5462L190.985 39.4846C190.975 39.5974 190.969 39.6821 190.969 39.7385C190.969 40.1949 191.149 40.5359 191.508 40.7615C191.867 40.9872 192.467 41.1 193.308 41.1V42.1308C192.472 42.1308 191.872 42.2462 191.508 42.4769C191.149 42.7026 190.969 43.0462 190.969 43.5077C190.969 43.5641 190.975 43.6487 190.985 43.7615L191.292 46.6846C191.303 46.7615 191.308 46.8692 191.308 47.0077C191.308 47.7615 191.016 48.2949 190.431 48.6077C189.851 48.9256 189.098 49.0846 188.169 49.0846V48.0692C189.539 48.0692 190.185 47.659 190.108 46.8385L189.785 43.6846C189.769 43.5359 189.762 43.3974 189.762 43.2692C189.762 42.7513 189.89 42.3692 190.146 42.1231C190.403 41.8769 190.818 41.7128 191.392 41.6308C190.833 41.5385 190.421 41.3564 190.154 41.0846C189.892 40.8128 189.762 40.4231 189.762 39.9154C189.762 39.7974 189.769 39.6744 189.785 39.5462L190.108 36.3923C190.113 36.3615 190.116 36.3179 190.116 36.2615C190.116 35.8667 189.939 35.5846 189.585 35.4154C189.236 35.2462 188.764 35.1615 188.169 35.1615V34.1462ZM254.384 39.6385H253.246L253 35.6385H254.623L254.384 39.6385ZM256.954 39.6385H255.815L255.584 35.6385H257.2L256.954 39.6385ZM264.921 46.0615C265.644 46.0615 266.346 45.8256 267.028 45.3538L267.659 46.2C267.305 46.4974 266.88 46.7359 266.382 46.9154C265.885 47.0897 265.398 47.1769 264.921 47.1769C264.126 47.1769 263.441 47.0051 262.867 46.6615C262.298 46.3179 261.864 45.8308 261.567 45.2C261.269 44.5692 261.121 43.8308 261.121 42.9846C261.121 42.1692 261.272 41.441 261.574 40.8C261.877 40.1538 262.315 39.6487 262.89 39.2846C263.464 38.9154 264.146 38.7308 264.936 38.7308C265.967 38.7308 266.869 39.0436 267.644 39.6692L267.013 40.5308C266.315 40.0487 265.618 39.8077 264.921 39.8077C264.444 39.8077 264.026 39.9256 263.667 40.1615C263.308 40.3974 263.026 40.7538 262.821 41.2308C262.621 41.7077 262.521 42.2923 262.521 42.9846C262.521 44.0205 262.736 44.7923 263.167 45.3C263.603 45.8077 264.187 46.0615 264.921 46.0615ZM276.288 45.2308C276.288 45.5487 276.339 45.7846 276.441 45.9385C276.544 46.0872 276.713 46.1974 276.949 46.2692L276.634 47.1769C275.854 47.0744 275.359 46.6949 275.149 46.0385C274.862 46.4128 274.498 46.6974 274.057 46.8923C273.621 47.0821 273.139 47.1769 272.611 47.1769C272.077 47.1769 271.613 47.0744 271.218 46.8692C270.823 46.6641 270.521 46.3744 270.311 46C270.1 45.6205 269.995 45.1795 269.995 44.6769C269.995 43.841 270.321 43.2 270.972 42.7538C271.623 42.3077 272.564 42.0846 273.795 42.0846H274.988V41.4077C274.988 40.8436 274.823 40.4359 274.495 40.1846C274.167 39.9282 273.688 39.8 273.057 39.8C272.447 39.8 271.744 39.9385 270.949 40.2154L270.611 39.2385C271.513 38.9 272.395 38.7308 273.257 38.7308C274.247 38.7308 274.998 38.9641 275.511 39.4308C276.029 39.8923 276.288 40.5308 276.288 41.3462V45.2308ZM272.941 46.1923C273.341 46.1923 273.721 46.0923 274.08 45.8923C274.444 45.6872 274.747 45.4051 274.988 45.0462V42.9615H273.818C272.962 42.9615 272.341 43.1077 271.957 43.4C271.572 43.6923 271.38 44.1128 271.38 44.6615C271.38 45.6821 271.9 46.1923 272.941 46.1923ZM283.378 46.0615C284.101 46.0615 284.803 45.8256 285.485 45.3538L286.116 46.2C285.762 46.4974 285.337 46.7359 284.839 46.9154C284.342 47.0897 283.855 47.1769 283.378 47.1769C282.583 47.1769 281.898 47.0051 281.324 46.6615C280.755 46.3179 280.321 45.8308 280.024 45.2C279.726 44.5692 279.578 43.8308 279.578 42.9846C279.578 42.1692 279.729 41.441 280.031 40.8C280.334 40.1538 280.772 39.6487 281.347 39.2846C281.921 38.9154 282.603 38.7308 283.393 38.7308C284.424 38.7308 285.326 39.0436 286.101 39.6692L285.47 40.5308C284.772 40.0487 284.075 39.8077 283.378 39.8077C282.901 39.8077 282.483 39.9256 282.124 40.1615C281.765 40.3974 281.483 40.7538 281.278 41.2308C281.078 41.7077 280.978 42.2923 280.978 42.9846C280.978 44.0205 281.193 44.7923 281.624 45.3C282.06 45.8077 282.644 46.0615 283.378 46.0615ZM290.237 40.0077C290.55 39.5974 290.934 39.2821 291.391 39.0615C291.852 38.841 292.329 38.7308 292.822 38.7308C293.596 38.7308 294.168 38.9359 294.537 39.3462C294.911 39.7564 295.098 40.3462 295.098 41.1154V47H293.806V41.1462C293.806 40.6641 293.693 40.3103 293.468 40.0846C293.242 39.859 292.888 39.7462 292.406 39.7462C291.98 39.7462 291.573 39.8821 291.183 40.1538C290.793 40.4205 290.478 40.7359 290.237 41.1V47H288.945V35.6538L290.237 35.5154V40.0077ZM299.188 43.4077C299.209 44.0128 299.327 44.5179 299.542 44.9231C299.758 45.3231 300.04 45.6205 300.388 45.8154C300.737 46.0051 301.127 46.1 301.558 46.1C301.958 46.1 302.324 46.041 302.658 45.9231C302.996 45.8051 303.35 45.6205 303.719 45.3692L304.327 46.2231C303.947 46.5205 303.512 46.7538 303.019 46.9231C302.532 47.0923 302.04 47.1769 301.542 47.1769C300.768 47.1769 300.101 47.0026 299.542 46.6538C298.983 46.3051 298.558 45.8128 298.265 45.1769C297.978 44.541 297.835 43.8026 297.835 42.9615C297.835 42.1462 297.981 41.4179 298.273 40.7769C298.565 40.1359 298.978 39.6359 299.512 39.2769C300.045 38.9128 300.665 38.7308 301.373 38.7308C302.05 38.7308 302.635 38.8897 303.127 39.2077C303.624 39.5256 304.004 39.9846 304.265 40.5846C304.532 41.1795 304.665 41.8846 304.665 42.7C304.665 42.9359 304.655 43.1718 304.635 43.4077H299.188ZM301.388 39.7923C300.763 39.7923 300.253 40.0128 299.858 40.4538C299.468 40.8897 299.247 41.541 299.196 42.4077H303.419C303.404 41.5564 303.217 40.9077 302.858 40.4615C302.499 40.0154 302.009 39.7923 301.388 39.7923ZM314.817 38.9L313.402 47H311.571L310.525 41.0538L309.386 47H307.602L306.125 38.9H307.448L308.479 46.2L309.771 39.9308H311.302L312.525 46.2L313.555 38.9H314.817ZM317.646 43.4077C317.666 44.0128 317.784 44.5179 317.999 44.9231C318.215 45.3231 318.497 45.6205 318.846 45.8154C319.194 46.0051 319.584 46.1 320.015 46.1C320.415 46.1 320.781 46.041 321.115 45.9231C321.453 45.8051 321.807 45.6205 322.176 45.3692L322.784 46.2231C322.404 46.5205 321.969 46.7538 321.476 46.9231C320.989 47.0923 320.497 47.1769 319.999 47.1769C319.225 47.1769 318.558 47.0026 317.999 46.6538C317.44 46.3051 317.015 45.8128 316.722 45.1769C316.435 44.541 316.292 43.8026 316.292 42.9615C316.292 42.1462 316.438 41.4179 316.73 40.7769C317.022 40.1359 317.435 39.6359 317.969 39.2769C318.502 38.9128 319.122 38.7308 319.83 38.7308C320.507 38.7308 321.092 38.8897 321.584 39.2077C322.081 39.5256 322.461 39.9846 322.722 40.5846C322.989 41.1795 323.122 41.8846 323.122 42.7C323.122 42.9359 323.112 43.1718 323.092 43.4077H317.646ZM319.846 39.7923C319.22 39.7923 318.71 40.0128 318.315 40.4538C317.925 40.8897 317.704 41.541 317.653 42.4077H321.876C321.861 41.5564 321.674 40.9077 321.315 40.4615C320.956 40.0154 320.466 39.7923 319.846 39.7923ZM331.659 45.2308C331.659 45.5487 331.71 45.7846 331.812 45.9385C331.915 46.0872 332.084 46.1974 332.32 46.2692L332.005 47.1769C331.225 47.0744 330.73 46.6949 330.52 46.0385C330.233 46.4128 329.869 46.6974 329.428 46.8923C328.992 47.0821 328.51 47.1769 327.982 47.1769C327.448 47.1769 326.984 47.0744 326.589 46.8692C326.195 46.6641 325.892 46.3744 325.682 46C325.471 45.6205 325.366 45.1795 325.366 44.6769C325.366 43.841 325.692 43.2 326.343 42.7538C326.995 42.3077 327.936 42.0846 329.166 42.0846H330.359V41.4077C330.359 40.8436 330.195 40.4359 329.866 40.1846C329.538 39.9282 329.059 39.8 328.428 39.8C327.818 39.8 327.115 39.9385 326.32 40.2154L325.982 39.2385C326.884 38.9 327.766 38.7308 328.628 38.7308C329.618 38.7308 330.369 38.9641 330.882 39.4308C331.4 39.8923 331.659 40.5308 331.659 41.3462V45.2308ZM328.312 46.1923C328.712 46.1923 329.092 46.0923 329.451 45.8923C329.815 45.6872 330.118 45.4051 330.359 45.0462V42.9615H329.189C328.333 42.9615 327.712 43.1077 327.328 43.4C326.943 43.6923 326.751 44.1128 326.751 44.6615C326.751 45.6821 327.271 46.1923 328.312 46.1923ZM340.503 38.9H341.841L338.895 47H337.395L334.472 38.9H335.841L338.187 45.8231L340.503 38.9ZM345.331 43.4077C345.352 44.0128 345.47 44.5179 345.685 44.9231C345.9 45.3231 346.182 45.6205 346.531 45.8154C346.88 46.0051 347.27 46.1 347.7 46.1C348.1 46.1 348.467 46.041 348.8 45.9231C349.139 45.8051 349.493 45.6205 349.862 45.3692L350.47 46.2231C350.09 46.5205 349.654 46.7538 349.162 46.9231C348.675 47.0923 348.182 47.1769 347.685 47.1769C346.911 47.1769 346.244 47.0026 345.685 46.6538C345.126 46.3051 344.7 45.8128 344.408 45.1769C344.121 44.541 343.977 43.8026 343.977 42.9615C343.977 42.1462 344.123 41.4179 344.416 40.7769C344.708 40.1359 345.121 39.6359 345.654 39.2769C346.187 38.9128 346.808 38.7308 347.516 38.7308C348.193 38.7308 348.777 38.8897 349.27 39.2077C349.767 39.5256 350.146 39.9846 350.408 40.5846C350.675 41.1795 350.808 41.8846 350.808 42.7C350.808 42.9359 350.798 43.1718 350.777 43.4077H345.331ZM347.531 39.7923C346.905 39.7923 346.395 40.0128 346 40.4538C345.611 40.8897 345.39 41.541 345.339 42.4077H349.562C349.546 41.5564 349.359 40.9077 349 40.4615C348.641 40.0154 348.152 39.7923 347.531 39.7923ZM355.898 39.6385H354.76L354.513 35.6385H356.137L355.898 39.6385ZM358.467 39.6385H357.329L357.098 35.6385H358.713L358.467 39.6385ZM365.827 39.1385C366.062 39.1385 366.275 39.1949 366.465 39.3077C366.655 39.4154 366.803 39.5641 366.911 39.7538C367.024 39.9436 367.08 40.1513 367.08 40.3769C367.08 40.6026 367.024 40.8128 366.911 41.0077C366.803 41.1974 366.655 41.3487 366.465 41.4615C366.275 41.5744 366.062 41.6308 365.827 41.6308C365.596 41.6308 365.386 41.5744 365.196 41.4615C365.011 41.3487 364.862 41.1974 364.75 41.0077C364.642 40.8128 364.588 40.6026 364.588 40.3769C364.588 40.1513 364.642 39.9436 364.75 39.7538C364.862 39.5641 365.011 39.4154 365.196 39.3077C365.386 39.1949 365.596 39.1385 365.827 39.1385ZM365.827 44.4538C366.062 44.4538 366.275 44.5103 366.465 44.6231C366.655 44.7308 366.803 44.8795 366.911 45.0692C367.024 45.2538 367.08 45.459 367.08 45.6846C367.08 45.8846 367.057 46.0795 367.011 46.2692C366.965 46.459 366.886 46.6718 366.773 46.9077L365.527 49.7692H364.357L365.096 46.7154C364.937 46.6077 364.811 46.4641 364.719 46.2846C364.632 46.1 364.588 45.9026 364.588 45.6923C364.588 45.4667 364.642 45.259 364.75 45.0692C364.862 44.8795 365.011 44.7308 365.196 44.6231C365.386 44.5103 365.596 44.4538 365.827 44.4538ZM132.137 76.2H138.121V77.3154H132.137V76.2ZM132.137 79.1154H138.121V80.2385H132.137V79.1154ZM272.211 77.6154C272.211 78.6615 272.329 79.5744 272.564 80.3538C272.806 81.1282 273.159 81.8308 273.626 82.4615C274.098 83.0923 274.723 83.7538 275.503 84.4462L274.826 85.1538C273.929 84.4256 273.195 83.7077 272.626 83C272.057 82.2974 271.618 81.5077 271.311 80.6308C271.008 79.7538 270.857 78.7487 270.857 77.6154C270.857 76.4821 271.008 75.4769 271.311 74.6C271.618 73.7231 272.057 72.9333 272.626 72.2308C273.195 71.5231 273.929 70.8051 274.826 70.0769L275.503 70.7846C274.713 71.4872 274.085 72.1513 273.618 72.7769C273.152 73.4026 272.8 74.1026 272.564 74.8769C272.329 75.6513 272.211 76.5641 272.211 77.6154ZM172.043 98.4692C172.279 98.4692 172.492 98.5256 172.682 98.6385C172.871 98.7462 173.02 98.8949 173.128 99.0846C173.235 99.2692 173.289 99.4744 173.289 99.7C173.289 99.8897 173.266 100.079 173.22 100.269C173.174 100.459 173.097 100.672 172.989 100.908L171.743 103.762H170.574L171.312 100.723C171.159 100.61 171.035 100.464 170.943 100.285C170.856 100.1 170.812 99.9051 170.812 99.7C170.812 99.4744 170.866 99.2692 170.974 99.0846C171.082 98.8949 171.228 98.7462 171.412 98.6385C171.602 98.5256 171.812 98.4692 172.043 98.4692ZM172.043 116.469C172.279 116.469 172.492 116.526 172.682 116.638C172.871 116.746 173.02 116.895 173.128 117.085C173.235 117.269 173.289 117.474 173.289 117.7C173.289 117.89 173.266 118.079 173.22 118.269C173.174 118.459 173.097 118.672 172.989 118.908L171.743 121.762H170.574L171.312 118.723C171.159 118.61 171.035 118.464 170.943 118.285C170.856 118.1 170.812 117.905 170.812 117.7C170.812 117.474 170.866 117.269 170.974 117.085C171.082 116.895 171.228 116.746 171.412 116.638C171.602 116.526 171.812 116.469 172.043 116.469ZM34.9615 131.615C34.9615 130.564 34.8436 129.651 34.6077 128.877C34.3718 128.103 34.0205 127.403 33.5538 126.777C33.0872 126.151 32.459 125.487 31.6692 124.785L32.3462 124.077C33.2436 124.805 33.9769 125.523 34.5462 126.231C35.1154 126.933 35.5513 127.723 35.8538 128.6C36.1615 129.477 36.3154 130.482 36.3154 131.615C36.3154 132.749 36.1615 133.754 35.8538 134.631C35.5513 135.508 35.1154 136.297 34.5462 137C33.9769 137.708 33.2436 138.426 32.3462 139.154L31.6692 138.446C32.4487 137.754 33.0718 137.092 33.5385 136.462C34.0103 135.831 34.3641 135.128 34.6 134.354C34.841 133.574 34.9615 132.662 34.9615 131.615ZM42.8285 129.138C43.0644 129.138 43.2772 129.195 43.467 129.308C43.6567 129.415 43.8054 129.564 43.9131 129.754C44.026 129.944 44.0824 130.151 44.0824 130.377C44.0824 130.603 44.026 130.813 43.9131 131.008C43.8054 131.197 43.6567 131.349 43.467 131.462C43.2772 131.574 43.0644 131.631 42.8285 131.631C42.5977 131.631 42.3875 131.574 42.1977 131.462C42.0131 131.349 41.8644 131.197 41.7516 131.008C41.6439 130.813 41.5901 130.603 41.5901 130.377C41.5901 130.151 41.6439 129.944 41.7516 129.754C41.8644 129.564 42.0131 129.415 42.1977 129.308C42.3875 129.195 42.5977 129.138 42.8285 129.138ZM42.8285 134.454C43.0644 134.454 43.2772 134.51 43.467 134.623C43.6567 134.731 43.8054 134.879 43.9131 135.069C44.026 135.254 44.0824 135.459 44.0824 135.685C44.0824 135.885 44.0593 136.079 44.0131 136.269C43.967 136.459 43.8875 136.672 43.7747 136.908L42.5285 139.769H41.3593L42.0977 136.715C41.9388 136.608 41.8131 136.464 41.7208 136.285C41.6336 136.1 41.5901 135.903 41.5901 135.692C41.5901 135.467 41.6439 135.259 41.7516 135.069C41.8644 134.879 42.0131 134.731 42.1977 134.623C42.3875 134.51 42.5977 134.454 42.8285 134.454Z" fill="#999999"/>
</svg>
