<svg width="750" height="250" viewBox="0 0 750 250" fill="none" xmlns="http://www.w3.org/2000/svg">
<path d="M269.385 222.031H261.754V220.338H269.385V222.031ZM272.329 216.185L276.813 221.185L272.329 226.185L270.959 225.008L272.429 223.4C272.736 223.067 273.005 222.797 273.236 222.592C273.467 222.382 273.711 222.195 273.967 222.031H269.075V220.338H273.967C273.711 220.174 273.467 219.99 273.236 219.785C273.005 219.574 272.736 219.303 272.429 218.969L270.959 217.362L272.329 216.185ZM293.539 226.015C293.191 227.056 292.68 227.854 292.009 228.408C291.342 228.967 290.439 229.285 289.301 229.362L289.047 227.892C289.586 227.815 290.019 227.7 290.347 227.546C290.675 227.397 290.937 227.2 291.132 226.954C291.332 226.713 291.509 226.395 291.662 226H290.97L288.301 217.854H290.447L292.293 224.646L294.216 217.854H296.301L293.539 226.015ZM304.653 223.854C304.653 224.156 304.696 224.382 304.783 224.531C304.876 224.674 305.027 224.782 305.237 224.854L304.799 226.215C304.347 226.169 303.97 226.059 303.668 225.885C303.37 225.705 303.142 225.449 302.983 225.115C302.686 225.479 302.304 225.756 301.837 225.946C301.37 226.136 300.873 226.231 300.345 226.231C299.801 226.231 299.324 226.126 298.914 225.915C298.504 225.7 298.188 225.4 297.968 225.015C297.747 224.631 297.637 224.187 297.637 223.685C297.637 223.11 297.788 222.621 298.091 222.215C298.394 221.81 298.837 221.503 299.422 221.292C300.006 221.082 300.714 220.977 301.545 220.977H302.683V220.538C302.683 220.067 302.537 219.721 302.245 219.5C301.953 219.274 301.522 219.162 300.953 219.162C300.676 219.162 300.34 219.2 299.945 219.277C299.55 219.349 299.155 219.451 298.76 219.585L298.276 218.192C298.773 218.008 299.283 217.867 299.806 217.769C300.335 217.672 300.824 217.623 301.276 217.623C302.399 217.623 303.242 217.864 303.806 218.346C304.37 218.823 304.653 219.51 304.653 220.408V223.854ZM301.006 224.762C301.324 224.762 301.637 224.674 301.945 224.5C302.258 224.321 302.504 224.077 302.683 223.769V222.185H301.883C301.145 222.185 300.604 222.303 300.26 222.538C299.917 222.769 299.745 223.113 299.745 223.569C299.745 223.954 299.853 224.249 300.068 224.454C300.283 224.659 300.596 224.762 301.006 224.762ZM313.35 217.631C313.596 217.631 313.82 217.651 314.02 217.692C314.225 217.728 314.427 217.782 314.627 217.854L314.266 221.031H312.912V219.438C312.394 219.479 311.94 219.713 311.55 220.138C311.166 220.564 310.861 221.141 310.635 221.869V224.592H312.258V226H307.458V224.592H308.604V219.254H307.458V217.854H310.15L310.527 219.723C310.83 219.021 311.207 218.497 311.658 218.154C312.114 217.805 312.678 217.631 313.35 217.631ZM316.61 226V217.854H318.379L318.525 218.862C318.874 218.451 319.266 218.144 319.702 217.938C320.138 217.728 320.607 217.623 321.11 217.623C321.838 217.623 322.394 217.833 322.779 218.254C323.169 218.674 323.363 219.269 323.363 220.038V226H321.333V220.831C321.333 220.4 321.304 220.067 321.248 219.831C321.197 219.59 321.099 219.415 320.956 219.308C320.817 219.195 320.612 219.138 320.34 219.138C319.745 219.138 319.179 219.5 318.64 220.223V226H316.61ZM341.567 223.854C341.567 224.156 341.61 224.382 341.697 224.531C341.79 224.674 341.941 224.782 342.151 224.854L341.713 226.215C341.261 226.169 340.885 226.059 340.582 225.885C340.285 225.705 340.056 225.449 339.897 225.115C339.6 225.479 339.218 225.756 338.751 225.946C338.285 226.136 337.787 226.231 337.259 226.231C336.715 226.231 336.238 226.126 335.828 225.915C335.418 225.7 335.102 225.4 334.882 225.015C334.661 224.631 334.551 224.187 334.551 223.685C334.551 223.11 334.702 222.621 335.005 222.215C335.308 221.81 335.751 221.503 336.336 221.292C336.92 221.082 337.628 220.977 338.459 220.977H339.597V220.538C339.597 220.067 339.451 219.721 339.159 219.5C338.867 219.274 338.436 219.162 337.867 219.162C337.59 219.162 337.254 219.2 336.859 219.277C336.464 219.349 336.069 219.451 335.674 219.585L335.19 218.192C335.687 218.008 336.197 217.867 336.72 217.769C337.249 217.672 337.738 217.623 338.19 217.623C339.313 217.623 340.156 217.864 340.72 218.346C341.285 218.823 341.567 219.51 341.567 220.408V223.854ZM337.92 224.762C338.238 224.762 338.551 224.674 338.859 224.5C339.172 224.321 339.418 224.077 339.597 223.769V222.185H338.797C338.059 222.185 337.518 222.303 337.174 222.538C336.831 222.769 336.659 223.113 336.659 223.569C336.659 223.954 336.767 224.249 336.982 224.454C337.197 224.659 337.51 224.762 337.92 224.762ZM349.018 214.385L351.049 214.6V226H349.249L349.126 225.038C348.859 225.413 348.534 225.705 348.149 225.915C347.769 226.126 347.339 226.231 346.857 226.231C345.857 226.231 345.1 225.846 344.587 225.077C344.08 224.308 343.826 223.254 343.826 221.915C343.826 221.085 343.954 220.346 344.21 219.7C344.472 219.049 344.846 218.541 345.334 218.177C345.821 217.808 346.393 217.623 347.049 217.623C347.839 217.623 348.495 217.897 349.018 218.446V214.385ZM347.595 219.138C347.067 219.138 346.659 219.367 346.372 219.823C346.085 220.279 345.941 220.979 345.941 221.923C345.941 222.908 346.069 223.618 346.326 224.054C346.587 224.49 346.962 224.708 347.449 224.708C348.049 224.708 348.572 224.354 349.018 223.646V219.938C348.623 219.405 348.149 219.138 347.595 219.138ZM358.247 214.385L360.277 214.6V226H358.477L358.354 225.038C358.088 225.413 357.762 225.705 357.377 225.915C356.998 226.126 356.567 226.231 356.085 226.231C355.085 226.231 354.329 225.846 353.816 225.077C353.308 224.308 353.054 223.254 353.054 221.915C353.054 221.085 353.183 220.346 353.439 219.7C353.701 219.049 354.075 218.541 354.562 218.177C355.049 217.808 355.621 217.623 356.277 217.623C357.067 217.623 357.724 217.897 358.247 218.446V214.385ZM356.824 219.138C356.295 219.138 355.888 219.367 355.601 219.823C355.313 220.279 355.17 220.979 355.17 221.923C355.17 222.908 355.298 223.618 355.554 224.054C355.816 224.49 356.19 224.708 356.677 224.708C357.277 224.708 357.801 224.354 358.247 223.646V219.938C357.852 219.405 357.377 219.138 356.824 219.138ZM376.081 224.6C376.419 224.6 376.742 224.538 377.05 224.415C377.363 224.292 377.681 224.118 378.004 223.892L378.927 225.192C378.558 225.51 378.117 225.764 377.604 225.954C377.091 226.138 376.555 226.231 375.996 226.231C375.155 226.231 374.427 226.054 373.811 225.7C373.201 225.346 372.732 224.849 372.404 224.208C372.081 223.567 371.919 222.823 371.919 221.977C371.919 221.136 372.083 220.387 372.411 219.731C372.745 219.069 373.222 218.554 373.842 218.185C374.463 217.81 375.191 217.623 376.027 217.623C376.606 217.623 377.132 217.705 377.604 217.869C378.081 218.033 378.519 218.282 378.919 218.615L378.019 219.862C377.388 219.431 376.745 219.215 376.088 219.215C375.458 219.215 374.96 219.441 374.596 219.892C374.237 220.344 374.058 221.038 374.058 221.977C374.058 222.895 374.237 223.562 374.596 223.977C374.96 224.392 375.455 224.6 376.081 224.6ZM387.709 223.854C387.709 224.156 387.753 224.382 387.84 224.531C387.932 224.674 388.084 224.782 388.294 224.854L387.855 226.215C387.404 226.169 387.027 226.059 386.725 225.885C386.427 225.705 386.199 225.449 386.04 225.115C385.742 225.479 385.36 225.756 384.894 225.946C384.427 226.136 383.93 226.231 383.401 226.231C382.858 226.231 382.381 226.126 381.971 225.915C381.56 225.7 381.245 225.4 381.025 225.015C380.804 224.631 380.694 224.187 380.694 223.685C380.694 223.11 380.845 222.621 381.148 222.215C381.45 221.81 381.894 221.503 382.478 221.292C383.063 221.082 383.771 220.977 384.601 220.977H385.74V220.538C385.74 220.067 385.594 219.721 385.301 219.5C385.009 219.274 384.578 219.162 384.009 219.162C383.732 219.162 383.396 219.2 383.001 219.277C382.607 219.349 382.212 219.451 381.817 219.585L381.332 218.192C381.83 218.008 382.34 217.867 382.863 217.769C383.391 217.672 383.881 217.623 384.332 217.623C385.455 217.623 386.299 217.864 386.863 218.346C387.427 218.823 387.709 219.51 387.709 220.408V223.854ZM384.063 224.762C384.381 224.762 384.694 224.674 385.001 224.5C385.314 224.321 385.56 224.077 385.74 223.769V222.185H384.94C384.201 222.185 383.66 222.303 383.317 222.538C382.973 222.769 382.801 223.113 382.801 223.569C382.801 223.954 382.909 224.249 383.125 224.454C383.34 224.659 383.653 224.762 384.063 224.762ZM394.538 224.6C394.876 224.6 395.199 224.538 395.507 224.415C395.82 224.292 396.138 224.118 396.461 223.892L397.384 225.192C397.015 225.51 396.574 225.764 396.061 225.954C395.548 226.138 395.012 226.231 394.453 226.231C393.612 226.231 392.884 226.054 392.268 225.7C391.658 225.346 391.189 224.849 390.861 224.208C390.538 223.567 390.376 222.823 390.376 221.977C390.376 221.136 390.54 220.387 390.868 219.731C391.202 219.069 391.679 218.554 392.299 218.185C392.92 217.81 393.648 217.623 394.484 217.623C395.063 217.623 395.589 217.705 396.061 217.869C396.538 218.033 396.976 218.282 397.376 218.615L396.476 219.862C395.845 219.431 395.202 219.215 394.545 219.215C393.915 219.215 393.417 219.441 393.053 219.892C392.694 220.344 392.515 221.038 392.515 221.977C392.515 222.895 392.694 223.562 393.053 223.977C393.417 224.392 393.912 224.6 394.538 224.6ZM401.697 218.769C402.025 218.39 402.4 218.105 402.82 217.915C403.246 217.721 403.694 217.623 404.166 217.623C404.905 217.623 405.464 217.833 405.843 218.254C406.228 218.669 406.42 219.264 406.42 220.038V226H404.389V220.492C404.389 220 404.312 219.651 404.159 219.446C404.01 219.241 403.753 219.138 403.389 219.138C403.082 219.138 402.784 219.241 402.497 219.446C402.21 219.651 401.943 219.923 401.697 220.262V226H399.666V214.608L401.697 214.408V218.769ZM410.625 222.546C410.682 223.279 410.897 223.823 411.272 224.177C411.651 224.531 412.136 224.708 412.725 224.708C413.1 224.708 413.459 224.649 413.802 224.531C414.146 224.413 414.492 224.238 414.841 224.008L415.687 225.169C415.292 225.503 414.831 225.764 414.302 225.954C413.774 226.138 413.205 226.231 412.595 226.231C411.728 226.231 410.99 226.051 410.379 225.692C409.774 225.333 409.315 224.831 409.002 224.185C408.695 223.538 408.541 222.79 408.541 221.938C408.541 221.123 408.692 220.39 408.995 219.738C409.302 219.082 409.743 218.567 410.318 218.192C410.897 217.813 411.579 217.623 412.364 217.623C413.102 217.623 413.746 217.787 414.295 218.115C414.843 218.444 415.267 218.918 415.564 219.538C415.861 220.154 416.01 220.887 416.01 221.738C416.01 222.031 415.997 222.3 415.972 222.546H410.625ZM412.372 219.054C411.864 219.054 411.454 219.236 411.141 219.6C410.833 219.959 410.654 220.508 410.602 221.246H414.033C414.023 220.544 413.877 220.003 413.595 219.623C413.318 219.244 412.91 219.054 412.372 219.054ZM425.985 217.854L424.739 226H422.354L421.531 220.346L420.654 226H418.316L417.016 217.854H418.923L419.631 224.738L420.639 218.885H422.508L423.431 224.738L424.154 217.854H425.985ZM429.083 222.546C429.139 223.279 429.354 223.823 429.729 224.177C430.108 224.531 430.593 224.708 431.183 224.708C431.557 224.708 431.916 224.649 432.259 224.531C432.603 224.413 432.949 224.238 433.298 224.008L434.144 225.169C433.749 225.503 433.288 225.764 432.759 225.954C432.231 226.138 431.662 226.231 431.052 226.231C430.185 226.231 429.447 226.051 428.836 225.692C428.231 225.333 427.772 224.831 427.459 224.185C427.152 223.538 426.998 222.79 426.998 221.938C426.998 221.123 427.149 220.39 427.452 219.738C427.759 219.082 428.2 218.567 428.775 218.192C429.354 217.813 430.036 217.623 430.821 217.623C431.559 217.623 432.203 217.787 432.752 218.115C433.3 218.444 433.724 218.918 434.021 219.538C434.318 220.154 434.467 220.887 434.467 221.738C434.467 222.031 434.454 222.3 434.429 222.546H429.083ZM430.829 219.054C430.321 219.054 429.911 219.236 429.598 219.6C429.29 219.959 429.111 220.508 429.059 221.246H432.49C432.48 220.544 432.334 220.003 432.052 219.623C431.775 219.244 431.367 219.054 430.829 219.054ZM443.08 223.854C443.08 224.156 443.124 224.382 443.211 224.531C443.303 224.674 443.455 224.782 443.665 224.854L443.226 226.215C442.775 226.169 442.398 226.059 442.096 225.885C441.798 225.705 441.57 225.449 441.411 225.115C441.114 225.479 440.732 225.756 440.265 225.946C439.798 226.136 439.301 226.231 438.773 226.231C438.229 226.231 437.752 226.126 437.342 225.915C436.932 225.7 436.616 225.4 436.396 225.015C436.175 224.631 436.065 224.187 436.065 223.685C436.065 223.11 436.216 222.621 436.519 222.215C436.821 221.81 437.265 221.503 437.849 221.292C438.434 221.082 439.142 220.977 439.973 220.977H441.111V220.538C441.111 220.067 440.965 219.721 440.673 219.5C440.38 219.274 439.949 219.162 439.38 219.162C439.103 219.162 438.767 219.2 438.373 219.277C437.978 219.349 437.583 219.451 437.188 219.585L436.703 218.192C437.201 218.008 437.711 217.867 438.234 217.769C438.762 217.672 439.252 217.623 439.703 217.623C440.826 217.623 441.67 217.864 442.234 218.346C442.798 218.823 443.08 219.51 443.08 220.408V223.854ZM439.434 224.762C439.752 224.762 440.065 224.674 440.373 224.5C440.685 224.321 440.932 224.077 441.111 223.769V222.185H440.311C439.573 222.185 439.032 222.303 438.688 222.538C438.344 222.769 438.173 223.113 438.173 223.569C438.173 223.954 438.28 224.249 438.496 224.454C438.711 224.659 439.024 224.762 439.434 224.762ZM451.116 217.854H453.186L450.386 226H448.001L445.186 217.854H447.37L449.224 224.377L451.116 217.854ZM456.768 222.546C456.824 223.279 457.04 223.823 457.414 224.177C457.794 224.531 458.278 224.708 458.868 224.708C459.242 224.708 459.601 224.649 459.945 224.531C460.289 224.413 460.635 224.238 460.983 224.008L461.83 225.169C461.435 225.503 460.973 225.764 460.445 225.954C459.917 226.138 459.348 226.231 458.737 226.231C457.871 226.231 457.132 226.051 456.522 225.692C455.917 225.333 455.458 224.831 455.145 224.185C454.837 223.538 454.683 222.79 454.683 221.938C454.683 221.123 454.835 220.39 455.137 219.738C455.445 219.082 455.886 218.567 456.46 218.192C457.04 217.813 457.722 217.623 458.507 217.623C459.245 217.623 459.889 217.787 460.437 218.115C460.986 218.444 461.409 218.918 461.707 219.538C462.004 220.154 462.153 220.887 462.153 221.738C462.153 222.031 462.14 222.3 462.114 222.546H456.768ZM458.514 219.054C458.007 219.054 457.596 219.236 457.283 219.6C456.976 219.959 456.796 220.508 456.745 221.246H460.176C460.165 220.544 460.019 220.003 459.737 219.623C459.46 219.244 459.053 219.054 458.514 219.054ZM481.64 220.338V222.031H476.748C477.005 222.195 477.248 222.382 477.479 222.592C477.71 222.797 477.979 223.067 478.287 223.4L479.756 225.008L478.387 226.185L473.902 221.185L478.387 216.185L479.756 217.362L478.287 218.969C477.979 219.303 477.71 219.574 477.479 219.785C477.248 219.99 477.005 220.174 476.748 220.338H481.64ZM488.961 220.338V222.031H481.331V220.338H488.961Z" fill="#828282"/>
<path d="M240.359 85.5641C242.803 85.5641 244.923 85.8889 246.718 86.5385C248.53 87.1709 250.214 88.1368 251.769 89.4359L247.641 94.4103C245.504 92.6667 243.145 91.7949 240.564 91.7949C239.009 91.7949 237.615 92.2308 236.385 93.1026C235.171 93.9744 234.205 95.3333 233.487 97.1795C232.786 99.0256 232.436 101.35 232.436 104.154C232.436 108.274 233.179 111.342 234.667 113.359C236.154 115.376 238.171 116.385 240.718 116.385C241.829 116.385 242.829 116.239 243.718 115.949C244.624 115.658 245.427 115.299 246.128 114.872C246.829 114.427 247.59 113.872 248.41 113.205L252.231 118.077C249 121.274 245.009 122.872 240.256 122.872C237.009 122.872 234.137 122.154 231.641 120.718C229.162 119.282 227.222 117.162 225.821 114.359C224.436 111.538 223.744 108.137 223.744 104.154C223.744 100.291 224.462 96.9573 225.897 94.1538C227.35 91.3504 229.333 89.2222 231.846 87.7692C234.359 86.2991 237.197 85.5641 240.359 85.5641ZM279.275 114.154C279.275 115.162 279.411 115.906 279.685 116.385C279.958 116.846 280.42 117.197 281.069 117.436L279.403 122.769C277.745 122.615 276.369 122.256 275.275 121.692C274.198 121.111 273.351 120.274 272.736 119.179C271.728 120.393 270.42 121.316 268.813 121.949C267.223 122.564 265.539 122.872 263.762 122.872C261.916 122.872 260.292 122.513 258.89 121.795C257.505 121.06 256.437 120.051 255.685 118.769C254.933 117.47 254.557 115.983 254.557 114.308C254.557 112.359 255.078 110.692 256.121 109.308C257.163 107.923 258.676 106.872 260.659 106.154C262.642 105.419 265.027 105.051 267.813 105.051H271.48V104.026C271.48 101.239 269.685 99.8462 266.095 99.8462C265.189 99.8462 264.044 99.9744 262.659 100.231C261.292 100.487 259.95 100.838 258.634 101.282L256.762 95.8974C258.471 95.2479 260.275 94.7521 262.172 94.4103C264.069 94.0513 265.804 93.8718 267.377 93.8718C271.377 93.8718 274.36 94.6838 276.326 96.3077C278.292 97.9316 279.275 100.325 279.275 103.487V114.154ZM266.557 117.077C267.48 117.077 268.411 116.812 269.351 116.282C270.292 115.735 271.001 115 271.48 114.077V109.667H269.48C267.257 109.667 265.608 110.009 264.531 110.692C263.454 111.376 262.916 112.393 262.916 113.744C262.916 114.803 263.232 115.624 263.864 116.205C264.514 116.786 265.411 117.077 266.557 117.077ZM301.549 116.487C302.592 116.487 303.592 116.291 304.549 115.897C305.523 115.487 306.549 114.906 307.626 114.154L311.241 119.282C309.959 120.376 308.455 121.248 306.729 121.897C305.002 122.547 303.13 122.872 301.113 122.872C298.224 122.872 295.72 122.274 293.6 121.077C291.481 119.88 289.857 118.205 288.729 116.051C287.6 113.897 287.036 111.402 287.036 108.564C287.036 105.726 287.617 103.197 288.78 100.974C289.942 98.7521 291.592 97.0171 293.729 95.7692C295.882 94.5043 298.395 93.8718 301.267 93.8718C303.301 93.8718 305.122 94.1538 306.729 94.7179C308.352 95.2821 309.857 96.1368 311.241 97.2821L307.729 102.154C305.763 100.786 303.72 100.103 301.6 100.103C299.669 100.103 298.164 100.778 297.088 102.128C296.028 103.479 295.498 105.624 295.498 108.564C295.498 111.402 296.036 113.436 297.113 114.667C298.19 115.88 299.669 116.487 301.549 116.487ZM325.977 97.4615C328.251 95.0684 330.918 93.8718 333.977 93.8718C336.388 93.8718 338.234 94.5812 339.516 96C340.815 97.4017 341.465 99.4017 341.465 102V122H333.362V104.256C333.362 103.145 333.277 102.274 333.106 101.641C332.952 101.009 332.687 100.556 332.311 100.282C331.935 99.9915 331.413 99.8462 330.747 99.8462C329.926 99.8462 329.131 100.128 328.362 100.692C327.593 101.256 326.798 102.077 325.977 103.154V122H317.875V83.9487L325.977 83.1538V97.4615ZM355.662 110.744C355.919 112.88 356.62 114.453 357.765 115.462C358.91 116.47 360.389 116.974 362.201 116.974C364.508 116.974 366.833 116.222 369.175 114.718L372.431 119.128C371.081 120.291 369.483 121.205 367.637 121.872C365.808 122.538 363.782 122.872 361.56 122.872C358.517 122.872 355.936 122.265 353.816 121.051C351.696 119.838 350.098 118.145 349.021 115.974C347.944 113.786 347.406 111.265 347.406 108.41C347.406 105.692 347.927 103.231 348.97 101.026C350.013 98.8205 351.534 97.0769 353.534 95.7949C355.534 94.5128 357.919 93.8718 360.688 93.8718C363.269 93.8718 365.517 94.4274 367.431 95.5385C369.363 96.6496 370.85 98.2564 371.893 100.359C372.936 102.462 373.457 104.957 373.457 107.846C373.457 108.957 373.406 109.923 373.303 110.744H355.662ZM360.688 99.3077C359.201 99.3077 358.013 99.8462 357.124 100.923C356.252 102 355.731 103.65 355.56 105.872H365.56C365.508 101.496 363.884 99.3077 360.688 99.3077ZM399.424 86.4615H406.732L402.578 122H393.834L391.244 96.5897L388.398 122H379.501L375.655 86.4615H383.527L384.732 114.821L387.68 90.5641H394.911L397.655 114.821L399.424 86.4615ZM417.186 110.744C417.442 112.88 418.143 114.453 419.288 115.462C420.434 116.47 421.912 116.974 423.724 116.974C426.032 116.974 428.357 116.222 430.699 114.718L433.955 119.128C432.604 120.291 431.006 121.205 429.16 121.872C427.331 122.538 425.305 122.872 423.083 122.872C420.04 122.872 417.459 122.265 415.34 121.051C413.22 119.838 411.622 118.145 410.545 115.974C409.468 113.786 408.929 111.265 408.929 108.41C408.929 105.692 409.451 103.231 410.493 101.026C411.536 98.8205 413.057 97.0769 415.057 95.7949C417.057 94.5128 419.442 93.8718 422.211 93.8718C424.793 93.8718 427.04 94.4274 428.955 95.5385C430.887 96.6496 432.374 98.2564 433.416 100.359C434.459 102.462 434.981 104.957 434.981 107.846C434.981 108.957 434.929 109.923 434.827 110.744H417.186ZM422.211 99.3077C420.724 99.3077 419.536 99.8462 418.647 100.923C417.775 102 417.254 103.65 417.083 105.872H427.083C427.032 101.496 425.408 99.3077 422.211 99.3077ZM463.845 114.154C463.845 115.162 463.982 115.906 464.255 116.385C464.529 116.846 464.99 117.197 465.64 117.436L463.973 122.769C462.315 122.615 460.939 122.256 459.845 121.692C458.768 121.111 457.922 120.274 457.306 119.179C456.298 120.393 454.99 121.316 453.383 121.949C451.794 122.564 450.11 122.872 448.332 122.872C446.486 122.872 444.862 122.513 443.46 121.795C442.076 121.06 441.007 120.051 440.255 118.769C439.503 117.47 439.127 115.983 439.127 114.308C439.127 112.359 439.648 110.692 440.691 109.308C441.734 107.923 443.247 106.872 445.229 106.154C447.212 105.419 449.597 105.051 452.383 105.051H456.05V104.026C456.05 101.239 454.255 99.8462 450.665 99.8462C449.759 99.8462 448.614 99.9744 447.229 100.231C445.862 100.487 444.52 100.838 443.204 101.282L441.332 95.8974C443.041 95.2479 444.845 94.7521 446.742 94.4103C448.64 94.0513 450.375 93.8718 451.947 93.8718C455.947 93.8718 458.93 94.6838 460.896 96.3077C462.862 97.9316 463.845 100.325 463.845 103.487V114.154ZM451.127 117.077C452.05 117.077 452.982 116.812 453.922 116.282C454.862 115.735 455.571 115 456.05 114.077V109.667H454.05C451.828 109.667 450.178 110.009 449.101 110.692C448.024 111.376 447.486 112.393 447.486 113.744C447.486 114.803 447.802 115.624 448.435 116.205C449.084 116.786 449.982 117.077 451.127 117.077ZM489.171 94.7692H497.376L488.299 122H478.76L469.581 94.7692H478.325L483.632 115.795L489.171 94.7692ZM509.471 110.744C509.727 112.88 510.428 114.453 511.573 115.462C512.719 116.47 514.197 116.974 516.009 116.974C518.317 116.974 520.642 116.222 522.984 114.718L526.24 119.128C524.89 120.291 523.291 121.205 521.445 121.872C519.616 122.538 517.591 122.872 515.368 122.872C512.326 122.872 509.744 122.265 507.625 121.051C505.505 119.838 503.907 118.145 502.83 115.974C501.753 113.786 501.214 111.265 501.214 108.41C501.214 105.692 501.736 103.231 502.779 101.026C503.821 98.8205 505.343 97.0769 507.343 95.7949C509.343 94.5128 511.727 93.8718 514.496 93.8718C517.078 93.8718 519.326 94.4274 521.24 95.5385C523.172 96.6496 524.659 98.2564 525.702 100.359C526.744 102.462 527.266 104.957 527.266 107.846C527.266 108.957 527.214 109.923 527.112 110.744H509.471ZM514.496 99.3077C513.009 99.3077 511.821 99.8462 510.932 100.923C510.061 102 509.539 103.65 509.368 105.872H519.368C519.317 101.496 517.693 99.3077 514.496 99.3077Z" fill="black"/>
<path d="M210.65 161L209.025 156.7H200.725L199.1 161H197.25L203.975 143.5H205.775L212.5 161H210.65ZM201.35 155.05H208.4L204.875 145.675L201.35 155.05ZM216.147 150.575C216.914 149.058 218.23 148.3 220.097 148.3V149.9C218.964 149.9 218.022 150.233 217.272 150.9C216.522 151.567 216.147 152.617 216.147 154.05V161H214.497V148.5H216.147V150.575ZM237.408 148.5H239.108L235.258 161H233.458L230.233 150.925L227.008 161H225.208L221.358 148.5H223.058L226.133 158.875L229.408 148.5H231.058L234.333 158.875L237.408 148.5ZM246.883 148.2C248.733 148.2 250.225 148.858 251.358 150.175C252.508 151.475 253.083 153.017 253.083 154.8C253.083 154.983 253.067 155.242 253.033 155.575H242.058C242.225 156.842 242.758 157.85 243.658 158.6C244.575 159.333 245.7 159.7 247.033 159.7C247.983 159.7 248.8 159.508 249.483 159.125C250.183 158.725 250.708 158.208 251.058 157.575L252.508 158.425C251.958 159.308 251.208 160.008 250.258 160.525C249.308 161.042 248.225 161.3 247.008 161.3C245.042 161.3 243.442 160.683 242.208 159.45C240.975 158.217 240.358 156.65 240.358 154.75C240.358 152.883 240.967 151.325 242.183 150.075C243.4 148.825 244.967 148.2 246.883 148.2ZM246.883 149.8C245.583 149.8 244.492 150.192 243.608 150.975C242.742 151.742 242.225 152.742 242.058 153.975H251.383C251.217 152.658 250.708 151.633 249.858 150.9C249.008 150.167 248.017 149.8 246.883 149.8ZM266.458 148.5H268.108V161H266.458V158.55C265.308 160.383 263.625 161.3 261.408 161.3C259.625 161.3 258.1 160.667 256.833 159.4C255.583 158.133 254.958 156.583 254.958 154.75C254.958 152.917 255.583 151.367 256.833 150.1C258.1 148.833 259.625 148.2 261.408 148.2C263.625 148.2 265.308 149.117 266.458 150.95V148.5ZM258.033 158.275C258.983 159.225 260.15 159.7 261.533 159.7C262.916 159.7 264.083 159.225 265.033 158.275C265.983 157.308 266.458 156.133 266.458 154.75C266.458 153.367 265.983 152.2 265.033 151.25C264.083 150.283 262.916 149.8 261.533 149.8C260.15 149.8 258.983 150.283 258.033 151.25C257.083 152.2 256.608 153.367 256.608 154.75C256.608 156.133 257.083 157.308 258.033 158.275ZM280.602 148.5H282.352L277.227 161H275.227L270.102 148.5H271.852L276.227 159.275L280.602 148.5ZM289.632 148.2C291.482 148.2 292.974 148.858 294.107 150.175C295.257 151.475 295.832 153.017 295.832 154.8C295.832 154.983 295.816 155.242 295.782 155.575H284.807C284.974 156.842 285.507 157.85 286.407 158.6C287.324 159.333 288.449 159.7 289.782 159.7C290.732 159.7 291.549 159.508 292.232 159.125C292.932 158.725 293.457 158.208 293.807 157.575L295.257 158.425C294.707 159.308 293.957 160.008 293.007 160.525C292.057 161.042 290.974 161.3 289.757 161.3C287.791 161.3 286.191 160.683 284.957 159.45C283.724 158.217 283.107 156.65 283.107 154.75C283.107 152.883 283.716 151.325 284.932 150.075C286.149 148.825 287.716 148.2 289.632 148.2ZM289.632 149.8C288.332 149.8 287.241 150.192 286.357 150.975C285.491 151.742 284.974 152.742 284.807 153.975H294.132C293.966 152.658 293.457 151.633 292.607 150.9C291.757 150.167 290.766 149.8 289.632 149.8Z" fill="#A76C6E"/>
<path d="M310.532 161.3C308.649 161.3 307.082 160.675 305.832 159.425C304.582 158.158 303.957 156.6 303.957 154.75C303.957 152.9 304.582 151.35 305.832 150.1C307.082 148.833 308.649 148.2 310.532 148.2C311.765 148.2 312.874 148.5 313.857 149.1C314.84 149.683 315.557 150.475 316.007 151.475L314.657 152.25C314.324 151.5 313.782 150.908 313.032 150.475C312.299 150.025 311.465 149.8 310.532 149.8C309.149 149.8 307.982 150.283 307.032 151.25C306.082 152.2 305.607 153.367 305.607 154.75C305.607 156.133 306.082 157.308 307.032 158.275C307.982 159.225 309.149 159.7 310.532 159.7C311.465 159.7 312.299 159.483 313.032 159.05C313.765 158.6 314.34 158 314.757 157.25L316.132 158.05C315.615 159.05 314.857 159.842 313.857 160.425C312.857 161.008 311.749 161.3 310.532 161.3ZM329.129 148.5H330.779V161H329.129V158.55C327.979 160.383 326.296 161.3 324.079 161.3C322.296 161.3 320.771 160.667 319.504 159.4C318.254 158.133 317.629 156.583 317.629 154.75C317.629 152.917 318.254 151.367 319.504 150.1C320.771 148.833 322.296 148.2 324.079 148.2C326.296 148.2 327.979 149.117 329.129 150.95V148.5ZM320.704 158.275C321.654 159.225 322.821 159.7 324.204 159.7C325.587 159.7 326.754 159.225 327.704 158.275C328.654 157.308 329.129 156.133 329.129 154.75C329.129 153.367 328.654 152.2 327.704 151.25C326.754 150.283 325.587 149.8 324.204 149.8C322.821 149.8 321.654 150.283 320.704 151.25C319.754 152.2 319.279 153.367 319.279 154.75C319.279 156.133 319.754 157.308 320.704 158.275ZM340.097 161.3C338.214 161.3 336.647 160.675 335.397 159.425C334.147 158.158 333.522 156.6 333.522 154.75C333.522 152.9 334.147 151.35 335.397 150.1C336.647 148.833 338.214 148.2 340.097 148.2C341.331 148.2 342.439 148.5 343.422 149.1C344.406 149.683 345.122 150.475 345.572 151.475L344.222 152.25C343.889 151.5 343.347 150.908 342.597 150.475C341.864 150.025 341.031 149.8 340.097 149.8C338.714 149.8 337.547 150.283 336.597 151.25C335.647 152.2 335.172 153.367 335.172 154.75C335.172 156.133 335.647 157.308 336.597 158.275C337.547 159.225 338.714 159.7 340.097 159.7C341.031 159.7 341.864 159.483 342.597 159.05C343.331 158.6 343.906 158 344.322 157.25L345.697 158.05C345.181 159.05 344.422 159.842 343.422 160.425C342.422 161.008 341.314 161.3 340.097 161.3ZM353.916 148.2C355.433 148.2 356.625 148.667 357.491 149.6C358.375 150.517 358.816 151.758 358.816 153.325V161H357.166V153.325C357.166 152.208 356.866 151.342 356.266 150.725C355.683 150.108 354.85 149.8 353.766 149.8C352.566 149.8 351.591 150.183 350.841 150.95C350.091 151.7 349.716 152.867 349.716 154.45V161H348.066V143.5H349.716V150.45C350.65 148.95 352.05 148.2 353.916 148.2ZM363.682 145.5C363.449 145.733 363.165 145.85 362.832 145.85C362.499 145.85 362.215 145.733 361.982 145.5C361.749 145.267 361.632 144.983 361.632 144.65C361.632 144.317 361.749 144.033 361.982 143.8C362.215 143.567 362.499 143.45 362.832 143.45C363.165 143.45 363.449 143.567 363.682 143.8C363.915 144.033 364.032 144.317 364.032 144.65C364.032 144.983 363.915 145.267 363.682 145.5ZM362.007 161V148.5H363.657V161H362.007ZM373.008 148.2C374.525 148.2 375.717 148.667 376.583 149.6C377.467 150.517 377.908 151.758 377.908 153.325V161H376.258V153.325C376.258 152.208 375.958 151.342 375.358 150.725C374.775 150.108 373.942 149.8 372.858 149.8C371.658 149.8 370.683 150.183 369.933 150.95C369.183 151.7 368.808 152.867 368.808 154.45V161H367.158V148.5H368.808V150.45C369.742 148.95 371.142 148.2 373.008 148.2ZM391.849 148.5H393.499V160.5C393.499 162.3 392.882 163.717 391.649 164.75C390.415 165.783 388.94 166.3 387.224 166.3C384.29 166.3 382.315 165.283 381.299 163.25L382.749 162.425C383.499 163.942 384.99 164.7 387.224 164.7C388.657 164.7 389.782 164.317 390.599 163.55C391.432 162.8 391.849 161.783 391.849 160.5V158.55C390.699 160.383 389.015 161.3 386.799 161.3C385.015 161.3 383.49 160.667 382.224 159.4C380.974 158.133 380.349 156.583 380.349 154.75C380.349 152.917 380.974 151.367 382.224 150.1C383.49 148.833 385.015 148.2 386.799 148.2C389.015 148.2 390.699 149.117 391.849 150.95V148.5ZM383.424 158.275C384.374 159.225 385.54 159.7 386.924 159.7C388.307 159.7 389.474 159.225 390.424 158.275C391.374 157.308 391.849 156.133 391.849 154.75C391.849 153.367 391.374 152.2 390.424 151.25C389.474 150.283 388.307 149.8 386.924 149.8C385.54 149.8 384.374 150.283 383.424 151.25C382.474 152.2 381.999 153.367 381.999 154.75C381.999 156.133 382.474 157.308 383.424 158.275ZM416.567 148.2C417.967 148.2 419.092 148.65 419.942 149.55C420.809 150.45 421.242 151.667 421.242 153.2V161H419.592V153.2C419.592 152.117 419.309 151.283 418.742 150.7C418.192 150.1 417.459 149.8 416.542 149.8C415.509 149.8 414.667 150.15 414.017 150.85C413.384 151.533 413.067 152.608 413.067 154.075V161H411.417V153.2C411.417 152.1 411.151 151.258 410.617 150.675C410.101 150.092 409.392 149.8 408.492 149.8C407.492 149.8 406.642 150.15 405.942 150.85C405.242 151.55 404.892 152.625 404.892 154.075V161H403.242V148.5H404.892V150.325C405.792 148.908 407.067 148.2 408.717 148.2C410.517 148.2 411.784 148.958 412.517 150.475C413.417 148.958 414.767 148.2 416.567 148.2ZM435.184 148.5H436.834V161H435.184V158.55C434.034 160.383 432.35 161.3 430.134 161.3C428.35 161.3 426.825 160.667 425.559 159.4C424.309 158.133 423.684 156.583 423.684 154.75C423.684 152.917 424.309 151.367 425.559 150.1C426.825 148.833 428.35 148.2 430.134 148.2C432.35 148.2 434.034 149.117 435.184 150.95V148.5ZM426.759 158.275C427.709 159.225 428.875 159.7 430.259 159.7C431.642 159.7 432.809 159.225 433.759 158.275C434.709 157.308 435.184 156.133 435.184 154.75C435.184 153.367 434.709 152.2 433.759 151.25C432.809 150.283 431.642 149.8 430.259 149.8C428.875 149.8 427.709 150.283 426.759 151.25C425.809 152.2 425.334 153.367 425.334 154.75C425.334 156.133 425.809 157.308 426.759 158.275ZM451.077 143.5H452.727V161H451.077V158.55C449.927 160.383 448.244 161.3 446.027 161.3C444.244 161.3 442.719 160.667 441.452 159.4C440.202 158.133 439.577 156.583 439.577 154.75C439.577 152.917 440.202 151.367 441.452 150.1C442.719 148.833 444.244 148.2 446.027 148.2C448.244 148.2 449.927 149.117 451.077 150.95V143.5ZM442.652 158.275C443.602 159.225 444.769 159.7 446.152 159.7C447.535 159.7 448.702 159.225 449.652 158.275C450.602 157.308 451.077 156.133 451.077 154.75C451.077 153.367 450.602 152.2 449.652 151.25C448.702 150.283 447.535 149.8 446.152 149.8C444.769 149.8 443.602 150.283 442.652 151.25C441.702 152.2 441.227 153.367 441.227 154.75C441.227 156.133 441.702 157.308 442.652 158.275ZM461.996 148.2C463.846 148.2 465.337 148.858 466.471 150.175C467.621 151.475 468.196 153.017 468.196 154.8C468.196 154.983 468.179 155.242 468.146 155.575H457.171C457.337 156.842 457.871 157.85 458.771 158.6C459.687 159.333 460.812 159.7 462.146 159.7C463.096 159.7 463.912 159.508 464.596 159.125C465.296 158.725 465.821 158.208 466.171 157.575L467.621 158.425C467.071 159.308 466.321 160.008 465.371 160.525C464.421 161.042 463.337 161.3 462.121 161.3C460.154 161.3 458.554 160.683 457.321 159.45C456.087 158.217 455.471 156.65 455.471 154.75C455.471 152.883 456.079 151.325 457.296 150.075C458.512 148.825 460.079 148.2 461.996 148.2ZM461.996 149.8C460.696 149.8 459.604 150.192 458.721 150.975C457.854 151.742 457.337 152.742 457.171 153.975H466.496C466.329 152.658 465.821 151.633 464.971 150.9C464.121 150.167 463.129 149.8 461.996 149.8ZM478.37 151.775C478.37 152.342 478.62 152.792 479.12 153.125C479.62 153.458 480.229 153.717 480.945 153.9C481.662 154.083 482.379 154.292 483.095 154.525C483.812 154.742 484.42 155.117 484.92 155.65C485.42 156.167 485.67 156.85 485.67 157.7C485.67 158.767 485.245 159.633 484.395 160.3C483.562 160.967 482.479 161.3 481.145 161.3C479.945 161.3 478.92 161.033 478.07 160.5C477.237 159.967 476.654 159.275 476.32 158.425L477.72 157.6C477.954 158.25 478.37 158.767 478.97 159.15C479.587 159.517 480.312 159.7 481.145 159.7C481.962 159.7 482.645 159.542 483.195 159.225C483.745 158.892 484.02 158.383 484.02 157.7C484.02 157.133 483.77 156.683 483.27 156.35C482.77 156.017 482.162 155.758 481.445 155.575C480.729 155.392 480.012 155.192 479.295 154.975C478.579 154.742 477.97 154.367 477.47 153.85C476.97 153.317 476.72 152.625 476.72 151.775C476.72 150.758 477.12 149.908 477.92 149.225C478.737 148.542 479.762 148.2 480.995 148.2C482.012 148.2 482.904 148.433 483.67 148.9C484.437 149.35 485.004 149.967 485.37 150.75L483.995 151.55C483.512 150.383 482.512 149.8 480.995 149.8C480.279 149.8 479.662 149.975 479.145 150.325C478.629 150.658 478.37 151.142 478.37 151.775ZM489.976 145.5C489.742 145.733 489.459 145.85 489.126 145.85C488.792 145.85 488.509 145.733 488.276 145.5C488.042 145.267 487.926 144.983 487.926 144.65C487.926 144.317 488.042 144.033 488.276 143.8C488.509 143.567 488.792 143.45 489.126 143.45C489.459 143.45 489.742 143.567 489.976 143.8C490.209 144.033 490.326 144.317 490.326 144.65C490.326 144.983 490.209 145.267 489.976 145.5ZM488.301 161V148.5H489.951V161H488.301ZM506.777 148.2C508.177 148.2 509.302 148.65 510.152 149.55C511.019 150.45 511.452 151.667 511.452 153.2V161H509.802V153.2C509.802 152.117 509.519 151.283 508.952 150.7C508.402 150.1 507.669 149.8 506.752 149.8C505.719 149.8 504.877 150.15 504.227 150.85C503.594 151.533 503.277 152.608 503.277 154.075V161H501.627V153.2C501.627 152.1 501.36 151.258 500.827 150.675C500.31 150.092 499.602 149.8 498.702 149.8C497.702 149.8 496.852 150.15 496.152 150.85C495.452 151.55 495.102 152.625 495.102 154.075V161H493.452V148.5H495.102V150.325C496.002 148.908 497.277 148.2 498.927 148.2C500.727 148.2 501.994 148.958 502.727 150.475C503.627 148.958 504.977 148.2 506.777 148.2ZM521.344 148.2C523.127 148.2 524.644 148.833 525.894 150.1C527.16 151.367 527.794 152.917 527.794 154.75C527.794 156.583 527.16 158.133 525.894 159.4C524.644 160.667 523.127 161.3 521.344 161.3C519.127 161.3 517.444 160.383 516.294 158.55V166H514.644V148.5H516.294V150.95C517.444 149.117 519.127 148.2 521.344 148.2ZM517.719 158.275C518.669 159.225 519.835 159.7 521.219 159.7C522.602 159.7 523.769 159.225 524.719 158.275C525.669 157.308 526.144 156.133 526.144 154.75C526.144 153.367 525.669 152.2 524.719 151.25C523.769 150.283 522.602 149.8 521.219 149.8C519.835 149.8 518.669 150.283 517.719 151.25C516.769 152.2 516.294 153.367 516.294 154.75C516.294 156.133 516.769 157.308 517.719 158.275ZM530.537 161V142.75H532.187V161H530.537ZM541.463 148.2C543.313 148.2 544.805 148.858 545.938 150.175C547.088 151.475 547.663 153.017 547.663 154.8C547.663 154.983 547.647 155.242 547.613 155.575H536.638C536.805 156.842 537.338 157.85 538.238 158.6C539.155 159.333 540.28 159.7 541.613 159.7C542.563 159.7 543.38 159.508 544.063 159.125C544.763 158.725 545.288 158.208 545.638 157.575L547.088 158.425C546.538 159.308 545.788 160.008 544.838 160.525C543.888 161.042 542.805 161.3 541.588 161.3C539.622 161.3 538.022 160.683 536.788 159.45C535.555 158.217 534.938 156.65 534.938 154.75C534.938 152.883 535.547 151.325 536.763 150.075C537.98 148.825 539.547 148.2 541.463 148.2ZM541.463 149.8C540.163 149.8 539.072 150.192 538.188 150.975C537.322 151.742 536.805 152.742 536.638 153.975H545.963C545.797 152.658 545.288 151.633 544.438 150.9C543.588 150.167 542.597 149.8 541.463 149.8ZM551.387 160.85C551.12 161.117 550.795 161.25 550.412 161.25C550.029 161.25 549.704 161.117 549.437 160.85C549.17 160.583 549.037 160.258 549.037 159.875C549.037 159.492 549.17 159.167 549.437 158.9C549.704 158.633 550.029 158.5 550.412 158.5C550.795 158.5 551.12 158.633 551.387 158.9C551.654 159.167 551.787 159.492 551.787 159.875C551.787 160.258 551.654 160.583 551.387 160.85Z" fill="black"/>
<path d="M197 166H296.707V167.25H197V166Z" fill="#A76C6E"/>
</svg>
